%TF.GenerationSoftware,KiCad,Pcbnew,10.0.5*%
%TF.CreationDate,2026-08-29T11:51:47+08:00*%
%TF.ProjectId,Therapia_EEG-HRV,54686572-6170-4696-915f-4545472d4852,rev?*%
%TF.SameCoordinates,Original*%
%TF.FileFunction,Legend,Bot*%
%TF.FilePolarity,Positive*%
%FSLAX46Y46*%
G04 Gerber Fmt 4.6, Leading zero omitted, Abs format (unit mm)*
G04 Created by KiCad (PCBNEW 10.0.5) date 2026-08-29 11:51:47*
%MOMM*%
%LPD*%
G01*
G04 APERTURE LIST*
G04 APERTURE END LIST*
%LPC*%
G36*
X123338546Y-120750588D02*
G01*
X123524288Y-120810940D01*
X123698302Y-120899604D01*
X123856303Y-121014399D01*
X123994401Y-121152497D01*
X124109196Y-121310498D01*
X124197860Y-121484512D01*
X124258212Y-121670254D01*
X124288763Y-121863150D01*
X124288763Y-122058450D01*
X124258212Y-122251346D01*
X124197860Y-122437088D01*
X124109196Y-122611102D01*
X123994401Y-122769103D01*
X123856303Y-122907201D01*
X123698302Y-123021996D01*
X123524288Y-123110660D01*
X123338546Y-123171012D01*
X123145650Y-123201563D01*
X122950350Y-123201563D01*
X122757454Y-123171012D01*
X122571712Y-123110660D01*
X122397698Y-123021996D01*
X122239697Y-122907201D01*
X122101599Y-122769103D01*
X121986804Y-122611102D01*
X121898140Y-122437088D01*
X121837788Y-122251346D01*
X121807237Y-122058450D01*
X121807237Y-121863150D01*
X121837788Y-121670254D01*
X121898140Y-121484512D01*
X121986804Y-121310498D01*
X122101599Y-121152497D01*
X122239697Y-121014399D01*
X122397698Y-120899604D01*
X122571712Y-120810940D01*
X122757454Y-120750588D01*
X122950350Y-120720037D01*
X123145650Y-120720037D01*
X123338546Y-120750588D01*
G37*
G36*
X177237346Y-120750588D02*
G01*
X177423088Y-120810940D01*
X177597102Y-120899604D01*
X177755103Y-121014399D01*
X177893201Y-121152497D01*
X178007996Y-121310498D01*
X178096660Y-121484512D01*
X178157012Y-121670254D01*
X178187563Y-121863150D01*
X178187563Y-122058450D01*
X178157012Y-122251346D01*
X178096660Y-122437088D01*
X178007996Y-122611102D01*
X177893201Y-122769103D01*
X177755103Y-122907201D01*
X177597102Y-123021996D01*
X177423088Y-123110660D01*
X177237346Y-123171012D01*
X177044450Y-123201563D01*
X176849150Y-123201563D01*
X176656254Y-123171012D01*
X176470512Y-123110660D01*
X176296498Y-123021996D01*
X176138497Y-122907201D01*
X176000399Y-122769103D01*
X175885604Y-122611102D01*
X175796940Y-122437088D01*
X175736588Y-122251346D01*
X175706037Y-122058450D01*
X175706037Y-121863150D01*
X175736588Y-121670254D01*
X175796940Y-121484512D01*
X175885604Y-121310498D01*
X176000399Y-121152497D01*
X176138497Y-121014399D01*
X176296498Y-120899604D01*
X176470512Y-120810940D01*
X176656254Y-120750588D01*
X176849150Y-120720037D01*
X177044450Y-120720037D01*
X177237346Y-120750588D01*
G37*
G36*
X124337440Y-114395567D02*
G01*
X124353921Y-114406579D01*
X124364933Y-114423060D01*
X124368800Y-114442500D01*
X124368800Y-115966500D01*
X124364933Y-115985940D01*
X124353921Y-116002421D01*
X124337440Y-116013433D01*
X124318000Y-116017300D01*
X122794000Y-116017300D01*
X122774560Y-116013433D01*
X122758079Y-116002421D01*
X122747067Y-115985940D01*
X122743200Y-115966500D01*
X122743200Y-114442500D01*
X122747067Y-114423060D01*
X122758079Y-114406579D01*
X122774560Y-114395567D01*
X122794000Y-114391700D01*
X124318000Y-114391700D01*
X124337440Y-114395567D01*
G37*
G36*
X180904790Y-114665334D02*
G01*
X181029917Y-114690223D01*
X181147785Y-114739046D01*
X181253863Y-114809925D01*
X181344075Y-114900137D01*
X181414954Y-115006215D01*
X181463777Y-115124083D01*
X181488666Y-115249210D01*
X181488666Y-115376790D01*
X181463777Y-115501917D01*
X181414954Y-115619785D01*
X181344075Y-115725863D01*
X181253863Y-115816075D01*
X181147785Y-115886954D01*
X181029917Y-115935777D01*
X180904790Y-115960666D01*
X180841000Y-115963800D01*
X180840385Y-115963800D01*
X180241615Y-115963800D01*
X180241000Y-115963800D01*
X180177210Y-115960666D01*
X180052083Y-115935777D01*
X179934215Y-115886954D01*
X179828137Y-115816075D01*
X179737925Y-115725863D01*
X179667046Y-115619785D01*
X179618223Y-115501917D01*
X179593334Y-115376790D01*
X179593334Y-115249210D01*
X179618223Y-115124083D01*
X179667046Y-115006215D01*
X179737925Y-114900137D01*
X179828137Y-114809925D01*
X179934215Y-114739046D01*
X180052083Y-114690223D01*
X180177210Y-114665334D01*
X180241000Y-114662200D01*
X180841000Y-114662200D01*
X180904790Y-114665334D01*
G37*
G36*
X176792837Y-114712320D02*
G01*
X176849257Y-114715091D01*
X176856210Y-114716474D01*
X176869420Y-114717340D01*
X176894942Y-114724178D01*
X176965365Y-114738187D01*
X176998599Y-114751953D01*
X177020916Y-114757933D01*
X177040926Y-114769486D01*
X177074160Y-114783252D01*
X177133845Y-114823132D01*
X177156744Y-114836353D01*
X177163011Y-114842620D01*
X177172062Y-114848668D01*
X177255331Y-114931937D01*
X177261378Y-114940987D01*
X177267647Y-114947256D01*
X177280869Y-114970157D01*
X177320747Y-115029839D01*
X177334511Y-115063069D01*
X177346067Y-115083084D01*
X177352047Y-115105404D01*
X177365812Y-115138634D01*
X177379818Y-115209047D01*
X177386660Y-115234580D01*
X177386660Y-115243440D01*
X177388785Y-115254123D01*
X177388785Y-115371876D01*
X177386660Y-115382558D01*
X177386660Y-115391420D01*
X177379817Y-115416955D01*
X177365812Y-115487365D01*
X177352048Y-115520592D01*
X177346067Y-115542916D01*
X177334510Y-115562932D01*
X177320747Y-115596160D01*
X177280873Y-115655834D01*
X177267647Y-115678744D01*
X177261376Y-115685014D01*
X177255331Y-115694062D01*
X177172062Y-115777331D01*
X177163014Y-115783376D01*
X177156744Y-115789647D01*
X177133834Y-115802873D01*
X177074160Y-115842747D01*
X177040932Y-115856510D01*
X177020916Y-115868067D01*
X176998592Y-115874048D01*
X176965365Y-115887812D01*
X176894956Y-115901817D01*
X176869420Y-115908660D01*
X176856203Y-115909526D01*
X176849257Y-115910908D01*
X176792839Y-115913679D01*
X176791000Y-115913800D01*
X176790385Y-115913800D01*
X175891615Y-115913800D01*
X175891000Y-115913800D01*
X175889160Y-115913679D01*
X175832742Y-115910908D01*
X175825795Y-115909526D01*
X175812580Y-115908660D01*
X175787046Y-115901818D01*
X175716634Y-115887812D01*
X175683404Y-115874047D01*
X175661084Y-115868067D01*
X175641069Y-115856511D01*
X175607839Y-115842747D01*
X175548157Y-115802869D01*
X175525256Y-115789647D01*
X175518987Y-115783378D01*
X175509937Y-115777331D01*
X175426668Y-115694062D01*
X175420620Y-115685011D01*
X175414353Y-115678744D01*
X175401132Y-115655845D01*
X175361252Y-115596160D01*
X175347486Y-115562926D01*
X175335933Y-115542916D01*
X175329953Y-115520599D01*
X175316187Y-115487365D01*
X175302180Y-115416949D01*
X175295340Y-115391420D01*
X175295340Y-115382559D01*
X175293215Y-115371876D01*
X175293215Y-115254123D01*
X175295340Y-115243439D01*
X175295340Y-115234580D01*
X175302179Y-115209052D01*
X175316187Y-115138634D01*
X175329954Y-115105397D01*
X175335933Y-115083084D01*
X175347484Y-115063075D01*
X175361252Y-115029839D01*
X175401137Y-114970146D01*
X175414353Y-114947256D01*
X175420618Y-114940990D01*
X175426668Y-114931937D01*
X175509937Y-114848668D01*
X175518990Y-114842618D01*
X175525256Y-114836353D01*
X175548146Y-114823137D01*
X175607839Y-114783252D01*
X175641075Y-114769484D01*
X175661084Y-114757933D01*
X175683397Y-114751954D01*
X175716634Y-114738187D01*
X175787060Y-114724177D01*
X175812580Y-114717340D01*
X175825787Y-114716474D01*
X175832742Y-114715091D01*
X175889162Y-114712320D01*
X175891000Y-114712200D01*
X176791000Y-114712200D01*
X176792837Y-114712320D01*
G37*
G36*
X177014459Y-113507583D02*
G01*
X177105074Y-113559899D01*
X177179061Y-113633886D01*
X177231377Y-113724501D01*
X177258458Y-113825569D01*
X177258458Y-113930201D01*
X177231377Y-114031269D01*
X177179061Y-114121884D01*
X177105074Y-114195871D01*
X177014459Y-114248187D01*
X176913391Y-114275268D01*
X176808759Y-114275268D01*
X176707691Y-114248187D01*
X176617076Y-114195871D01*
X176543089Y-114121884D01*
X176490773Y-114031269D01*
X176463692Y-113930201D01*
X176463692Y-113825569D01*
X176490773Y-113724501D01*
X176543089Y-113633886D01*
X176617076Y-113559899D01*
X176707691Y-113507583D01*
X176808759Y-113480502D01*
X176913391Y-113480502D01*
X177014459Y-113507583D01*
G37*
G36*
X123791943Y-111886699D02*
G01*
X123939151Y-111947674D01*
X124071635Y-112036197D01*
X124184303Y-112148865D01*
X124272826Y-112281349D01*
X124333801Y-112428557D01*
X124364886Y-112584832D01*
X124364886Y-112744168D01*
X124333801Y-112900443D01*
X124272826Y-113047651D01*
X124184303Y-113180135D01*
X124071635Y-113292803D01*
X123939151Y-113381326D01*
X123791943Y-113442301D01*
X123635668Y-113473386D01*
X123476332Y-113473386D01*
X123320057Y-113442301D01*
X123172849Y-113381326D01*
X123040365Y-113292803D01*
X122927697Y-113180135D01*
X122839174Y-113047651D01*
X122778199Y-112900443D01*
X122747114Y-112744168D01*
X122747114Y-112584832D01*
X122778199Y-112428557D01*
X122839174Y-112281349D01*
X122927697Y-112148865D01*
X123040365Y-112036197D01*
X123172849Y-111947674D01*
X123320057Y-111886699D01*
X123476332Y-111855614D01*
X123635668Y-111855614D01*
X123791943Y-111886699D01*
G37*
G36*
X123791943Y-109346699D02*
G01*
X123939151Y-109407674D01*
X124071635Y-109496197D01*
X124184303Y-109608865D01*
X124272826Y-109741349D01*
X124333801Y-109888557D01*
X124364886Y-110044832D01*
X124364886Y-110204168D01*
X124333801Y-110360443D01*
X124272826Y-110507651D01*
X124184303Y-110640135D01*
X124071635Y-110752803D01*
X123939151Y-110841326D01*
X123791943Y-110902301D01*
X123635668Y-110933386D01*
X123476332Y-110933386D01*
X123320057Y-110902301D01*
X123172849Y-110841326D01*
X123040365Y-110752803D01*
X122927697Y-110640135D01*
X122839174Y-110507651D01*
X122778199Y-110360443D01*
X122747114Y-110204168D01*
X122747114Y-110044832D01*
X122778199Y-109888557D01*
X122839174Y-109741349D01*
X122927697Y-109608865D01*
X123040365Y-109496197D01*
X123172849Y-109407674D01*
X123320057Y-109346699D01*
X123476332Y-109315614D01*
X123635668Y-109315614D01*
X123791943Y-109346699D01*
G37*
G36*
X177014459Y-107727559D02*
G01*
X177105074Y-107779875D01*
X177179061Y-107853862D01*
X177231377Y-107944477D01*
X177258458Y-108045545D01*
X177258458Y-108150177D01*
X177231377Y-108251245D01*
X177179061Y-108341860D01*
X177105074Y-108415847D01*
X177014459Y-108468163D01*
X176913391Y-108495244D01*
X176808759Y-108495244D01*
X176707691Y-108468163D01*
X176617076Y-108415847D01*
X176543089Y-108341860D01*
X176490773Y-108251245D01*
X176463692Y-108150177D01*
X176463692Y-108045545D01*
X176490773Y-107944477D01*
X176543089Y-107853862D01*
X176617076Y-107779875D01*
X176707691Y-107727559D01*
X176808759Y-107700478D01*
X176913391Y-107700478D01*
X177014459Y-107727559D01*
G37*
G36*
X123791943Y-106806699D02*
G01*
X123939151Y-106867674D01*
X124071635Y-106956197D01*
X124184303Y-107068865D01*
X124272826Y-107201349D01*
X124333801Y-107348557D01*
X124364886Y-107504832D01*
X124364886Y-107664168D01*
X124333801Y-107820443D01*
X124272826Y-107967651D01*
X124184303Y-108100135D01*
X124071635Y-108212803D01*
X123939151Y-108301326D01*
X123791943Y-108362301D01*
X123635668Y-108393386D01*
X123476332Y-108393386D01*
X123320057Y-108362301D01*
X123172849Y-108301326D01*
X123040365Y-108212803D01*
X122927697Y-108100135D01*
X122839174Y-107967651D01*
X122778199Y-107820443D01*
X122747114Y-107664168D01*
X122747114Y-107504832D01*
X122778199Y-107348557D01*
X122839174Y-107201349D01*
X122927697Y-107068865D01*
X123040365Y-106956197D01*
X123172849Y-106867674D01*
X123320057Y-106806699D01*
X123476332Y-106775614D01*
X123635668Y-106775614D01*
X123791943Y-106806699D01*
G37*
G36*
X180904790Y-106015334D02*
G01*
X181029917Y-106040223D01*
X181147785Y-106089046D01*
X181253863Y-106159925D01*
X181344075Y-106250137D01*
X181414954Y-106356215D01*
X181463777Y-106474083D01*
X181488666Y-106599210D01*
X181488666Y-106726790D01*
X181463777Y-106851917D01*
X181414954Y-106969785D01*
X181344075Y-107075863D01*
X181253863Y-107166075D01*
X181147785Y-107236954D01*
X181029917Y-107285777D01*
X180904790Y-107310666D01*
X180841000Y-107313800D01*
X180840385Y-107313800D01*
X180241615Y-107313800D01*
X180241000Y-107313800D01*
X180177210Y-107310666D01*
X180052083Y-107285777D01*
X179934215Y-107236954D01*
X179828137Y-107166075D01*
X179737925Y-107075863D01*
X179667046Y-106969785D01*
X179618223Y-106851917D01*
X179593334Y-106726790D01*
X179593334Y-106599210D01*
X179618223Y-106474083D01*
X179667046Y-106356215D01*
X179737925Y-106250137D01*
X179828137Y-106159925D01*
X179934215Y-106089046D01*
X180052083Y-106040223D01*
X180177210Y-106015334D01*
X180241000Y-106012200D01*
X180841000Y-106012200D01*
X180904790Y-106015334D01*
G37*
G36*
X176792837Y-106062320D02*
G01*
X176849257Y-106065091D01*
X176856210Y-106066474D01*
X176869420Y-106067340D01*
X176894942Y-106074178D01*
X176965365Y-106088187D01*
X176998599Y-106101953D01*
X177020916Y-106107933D01*
X177040926Y-106119486D01*
X177074160Y-106133252D01*
X177133845Y-106173132D01*
X177156744Y-106186353D01*
X177163011Y-106192620D01*
X177172062Y-106198668D01*
X177255331Y-106281937D01*
X177261378Y-106290987D01*
X177267647Y-106297256D01*
X177280869Y-106320157D01*
X177320747Y-106379839D01*
X177334511Y-106413069D01*
X177346067Y-106433084D01*
X177352047Y-106455404D01*
X177365812Y-106488634D01*
X177379818Y-106559047D01*
X177386660Y-106584580D01*
X177386660Y-106593440D01*
X177388785Y-106604123D01*
X177388785Y-106721876D01*
X177386660Y-106732558D01*
X177386660Y-106741420D01*
X177379817Y-106766955D01*
X177365812Y-106837365D01*
X177352048Y-106870592D01*
X177346067Y-106892916D01*
X177334510Y-106912932D01*
X177320747Y-106946160D01*
X177280873Y-107005834D01*
X177267647Y-107028744D01*
X177261376Y-107035014D01*
X177255331Y-107044062D01*
X177172062Y-107127331D01*
X177163014Y-107133376D01*
X177156744Y-107139647D01*
X177133834Y-107152873D01*
X177074160Y-107192747D01*
X177040932Y-107206510D01*
X177020916Y-107218067D01*
X176998592Y-107224048D01*
X176965365Y-107237812D01*
X176894956Y-107251817D01*
X176869420Y-107258660D01*
X176856203Y-107259526D01*
X176849257Y-107260908D01*
X176792839Y-107263679D01*
X176791000Y-107263800D01*
X176790385Y-107263800D01*
X175891615Y-107263800D01*
X175891000Y-107263800D01*
X175889160Y-107263679D01*
X175832742Y-107260908D01*
X175825795Y-107259526D01*
X175812580Y-107258660D01*
X175787046Y-107251818D01*
X175716634Y-107237812D01*
X175683404Y-107224047D01*
X175661084Y-107218067D01*
X175641069Y-107206511D01*
X175607839Y-107192747D01*
X175548157Y-107152869D01*
X175525256Y-107139647D01*
X175518987Y-107133378D01*
X175509937Y-107127331D01*
X175426668Y-107044062D01*
X175420620Y-107035011D01*
X175414353Y-107028744D01*
X175401132Y-107005845D01*
X175361252Y-106946160D01*
X175347486Y-106912926D01*
X175335933Y-106892916D01*
X175329953Y-106870599D01*
X175316187Y-106837365D01*
X175302180Y-106766949D01*
X175295340Y-106741420D01*
X175295340Y-106732559D01*
X175293215Y-106721876D01*
X175293215Y-106604123D01*
X175295340Y-106593439D01*
X175295340Y-106584580D01*
X175302179Y-106559052D01*
X175316187Y-106488634D01*
X175329954Y-106455397D01*
X175335933Y-106433084D01*
X175347484Y-106413075D01*
X175361252Y-106379839D01*
X175401137Y-106320146D01*
X175414353Y-106297256D01*
X175420618Y-106290990D01*
X175426668Y-106281937D01*
X175509937Y-106198668D01*
X175518990Y-106192618D01*
X175525256Y-106186353D01*
X175548146Y-106173137D01*
X175607839Y-106133252D01*
X175641075Y-106119484D01*
X175661084Y-106107933D01*
X175683397Y-106101954D01*
X175716634Y-106088187D01*
X175787060Y-106074177D01*
X175812580Y-106067340D01*
X175825787Y-106066474D01*
X175832742Y-106065091D01*
X175889162Y-106062320D01*
X175891000Y-106062200D01*
X176791000Y-106062200D01*
X176792837Y-106062320D01*
G37*
G36*
X123791943Y-104266699D02*
G01*
X123939151Y-104327674D01*
X124071635Y-104416197D01*
X124184303Y-104528865D01*
X124272826Y-104661349D01*
X124333801Y-104808557D01*
X124364886Y-104964832D01*
X124364886Y-105124168D01*
X124333801Y-105280443D01*
X124272826Y-105427651D01*
X124184303Y-105560135D01*
X124071635Y-105672803D01*
X123939151Y-105761326D01*
X123791943Y-105822301D01*
X123635668Y-105853386D01*
X123476332Y-105853386D01*
X123320057Y-105822301D01*
X123172849Y-105761326D01*
X123040365Y-105672803D01*
X122927697Y-105560135D01*
X122839174Y-105427651D01*
X122778199Y-105280443D01*
X122747114Y-105124168D01*
X122747114Y-104964832D01*
X122778199Y-104808557D01*
X122839174Y-104661349D01*
X122927697Y-104528865D01*
X123040365Y-104416197D01*
X123172849Y-104327674D01*
X123320057Y-104266699D01*
X123476332Y-104235614D01*
X123635668Y-104235614D01*
X123791943Y-104266699D01*
G37*
G36*
X123791943Y-101726699D02*
G01*
X123939151Y-101787674D01*
X124071635Y-101876197D01*
X124184303Y-101988865D01*
X124272826Y-102121349D01*
X124333801Y-102268557D01*
X124364886Y-102424832D01*
X124364886Y-102584168D01*
X124333801Y-102740443D01*
X124272826Y-102887651D01*
X124184303Y-103020135D01*
X124071635Y-103132803D01*
X123939151Y-103221326D01*
X123791943Y-103282301D01*
X123635668Y-103313386D01*
X123476332Y-103313386D01*
X123320057Y-103282301D01*
X123172849Y-103221326D01*
X123040365Y-103132803D01*
X122927697Y-103020135D01*
X122839174Y-102887651D01*
X122778199Y-102740443D01*
X122747114Y-102584168D01*
X122747114Y-102424832D01*
X122778199Y-102268557D01*
X122839174Y-102121349D01*
X122927697Y-101988865D01*
X123040365Y-101876197D01*
X123172849Y-101787674D01*
X123320057Y-101726699D01*
X123476332Y-101695614D01*
X123635668Y-101695614D01*
X123791943Y-101726699D01*
G37*
G36*
X123791943Y-99186699D02*
G01*
X123939151Y-99247674D01*
X124071635Y-99336197D01*
X124184303Y-99448865D01*
X124272826Y-99581349D01*
X124333801Y-99728557D01*
X124364886Y-99884832D01*
X124364886Y-100044168D01*
X124333801Y-100200443D01*
X124272826Y-100347651D01*
X124184303Y-100480135D01*
X124071635Y-100592803D01*
X123939151Y-100681326D01*
X123791943Y-100742301D01*
X123635668Y-100773386D01*
X123476332Y-100773386D01*
X123320057Y-100742301D01*
X123172849Y-100681326D01*
X123040365Y-100592803D01*
X122927697Y-100480135D01*
X122839174Y-100347651D01*
X122778199Y-100200443D01*
X122747114Y-100044168D01*
X122747114Y-99884832D01*
X122778199Y-99728557D01*
X122839174Y-99581349D01*
X122927697Y-99448865D01*
X123040365Y-99336197D01*
X123172849Y-99247674D01*
X123320057Y-99186699D01*
X123476332Y-99155614D01*
X123635668Y-99155614D01*
X123791943Y-99186699D01*
G37*
G36*
X123791943Y-96646699D02*
G01*
X123939151Y-96707674D01*
X124071635Y-96796197D01*
X124184303Y-96908865D01*
X124272826Y-97041349D01*
X124333801Y-97188557D01*
X124364886Y-97344832D01*
X124364886Y-97504168D01*
X124333801Y-97660443D01*
X124272826Y-97807651D01*
X124184303Y-97940135D01*
X124071635Y-98052803D01*
X123939151Y-98141326D01*
X123791943Y-98202301D01*
X123635668Y-98233386D01*
X123476332Y-98233386D01*
X123320057Y-98202301D01*
X123172849Y-98141326D01*
X123040365Y-98052803D01*
X122927697Y-97940135D01*
X122839174Y-97807651D01*
X122778199Y-97660443D01*
X122747114Y-97504168D01*
X122747114Y-97344832D01*
X122778199Y-97188557D01*
X122839174Y-97041349D01*
X122927697Y-96908865D01*
X123040365Y-96796197D01*
X123172849Y-96707674D01*
X123320057Y-96646699D01*
X123476332Y-96615614D01*
X123635668Y-96615614D01*
X123791943Y-96646699D01*
G37*
G36*
X123791943Y-94106699D02*
G01*
X123939151Y-94167674D01*
X124071635Y-94256197D01*
X124184303Y-94368865D01*
X124272826Y-94501349D01*
X124333801Y-94648557D01*
X124364886Y-94804832D01*
X124364886Y-94964168D01*
X124333801Y-95120443D01*
X124272826Y-95267651D01*
X124184303Y-95400135D01*
X124071635Y-95512803D01*
X123939151Y-95601326D01*
X123791943Y-95662301D01*
X123635668Y-95693386D01*
X123476332Y-95693386D01*
X123320057Y-95662301D01*
X123172849Y-95601326D01*
X123040365Y-95512803D01*
X122927697Y-95400135D01*
X122839174Y-95267651D01*
X122778199Y-95120443D01*
X122747114Y-94964168D01*
X122747114Y-94804832D01*
X122778199Y-94648557D01*
X122839174Y-94501349D01*
X122927697Y-94368865D01*
X123040365Y-94256197D01*
X123172849Y-94167674D01*
X123320057Y-94106699D01*
X123476332Y-94075614D01*
X123635668Y-94075614D01*
X123791943Y-94106699D01*
G37*
G36*
X123791943Y-91566699D02*
G01*
X123939151Y-91627674D01*
X124071635Y-91716197D01*
X124184303Y-91828865D01*
X124272826Y-91961349D01*
X124333801Y-92108557D01*
X124364886Y-92264832D01*
X124364886Y-92424168D01*
X124333801Y-92580443D01*
X124272826Y-92727651D01*
X124184303Y-92860135D01*
X124071635Y-92972803D01*
X123939151Y-93061326D01*
X123791943Y-93122301D01*
X123635668Y-93153386D01*
X123476332Y-93153386D01*
X123320057Y-93122301D01*
X123172849Y-93061326D01*
X123040365Y-92972803D01*
X122927697Y-92860135D01*
X122839174Y-92727651D01*
X122778199Y-92580443D01*
X122747114Y-92424168D01*
X122747114Y-92264832D01*
X122778199Y-92108557D01*
X122839174Y-91961349D01*
X122927697Y-91828865D01*
X123040365Y-91716197D01*
X123172849Y-91627674D01*
X123320057Y-91566699D01*
X123476332Y-91535614D01*
X123635668Y-91535614D01*
X123791943Y-91566699D01*
G37*
G36*
X123791943Y-89026699D02*
G01*
X123939151Y-89087674D01*
X124071635Y-89176197D01*
X124184303Y-89288865D01*
X124272826Y-89421349D01*
X124333801Y-89568557D01*
X124364886Y-89724832D01*
X124364886Y-89884168D01*
X124333801Y-90040443D01*
X124272826Y-90187651D01*
X124184303Y-90320135D01*
X124071635Y-90432803D01*
X123939151Y-90521326D01*
X123791943Y-90582301D01*
X123635668Y-90613386D01*
X123476332Y-90613386D01*
X123320057Y-90582301D01*
X123172849Y-90521326D01*
X123040365Y-90432803D01*
X122927697Y-90320135D01*
X122839174Y-90187651D01*
X122778199Y-90040443D01*
X122747114Y-89884168D01*
X122747114Y-89724832D01*
X122778199Y-89568557D01*
X122839174Y-89421349D01*
X122927697Y-89288865D01*
X123040365Y-89176197D01*
X123172849Y-89087674D01*
X123320057Y-89026699D01*
X123476332Y-88995614D01*
X123635668Y-88995614D01*
X123791943Y-89026699D01*
G37*
G36*
X123791943Y-86486699D02*
G01*
X123939151Y-86547674D01*
X124071635Y-86636197D01*
X124184303Y-86748865D01*
X124272826Y-86881349D01*
X124333801Y-87028557D01*
X124364886Y-87184832D01*
X124364886Y-87344168D01*
X124333801Y-87500443D01*
X124272826Y-87647651D01*
X124184303Y-87780135D01*
X124071635Y-87892803D01*
X123939151Y-87981326D01*
X123791943Y-88042301D01*
X123635668Y-88073386D01*
X123476332Y-88073386D01*
X123320057Y-88042301D01*
X123172849Y-87981326D01*
X123040365Y-87892803D01*
X122927697Y-87780135D01*
X122839174Y-87647651D01*
X122778199Y-87500443D01*
X122747114Y-87344168D01*
X122747114Y-87184832D01*
X122778199Y-87028557D01*
X122839174Y-86881349D01*
X122927697Y-86748865D01*
X123040365Y-86636197D01*
X123172849Y-86547674D01*
X123320057Y-86486699D01*
X123476332Y-86455614D01*
X123635668Y-86455614D01*
X123791943Y-86486699D01*
G37*
G36*
X123338546Y-81837788D02*
G01*
X123524288Y-81898140D01*
X123698302Y-81986804D01*
X123856303Y-82101599D01*
X123994401Y-82239697D01*
X124109196Y-82397698D01*
X124197860Y-82571712D01*
X124258212Y-82757454D01*
X124288763Y-82950350D01*
X124288763Y-83145650D01*
X124258212Y-83338546D01*
X124197860Y-83524288D01*
X124109196Y-83698302D01*
X123994401Y-83856303D01*
X123856303Y-83994401D01*
X123698302Y-84109196D01*
X123524288Y-84197860D01*
X123338546Y-84258212D01*
X123145650Y-84288763D01*
X122950350Y-84288763D01*
X122757454Y-84258212D01*
X122571712Y-84197860D01*
X122397698Y-84109196D01*
X122239697Y-83994401D01*
X122101599Y-83856303D01*
X121986804Y-83698302D01*
X121898140Y-83524288D01*
X121837788Y-83338546D01*
X121807237Y-83145650D01*
X121807237Y-82950350D01*
X121837788Y-82757454D01*
X121898140Y-82571712D01*
X121986804Y-82397698D01*
X122101599Y-82239697D01*
X122239697Y-82101599D01*
X122397698Y-81986804D01*
X122571712Y-81898140D01*
X122757454Y-81837788D01*
X122950350Y-81807237D01*
X123145650Y-81807237D01*
X123338546Y-81837788D01*
G37*
G36*
X177237346Y-81837788D02*
G01*
X177423088Y-81898140D01*
X177597102Y-81986804D01*
X177755103Y-82101599D01*
X177893201Y-82239697D01*
X178007996Y-82397698D01*
X178096660Y-82571712D01*
X178157012Y-82757454D01*
X178187563Y-82950350D01*
X178187563Y-83145650D01*
X178157012Y-83338546D01*
X178096660Y-83524288D01*
X178007996Y-83698302D01*
X177893201Y-83856303D01*
X177755103Y-83994401D01*
X177597102Y-84109196D01*
X177423088Y-84197860D01*
X177237346Y-84258212D01*
X177044450Y-84288763D01*
X176849150Y-84288763D01*
X176656254Y-84258212D01*
X176470512Y-84197860D01*
X176296498Y-84109196D01*
X176138497Y-83994401D01*
X176000399Y-83856303D01*
X175885604Y-83698302D01*
X175796940Y-83524288D01*
X175736588Y-83338546D01*
X175706037Y-83145650D01*
X175706037Y-82950350D01*
X175736588Y-82757454D01*
X175796940Y-82571712D01*
X175885604Y-82397698D01*
X176000399Y-82239697D01*
X176138497Y-82101599D01*
X176296498Y-81986804D01*
X176470512Y-81898140D01*
X176656254Y-81837788D01*
X176849150Y-81807237D01*
X177044450Y-81807237D01*
X177237346Y-81837788D01*
G37*
%LPD*%
M02*
