%TF.GenerationSoftware,KiCad,Pcbnew,10.0.5*%
%TF.CreationDate,2026-08-29T12:53:52+08:00*%
%TF.ProjectId,Therapia_EEG-HRV,54686572-6170-4696-915f-4545472d4852,rev?*%
%TF.SameCoordinates,Original*%
%TF.FileFunction,Paste,Top*%
%TF.FilePolarity,Positive*%
%FSLAX46Y46*%
G04 Gerber Fmt 4.6, Leading zero omitted, Abs format (unit mm)*
G04 Created by KiCad (PCBNEW 10.0.5) date 2026-08-29 12:53:52*
%MOMM*%
%LPD*%
G01*
G04 APERTURE LIST*
G04 Aperture macros list*
%AMRoundRect*
0 Rectangle with rounded corners*
0 $1 Rounding radius*
0 $2 $3 $4 $5 $6 $7 $8 $9 X,Y pos of 4 corners*
0 Add a 4 corners polygon primitive as box body*
4,1,4,$2,$3,$4,$5,$6,$7,$8,$9,$2,$3,0*
0 Add four circle primitives for the rounded corners*
1,1,$1+$1,$2,$3*
1,1,$1+$1,$4,$5*
1,1,$1+$1,$6,$7*
1,1,$1+$1,$8,$9*
0 Add four rect primitives between the rounded corners*
20,1,$1+$1,$2,$3,$4,$5,0*
20,1,$1+$1,$4,$5,$6,$7,0*
20,1,$1+$1,$6,$7,$8,$9,0*
20,1,$1+$1,$8,$9,$2,$3,0*%
G04 Aperture macros list end*
%ADD10C,0.000000*%
%ADD11R,1.100000X0.600000*%
%ADD12R,0.540000X0.500000*%
%ADD13R,1.132500X1.377000*%
%ADD14R,0.565500X0.540000*%
%ADD15O,1.800000X0.280000*%
%ADD16O,0.280000X1.800000*%
%ADD17R,0.800000X0.900000*%
%ADD18R,0.500000X0.540000*%
%ADD19R,0.806500X0.864000*%
%ADD20R,1.410000X1.350000*%
%ADD21R,0.532000X1.072000*%
%ADD22R,0.864000X0.806500*%
%ADD23R,0.900000X0.800000*%
%ADD24R,1.728000X1.190000*%
%ADD25R,1.377000X1.132500*%
%ADD26R,0.800000X0.800000*%
%ADD27R,1.000000X0.550000*%
%ADD28R,1.100000X0.550000*%
%ADD29R,1.100000X0.300000*%
%ADD30R,1.037500X0.532000*%
%ADD31R,0.950000X2.100000*%
%ADD32R,2.100000X0.950000*%
%ADD33R,0.900000X0.900000*%
%ADD34RoundRect,0.250000X0.650000X-0.325000X0.650000X0.325000X-0.650000X0.325000X-0.650000X-0.325000X0*%
%ADD35R,2.500000X1.100000*%
%ADD36R,2.340000X3.600000*%
%ADD37O,0.560000X1.745000*%
G04 APERTURE END LIST*
D10*
%TO.C,R_SRB_SER*%
G36*
X128186000Y-88504000D02*
G01*
X128186000Y-88924000D01*
X127741000Y-88924000D01*
X127741000Y-89374000D01*
X128181000Y-89374000D01*
X128186000Y-89784000D01*
X128136000Y-89834000D01*
X126986000Y-89834000D01*
X126936000Y-89784000D01*
X126936000Y-88504000D01*
X126986000Y-88454000D01*
X128136000Y-88454000D01*
X128186000Y-88504000D01*
G37*
G36*
X130336000Y-88504000D02*
G01*
X130336000Y-89784000D01*
X130286000Y-89834000D01*
X129136000Y-89834000D01*
X129086000Y-89784000D01*
X129081000Y-89374000D01*
X129531000Y-89374000D01*
X129531000Y-88924000D01*
X129091000Y-88924000D01*
X129086000Y-88504000D01*
X129136000Y-88454000D01*
X130286000Y-88454000D01*
X130336000Y-88504000D01*
G37*
%TO.C,R_IN7N*%
G36*
X128501000Y-93918000D02*
G01*
X128501000Y-94378000D01*
X128461000Y-94418000D01*
X127960500Y-94418000D01*
X127920500Y-94378000D01*
X127920500Y-93918000D01*
X127960500Y-93878000D01*
X128461000Y-93878000D01*
X128501000Y-93918000D01*
G37*
G36*
X129351500Y-93918000D02*
G01*
X129351500Y-94378000D01*
X129311500Y-94418000D01*
X128811000Y-94418000D01*
X128771000Y-94378000D01*
X128771000Y-93918000D01*
X128811000Y-93878000D01*
X129311500Y-93878000D01*
X129351500Y-93918000D01*
G37*
%TO.C,U_ADS*%
G36*
X141447000Y-98208000D02*
G01*
X141447000Y-98208000D01*
G75*
G02*
X141447000Y-98488000I0J-140000D01*
G01*
X139777000Y-98488000D01*
G75*
G02*
X139777000Y-98208000I0J140000D01*
G01*
X141447000Y-98208000D01*
G37*
G36*
X141447000Y-98708000D02*
G01*
X141447000Y-98708000D01*
G75*
G02*
X141447000Y-98988000I0J-140000D01*
G01*
X139777000Y-98988000D01*
G75*
G02*
X139777000Y-98708000I0J140000D01*
G01*
X141447000Y-98708000D01*
G37*
G36*
X141447000Y-99208000D02*
G01*
X141447000Y-99208000D01*
G75*
G02*
X141447000Y-99488000I0J-140000D01*
G01*
X139777000Y-99488000D01*
G75*
G02*
X139777000Y-99208000I0J140000D01*
G01*
X141447000Y-99208000D01*
G37*
G36*
X141447000Y-99708000D02*
G01*
X141447000Y-99708000D01*
G75*
G02*
X141447000Y-99988000I0J-140000D01*
G01*
X139777000Y-99988000D01*
G75*
G02*
X139777000Y-99708000I0J140000D01*
G01*
X141447000Y-99708000D01*
G37*
G36*
X141447000Y-100208000D02*
G01*
X141447000Y-100208000D01*
G75*
G02*
X141447000Y-100488000I0J-140000D01*
G01*
X139777000Y-100488000D01*
G75*
G02*
X139777000Y-100208000I0J140000D01*
G01*
X141447000Y-100208000D01*
G37*
G36*
X141447000Y-100708000D02*
G01*
X141447000Y-100708000D01*
G75*
G02*
X141447000Y-100988000I0J-140000D01*
G01*
X139777000Y-100988000D01*
G75*
G02*
X139777000Y-100708000I0J140000D01*
G01*
X141447000Y-100708000D01*
G37*
G36*
X141447000Y-101208000D02*
G01*
X141447000Y-101208000D01*
G75*
G02*
X141447000Y-101488000I0J-140000D01*
G01*
X139777000Y-101488000D01*
G75*
G02*
X139777000Y-101208000I0J140000D01*
G01*
X141447000Y-101208000D01*
G37*
G36*
X141447000Y-101708000D02*
G01*
X141447000Y-101708000D01*
G75*
G02*
X141447000Y-101988000I0J-140000D01*
G01*
X139777000Y-101988000D01*
G75*
G02*
X139777000Y-101708000I0J140000D01*
G01*
X141447000Y-101708000D01*
G37*
G36*
X141447000Y-102208000D02*
G01*
X141447000Y-102208000D01*
G75*
G02*
X141447000Y-102488000I0J-140000D01*
G01*
X139777000Y-102488000D01*
G75*
G02*
X139777000Y-102208000I0J140000D01*
G01*
X141447000Y-102208000D01*
G37*
G36*
X141447000Y-102708000D02*
G01*
X141447000Y-102708000D01*
G75*
G02*
X141447000Y-102988000I0J-140000D01*
G01*
X139777000Y-102988000D01*
G75*
G02*
X139777000Y-102708000I0J140000D01*
G01*
X141447000Y-102708000D01*
G37*
G36*
X141447000Y-103208000D02*
G01*
X141447000Y-103208000D01*
G75*
G02*
X141447000Y-103488000I0J-140000D01*
G01*
X139777000Y-103488000D01*
G75*
G02*
X139777000Y-103208000I0J140000D01*
G01*
X141447000Y-103208000D01*
G37*
G36*
X141447000Y-103708000D02*
G01*
X141447000Y-103708000D01*
G75*
G02*
X141447000Y-103988000I0J-140000D01*
G01*
X139777000Y-103988000D01*
G75*
G02*
X139777000Y-103708000I0J140000D01*
G01*
X141447000Y-103708000D01*
G37*
G36*
X141447000Y-104208000D02*
G01*
X141447000Y-104208000D01*
G75*
G02*
X141447000Y-104488000I0J-140000D01*
G01*
X139777000Y-104488000D01*
G75*
G02*
X139777000Y-104208000I0J140000D01*
G01*
X141447000Y-104208000D01*
G37*
G36*
X141447000Y-104708000D02*
G01*
X141447000Y-104708000D01*
G75*
G02*
X141447000Y-104988000I0J-140000D01*
G01*
X139777000Y-104988000D01*
G75*
G02*
X139777000Y-104708000I0J140000D01*
G01*
X141447000Y-104708000D01*
G37*
G36*
X141447000Y-105208000D02*
G01*
X141447000Y-105208000D01*
G75*
G02*
X141447000Y-105488000I0J-140000D01*
G01*
X139777000Y-105488000D01*
G75*
G02*
X139777000Y-105208000I0J140000D01*
G01*
X141447000Y-105208000D01*
G37*
G36*
X141447000Y-105708000D02*
G01*
X141447000Y-105708000D01*
G75*
G02*
X141447000Y-105988000I0J-140000D01*
G01*
X139777000Y-105988000D01*
G75*
G02*
X139777000Y-105708000I0J140000D01*
G01*
X141447000Y-105708000D01*
G37*
G36*
X142272000Y-106813000D02*
G01*
X142272000Y-106813000D01*
G75*
G02*
X142552000Y-106813000I140000J0D01*
G01*
X142552000Y-108483000D01*
G75*
G02*
X142272000Y-108483000I-140000J0D01*
G01*
X142272000Y-106813000D01*
G37*
G36*
X142272000Y-95713000D02*
G01*
X142272000Y-95713000D01*
G75*
G02*
X142552000Y-95713000I140000J0D01*
G01*
X142552000Y-97383000D01*
G75*
G02*
X142272000Y-97383000I-140000J0D01*
G01*
X142272000Y-95713000D01*
G37*
G36*
X142772000Y-106813000D02*
G01*
X142772000Y-106813000D01*
G75*
G02*
X143052000Y-106813000I140000J0D01*
G01*
X143052000Y-108483000D01*
G75*
G02*
X142772000Y-108483000I-140000J0D01*
G01*
X142772000Y-106813000D01*
G37*
G36*
X142772000Y-95713000D02*
G01*
X142772000Y-95713000D01*
G75*
G02*
X143052000Y-95713000I140000J0D01*
G01*
X143052000Y-97383000D01*
G75*
G02*
X142772000Y-97383000I-140000J0D01*
G01*
X142772000Y-95713000D01*
G37*
G36*
X143272000Y-106813000D02*
G01*
X143272000Y-106813000D01*
G75*
G02*
X143552000Y-106813000I140000J0D01*
G01*
X143552000Y-108483000D01*
G75*
G02*
X143272000Y-108483000I-140000J0D01*
G01*
X143272000Y-106813000D01*
G37*
G36*
X143272000Y-95713000D02*
G01*
X143272000Y-95713000D01*
G75*
G02*
X143552000Y-95713000I140000J0D01*
G01*
X143552000Y-97383000D01*
G75*
G02*
X143272000Y-97383000I-140000J0D01*
G01*
X143272000Y-95713000D01*
G37*
G36*
X143772000Y-106813000D02*
G01*
X143772000Y-106813000D01*
G75*
G02*
X144052000Y-106813000I140000J0D01*
G01*
X144052000Y-108483000D01*
G75*
G02*
X143772000Y-108483000I-140000J0D01*
G01*
X143772000Y-106813000D01*
G37*
G36*
X143772000Y-95713000D02*
G01*
X143772000Y-95713000D01*
G75*
G02*
X144052000Y-95713000I140000J0D01*
G01*
X144052000Y-97383000D01*
G75*
G02*
X143772000Y-97383000I-140000J0D01*
G01*
X143772000Y-95713000D01*
G37*
G36*
X144272000Y-106813000D02*
G01*
X144272000Y-106813000D01*
G75*
G02*
X144552000Y-106813000I140000J0D01*
G01*
X144552000Y-108483000D01*
G75*
G02*
X144272000Y-108483000I-140000J0D01*
G01*
X144272000Y-106813000D01*
G37*
G36*
X144272000Y-95713000D02*
G01*
X144272000Y-95713000D01*
G75*
G02*
X144552000Y-95713000I140000J0D01*
G01*
X144552000Y-97383000D01*
G75*
G02*
X144272000Y-97383000I-140000J0D01*
G01*
X144272000Y-95713000D01*
G37*
G36*
X144772000Y-106813000D02*
G01*
X144772000Y-106813000D01*
G75*
G02*
X145052000Y-106813000I140000J0D01*
G01*
X145052000Y-108483000D01*
G75*
G02*
X144772000Y-108483000I-140000J0D01*
G01*
X144772000Y-106813000D01*
G37*
G36*
X144772000Y-95713000D02*
G01*
X144772000Y-95713000D01*
G75*
G02*
X145052000Y-95713000I140000J0D01*
G01*
X145052000Y-97383000D01*
G75*
G02*
X144772000Y-97383000I-140000J0D01*
G01*
X144772000Y-95713000D01*
G37*
G36*
X145272000Y-106813000D02*
G01*
X145272000Y-106813000D01*
G75*
G02*
X145552000Y-106813000I140000J0D01*
G01*
X145552000Y-108483000D01*
G75*
G02*
X145272000Y-108483000I-140000J0D01*
G01*
X145272000Y-106813000D01*
G37*
G36*
X145272000Y-95713000D02*
G01*
X145272000Y-95713000D01*
G75*
G02*
X145552000Y-95713000I140000J0D01*
G01*
X145552000Y-97383000D01*
G75*
G02*
X145272000Y-97383000I-140000J0D01*
G01*
X145272000Y-95713000D01*
G37*
G36*
X145772000Y-106813000D02*
G01*
X145772000Y-106813000D01*
G75*
G02*
X146052000Y-106813000I140000J0D01*
G01*
X146052000Y-108483000D01*
G75*
G02*
X145772000Y-108483000I-140000J0D01*
G01*
X145772000Y-106813000D01*
G37*
G36*
X145772000Y-95713000D02*
G01*
X145772000Y-95713000D01*
G75*
G02*
X146052000Y-95713000I140000J0D01*
G01*
X146052000Y-97383000D01*
G75*
G02*
X145772000Y-97383000I-140000J0D01*
G01*
X145772000Y-95713000D01*
G37*
G36*
X146272000Y-106813000D02*
G01*
X146272000Y-106813000D01*
G75*
G02*
X146552000Y-106813000I140000J0D01*
G01*
X146552000Y-108483000D01*
G75*
G02*
X146272000Y-108483000I-140000J0D01*
G01*
X146272000Y-106813000D01*
G37*
G36*
X146272000Y-95713000D02*
G01*
X146272000Y-95713000D01*
G75*
G02*
X146552000Y-95713000I140000J0D01*
G01*
X146552000Y-97383000D01*
G75*
G02*
X146272000Y-97383000I-140000J0D01*
G01*
X146272000Y-95713000D01*
G37*
G36*
X146772000Y-106813000D02*
G01*
X146772000Y-106813000D01*
G75*
G02*
X147052000Y-106813000I140000J0D01*
G01*
X147052000Y-108483000D01*
G75*
G02*
X146772000Y-108483000I-140000J0D01*
G01*
X146772000Y-106813000D01*
G37*
G36*
X146772000Y-95713000D02*
G01*
X146772000Y-95713000D01*
G75*
G02*
X147052000Y-95713000I140000J0D01*
G01*
X147052000Y-97383000D01*
G75*
G02*
X146772000Y-97383000I-140000J0D01*
G01*
X146772000Y-95713000D01*
G37*
G36*
X147272000Y-106813000D02*
G01*
X147272000Y-106813000D01*
G75*
G02*
X147552000Y-106813000I140000J0D01*
G01*
X147552000Y-108483000D01*
G75*
G02*
X147272000Y-108483000I-140000J0D01*
G01*
X147272000Y-106813000D01*
G37*
G36*
X147272000Y-95713000D02*
G01*
X147272000Y-95713000D01*
G75*
G02*
X147552000Y-95713000I140000J0D01*
G01*
X147552000Y-97383000D01*
G75*
G02*
X147272000Y-97383000I-140000J0D01*
G01*
X147272000Y-95713000D01*
G37*
G36*
X147772000Y-106813000D02*
G01*
X147772000Y-106813000D01*
G75*
G02*
X148052000Y-106813000I140000J0D01*
G01*
X148052000Y-108483000D01*
G75*
G02*
X147772000Y-108483000I-140000J0D01*
G01*
X147772000Y-106813000D01*
G37*
G36*
X147772000Y-95713000D02*
G01*
X147772000Y-95713000D01*
G75*
G02*
X148052000Y-95713000I140000J0D01*
G01*
X148052000Y-97383000D01*
G75*
G02*
X147772000Y-97383000I-140000J0D01*
G01*
X147772000Y-95713000D01*
G37*
G36*
X148272000Y-106813000D02*
G01*
X148272000Y-106813000D01*
G75*
G02*
X148552000Y-106813000I140000J0D01*
G01*
X148552000Y-108483000D01*
G75*
G02*
X148272000Y-108483000I-140000J0D01*
G01*
X148272000Y-106813000D01*
G37*
G36*
X148272000Y-95713000D02*
G01*
X148272000Y-95713000D01*
G75*
G02*
X148552000Y-95713000I140000J0D01*
G01*
X148552000Y-97383000D01*
G75*
G02*
X148272000Y-97383000I-140000J0D01*
G01*
X148272000Y-95713000D01*
G37*
G36*
X148772000Y-106813000D02*
G01*
X148772000Y-106813000D01*
G75*
G02*
X149052000Y-106813000I140000J0D01*
G01*
X149052000Y-108483000D01*
G75*
G02*
X148772000Y-108483000I-140000J0D01*
G01*
X148772000Y-106813000D01*
G37*
G36*
X148772000Y-95713000D02*
G01*
X148772000Y-95713000D01*
G75*
G02*
X149052000Y-95713000I140000J0D01*
G01*
X149052000Y-97383000D01*
G75*
G02*
X148772000Y-97383000I-140000J0D01*
G01*
X148772000Y-95713000D01*
G37*
G36*
X149272000Y-106813000D02*
G01*
X149272000Y-106813000D01*
G75*
G02*
X149552000Y-106813000I140000J0D01*
G01*
X149552000Y-108483000D01*
G75*
G02*
X149272000Y-108483000I-140000J0D01*
G01*
X149272000Y-106813000D01*
G37*
G36*
X149272000Y-95713000D02*
G01*
X149272000Y-95713000D01*
G75*
G02*
X149552000Y-95713000I140000J0D01*
G01*
X149552000Y-97383000D01*
G75*
G02*
X149272000Y-97383000I-140000J0D01*
G01*
X149272000Y-95713000D01*
G37*
G36*
X149772000Y-106813000D02*
G01*
X149772000Y-106813000D01*
G75*
G02*
X150052000Y-106813000I140000J0D01*
G01*
X150052000Y-108483000D01*
G75*
G02*
X149772000Y-108483000I-140000J0D01*
G01*
X149772000Y-106813000D01*
G37*
G36*
X149772000Y-95713000D02*
G01*
X149772000Y-95713000D01*
G75*
G02*
X150052000Y-95713000I140000J0D01*
G01*
X150052000Y-97383000D01*
G75*
G02*
X149772000Y-97383000I-140000J0D01*
G01*
X149772000Y-95713000D01*
G37*
G36*
X152547000Y-98208000D02*
G01*
X152547000Y-98208000D01*
G75*
G02*
X152547000Y-98488000I0J-140000D01*
G01*
X150877000Y-98488000D01*
G75*
G02*
X150877000Y-98208000I0J140000D01*
G01*
X152547000Y-98208000D01*
G37*
G36*
X152547000Y-98708000D02*
G01*
X152547000Y-98708000D01*
G75*
G02*
X152547000Y-98988000I0J-140000D01*
G01*
X150877000Y-98988000D01*
G75*
G02*
X150877000Y-98708000I0J140000D01*
G01*
X152547000Y-98708000D01*
G37*
G36*
X152547000Y-99208000D02*
G01*
X152547000Y-99208000D01*
G75*
G02*
X152547000Y-99488000I0J-140000D01*
G01*
X150877000Y-99488000D01*
G75*
G02*
X150877000Y-99208000I0J140000D01*
G01*
X152547000Y-99208000D01*
G37*
G36*
X152547000Y-99708000D02*
G01*
X152547000Y-99708000D01*
G75*
G02*
X152547000Y-99988000I0J-140000D01*
G01*
X150877000Y-99988000D01*
G75*
G02*
X150877000Y-99708000I0J140000D01*
G01*
X152547000Y-99708000D01*
G37*
G36*
X152547000Y-100208000D02*
G01*
X152547000Y-100208000D01*
G75*
G02*
X152547000Y-100488000I0J-140000D01*
G01*
X150877000Y-100488000D01*
G75*
G02*
X150877000Y-100208000I0J140000D01*
G01*
X152547000Y-100208000D01*
G37*
G36*
X152547000Y-100708000D02*
G01*
X152547000Y-100708000D01*
G75*
G02*
X152547000Y-100988000I0J-140000D01*
G01*
X150877000Y-100988000D01*
G75*
G02*
X150877000Y-100708000I0J140000D01*
G01*
X152547000Y-100708000D01*
G37*
G36*
X152547000Y-101208000D02*
G01*
X152547000Y-101208000D01*
G75*
G02*
X152547000Y-101488000I0J-140000D01*
G01*
X150877000Y-101488000D01*
G75*
G02*
X150877000Y-101208000I0J140000D01*
G01*
X152547000Y-101208000D01*
G37*
G36*
X152547000Y-101708000D02*
G01*
X152547000Y-101708000D01*
G75*
G02*
X152547000Y-101988000I0J-140000D01*
G01*
X150877000Y-101988000D01*
G75*
G02*
X150877000Y-101708000I0J140000D01*
G01*
X152547000Y-101708000D01*
G37*
G36*
X152547000Y-102208000D02*
G01*
X152547000Y-102208000D01*
G75*
G02*
X152547000Y-102488000I0J-140000D01*
G01*
X150877000Y-102488000D01*
G75*
G02*
X150877000Y-102208000I0J140000D01*
G01*
X152547000Y-102208000D01*
G37*
G36*
X152547000Y-102708000D02*
G01*
X152547000Y-102708000D01*
G75*
G02*
X152547000Y-102988000I0J-140000D01*
G01*
X150877000Y-102988000D01*
G75*
G02*
X150877000Y-102708000I0J140000D01*
G01*
X152547000Y-102708000D01*
G37*
G36*
X152547000Y-103208000D02*
G01*
X152547000Y-103208000D01*
G75*
G02*
X152547000Y-103488000I0J-140000D01*
G01*
X150877000Y-103488000D01*
G75*
G02*
X150877000Y-103208000I0J140000D01*
G01*
X152547000Y-103208000D01*
G37*
G36*
X152547000Y-103708000D02*
G01*
X152547000Y-103708000D01*
G75*
G02*
X152547000Y-103988000I0J-140000D01*
G01*
X150877000Y-103988000D01*
G75*
G02*
X150877000Y-103708000I0J140000D01*
G01*
X152547000Y-103708000D01*
G37*
G36*
X152547000Y-104208000D02*
G01*
X152547000Y-104208000D01*
G75*
G02*
X152547000Y-104488000I0J-140000D01*
G01*
X150877000Y-104488000D01*
G75*
G02*
X150877000Y-104208000I0J140000D01*
G01*
X152547000Y-104208000D01*
G37*
G36*
X152547000Y-104708000D02*
G01*
X152547000Y-104708000D01*
G75*
G02*
X152547000Y-104988000I0J-140000D01*
G01*
X150877000Y-104988000D01*
G75*
G02*
X150877000Y-104708000I0J140000D01*
G01*
X152547000Y-104708000D01*
G37*
G36*
X152547000Y-105208000D02*
G01*
X152547000Y-105208000D01*
G75*
G02*
X152547000Y-105488000I0J-140000D01*
G01*
X150877000Y-105488000D01*
G75*
G02*
X150877000Y-105208000I0J140000D01*
G01*
X152547000Y-105208000D01*
G37*
G36*
X152547000Y-105708000D02*
G01*
X152547000Y-105708000D01*
G75*
G02*
X152547000Y-105988000I0J-140000D01*
G01*
X150877000Y-105988000D01*
G75*
G02*
X150877000Y-105708000I0J140000D01*
G01*
X152547000Y-105708000D01*
G37*
%TO.C,R_SCLK*%
G36*
X170248500Y-84186000D02*
G01*
X170253500Y-84596000D01*
X169803500Y-84596000D01*
X169803500Y-85046000D01*
X170243500Y-85046000D01*
X170248500Y-85466000D01*
X170198500Y-85516000D01*
X169048500Y-85516000D01*
X168998500Y-85466000D01*
X168998500Y-84186000D01*
X169048500Y-84136000D01*
X170198500Y-84136000D01*
X170248500Y-84186000D01*
G37*
G36*
X172398500Y-84186000D02*
G01*
X172398500Y-85466000D01*
X172348500Y-85516000D01*
X171198500Y-85516000D01*
X171148500Y-85466000D01*
X171148500Y-85046000D01*
X171593500Y-85046000D01*
X171593500Y-84596000D01*
X171153500Y-84596000D01*
X171148500Y-84186000D01*
X171198500Y-84136000D01*
X172348500Y-84136000D01*
X172398500Y-84186000D01*
G37*
%TO.C,R_IO15_DN*%
G36*
X175027000Y-92681000D02*
G01*
X175027000Y-92923000D01*
X174657000Y-92923000D01*
X174657000Y-93253000D01*
X175027000Y-93253000D01*
X175027000Y-93481000D01*
X174977000Y-93531000D01*
X174177000Y-93531000D01*
X174127000Y-93481000D01*
X174127000Y-92681000D01*
X174177000Y-92631000D01*
X174977000Y-92631000D01*
X175027000Y-92681000D01*
G37*
G36*
X176617000Y-92681000D02*
G01*
X176617000Y-93481000D01*
X176567000Y-93531000D01*
X175767000Y-93531000D01*
X175717000Y-93481000D01*
X175717000Y-93239000D01*
X176087000Y-93239000D01*
X176087000Y-92909000D01*
X175717000Y-92909000D01*
X175717000Y-92681000D01*
X175767000Y-92631000D01*
X176567000Y-92631000D01*
X176617000Y-92681000D01*
G37*
%TO.C,C_DIF6*%
G36*
X130975000Y-97470000D02*
G01*
X130980000Y-97880000D01*
X130530000Y-97880000D01*
X130530000Y-98330000D01*
X130970000Y-98330000D01*
X130975000Y-98750000D01*
X130925000Y-98800000D01*
X129775000Y-98800000D01*
X129725000Y-98750000D01*
X129725000Y-97470000D01*
X129775000Y-97420000D01*
X130925000Y-97420000D01*
X130975000Y-97470000D01*
G37*
G36*
X133135000Y-97470000D02*
G01*
X133135000Y-98750000D01*
X133085000Y-98800000D01*
X131935000Y-98800000D01*
X131885000Y-98750000D01*
X131880000Y-98340000D01*
X132330000Y-98340000D01*
X132330000Y-97890000D01*
X131890000Y-97890000D01*
X131885000Y-97470000D01*
X131935000Y-97420000D01*
X133085000Y-97420000D01*
X133135000Y-97470000D01*
G37*
%TO.C,R_IN5N*%
G36*
X128501000Y-99912000D02*
G01*
X128501000Y-100372000D01*
X128461000Y-100412000D01*
X127960500Y-100412000D01*
X127920500Y-100372000D01*
X127920500Y-99912000D01*
X127960500Y-99872000D01*
X128461000Y-99872000D01*
X128501000Y-99912000D01*
G37*
G36*
X129351500Y-99912000D02*
G01*
X129351500Y-100372000D01*
X129311500Y-100412000D01*
X128811000Y-100412000D01*
X128771000Y-100372000D01*
X128771000Y-99912000D01*
X128811000Y-99872000D01*
X129311500Y-99872000D01*
X129351500Y-99912000D01*
G37*
%TO.C,R_Q_IO0_B*%
G36*
X169218000Y-108269000D02*
G01*
X169218000Y-109069000D01*
X169168000Y-109119000D01*
X168926000Y-109119000D01*
X168926000Y-108749000D01*
X168596000Y-108749000D01*
X168596000Y-109119000D01*
X168368000Y-109119000D01*
X168318000Y-109069000D01*
X168318000Y-108269000D01*
X168368000Y-108219000D01*
X169168000Y-108219000D01*
X169218000Y-108269000D01*
G37*
G36*
X168610000Y-110179000D02*
G01*
X168940000Y-110179000D01*
X168940000Y-109809000D01*
X169168000Y-109809000D01*
X169218000Y-109859000D01*
X169218000Y-110659000D01*
X169168000Y-110709000D01*
X168368000Y-110709000D01*
X168318000Y-110659000D01*
X168318000Y-109859000D01*
X168368000Y-109809000D01*
X168610000Y-109809000D01*
X168610000Y-110179000D01*
G37*
%TO.C,R_START_DN*%
G36*
X171758000Y-108269000D02*
G01*
X171758000Y-109069000D01*
X171708000Y-109119000D01*
X171466000Y-109119000D01*
X171466000Y-108749000D01*
X171136000Y-108749000D01*
X171136000Y-109119000D01*
X170908000Y-109119000D01*
X170858000Y-109069000D01*
X170858000Y-108269000D01*
X170908000Y-108219000D01*
X171708000Y-108219000D01*
X171758000Y-108269000D01*
G37*
G36*
X171150000Y-110179000D02*
G01*
X171480000Y-110179000D01*
X171480000Y-109809000D01*
X171708000Y-109809000D01*
X171758000Y-109859000D01*
X171758000Y-110659000D01*
X171708000Y-110709000D01*
X170908000Y-110709000D01*
X170858000Y-110659000D01*
X170858000Y-109859000D01*
X170908000Y-109809000D01*
X171150000Y-109809000D01*
X171150000Y-110179000D01*
G37*
%TO.C,FB2*%
G36*
X139706000Y-118387500D02*
G01*
X139706000Y-118828000D01*
X139321000Y-119296500D01*
X138633500Y-119296500D01*
X138533500Y-119196500D01*
X138533500Y-118019500D01*
X138633500Y-117919500D01*
X139321000Y-117919500D01*
X139706000Y-118387500D01*
G37*
G36*
X141598500Y-118019500D02*
G01*
X141598500Y-119196500D01*
X141498500Y-119296500D01*
X140811000Y-119296500D01*
X140426000Y-118828000D01*
X140426000Y-118387500D01*
X140811000Y-117919500D01*
X141498500Y-117919500D01*
X141598500Y-118019500D01*
G37*
%TO.C,R_IN8P*%
G36*
X128501000Y-92419000D02*
G01*
X128501000Y-92879000D01*
X128461000Y-92919000D01*
X127960500Y-92919000D01*
X127920500Y-92879000D01*
X127920500Y-92419000D01*
X127960500Y-92379000D01*
X128461000Y-92379000D01*
X128501000Y-92419000D01*
G37*
G36*
X129351500Y-92419000D02*
G01*
X129351500Y-92879000D01*
X129311500Y-92919000D01*
X128811000Y-92919000D01*
X128771000Y-92879000D01*
X128771000Y-92419000D01*
X128811000Y-92379000D01*
X129311500Y-92379000D01*
X129351500Y-92419000D01*
G37*
%TO.C,FB3*%
G36*
X167678500Y-119715500D02*
G01*
X167678500Y-120403000D01*
X167210000Y-120788000D01*
X166769500Y-120788000D01*
X166301500Y-120403000D01*
X166301500Y-119715500D01*
X166401500Y-119615500D01*
X167578500Y-119615500D01*
X167678500Y-119715500D01*
G37*
G36*
X167678500Y-121893000D02*
G01*
X167678500Y-122580500D01*
X167578500Y-122680500D01*
X166401500Y-122680500D01*
X166301500Y-122580500D01*
X166301500Y-121893000D01*
X166769500Y-121508000D01*
X167210000Y-121508000D01*
X167678500Y-121893000D01*
G37*
%TO.C,R_Q_EN_B*%
G36*
X164392000Y-108269000D02*
G01*
X164392000Y-109069000D01*
X164342000Y-109119000D01*
X164100000Y-109119000D01*
X164100000Y-108749000D01*
X163770000Y-108749000D01*
X163770000Y-109119000D01*
X163542000Y-109119000D01*
X163492000Y-109069000D01*
X163492000Y-108269000D01*
X163542000Y-108219000D01*
X164342000Y-108219000D01*
X164392000Y-108269000D01*
G37*
G36*
X163784000Y-110179000D02*
G01*
X164114000Y-110179000D01*
X164114000Y-109809000D01*
X164342000Y-109809000D01*
X164392000Y-109859000D01*
X164392000Y-110659000D01*
X164342000Y-110709000D01*
X163542000Y-110709000D01*
X163492000Y-110659000D01*
X163492000Y-109859000D01*
X163542000Y-109809000D01*
X163784000Y-109809000D01*
X163784000Y-110179000D01*
G37*
%TO.C,R_IN8N*%
G36*
X128501000Y-90920500D02*
G01*
X128501000Y-91380500D01*
X128461000Y-91420500D01*
X127960500Y-91420500D01*
X127920500Y-91380500D01*
X127920500Y-90920500D01*
X127960500Y-90880500D01*
X128461000Y-90880500D01*
X128501000Y-90920500D01*
G37*
G36*
X129351500Y-90920500D02*
G01*
X129351500Y-91380500D01*
X129311500Y-91420500D01*
X128811000Y-91420500D01*
X128771000Y-91380500D01*
X128771000Y-90920500D01*
X128811000Y-90880500D01*
X129311500Y-90880500D01*
X129351500Y-90920500D01*
G37*
%TO.C,C_DIF1*%
G36*
X130975000Y-112456000D02*
G01*
X130980000Y-112866000D01*
X130530000Y-112866000D01*
X130530000Y-113316000D01*
X130970000Y-113316000D01*
X130975000Y-113736000D01*
X130925000Y-113786000D01*
X129775000Y-113786000D01*
X129725000Y-113736000D01*
X129725000Y-112456000D01*
X129775000Y-112406000D01*
X130925000Y-112406000D01*
X130975000Y-112456000D01*
G37*
G36*
X133135000Y-112456000D02*
G01*
X133135000Y-113736000D01*
X133085000Y-113786000D01*
X131935000Y-113786000D01*
X131885000Y-113736000D01*
X131880000Y-113326000D01*
X132330000Y-113326000D01*
X132330000Y-112876000D01*
X131890000Y-112876000D01*
X131885000Y-112456000D01*
X131935000Y-112406000D01*
X133085000Y-112406000D01*
X133135000Y-112456000D01*
G37*
%TO.C,C_DIF3*%
G36*
X130975000Y-106462000D02*
G01*
X130980000Y-106872000D01*
X130530000Y-106872000D01*
X130530000Y-107322000D01*
X130970000Y-107322000D01*
X130975000Y-107742000D01*
X130925000Y-107792000D01*
X129775000Y-107792000D01*
X129725000Y-107742000D01*
X129725000Y-106462000D01*
X129775000Y-106412000D01*
X130925000Y-106412000D01*
X130975000Y-106462000D01*
G37*
G36*
X133135000Y-106462000D02*
G01*
X133135000Y-107742000D01*
X133085000Y-107792000D01*
X131935000Y-107792000D01*
X131885000Y-107742000D01*
X131880000Y-107332000D01*
X132330000Y-107332000D01*
X132330000Y-106882000D01*
X131890000Y-106882000D01*
X131885000Y-106462000D01*
X131935000Y-106412000D01*
X133085000Y-106412000D01*
X133135000Y-106462000D01*
G37*
%TO.C,R_LED*%
G36*
X177567000Y-89252000D02*
G01*
X177567000Y-89494000D01*
X177197000Y-89494000D01*
X177197000Y-89824000D01*
X177567000Y-89824000D01*
X177567000Y-90052000D01*
X177517000Y-90102000D01*
X176717000Y-90102000D01*
X176667000Y-90052000D01*
X176667000Y-89252000D01*
X176717000Y-89202000D01*
X177517000Y-89202000D01*
X177567000Y-89252000D01*
G37*
G36*
X179157000Y-89252000D02*
G01*
X179157000Y-90052000D01*
X179107000Y-90102000D01*
X178307000Y-90102000D01*
X178257000Y-90052000D01*
X178257000Y-89810000D01*
X178627000Y-89810000D01*
X178627000Y-89480000D01*
X178257000Y-89480000D01*
X178257000Y-89252000D01*
X178307000Y-89202000D01*
X179107000Y-89202000D01*
X179157000Y-89252000D01*
G37*
%TO.C,R_IN4N*%
G36*
X128501000Y-102909500D02*
G01*
X128501000Y-103369500D01*
X128461000Y-103409500D01*
X127960500Y-103409500D01*
X127920500Y-103369500D01*
X127920500Y-102909500D01*
X127960500Y-102869500D01*
X128461000Y-102869500D01*
X128501000Y-102909500D01*
G37*
G36*
X129351500Y-102909500D02*
G01*
X129351500Y-103369500D01*
X129311500Y-103409500D01*
X128811000Y-103409500D01*
X128771000Y-103369500D01*
X128771000Y-102909500D01*
X128811000Y-102869500D01*
X129311500Y-102869500D01*
X129351500Y-102909500D01*
G37*
%TO.C,R_IN1N*%
G36*
X128501000Y-111901000D02*
G01*
X128501000Y-112361000D01*
X128461000Y-112401000D01*
X127960500Y-112401000D01*
X127920500Y-112361000D01*
X127920500Y-111901000D01*
X127960500Y-111861000D01*
X128461000Y-111861000D01*
X128501000Y-111901000D01*
G37*
G36*
X129351500Y-111901000D02*
G01*
X129351500Y-112361000D01*
X129311500Y-112401000D01*
X128811000Y-112401000D01*
X128771000Y-112361000D01*
X128771000Y-111901000D01*
X128811000Y-111861000D01*
X129311500Y-111861000D01*
X129351500Y-111901000D01*
G37*
%TO.C,R_IN6N*%
G36*
X128501000Y-96915000D02*
G01*
X128501000Y-97375000D01*
X128461000Y-97415000D01*
X127960500Y-97415000D01*
X127920500Y-97375000D01*
X127920500Y-96915000D01*
X127960500Y-96875000D01*
X128461000Y-96875000D01*
X128501000Y-96915000D01*
G37*
G36*
X129351500Y-96915000D02*
G01*
X129351500Y-97375000D01*
X129311500Y-97415000D01*
X128811000Y-97415000D01*
X128771000Y-97375000D01*
X128771000Y-96915000D01*
X128811000Y-96875000D01*
X129311500Y-96875000D01*
X129351500Y-96915000D01*
G37*
%TO.C,R_IN1P*%
G36*
X128501000Y-113399500D02*
G01*
X128501000Y-113859500D01*
X128461000Y-113899500D01*
X127960500Y-113899500D01*
X127920500Y-113859500D01*
X127920500Y-113399500D01*
X127960500Y-113359500D01*
X128461000Y-113359500D01*
X128501000Y-113399500D01*
G37*
G36*
X129351500Y-113399500D02*
G01*
X129351500Y-113859500D01*
X129311500Y-113899500D01*
X128811000Y-113899500D01*
X128771000Y-113859500D01*
X128771000Y-113399500D01*
X128811000Y-113359500D01*
X129311500Y-113359500D01*
X129351500Y-113399500D01*
G37*
%TO.C,R_BIAS_FB*%
G36*
X146220000Y-89774000D02*
G01*
X146225000Y-90184000D01*
X145775000Y-90184000D01*
X145775000Y-90634000D01*
X146215000Y-90634000D01*
X146220000Y-91054000D01*
X146170000Y-91104000D01*
X145020000Y-91104000D01*
X144970000Y-91054000D01*
X144970000Y-89774000D01*
X145020000Y-89724000D01*
X146170000Y-89724000D01*
X146220000Y-89774000D01*
G37*
G36*
X148370000Y-89774000D02*
G01*
X148370000Y-91054000D01*
X148320000Y-91104000D01*
X147170000Y-91104000D01*
X147120000Y-91054000D01*
X147120000Y-90634000D01*
X147565000Y-90634000D01*
X147565000Y-90184000D01*
X147125000Y-90184000D01*
X147120000Y-89774000D01*
X147170000Y-89724000D01*
X148320000Y-89724000D01*
X148370000Y-89774000D01*
G37*
%TO.C,R_IN3P*%
G36*
X128501000Y-107405000D02*
G01*
X128501000Y-107865000D01*
X128461000Y-107905000D01*
X127960500Y-107905000D01*
X127920500Y-107865000D01*
X127920500Y-107405000D01*
X127960500Y-107365000D01*
X128461000Y-107365000D01*
X128501000Y-107405000D01*
G37*
G36*
X129351500Y-107405000D02*
G01*
X129351500Y-107865000D01*
X129311500Y-107905000D01*
X128811000Y-107905000D01*
X128771000Y-107865000D01*
X128771000Y-107405000D01*
X128811000Y-107365000D01*
X129311500Y-107365000D01*
X129351500Y-107405000D01*
G37*
%TO.C,J1*%
G36*
X176341000Y-108888000D02*
G01*
X175241000Y-108888000D01*
X175241000Y-108288000D01*
X176341000Y-108288000D01*
X176341000Y-108888000D01*
G37*
G36*
X176341000Y-109388000D02*
G01*
X175241000Y-109388000D01*
X175241000Y-109088000D01*
X176341000Y-109088000D01*
X176341000Y-109388000D01*
G37*
G36*
X176341000Y-113688000D02*
G01*
X175241000Y-113688000D01*
X175241000Y-113088000D01*
X176341000Y-113088000D01*
X176341000Y-113688000D01*
G37*
G36*
X176341000Y-114488000D02*
G01*
X175241000Y-114488000D01*
X175241000Y-113888000D01*
X176341000Y-113888000D01*
X176341000Y-114488000D01*
G37*
G36*
X176341000Y-108088000D02*
G01*
X175241000Y-108088000D01*
X175241000Y-107488000D01*
X176341000Y-107488000D01*
X176341000Y-108088000D01*
G37*
G36*
X176341000Y-109888000D02*
G01*
X175241000Y-109888000D01*
X175241000Y-109588000D01*
X176341000Y-109588000D01*
X176341000Y-109888000D01*
G37*
G36*
X176341000Y-110388000D02*
G01*
X175241000Y-110388000D01*
X175241000Y-110088000D01*
X176341000Y-110088000D01*
X176341000Y-110388000D01*
G37*
G36*
X176341000Y-110888000D02*
G01*
X175241000Y-110888000D01*
X175241000Y-110588000D01*
X176341000Y-110588000D01*
X176341000Y-110888000D01*
G37*
G36*
X176341000Y-111388000D02*
G01*
X175241000Y-111388000D01*
X175241000Y-111088000D01*
X176341000Y-111088000D01*
X176341000Y-111388000D01*
G37*
G36*
X176341000Y-111888000D02*
G01*
X175241000Y-111888000D01*
X175241000Y-111588000D01*
X176341000Y-111588000D01*
X176341000Y-111888000D01*
G37*
G36*
X176341000Y-112388000D02*
G01*
X175241000Y-112388000D01*
X175241000Y-112088000D01*
X176341000Y-112088000D01*
X176341000Y-112388000D01*
G37*
G36*
X176341000Y-112888000D02*
G01*
X175241000Y-112888000D01*
X175241000Y-112588000D01*
X176341000Y-112588000D01*
X176341000Y-112888000D01*
G37*
G36*
X176771000Y-114713500D02*
G01*
X176800500Y-114716000D01*
X176830500Y-114719500D01*
X176860000Y-114725000D01*
X176889000Y-114731500D01*
X176917500Y-114739500D01*
X176946000Y-114749000D01*
X176974000Y-114760000D01*
X177001000Y-114772500D01*
X177028000Y-114786000D01*
X177053500Y-114801000D01*
X177079000Y-114817500D01*
X177103000Y-114834500D01*
X177126500Y-114853500D01*
X177149000Y-114873000D01*
X177170500Y-114894000D01*
X177190500Y-114916000D01*
X177210000Y-114939000D01*
X177228000Y-114962500D01*
X177245000Y-114987500D01*
X177260500Y-115013000D01*
X177275000Y-115039000D01*
X177288000Y-115066000D01*
X177299500Y-115094000D01*
X177309500Y-115122000D01*
X177318500Y-115150500D01*
X177326000Y-115179500D01*
X177332000Y-115209000D01*
X177336000Y-115238500D01*
X177339000Y-115268000D01*
X177340500Y-115298000D01*
X177340500Y-115328000D01*
X177339000Y-115358000D01*
X177336000Y-115387500D01*
X177332000Y-115417000D01*
X177326000Y-115446500D01*
X177318500Y-115475500D01*
X177309500Y-115504000D01*
X177299500Y-115532000D01*
X177288000Y-115559500D01*
X177275000Y-115586500D01*
X177260500Y-115613000D01*
X177245000Y-115638500D01*
X177228000Y-115663000D01*
X177210000Y-115687000D01*
X177190500Y-115710000D01*
X177170500Y-115732000D01*
X177149000Y-115753000D01*
X177126500Y-115772500D01*
X177103000Y-115791500D01*
X177079000Y-115808500D01*
X177053500Y-115825000D01*
X177028000Y-115840000D01*
X177001000Y-115853500D01*
X176974000Y-115866000D01*
X176946000Y-115877000D01*
X176917500Y-115886500D01*
X176889000Y-115894500D01*
X176860000Y-115901000D01*
X176830500Y-115906500D01*
X176800500Y-115910000D01*
X176771000Y-115912000D01*
X176741000Y-115913000D01*
X175941000Y-115913000D01*
X175911000Y-115912000D01*
X175881000Y-115910000D01*
X175851500Y-115906500D01*
X175822000Y-115901000D01*
X175793000Y-115894500D01*
X175764000Y-115886500D01*
X175735500Y-115877000D01*
X175708000Y-115866000D01*
X175680500Y-115853500D01*
X175654000Y-115840000D01*
X175628000Y-115825000D01*
X175603000Y-115808500D01*
X175578500Y-115791500D01*
X175555000Y-115772500D01*
X175533000Y-115753000D01*
X175511500Y-115732000D01*
X175491000Y-115710000D01*
X175472000Y-115687000D01*
X175453500Y-115663000D01*
X175437000Y-115638500D01*
X175421500Y-115613000D01*
X175407000Y-115586500D01*
X175394000Y-115559500D01*
X175382500Y-115532000D01*
X175372000Y-115504000D01*
X175363500Y-115475500D01*
X175356000Y-115446500D01*
X175350000Y-115417000D01*
X175345500Y-115387500D01*
X175342500Y-115358000D01*
X175341000Y-115328000D01*
X175341000Y-115298000D01*
X175342500Y-115268000D01*
X175345500Y-115238500D01*
X175350000Y-115209000D01*
X175356000Y-115179500D01*
X175363500Y-115150500D01*
X175372000Y-115122000D01*
X175382500Y-115094000D01*
X175394000Y-115066000D01*
X175407000Y-115039000D01*
X175421500Y-115013000D01*
X175437000Y-114987500D01*
X175453500Y-114962500D01*
X175472000Y-114939000D01*
X175491000Y-114916000D01*
X175511500Y-114894000D01*
X175533000Y-114873000D01*
X175555000Y-114853500D01*
X175578500Y-114834500D01*
X175603000Y-114817500D01*
X175628000Y-114801000D01*
X175654000Y-114786000D01*
X175680500Y-114772500D01*
X175708000Y-114760000D01*
X175735500Y-114749000D01*
X175764000Y-114739500D01*
X175793000Y-114731500D01*
X175822000Y-114725000D01*
X175851500Y-114719500D01*
X175881000Y-114716000D01*
X175911000Y-114713500D01*
X175941000Y-114713000D01*
X176741000Y-114713000D01*
X176771000Y-114713500D01*
G37*
G36*
X176771000Y-106064000D02*
G01*
X176800500Y-106066000D01*
X176830500Y-106069500D01*
X176860000Y-106075000D01*
X176889000Y-106081500D01*
X176917500Y-106089500D01*
X176946000Y-106099000D01*
X176974000Y-106110000D01*
X177001000Y-106122500D01*
X177028000Y-106136000D01*
X177053500Y-106151000D01*
X177079000Y-106167500D01*
X177103000Y-106184500D01*
X177126500Y-106203500D01*
X177149000Y-106223000D01*
X177170500Y-106244000D01*
X177190500Y-106266000D01*
X177210000Y-106289000D01*
X177228000Y-106313000D01*
X177245000Y-106337500D01*
X177260500Y-106363000D01*
X177275000Y-106389500D01*
X177288000Y-106416500D01*
X177299500Y-106444000D01*
X177309500Y-106472000D01*
X177318500Y-106500500D01*
X177326000Y-106529500D01*
X177332000Y-106559000D01*
X177336000Y-106588500D01*
X177339000Y-106618000D01*
X177340500Y-106648000D01*
X177340500Y-106678000D01*
X177339000Y-106708000D01*
X177336000Y-106737500D01*
X177332000Y-106767000D01*
X177326000Y-106796500D01*
X177318500Y-106825500D01*
X177309500Y-106854000D01*
X177299500Y-106882000D01*
X177288000Y-106910000D01*
X177275000Y-106937000D01*
X177260500Y-106963000D01*
X177245000Y-106988500D01*
X177228000Y-107013500D01*
X177210000Y-107037000D01*
X177190500Y-107060000D01*
X177170500Y-107082000D01*
X177149000Y-107103000D01*
X177126500Y-107122500D01*
X177103000Y-107141500D01*
X177079000Y-107158500D01*
X177053500Y-107175000D01*
X177028000Y-107190000D01*
X177001000Y-107203500D01*
X176974000Y-107216000D01*
X176946000Y-107227000D01*
X176917500Y-107236500D01*
X176889000Y-107244500D01*
X176860000Y-107251000D01*
X176830500Y-107256500D01*
X176800500Y-107260000D01*
X176771000Y-107262500D01*
X176741000Y-107263000D01*
X175941000Y-107263000D01*
X175911000Y-107262500D01*
X175881000Y-107260000D01*
X175851500Y-107256500D01*
X175822000Y-107251000D01*
X175793000Y-107244500D01*
X175764000Y-107236500D01*
X175735500Y-107227000D01*
X175708000Y-107216000D01*
X175680500Y-107203500D01*
X175654000Y-107190000D01*
X175628000Y-107175000D01*
X175603000Y-107158500D01*
X175578500Y-107141500D01*
X175555000Y-107122500D01*
X175533000Y-107103000D01*
X175511500Y-107082000D01*
X175491000Y-107060000D01*
X175472000Y-107037000D01*
X175453500Y-107013500D01*
X175437000Y-106988500D01*
X175421500Y-106963000D01*
X175407000Y-106937000D01*
X175394000Y-106910000D01*
X175382500Y-106882000D01*
X175372000Y-106854000D01*
X175363500Y-106825500D01*
X175356000Y-106796500D01*
X175350000Y-106767000D01*
X175345500Y-106737500D01*
X175342500Y-106708000D01*
X175341000Y-106678000D01*
X175341000Y-106648000D01*
X175342500Y-106618000D01*
X175345500Y-106588500D01*
X175350000Y-106559000D01*
X175356000Y-106529500D01*
X175363500Y-106500500D01*
X175372000Y-106472000D01*
X175382500Y-106444000D01*
X175394000Y-106416500D01*
X175407000Y-106389500D01*
X175421500Y-106363000D01*
X175437000Y-106337500D01*
X175453500Y-106313000D01*
X175472000Y-106289000D01*
X175491000Y-106266000D01*
X175511500Y-106244000D01*
X175533000Y-106223000D01*
X175555000Y-106203500D01*
X175578500Y-106184500D01*
X175603000Y-106167500D01*
X175628000Y-106151000D01*
X175654000Y-106136000D01*
X175680500Y-106122500D01*
X175708000Y-106110000D01*
X175735500Y-106099000D01*
X175764000Y-106089500D01*
X175793000Y-106081500D01*
X175822000Y-106075000D01*
X175851500Y-106069500D01*
X175881000Y-106066000D01*
X175911000Y-106064000D01*
X175941000Y-106063000D01*
X176741000Y-106063000D01*
X176771000Y-106064000D01*
G37*
G36*
X180721000Y-106064000D02*
G01*
X180751000Y-106066000D01*
X180780500Y-106069500D01*
X180810000Y-106075000D01*
X180839000Y-106081500D01*
X180868000Y-106089500D01*
X180896000Y-106099000D01*
X180924000Y-106110000D01*
X180951500Y-106122500D01*
X180978000Y-106136000D01*
X181004000Y-106151000D01*
X181029000Y-106167500D01*
X181053500Y-106184500D01*
X181076500Y-106203500D01*
X181099000Y-106223000D01*
X181120500Y-106244000D01*
X181141000Y-106266000D01*
X181160000Y-106289000D01*
X181178000Y-106313000D01*
X181195000Y-106337500D01*
X181210500Y-106363000D01*
X181225000Y-106389500D01*
X181238000Y-106416500D01*
X181249500Y-106444000D01*
X181260000Y-106472000D01*
X181268500Y-106500500D01*
X181276000Y-106529500D01*
X181282000Y-106559000D01*
X181286500Y-106588500D01*
X181289500Y-106618000D01*
X181291000Y-106648000D01*
X181291000Y-106678000D01*
X181289500Y-106708000D01*
X181286500Y-106737500D01*
X181282000Y-106767000D01*
X181276000Y-106796500D01*
X181268500Y-106825500D01*
X181260000Y-106854000D01*
X181249500Y-106882000D01*
X181238000Y-106910000D01*
X181225000Y-106937000D01*
X181210500Y-106963000D01*
X181195000Y-106988500D01*
X181178000Y-107013500D01*
X181160000Y-107037000D01*
X181141000Y-107060000D01*
X181120500Y-107082000D01*
X181099000Y-107103000D01*
X181076500Y-107122500D01*
X181053500Y-107141500D01*
X181029000Y-107158500D01*
X181004000Y-107175000D01*
X180978000Y-107190000D01*
X180951500Y-107203500D01*
X180924000Y-107216000D01*
X180896000Y-107227000D01*
X180868000Y-107236500D01*
X180839000Y-107244500D01*
X180810000Y-107251000D01*
X180780500Y-107256500D01*
X180751000Y-107260000D01*
X180721000Y-107262500D01*
X180691000Y-107263000D01*
X180391000Y-107263000D01*
X180361000Y-107262500D01*
X180331500Y-107260000D01*
X180301500Y-107256500D01*
X180272000Y-107251000D01*
X180243000Y-107244500D01*
X180214000Y-107236500D01*
X180186000Y-107227000D01*
X180158000Y-107216000D01*
X180130500Y-107203500D01*
X180104000Y-107190000D01*
X180078000Y-107175000D01*
X180053000Y-107158500D01*
X180029000Y-107141500D01*
X180005500Y-107122500D01*
X179983000Y-107103000D01*
X179961500Y-107082000D01*
X179941000Y-107060000D01*
X179922000Y-107037000D01*
X179904000Y-107013500D01*
X179887000Y-106988500D01*
X179871500Y-106963000D01*
X179857000Y-106937000D01*
X179844000Y-106910000D01*
X179832500Y-106882000D01*
X179822500Y-106854000D01*
X179813500Y-106825500D01*
X179806000Y-106796500D01*
X179800000Y-106767000D01*
X179795500Y-106737500D01*
X179792500Y-106708000D01*
X179791000Y-106678000D01*
X179791000Y-106648000D01*
X179792500Y-106618000D01*
X179795500Y-106588500D01*
X179800000Y-106559000D01*
X179806000Y-106529500D01*
X179813500Y-106500500D01*
X179822500Y-106472000D01*
X179832500Y-106444000D01*
X179844000Y-106416500D01*
X179857000Y-106389500D01*
X179871500Y-106363000D01*
X179887000Y-106337500D01*
X179904000Y-106313000D01*
X179922000Y-106289000D01*
X179941000Y-106266000D01*
X179961500Y-106244000D01*
X179983000Y-106223000D01*
X180005500Y-106203500D01*
X180029000Y-106184500D01*
X180053000Y-106167500D01*
X180078000Y-106151000D01*
X180104000Y-106136000D01*
X180130500Y-106122500D01*
X180158000Y-106110000D01*
X180186000Y-106099000D01*
X180214000Y-106089500D01*
X180243000Y-106081500D01*
X180272000Y-106075000D01*
X180301500Y-106069500D01*
X180331500Y-106066000D01*
X180361000Y-106064000D01*
X180391000Y-106063000D01*
X180691000Y-106063000D01*
X180721000Y-106064000D01*
G37*
G36*
X180721000Y-114713500D02*
G01*
X180751000Y-114716000D01*
X180780500Y-114719500D01*
X180810000Y-114725000D01*
X180839000Y-114731500D01*
X180868000Y-114739500D01*
X180896000Y-114749000D01*
X180924000Y-114760000D01*
X180951500Y-114772500D01*
X180978000Y-114786000D01*
X181004000Y-114801000D01*
X181029000Y-114817500D01*
X181053500Y-114834500D01*
X181076500Y-114853500D01*
X181099000Y-114873000D01*
X181120500Y-114894000D01*
X181141000Y-114916000D01*
X181160000Y-114939000D01*
X181178000Y-114962500D01*
X181195000Y-114987500D01*
X181210500Y-115013000D01*
X181225000Y-115039000D01*
X181238000Y-115066000D01*
X181249500Y-115094000D01*
X181260000Y-115122000D01*
X181268500Y-115150500D01*
X181276000Y-115179500D01*
X181282000Y-115209000D01*
X181286500Y-115238500D01*
X181289500Y-115268000D01*
X181291000Y-115298000D01*
X181291000Y-115328000D01*
X181289500Y-115358000D01*
X181286500Y-115387500D01*
X181282000Y-115417000D01*
X181276000Y-115446500D01*
X181268500Y-115475500D01*
X181260000Y-115504000D01*
X181249500Y-115532000D01*
X181238000Y-115559500D01*
X181225000Y-115586500D01*
X181210500Y-115613000D01*
X181195000Y-115638500D01*
X181178000Y-115663000D01*
X181160000Y-115687000D01*
X181141000Y-115710000D01*
X181120500Y-115732000D01*
X181099000Y-115753000D01*
X181076500Y-115772500D01*
X181053500Y-115791500D01*
X181029000Y-115808500D01*
X181004000Y-115825000D01*
X180978000Y-115840000D01*
X180951500Y-115853500D01*
X180924000Y-115866000D01*
X180896000Y-115877000D01*
X180868000Y-115886500D01*
X180839000Y-115894500D01*
X180810000Y-115901000D01*
X180780500Y-115906500D01*
X180751000Y-115910000D01*
X180721000Y-115912000D01*
X180691000Y-115913000D01*
X180391000Y-115913000D01*
X180361000Y-115912000D01*
X180331500Y-115910000D01*
X180301500Y-115906500D01*
X180272000Y-115901000D01*
X180243000Y-115894500D01*
X180214000Y-115886500D01*
X180186000Y-115877000D01*
X180158000Y-115866000D01*
X180130500Y-115853500D01*
X180104000Y-115840000D01*
X180078000Y-115825000D01*
X180053000Y-115808500D01*
X180029000Y-115791500D01*
X180005500Y-115772500D01*
X179983000Y-115753000D01*
X179961500Y-115732000D01*
X179941000Y-115710000D01*
X179922000Y-115687000D01*
X179904000Y-115663000D01*
X179887000Y-115638500D01*
X179871500Y-115613000D01*
X179857000Y-115586500D01*
X179844000Y-115559500D01*
X179832500Y-115532000D01*
X179822500Y-115504000D01*
X179813500Y-115475500D01*
X179806000Y-115446500D01*
X179800000Y-115417000D01*
X179795500Y-115387500D01*
X179792500Y-115358000D01*
X179791000Y-115328000D01*
X179791000Y-115298000D01*
X179792500Y-115268000D01*
X179795500Y-115238500D01*
X179800000Y-115209000D01*
X179806000Y-115179500D01*
X179813500Y-115150500D01*
X179822500Y-115122000D01*
X179832500Y-115094000D01*
X179844000Y-115066000D01*
X179857000Y-115039000D01*
X179871500Y-115013000D01*
X179887000Y-114987500D01*
X179904000Y-114962500D01*
X179922000Y-114939000D01*
X179941000Y-114916000D01*
X179961500Y-114894000D01*
X179983000Y-114873000D01*
X180005500Y-114853500D01*
X180029000Y-114834500D01*
X180053000Y-114817500D01*
X180078000Y-114801000D01*
X180104000Y-114786000D01*
X180130500Y-114772500D01*
X180158000Y-114760000D01*
X180186000Y-114749000D01*
X180214000Y-114739500D01*
X180243000Y-114731500D01*
X180272000Y-114725000D01*
X180301500Y-114719500D01*
X180331500Y-114716000D01*
X180361000Y-114713500D01*
X180391000Y-114713000D01*
X180691000Y-114713000D01*
X180721000Y-114713500D01*
G37*
%TO.C,R_EN_UP*%
G36*
X158296000Y-108269000D02*
G01*
X158296000Y-109069000D01*
X158246000Y-109119000D01*
X158004000Y-109119000D01*
X158004000Y-108749000D01*
X157674000Y-108749000D01*
X157674000Y-109119000D01*
X157446000Y-109119000D01*
X157396000Y-109069000D01*
X157396000Y-108269000D01*
X157446000Y-108219000D01*
X158246000Y-108219000D01*
X158296000Y-108269000D01*
G37*
G36*
X157688000Y-110179000D02*
G01*
X158018000Y-110179000D01*
X158018000Y-109809000D01*
X158246000Y-109809000D01*
X158296000Y-109859000D01*
X158296000Y-110659000D01*
X158246000Y-110709000D01*
X157446000Y-110709000D01*
X157396000Y-110659000D01*
X157396000Y-109859000D01*
X157446000Y-109809000D01*
X157688000Y-109809000D01*
X157688000Y-110179000D01*
G37*
%TO.C,C_DIF5*%
G36*
X130975000Y-100467500D02*
G01*
X130980000Y-100877500D01*
X130530000Y-100877500D01*
X130530000Y-101327500D01*
X130970000Y-101327500D01*
X130975000Y-101747500D01*
X130925000Y-101797500D01*
X129775000Y-101797500D01*
X129725000Y-101747500D01*
X129725000Y-100467500D01*
X129775000Y-100417500D01*
X130925000Y-100417500D01*
X130975000Y-100467500D01*
G37*
G36*
X133135000Y-100467500D02*
G01*
X133135000Y-101747500D01*
X133085000Y-101797500D01*
X131935000Y-101797500D01*
X131885000Y-101747500D01*
X131880000Y-101337500D01*
X132330000Y-101337500D01*
X132330000Y-100887500D01*
X131890000Y-100887500D01*
X131885000Y-100467500D01*
X131935000Y-100417500D01*
X133085000Y-100417500D01*
X133135000Y-100467500D01*
G37*
%TO.C,R_PWDN_UP*%
G36*
X152708000Y-81853000D02*
G01*
X152708000Y-82653000D01*
X152658000Y-82703000D01*
X152416000Y-82703000D01*
X152416000Y-82333000D01*
X152086000Y-82333000D01*
X152086000Y-82703000D01*
X151858000Y-82703000D01*
X151808000Y-82653000D01*
X151808000Y-81853000D01*
X151858000Y-81803000D01*
X152658000Y-81803000D01*
X152708000Y-81853000D01*
G37*
G36*
X152100000Y-83763000D02*
G01*
X152430000Y-83763000D01*
X152430000Y-83393000D01*
X152658000Y-83393000D01*
X152708000Y-83443000D01*
X152708000Y-84243000D01*
X152658000Y-84293000D01*
X151858000Y-84293000D01*
X151808000Y-84243000D01*
X151808000Y-83443000D01*
X151858000Y-83393000D01*
X152100000Y-83393000D01*
X152100000Y-83763000D01*
G37*
%TO.C,C_DIF7*%
G36*
X130975000Y-94473000D02*
G01*
X130980000Y-94883000D01*
X130530000Y-94883000D01*
X130530000Y-95333000D01*
X130970000Y-95333000D01*
X130975000Y-95753000D01*
X130925000Y-95803000D01*
X129775000Y-95803000D01*
X129725000Y-95753000D01*
X129725000Y-94473000D01*
X129775000Y-94423000D01*
X130925000Y-94423000D01*
X130975000Y-94473000D01*
G37*
G36*
X133135000Y-94473000D02*
G01*
X133135000Y-95753000D01*
X133085000Y-95803000D01*
X131935000Y-95803000D01*
X131885000Y-95753000D01*
X131880000Y-95343000D01*
X132330000Y-95343000D01*
X132330000Y-94893000D01*
X131890000Y-94893000D01*
X131885000Y-94473000D01*
X131935000Y-94423000D01*
X133085000Y-94423000D01*
X133135000Y-94473000D01*
G37*
%TO.C,R_MISO*%
G36*
X166438500Y-84186000D02*
G01*
X166443500Y-84596000D01*
X165993500Y-84596000D01*
X165993500Y-85046000D01*
X166433500Y-85046000D01*
X166438500Y-85466000D01*
X166388500Y-85516000D01*
X165238500Y-85516000D01*
X165188500Y-85466000D01*
X165188500Y-84186000D01*
X165238500Y-84136000D01*
X166388500Y-84136000D01*
X166438500Y-84186000D01*
G37*
G36*
X168588500Y-84186000D02*
G01*
X168588500Y-85466000D01*
X168538500Y-85516000D01*
X167388500Y-85516000D01*
X167338500Y-85466000D01*
X167338500Y-85046000D01*
X167783500Y-85046000D01*
X167783500Y-84596000D01*
X167343500Y-84596000D01*
X167338500Y-84186000D01*
X167388500Y-84136000D01*
X168538500Y-84136000D01*
X168588500Y-84186000D01*
G37*
%TO.C,FB1*%
G36*
X139706000Y-120419500D02*
G01*
X139706000Y-120860000D01*
X139321000Y-121328500D01*
X138633500Y-121328500D01*
X138533500Y-121228500D01*
X138533500Y-120051500D01*
X138633500Y-119951500D01*
X139321000Y-119951500D01*
X139706000Y-120419500D01*
G37*
G36*
X141598500Y-120051500D02*
G01*
X141598500Y-121228500D01*
X141498500Y-121328500D01*
X140811000Y-121328500D01*
X140426000Y-120860000D01*
X140426000Y-120419500D01*
X140811000Y-119951500D01*
X141498500Y-119951500D01*
X141598500Y-120051500D01*
G37*
%TO.C,R_CS_UP*%
G36*
X146612000Y-81853000D02*
G01*
X146612000Y-82653000D01*
X146562000Y-82703000D01*
X146320000Y-82703000D01*
X146320000Y-82333000D01*
X145990000Y-82333000D01*
X145990000Y-82703000D01*
X145762000Y-82703000D01*
X145712000Y-82653000D01*
X145712000Y-81853000D01*
X145762000Y-81803000D01*
X146562000Y-81803000D01*
X146612000Y-81853000D01*
G37*
G36*
X146004000Y-83763000D02*
G01*
X146334000Y-83763000D01*
X146334000Y-83393000D01*
X146562000Y-83393000D01*
X146612000Y-83443000D01*
X146612000Y-84243000D01*
X146562000Y-84293000D01*
X145762000Y-84293000D01*
X145712000Y-84243000D01*
X145712000Y-83443000D01*
X145762000Y-83393000D01*
X146004000Y-83393000D01*
X146004000Y-83763000D01*
G37*
%TO.C,R_IN2N*%
G36*
X128501000Y-108904000D02*
G01*
X128501000Y-109364000D01*
X128461000Y-109404000D01*
X127960500Y-109404000D01*
X127920500Y-109364000D01*
X127920500Y-108904000D01*
X127960500Y-108864000D01*
X128461000Y-108864000D01*
X128501000Y-108904000D01*
G37*
G36*
X129351500Y-108904000D02*
G01*
X129351500Y-109364000D01*
X129311500Y-109404000D01*
X128811000Y-109404000D01*
X128771000Y-109364000D01*
X128771000Y-108904000D01*
X128811000Y-108864000D01*
X129311500Y-108864000D01*
X129351500Y-108904000D01*
G37*
%TO.C,R_IN4P*%
G36*
X128501000Y-104408000D02*
G01*
X128501000Y-104868000D01*
X128461000Y-104908000D01*
X127960500Y-104908000D01*
X127920500Y-104868000D01*
X127920500Y-104408000D01*
X127960500Y-104368000D01*
X128461000Y-104368000D01*
X128501000Y-104408000D01*
G37*
G36*
X129351500Y-104408000D02*
G01*
X129351500Y-104868000D01*
X129311500Y-104908000D01*
X128811000Y-104908000D01*
X128771000Y-104868000D01*
X128771000Y-104408000D01*
X128811000Y-104368000D01*
X129311500Y-104368000D01*
X129351500Y-104408000D01*
G37*
%TO.C,R_IO0_UP*%
G36*
X175060000Y-84393000D02*
G01*
X175060000Y-85193000D01*
X175010000Y-85243000D01*
X174768000Y-85243000D01*
X174768000Y-84873000D01*
X174438000Y-84873000D01*
X174438000Y-85243000D01*
X174210000Y-85243000D01*
X174160000Y-85193000D01*
X174160000Y-84393000D01*
X174210000Y-84343000D01*
X175010000Y-84343000D01*
X175060000Y-84393000D01*
G37*
G36*
X174452000Y-86303000D02*
G01*
X174782000Y-86303000D01*
X174782000Y-85933000D01*
X175010000Y-85933000D01*
X175060000Y-85983000D01*
X175060000Y-86783000D01*
X175010000Y-86833000D01*
X174210000Y-86833000D01*
X174160000Y-86783000D01*
X174160000Y-85983000D01*
X174210000Y-85933000D01*
X174452000Y-85933000D01*
X174452000Y-86303000D01*
G37*
%TO.C,R_RST_UP*%
G36*
X150803000Y-81853000D02*
G01*
X150803000Y-82653000D01*
X150753000Y-82703000D01*
X150511000Y-82703000D01*
X150511000Y-82333000D01*
X150181000Y-82333000D01*
X150181000Y-82703000D01*
X149953000Y-82703000D01*
X149903000Y-82653000D01*
X149903000Y-81853000D01*
X149953000Y-81803000D01*
X150753000Y-81803000D01*
X150803000Y-81853000D01*
G37*
G36*
X150195000Y-83763000D02*
G01*
X150525000Y-83763000D01*
X150525000Y-83393000D01*
X150753000Y-83393000D01*
X150803000Y-83443000D01*
X150803000Y-84243000D01*
X150753000Y-84293000D01*
X149953000Y-84293000D01*
X149903000Y-84243000D01*
X149903000Y-83443000D01*
X149953000Y-83393000D01*
X150195000Y-83393000D01*
X150195000Y-83763000D01*
G37*
%TO.C,R_IN6P*%
G36*
X128501000Y-98413500D02*
G01*
X128501000Y-98873500D01*
X128461000Y-98913500D01*
X127960500Y-98913500D01*
X127920500Y-98873500D01*
X127920500Y-98413500D01*
X127960500Y-98373500D01*
X128461000Y-98373500D01*
X128501000Y-98413500D01*
G37*
G36*
X129351500Y-98413500D02*
G01*
X129351500Y-98873500D01*
X129311500Y-98913500D01*
X128811000Y-98913500D01*
X128771000Y-98873500D01*
X128771000Y-98413500D01*
X128811000Y-98373500D01*
X129311500Y-98373500D01*
X129351500Y-98413500D01*
G37*
%TO.C,R_IN5P*%
G36*
X128501000Y-101411000D02*
G01*
X128501000Y-101871000D01*
X128461000Y-101911000D01*
X127960500Y-101911000D01*
X127920500Y-101871000D01*
X127920500Y-101411000D01*
X127960500Y-101371000D01*
X128461000Y-101371000D01*
X128501000Y-101411000D01*
G37*
G36*
X129351500Y-101411000D02*
G01*
X129351500Y-101871000D01*
X129311500Y-101911000D01*
X128811000Y-101911000D01*
X128771000Y-101871000D01*
X128771000Y-101411000D01*
X128811000Y-101371000D01*
X129311500Y-101371000D01*
X129351500Y-101411000D01*
G37*
%TO.C,R_CC2*%
G36*
X172995000Y-109826000D02*
G01*
X172995000Y-110068000D01*
X172625000Y-110068000D01*
X172625000Y-110398000D01*
X172995000Y-110398000D01*
X172995000Y-110626000D01*
X172945000Y-110676000D01*
X172145000Y-110676000D01*
X172095000Y-110626000D01*
X172095000Y-109826000D01*
X172145000Y-109776000D01*
X172945000Y-109776000D01*
X172995000Y-109826000D01*
G37*
G36*
X174585000Y-109826000D02*
G01*
X174585000Y-110626000D01*
X174535000Y-110676000D01*
X173735000Y-110676000D01*
X173685000Y-110626000D01*
X173685000Y-110384000D01*
X174055000Y-110384000D01*
X174055000Y-110054000D01*
X173685000Y-110054000D01*
X173685000Y-109826000D01*
X173735000Y-109776000D01*
X174535000Y-109776000D01*
X174585000Y-109826000D01*
G37*
%TO.C,FB5*%
G36*
X148850000Y-84859500D02*
G01*
X148850000Y-85300000D01*
X148465000Y-85768500D01*
X147777500Y-85768500D01*
X147677500Y-85668500D01*
X147677500Y-84491500D01*
X147777500Y-84391500D01*
X148465000Y-84391500D01*
X148850000Y-84859500D01*
G37*
G36*
X150742500Y-84491500D02*
G01*
X150742500Y-85668500D01*
X150642500Y-85768500D01*
X149955000Y-85768500D01*
X149570000Y-85300000D01*
X149570000Y-84859500D01*
X149955000Y-84391500D01*
X150642500Y-84391500D01*
X150742500Y-84491500D01*
G37*
%TO.C,R_CC1*%
G36*
X173055000Y-113500000D02*
G01*
X173055000Y-113742000D01*
X172685000Y-113742000D01*
X172685000Y-114072000D01*
X173055000Y-114072000D01*
X173055000Y-114300000D01*
X173005000Y-114350000D01*
X172205000Y-114350000D01*
X172155000Y-114300000D01*
X172155000Y-113500000D01*
X172205000Y-113450000D01*
X173005000Y-113450000D01*
X173055000Y-113500000D01*
G37*
G36*
X174645000Y-113500000D02*
G01*
X174645000Y-114300000D01*
X174595000Y-114350000D01*
X173795000Y-114350000D01*
X173745000Y-114300000D01*
X173745000Y-114058000D01*
X174115000Y-114058000D01*
X174115000Y-113728000D01*
X173745000Y-113728000D01*
X173745000Y-113500000D01*
X173795000Y-113450000D01*
X174595000Y-113450000D01*
X174645000Y-113500000D01*
G37*
%TO.C,R_IN2P*%
G36*
X128501000Y-110402500D02*
G01*
X128501000Y-110862500D01*
X128461000Y-110902500D01*
X127960500Y-110902500D01*
X127920500Y-110862500D01*
X127920500Y-110402500D01*
X127960500Y-110362500D01*
X128461000Y-110362500D01*
X128501000Y-110402500D01*
G37*
G36*
X129351500Y-110402500D02*
G01*
X129351500Y-110862500D01*
X129311500Y-110902500D01*
X128811000Y-110902500D01*
X128771000Y-110862500D01*
X128771000Y-110402500D01*
X128811000Y-110362500D01*
X129311500Y-110362500D01*
X129351500Y-110402500D01*
G37*
%TO.C,FB4*%
G36*
X139706000Y-122451500D02*
G01*
X139706000Y-122892000D01*
X139321000Y-123360500D01*
X138633500Y-123360500D01*
X138533500Y-123260500D01*
X138533500Y-122083500D01*
X138633500Y-121983500D01*
X139321000Y-121983500D01*
X139706000Y-122451500D01*
G37*
G36*
X141598500Y-122083500D02*
G01*
X141598500Y-123260500D01*
X141498500Y-123360500D01*
X140811000Y-123360500D01*
X140426000Y-122892000D01*
X140426000Y-122451500D01*
X140811000Y-121983500D01*
X141498500Y-121983500D01*
X141598500Y-122083500D01*
G37*
%TO.C,R_IN7P*%
G36*
X128501000Y-95416500D02*
G01*
X128501000Y-95876500D01*
X128461000Y-95916500D01*
X127960500Y-95916500D01*
X127920500Y-95876500D01*
X127920500Y-95416500D01*
X127960500Y-95376500D01*
X128461000Y-95376500D01*
X128501000Y-95416500D01*
G37*
G36*
X129351500Y-95416500D02*
G01*
X129351500Y-95876500D01*
X129311500Y-95916500D01*
X128811000Y-95916500D01*
X128771000Y-95876500D01*
X128771000Y-95416500D01*
X128811000Y-95376500D01*
X129311500Y-95376500D01*
X129351500Y-95416500D01*
G37*
%TO.C,R_IO2_DN*%
G36*
X175027000Y-91411000D02*
G01*
X175027000Y-91653000D01*
X174657000Y-91653000D01*
X174657000Y-91983000D01*
X175027000Y-91983000D01*
X175027000Y-92211000D01*
X174977000Y-92261000D01*
X174177000Y-92261000D01*
X174127000Y-92211000D01*
X174127000Y-91411000D01*
X174177000Y-91361000D01*
X174977000Y-91361000D01*
X175027000Y-91411000D01*
G37*
G36*
X176617000Y-91411000D02*
G01*
X176617000Y-92211000D01*
X176567000Y-92261000D01*
X175767000Y-92261000D01*
X175717000Y-92211000D01*
X175717000Y-91969000D01*
X176087000Y-91969000D01*
X176087000Y-91639000D01*
X175717000Y-91639000D01*
X175717000Y-91411000D01*
X175767000Y-91361000D01*
X176567000Y-91361000D01*
X176617000Y-91411000D01*
G37*
%TO.C,C_DIF8*%
G36*
X130975000Y-91476000D02*
G01*
X130980000Y-91886000D01*
X130530000Y-91886000D01*
X130530000Y-92336000D01*
X130970000Y-92336000D01*
X130975000Y-92756000D01*
X130925000Y-92806000D01*
X129775000Y-92806000D01*
X129725000Y-92756000D01*
X129725000Y-91476000D01*
X129775000Y-91426000D01*
X130925000Y-91426000D01*
X130975000Y-91476000D01*
G37*
G36*
X133135000Y-91476000D02*
G01*
X133135000Y-92756000D01*
X133085000Y-92806000D01*
X131935000Y-92806000D01*
X131885000Y-92756000D01*
X131880000Y-92346000D01*
X132330000Y-92346000D01*
X132330000Y-91896000D01*
X131890000Y-91896000D01*
X131885000Y-91476000D01*
X131935000Y-91426000D01*
X133085000Y-91426000D01*
X133135000Y-91476000D01*
G37*
%TO.C,R_BIAS_SER*%
G36*
X128186000Y-86624500D02*
G01*
X128186000Y-87044500D01*
X127741000Y-87044500D01*
X127741000Y-87494500D01*
X128181000Y-87494500D01*
X128186000Y-87904500D01*
X128136000Y-87954500D01*
X126986000Y-87954500D01*
X126936000Y-87904500D01*
X126936000Y-86624500D01*
X126986000Y-86574500D01*
X128136000Y-86574500D01*
X128186000Y-86624500D01*
G37*
G36*
X130336000Y-86624500D02*
G01*
X130336000Y-87904500D01*
X130286000Y-87954500D01*
X129136000Y-87954500D01*
X129086000Y-87904500D01*
X129081000Y-87494500D01*
X129531000Y-87494500D01*
X129531000Y-87044500D01*
X129091000Y-87044500D01*
X129086000Y-86624500D01*
X129136000Y-86574500D01*
X130286000Y-86574500D01*
X130336000Y-86624500D01*
G37*
%TO.C,R_DRDY_UP*%
G36*
X149660000Y-81853000D02*
G01*
X149660000Y-82653000D01*
X149610000Y-82703000D01*
X149368000Y-82703000D01*
X149368000Y-82333000D01*
X149038000Y-82333000D01*
X149038000Y-82703000D01*
X148810000Y-82703000D01*
X148760000Y-82653000D01*
X148760000Y-81853000D01*
X148810000Y-81803000D01*
X149610000Y-81803000D01*
X149660000Y-81853000D01*
G37*
G36*
X149052000Y-83763000D02*
G01*
X149382000Y-83763000D01*
X149382000Y-83393000D01*
X149610000Y-83393000D01*
X149660000Y-83443000D01*
X149660000Y-84243000D01*
X149610000Y-84293000D01*
X148810000Y-84293000D01*
X148760000Y-84243000D01*
X148760000Y-83443000D01*
X148810000Y-83393000D01*
X149052000Y-83393000D01*
X149052000Y-83763000D01*
G37*
%TO.C,R_MOSI*%
G36*
X154929000Y-107306000D02*
G01*
X154929000Y-108456000D01*
X154879000Y-108506000D01*
X154469000Y-108511000D01*
X154469000Y-108061000D01*
X154019000Y-108061000D01*
X154019000Y-108501000D01*
X153599000Y-108506000D01*
X153549000Y-108456000D01*
X153549000Y-107306000D01*
X153599000Y-107256000D01*
X154879000Y-107256000D01*
X154929000Y-107306000D01*
G37*
G36*
X154019000Y-109851000D02*
G01*
X154469000Y-109851000D01*
X154469000Y-109411000D01*
X154879000Y-109406000D01*
X154929000Y-109456000D01*
X154929000Y-110606000D01*
X154879000Y-110656000D01*
X153599000Y-110656000D01*
X153549000Y-110606000D01*
X153549000Y-109456000D01*
X153599000Y-109406000D01*
X154019000Y-109406000D01*
X154019000Y-109851000D01*
G37*
%TO.C,C_DIF4*%
G36*
X130975000Y-103464500D02*
G01*
X130980000Y-103874500D01*
X130530000Y-103874500D01*
X130530000Y-104324500D01*
X130970000Y-104324500D01*
X130975000Y-104744500D01*
X130925000Y-104794500D01*
X129775000Y-104794500D01*
X129725000Y-104744500D01*
X129725000Y-103464500D01*
X129775000Y-103414500D01*
X130925000Y-103414500D01*
X130975000Y-103464500D01*
G37*
G36*
X133135000Y-103464500D02*
G01*
X133135000Y-104744500D01*
X133085000Y-104794500D01*
X131935000Y-104794500D01*
X131885000Y-104744500D01*
X131880000Y-104334500D01*
X132330000Y-104334500D01*
X132330000Y-103884500D01*
X131890000Y-103884500D01*
X131885000Y-103464500D01*
X131935000Y-103414500D01*
X133085000Y-103414500D01*
X133135000Y-103464500D01*
G37*
%TO.C,C_DIF2*%
G36*
X130975000Y-109459000D02*
G01*
X130980000Y-109869000D01*
X130530000Y-109869000D01*
X130530000Y-110319000D01*
X130970000Y-110319000D01*
X130975000Y-110739000D01*
X130925000Y-110789000D01*
X129775000Y-110789000D01*
X129725000Y-110739000D01*
X129725000Y-109459000D01*
X129775000Y-109409000D01*
X130925000Y-109409000D01*
X130975000Y-109459000D01*
G37*
G36*
X133135000Y-109459000D02*
G01*
X133135000Y-110739000D01*
X133085000Y-110789000D01*
X131935000Y-110789000D01*
X131885000Y-110739000D01*
X131880000Y-110329000D01*
X132330000Y-110329000D01*
X132330000Y-109879000D01*
X131890000Y-109879000D01*
X131885000Y-109459000D01*
X131935000Y-109409000D01*
X133085000Y-109409000D01*
X133135000Y-109459000D01*
G37*
%TO.C,R_IN3N*%
G36*
X128501000Y-105906500D02*
G01*
X128501000Y-106366500D01*
X128461000Y-106406500D01*
X127960500Y-106406500D01*
X127920500Y-106366500D01*
X127920500Y-105906500D01*
X127960500Y-105866500D01*
X128461000Y-105866500D01*
X128501000Y-105906500D01*
G37*
G36*
X129351500Y-105906500D02*
G01*
X129351500Y-106366500D01*
X129311500Y-106406500D01*
X128811000Y-106406500D01*
X128771000Y-106366500D01*
X128771000Y-105906500D01*
X128811000Y-105866500D01*
X129311500Y-105866500D01*
X129351500Y-105906500D01*
G37*
%TD*%
D11*
%TO.C,LM2664*%
X145480000Y-123368000D03*
X145480000Y-122418000D03*
X145480000Y-121468000D03*
X142780000Y-121468000D03*
X142780000Y-122418000D03*
X142780000Y-123368000D03*
%TD*%
D12*
%TO.C,C_3V3_H*%
X155661500Y-115014000D03*
X155661500Y-114174000D03*
%TD*%
D13*
%TO.C,R_SRB_SER*%
X129636000Y-89144000D03*
X127636000Y-89144000D03*
%TD*%
D14*
%TO.C,R_IN7N*%
X128203000Y-94148000D03*
X129069000Y-94148000D03*
%TD*%
D15*
%TO.C,U_ADS*%
X140612000Y-98348000D03*
X140612000Y-98848000D03*
X140612000Y-99348000D03*
X140612000Y-99848000D03*
X140612000Y-100348000D03*
X140612000Y-100848000D03*
X140612000Y-101348000D03*
X140612000Y-101848000D03*
X140612000Y-102348000D03*
X140612000Y-102848000D03*
X140612000Y-103348000D03*
X140612000Y-103848000D03*
X140612000Y-104348000D03*
X140612000Y-104848000D03*
X140612000Y-105348000D03*
X140612000Y-105848000D03*
D16*
X142412000Y-107648000D03*
X142912000Y-107648000D03*
X143412000Y-107648000D03*
X143912000Y-107648000D03*
X144412000Y-107648000D03*
X144912000Y-107648000D03*
X145412000Y-107648000D03*
X145912000Y-107648000D03*
X146412000Y-107648000D03*
X146912000Y-107648000D03*
X147412000Y-107648000D03*
X147912000Y-107648000D03*
X148412000Y-107648000D03*
X148912000Y-107648000D03*
X149412000Y-107648000D03*
X149912000Y-107648000D03*
D15*
X151712000Y-105848000D03*
X151712000Y-105348000D03*
X151712000Y-104848000D03*
X151712000Y-104348000D03*
X151712000Y-103848000D03*
X151712000Y-103348000D03*
X151712000Y-102848000D03*
X151712000Y-102348000D03*
X151712000Y-101848000D03*
X151712000Y-101348000D03*
X151712000Y-100848000D03*
X151712000Y-100348000D03*
X151712000Y-99848000D03*
X151712000Y-99348000D03*
X151712000Y-98848000D03*
X151712000Y-98348000D03*
D16*
X149912000Y-96548000D03*
X149412000Y-96548000D03*
X148912000Y-96548000D03*
X148412000Y-96548000D03*
X147912000Y-96548000D03*
X147412000Y-96548000D03*
X146912000Y-96548000D03*
X146412000Y-96548000D03*
X145912000Y-96548000D03*
X145412000Y-96548000D03*
X144912000Y-96548000D03*
X144412000Y-96548000D03*
X143912000Y-96548000D03*
X143412000Y-96548000D03*
X142912000Y-96548000D03*
X142412000Y-96548000D03*
%TD*%
D17*
%TO.C,C_CM3P*%
X133727000Y-107635000D03*
X135127000Y-107635000D03*
%TD*%
D18*
%TO.C,C_AVDD_P31*%
X144040000Y-110480000D03*
X144880000Y-110480000D03*
%TD*%
D13*
%TO.C,R_SCLK*%
X169698500Y-84826000D03*
X171698500Y-84826000D03*
%TD*%
D12*
%TO.C,C_VCAP1_H*%
X147912000Y-109006000D03*
X147912000Y-109846000D03*
%TD*%
D17*
%TO.C,C_CM8N*%
X133524000Y-91150500D03*
X134924000Y-91150500D03*
%TD*%
D12*
%TO.C,C_EN_DLY*%
X159116000Y-109044000D03*
X159116000Y-109884000D03*
%TD*%
D19*
%TO.C,R_IO15_DN*%
X174618500Y-93081000D03*
X176125500Y-93081000D03*
%TD*%
D18*
%TO.C,C_VCAP4*%
X148028000Y-112766000D03*
X148868000Y-112766000D03*
%TD*%
D20*
%TO.C,C_DIF6*%
X130430000Y-98110000D03*
X132430000Y-98110000D03*
%TD*%
D21*
%TO.C,D_ESD*%
X176454000Y-104771000D03*
X177404000Y-104771000D03*
X178354000Y-104771000D03*
X178354000Y-102473000D03*
X177404000Y-102473000D03*
X176454000Y-102473000D03*
%TD*%
D18*
%TO.C,C_AVSS_P17*%
X140281000Y-112766000D03*
X141121000Y-112766000D03*
%TD*%
D14*
%TO.C,R_IN5N*%
X128203000Y-100142000D03*
X129069000Y-100142000D03*
%TD*%
D22*
%TO.C,R_Q_IO0_B*%
X168768000Y-110217500D03*
X168768000Y-108710500D03*
%TD*%
D23*
%TO.C,C_3V3_B*%
X155763000Y-112704000D03*
X155763000Y-111304000D03*
%TD*%
D12*
%TO.C,C_DVDD_P40*%
X149718000Y-90326000D03*
X149718000Y-89486000D03*
%TD*%
D22*
%TO.C,R_START_DN*%
X171308000Y-108710500D03*
X171308000Y-110217500D03*
%TD*%
D24*
%TO.C,F1*%
X177912000Y-100749000D03*
X177912000Y-97859000D03*
%TD*%
D17*
%TO.C,C_CM2P*%
X133727000Y-110632500D03*
X135127000Y-110632500D03*
%TD*%
D13*
%TO.C,FB2*%
X139100000Y-118608000D03*
X141032000Y-118608000D03*
%TD*%
D14*
%TO.C,R_IN8P*%
X128203000Y-92649000D03*
X129069000Y-92649000D03*
%TD*%
D25*
%TO.C,FB3*%
X166990000Y-122114000D03*
X166990000Y-120182000D03*
%TD*%
D17*
%TO.C,C_CM7P*%
X133727000Y-95646500D03*
X135127000Y-95646500D03*
%TD*%
D23*
%TO.C,C_LM_FLY*%
X147178000Y-122356000D03*
X147178000Y-120956000D03*
%TD*%
D22*
%TO.C,R_Q_EN_B*%
X163942000Y-110217500D03*
X163942000Y-108710500D03*
%TD*%
D12*
%TO.C,C_RST_DLY*%
X147586000Y-83468000D03*
X147586000Y-82628000D03*
%TD*%
D26*
%TO.C,D_LED*%
X177163000Y-87620000D03*
X178661000Y-87620000D03*
%TD*%
D12*
%TO.C,C_USB_V3*%
X171308000Y-115218000D03*
X171308000Y-114378000D03*
%TD*%
%TO.C,C_USB5V_H*%
X176134000Y-96930000D03*
X176134000Y-96090000D03*
%TD*%
D23*
%TO.C,C_BULK*%
X151750000Y-123372000D03*
X151750000Y-121972000D03*
%TD*%
%TO.C,C_3V3_OUT*%
X163180000Y-121848000D03*
X163180000Y-120448000D03*
%TD*%
D12*
%TO.C,C_HF*%
X155560000Y-123092000D03*
X155560000Y-122252000D03*
%TD*%
%TO.C,C_NLDO_IN*%
X148448000Y-119282000D03*
X148448000Y-118442000D03*
%TD*%
D14*
%TO.C,R_IN8N*%
X128203000Y-91150500D03*
X129069000Y-91150500D03*
%TD*%
D20*
%TO.C,C_DIF1*%
X130430000Y-113096000D03*
X132430000Y-113096000D03*
%TD*%
%TO.C,C_DIF3*%
X130430000Y-107102000D03*
X132430000Y-107102000D03*
%TD*%
D19*
%TO.C,R_LED*%
X177158500Y-89652000D03*
X178665500Y-89652000D03*
%TD*%
D12*
%TO.C,C_AVDD_P59*%
X141996500Y-93120000D03*
X141996500Y-92280000D03*
%TD*%
%TO.C,C_DVDD_P58*%
X146162000Y-88294000D03*
X146162000Y-87454000D03*
%TD*%
%TO.C,C_DVDD_H*%
X147686000Y-86946000D03*
X147686000Y-87786000D03*
%TD*%
%TO.C,C_3V3_H2*%
X160386000Y-121568000D03*
X160386000Y-120728000D03*
%TD*%
D17*
%TO.C,C_CM2N*%
X133524000Y-109134000D03*
X134924000Y-109134000D03*
%TD*%
D14*
%TO.C,R_IN4N*%
X128203000Y-103139500D03*
X129069000Y-103139500D03*
%TD*%
%TO.C,R_IN1N*%
X128203000Y-112131000D03*
X129069000Y-112131000D03*
%TD*%
D17*
%TO.C,C_CM1P*%
X133727000Y-113629500D03*
X135127000Y-113629500D03*
%TD*%
D18*
%TO.C,C_AVSS_P60*%
X152727000Y-112766000D03*
X153567000Y-112766000D03*
%TD*%
D17*
%TO.C,C_CM6N*%
X133524000Y-97145000D03*
X134924000Y-97145000D03*
%TD*%
D18*
%TO.C,C_AVDD1_1u*%
X145996000Y-92700000D03*
X146836000Y-92700000D03*
%TD*%
%TO.C,C_VREFP_100n*%
X147799500Y-110480000D03*
X148639500Y-110480000D03*
%TD*%
D12*
%TO.C,C_PLDO_OUT*%
X147686000Y-115980000D03*
X147686000Y-115140000D03*
%TD*%
D14*
%TO.C,R_IN6N*%
X128203000Y-97145000D03*
X129069000Y-97145000D03*
%TD*%
D17*
%TO.C,C_CM5P*%
X133727000Y-101641000D03*
X135127000Y-101641000D03*
%TD*%
D14*
%TO.C,R_IN1P*%
X128203000Y-113629500D03*
X129069000Y-113629500D03*
%TD*%
D13*
%TO.C,R_BIAS_FB*%
X145670000Y-90414000D03*
X147670000Y-90414000D03*
%TD*%
D17*
%TO.C,C_AVDD1_10u*%
X143430000Y-92700000D03*
X144830000Y-92700000D03*
%TD*%
D11*
%TO.C,TPS72325*%
X153050000Y-119812000D03*
X153050000Y-118862000D03*
X153050000Y-117912000D03*
X150450000Y-117912000D03*
X150450000Y-119812000D03*
%TD*%
D17*
%TO.C,C_CM8P*%
X133727000Y-92649000D03*
X135127000Y-92649000D03*
%TD*%
D11*
%TO.C,TLV70025*%
X145430000Y-119812000D03*
X145430000Y-118862000D03*
X145430000Y-117912000D03*
X142830000Y-117912000D03*
X142830000Y-119812000D03*
%TD*%
D14*
%TO.C,R_IN3P*%
X128203000Y-107635000D03*
X129069000Y-107635000D03*
%TD*%
D17*
%TO.C,C_CM3N*%
X133524000Y-106136500D03*
X134924000Y-106136500D03*
%TD*%
D12*
%TO.C,C_3V3_IN*%
X164958000Y-121568000D03*
X164958000Y-120728000D03*
%TD*%
D27*
%TO.C,J1*%
X175791000Y-114188000D03*
D28*
X175791000Y-113388000D03*
D29*
X175791000Y-112738000D03*
X175791000Y-112238000D03*
X175791000Y-111738000D03*
X175791000Y-111238000D03*
X175791000Y-110738000D03*
X175791000Y-110238000D03*
X175791000Y-109738000D03*
X175791000Y-109238000D03*
D28*
X175791000Y-108588000D03*
D27*
X175791000Y-107788000D03*
%TD*%
D18*
%TO.C,C_AVDD_P19*%
X142160500Y-110480000D03*
X143000500Y-110480000D03*
%TD*%
D12*
%TO.C,C_AVDD_H*%
X145908000Y-115980000D03*
X145908000Y-115140000D03*
%TD*%
D22*
%TO.C,R_EN_UP*%
X157846000Y-110217500D03*
X157846000Y-108710500D03*
%TD*%
D30*
%TO.C,Q_EN*%
X162376500Y-110414000D03*
X162376500Y-108514000D03*
X160173500Y-109464000D03*
%TD*%
D20*
%TO.C,C_DIF5*%
X130430000Y-101107500D03*
X132430000Y-101107500D03*
%TD*%
D22*
%TO.C,R_PWDN_UP*%
X152258000Y-83801500D03*
X152258000Y-82294500D03*
%TD*%
D31*
%TO.C,U_MCU*%
X155955500Y-106526000D03*
X157225500Y-106526000D03*
X158495500Y-106526000D03*
X159765500Y-106526000D03*
X161035500Y-106526000D03*
X162305500Y-106526000D03*
X163575500Y-106526000D03*
X164845500Y-106526000D03*
X166115500Y-106526000D03*
X167385500Y-106526000D03*
X168655500Y-106526000D03*
X169925500Y-106526000D03*
X171195500Y-106526000D03*
X172465500Y-106526000D03*
D32*
X173960500Y-103241000D03*
X173960500Y-101971000D03*
X173960500Y-100701000D03*
X173960500Y-99431000D03*
X173960500Y-98161000D03*
X173960500Y-96891000D03*
X173960500Y-95621000D03*
X173960500Y-94351000D03*
X173960500Y-93081000D03*
X173960500Y-91811000D03*
D31*
X172465500Y-88526000D03*
X171195500Y-88526000D03*
X169925500Y-88526000D03*
X168655500Y-88526000D03*
X167385500Y-88526000D03*
X166115500Y-88526000D03*
X164845500Y-88526000D03*
X163575500Y-88526000D03*
X162305500Y-88526000D03*
X161035500Y-88526000D03*
X159765500Y-88526000D03*
X158495500Y-88526000D03*
X157225500Y-88526000D03*
X155955500Y-88526000D03*
D33*
X162236500Y-97626000D03*
X162236500Y-99026000D03*
X162236500Y-100426000D03*
X163636500Y-97626000D03*
X163636500Y-99026500D03*
X163636500Y-100426000D03*
X165036500Y-97626000D03*
X165036500Y-99026000D03*
X165036500Y-100426000D03*
%TD*%
D23*
%TO.C,C_3V3_B2*%
X162164000Y-121848000D03*
X162164000Y-120448000D03*
%TD*%
D20*
%TO.C,C_DIF7*%
X130430000Y-95113000D03*
X132430000Y-95113000D03*
%TD*%
D23*
%TO.C,C_DVDD_B*%
X151750000Y-86666000D03*
X151750000Y-88066000D03*
%TD*%
D18*
%TO.C,C_AVDD1_100n*%
X148282000Y-92700000D03*
X149122000Y-92700000D03*
%TD*%
D12*
%TO.C,C_NLDO_OUT*%
X156068000Y-119282000D03*
X156068000Y-118442000D03*
%TD*%
D23*
%TO.C,C_AVDD_B*%
X144130000Y-116260000D03*
X144130000Y-114860000D03*
%TD*%
D13*
%TO.C,R_MISO*%
X165888500Y-84826000D03*
X167888500Y-84826000D03*
%TD*%
%TO.C,FB1*%
X139100000Y-120640000D03*
X141032000Y-120640000D03*
%TD*%
D22*
%TO.C,R_CS_UP*%
X146162000Y-83801500D03*
X146162000Y-82294500D03*
%TD*%
D18*
%TO.C,C_AVDD_P3*%
X140281000Y-110480000D03*
X141121000Y-110480000D03*
%TD*%
%TO.C,C_VCAP2*%
X148746000Y-109172000D03*
X149586000Y-109172000D03*
%TD*%
D14*
%TO.C,R_IN2N*%
X128203000Y-109134000D03*
X129069000Y-109134000D03*
%TD*%
D18*
%TO.C,C_AVDD_P36*%
X144880000Y-112766000D03*
X144040000Y-112766000D03*
%TD*%
%TO.C,C_AVDD1_10n*%
X150568000Y-92700000D03*
X151408000Y-92700000D03*
%TD*%
D12*
%TO.C,C_NR*%
X156576000Y-114710000D03*
X156576000Y-113870000D03*
%TD*%
D14*
%TO.C,R_IN4P*%
X128203000Y-104638000D03*
X129069000Y-104638000D03*
%TD*%
D12*
%TO.C,C_PLDO_IN*%
X142352000Y-115980000D03*
X142352000Y-115140000D03*
%TD*%
%TO.C,C_AVDD_P64*%
X140523000Y-93120000D03*
X140523000Y-92280000D03*
%TD*%
D22*
%TO.C,R_IO0_UP*%
X174610000Y-84834500D03*
X174610000Y-86341500D03*
%TD*%
%TO.C,R_RST_UP*%
X150353000Y-83801500D03*
X150353000Y-82294500D03*
%TD*%
D23*
%TO.C,C_LM_OUT*%
X148956000Y-122356000D03*
X148956000Y-120956000D03*
%TD*%
D14*
%TO.C,R_IN6P*%
X128203000Y-98643500D03*
X129069000Y-98643500D03*
%TD*%
D17*
%TO.C,C_CM1N*%
X133524000Y-112131000D03*
X134924000Y-112131000D03*
%TD*%
D14*
%TO.C,R_IN5P*%
X128203000Y-101641000D03*
X129069000Y-101641000D03*
%TD*%
D12*
%TO.C,C_3V3_M*%
X156195000Y-108868000D03*
X156195000Y-108028000D03*
%TD*%
D19*
%TO.C,R_CC2*%
X172586500Y-110226000D03*
X174093500Y-110226000D03*
%TD*%
D34*
%TO.C,C_VCAP1*%
X152258000Y-116527000D03*
X152258000Y-113577000D03*
%TD*%
D18*
%TO.C,C_LM_IN*%
X147266000Y-123561000D03*
X148106000Y-123561000D03*
%TD*%
%TO.C,C_AVSS_P37*%
X145920000Y-112766000D03*
X146760000Y-112766000D03*
%TD*%
D23*
%TO.C,C_USB5V_B*%
X176134000Y-100004000D03*
X176134000Y-98604000D03*
%TD*%
%TO.C,C_DVDD_10u*%
X149718000Y-86666000D03*
X149718000Y-88066000D03*
%TD*%
D13*
%TO.C,FB5*%
X148244000Y-85080000D03*
X150176000Y-85080000D03*
%TD*%
D18*
%TO.C,C_AVSS_P30*%
X142160500Y-112766000D03*
X143000500Y-112766000D03*
%TD*%
D17*
%TO.C,C_CM4N*%
X133524000Y-103139500D03*
X134924000Y-103139500D03*
%TD*%
%TO.C,C_CM4P*%
X133727000Y-104638000D03*
X135127000Y-104638000D03*
%TD*%
D18*
%TO.C,C_VCAP3_H*%
X146832000Y-94448000D03*
X145992000Y-94448000D03*
%TD*%
D19*
%TO.C,R_CC1*%
X174153500Y-113900000D03*
X172646500Y-113900000D03*
%TD*%
D18*
%TO.C,C_VREFP_10n*%
X145970000Y-110480000D03*
X146810000Y-110480000D03*
%TD*%
D14*
%TO.C,R_IN2P*%
X128203000Y-110632500D03*
X129069000Y-110632500D03*
%TD*%
D35*
%TO.C,AMS1117*%
X179814000Y-123529500D03*
X179814000Y-121229500D03*
X179814000Y-118929500D03*
D36*
X173874000Y-121229500D03*
%TD*%
D13*
%TO.C,FB4*%
X139100000Y-122672000D03*
X141032000Y-122672000D03*
%TD*%
D14*
%TO.C,R_IN7P*%
X128203000Y-95646500D03*
X129069000Y-95646500D03*
%TD*%
D17*
%TO.C,C_CM7N*%
X133524000Y-94148000D03*
X134924000Y-94148000D03*
%TD*%
D19*
%TO.C,R_IO2_DN*%
X174618500Y-91811000D03*
X176125500Y-91811000D03*
%TD*%
D12*
%TO.C,C_VCAP3*%
X144118000Y-94682000D03*
X144118000Y-93842000D03*
%TD*%
D20*
%TO.C,C_DIF8*%
X130430000Y-92116000D03*
X132430000Y-92116000D03*
%TD*%
D13*
%TO.C,R_BIAS_SER*%
X129636000Y-87264500D03*
X127636000Y-87264500D03*
%TD*%
D22*
%TO.C,R_DRDY_UP*%
X149210000Y-83801500D03*
X149210000Y-82294500D03*
%TD*%
D25*
%TO.C,R_MOSI*%
X154239000Y-107956000D03*
X154239000Y-109956000D03*
%TD*%
D23*
%TO.C,C_AVSS_B*%
X149360000Y-115368000D03*
X149360000Y-116768000D03*
%TD*%
D34*
%TO.C,C_VREFP_10u*%
X150937000Y-111701000D03*
X150937000Y-108751000D03*
%TD*%
D18*
%TO.C,C_BIAS_INV*%
X143280000Y-90414000D03*
X142440000Y-90414000D03*
%TD*%
D12*
%TO.C,C_USB_VCC*%
X171308000Y-112932000D03*
X171308000Y-112092000D03*
%TD*%
D37*
%TO.C,U_USB*%
X157719000Y-117924500D03*
X158989000Y-117924500D03*
X160259000Y-117924500D03*
X161529000Y-117924500D03*
X162799000Y-117924500D03*
X164069000Y-117924500D03*
X165339000Y-117924500D03*
X166609000Y-117924500D03*
X166609000Y-112179500D03*
X165339000Y-112179500D03*
X164069000Y-112179500D03*
X162799000Y-112179500D03*
X161529000Y-112179500D03*
X160259000Y-112179500D03*
X158989000Y-112179500D03*
X157719000Y-112179500D03*
%TD*%
D17*
%TO.C,C_CM6P*%
X133727000Y-98643500D03*
X135127000Y-98643500D03*
%TD*%
D30*
%TO.C,Q_IO0*%
X167202500Y-110414000D03*
X167202500Y-108514000D03*
X164999500Y-109464000D03*
%TD*%
D17*
%TO.C,C_CM5N*%
X133524000Y-100142000D03*
X134924000Y-100142000D03*
%TD*%
D12*
%TO.C,C_AVSS_H*%
X148448000Y-115980000D03*
X148448000Y-115140000D03*
%TD*%
D20*
%TO.C,C_DIF4*%
X130430000Y-104104500D03*
X132430000Y-104104500D03*
%TD*%
%TO.C,C_DIF2*%
X130430000Y-110099000D03*
X132430000Y-110099000D03*
%TD*%
D14*
%TO.C,R_IN3N*%
X128203000Y-106136500D03*
X129069000Y-106136500D03*
%TD*%
M02*
