M48
; DRILL file KiCad 10.0.5 date 2026-09-23T16:53:21
; FORMAT={-:-/ absolute / metric / decimal}
; #@! TF.CreationDate,2026-09-23T16:53:21+08:00
; #@! TF.GenerationSoftware,Kicad,Pcbnew,10.0.5
; #@! TF.FileFunction,Plated,1,4,PTH
FMAT,2
METRIC
; #@! TA.AperFunction,Plated,PTH,ViaDrill
T1C0.300
; #@! TA.AperFunction,Plated,PTH,ViaDrill
T2C0.305
; #@! TA.AperFunction,Plated,PTH,ViaDrill
T3C0.305
; #@! TA.AperFunction,Plated,PTH,ComponentDrill
T4C0.600
; #@! TA.AperFunction,Plated,PTH,ComponentDrill
T5C1.050
%
G90
G05
T1
X173.34Y-110.226
T2
X141.03Y-123.72
X141.885Y-90.414
X144.123Y-95.24
X146.974Y-97.754
X149.804Y-100.221
X150.302Y-114.341
X151.05Y-116.527
X172.55Y-101.95
X172.673Y-114.657
X173.0Y-105.1
X174.879Y-114.173
X176.667Y-112.252
X178.354Y-103.93
X179.182Y-103.177
X179.355Y-122.657
T3
X126.604Y-91.15
X126.604Y-94.148
X126.604Y-97.145
X126.604Y-100.142
X126.604Y-106.136
X126.604Y-109.134
X126.604Y-112.131
X130.51Y-89.144
X130.51Y-87.736
X132.8Y-91.126
X132.8Y-94.123
X132.8Y-97.12
X132.8Y-100.117
X132.8Y-103.114
X132.8Y-106.111
X132.8Y-109.109
X132.8Y-112.106
X134.841Y-90.38
X136.133Y-92.11
X136.133Y-95.108
X136.133Y-98.105
X136.133Y-104.099
X136.133Y-107.096
X136.156Y-101.038
X136.156Y-110.03
X136.156Y-113.027
X136.256Y-91.15
X136.256Y-94.148
X136.256Y-97.145
X136.256Y-100.142
X136.256Y-103.139
X136.256Y-106.136
X136.256Y-109.134
X136.256Y-112.131
X136.498Y-93.446
X136.498Y-96.443
X136.498Y-102.438
X136.498Y-105.435
X136.635Y-100.878
X136.635Y-109.87
X136.635Y-112.867
X138.226Y-118.608
X138.226Y-120.64
X139.179Y-123.672
X140.015Y-111.242
X140.015Y-119.624
X140.219Y-109.883
X140.463Y-91.709
X140.463Y-93.691
X140.625Y-113.528
X140.828Y-111.394
X141.209Y-91.303
X141.21Y-109.883
X141.21Y-112.169
X141.793Y-97.78
X141.865Y-91.724
X142.099Y-112.169
X142.224Y-111.077
X142.352Y-114.489
X142.533Y-109.793
X142.571Y-92.98
X142.657Y-108.981
X143.165Y-95.138
X143.215Y-113.363
X143.292Y-111.343
X143.35Y-91.929
X143.372Y-115.023
X143.419Y-109.769
X143.825Y-122.57
X143.919Y-109.184
X144.079Y-113.782
X144.105Y-91.735
X144.14Y-116.98
X144.435Y-123.408
X144.689Y-108.956
X144.912Y-95.087
X145.059Y-113.34
X145.095Y-109.617
X145.349Y-85.435
X145.654Y-91.557
X145.705Y-113.782
X146.06Y-93.297
X146.114Y-113.36
X146.162Y-85.233
X146.162Y-86.803
X146.263Y-112.055
X146.356Y-118.862
X146.411Y-95.087
X146.67Y-113.985
X146.67Y-115.251
X147.337Y-112.766
X147.411Y-95.087
X147.686Y-88.483
X147.708Y-92.7
X147.909Y-106.407
X148.164Y-82.667
X148.192Y-122.51
X148.198Y-120.796
X148.364Y-114.571
X148.365Y-116.539
X148.448Y-117.791
X148.867Y-112.766
X148.905Y-88.788
X148.918Y-95.266
X149.12Y-85.08
X149.21Y-114.642
X149.27Y-117.491
X149.617Y-91.684
X149.718Y-88.783
X149.781Y-95.266
X150.175Y-123.459
X150.353Y-104.346
X150.409Y-109.631
X150.48Y-122.773
X150.81Y-114.341
X150.886Y-88.483
X150.886Y-94.198
X151.191Y-85.689
X151.28Y-110.48
X151.569Y-114.478
X151.597Y-85.029
X151.674Y-121.252
X151.787Y-124.087
X151.917Y-112.695
X152.19Y-119.624
X152.334Y-85.486
X152.513Y-112.169
X152.887Y-106.173
X152.931Y-101.793
X153.223Y-103.571
X153.274Y-109.057
X153.375Y-106.771
X153.427Y-104.689
X154.036Y-116.068
X154.143Y-112.766
X154.341Y-103.266
X154.595Y-118.709
X154.696Y-111.496
X155.546Y-113.616
X155.56Y-121.602
X155.584Y-123.658
X155.611Y-89.957
X155.661Y-115.712
X155.703Y-110.581
X155.71Y-105.166
X156.068Y-119.932
X156.245Y-105.126
X156.31Y-110.113
X156.517Y-112.519
X156.576Y-113.274
X157.058Y-117.922
X157.16Y-111.064
X157.161Y-107.902
X158.031Y-110.936
X158.405Y-113.045
X158.989Y-116.744
X159.247Y-110.44
X160.028Y-110.998
X160.259Y-119.421
X160.894Y-116.068
X161.402Y-120.132
X162.799Y-116.169
X163.028Y-109.769
X164.069Y-116.169
X164.36Y-98.324
X164.366Y-96.925
X164.909Y-89.893
X164.958Y-120.078
X165.056Y-110.036
X165.702Y-96.925
X165.702Y-98.33
X165.987Y-120.173
X166.179Y-89.893
X167.449Y-89.893
X167.876Y-85.829
X167.99Y-122.062
X168.006Y-111.191
X170.558Y-110.061
X170.733Y-112.817
X171.092Y-107.894
X171.308Y-111.496
X171.662Y-85.821
X171.74Y-104.943
X172.561Y-102.941
X172.578Y-103.495
X172.832Y-86.147
X172.933Y-112.105
X173.441Y-108.041
X174.61Y-83.048
X174.61Y-84.111
X174.762Y-111.14
X174.762Y-112.105
X174.864Y-87.62
X174.864Y-117.338
X175.778Y-104.943
X175.88Y-102.555
X175.921Y-100.739
X176.134Y-95.439
X176.21Y-97.884
X176.435Y-87.62
X176.566Y-117.795
X176.709Y-96.929
X176.82Y-112.969
X176.849Y-91.811
X176.849Y-93.081
X176.896Y-105.705
X176.998Y-99.558
X177.996Y-98.779
X178.141Y-107.587
X178.522Y-116.169
X178.522Y-117.846
X178.826Y-105.654
X178.957Y-101.742
X179.741Y-105.4
T5
X123.556Y-87.264
X123.556Y-89.804
X123.556Y-92.344
X123.556Y-94.885
X123.556Y-97.424
X123.556Y-99.965
X123.556Y-102.504
X123.556Y-105.044
X123.556Y-107.584
X123.556Y-110.124
X123.556Y-112.664
X123.556Y-115.204
T4
X175.891Y-106.663G85X176.791Y-106.663
G05
X175.891Y-115.313G85X176.791Y-115.313
G05
X180.241Y-106.663G85X180.841Y-106.663
G05
X180.241Y-115.313G85X180.841Y-115.313
G05
M30
