%TF.GenerationSoftware,KiCad,Pcbnew,10.0.5*%
%TF.CreationDate,2026-09-23T15:51:37+08:00*%
%TF.ProjectId,Therapia_EEG-HRV,54686572-6170-4696-915f-4545472d4852,rev?*%
%TF.SameCoordinates,Original*%
%TF.FileFunction,Paste,Top*%
%TF.FilePolarity,Positive*%
%FSLAX46Y46*%
G04 Gerber Fmt 4.6, Leading zero omitted, Abs format (unit mm)*
G04 Created by KiCad (PCBNEW 10.0.5) date 2026-09-23 15:51:37*
%MOMM*%
%LPD*%
G01*
G04 APERTURE LIST*
G04 Aperture macros list*
%AMRoundRect*
0 Rectangle with rounded corners*
0 $1 Rounding radius*
0 $2 $3 $4 $5 $6 $7 $8 $9 X,Y pos of 4 corners*
0 Add a 4 corners polygon primitive as box body*
4,1,4,$2,$3,$4,$5,$6,$7,$8,$9,$2,$3,0*
0 Add four circle primitives for the rounded corners*
1,1,$1+$1,$2,$3*
1,1,$1+$1,$4,$5*
1,1,$1+$1,$6,$7*
1,1,$1+$1,$8,$9*
0 Add four rect primitives between the rounded corners*
20,1,$1+$1,$2,$3,$4,$5,0*
20,1,$1+$1,$4,$5,$6,$7,0*
20,1,$1+$1,$6,$7,$8,$9,0*
20,1,$1+$1,$8,$9,$2,$3,0*%
G04 Aperture macros list end*
%ADD10C,0.000000*%
%ADD11R,1.100000X0.600000*%
%ADD12R,0.540000X0.500000*%
%ADD13R,1.132500X1.377000*%
%ADD14R,0.565500X0.540000*%
%ADD15O,1.800000X0.280000*%
%ADD16O,0.280000X1.800000*%
%ADD17R,0.800000X0.900000*%
%ADD18R,0.500000X0.540000*%
%ADD19R,0.806500X0.864000*%
%ADD20R,1.410000X1.350000*%
%ADD21R,0.532000X1.072000*%
%ADD22R,0.864000X0.806500*%
%ADD23R,0.900000X0.800000*%
%ADD24R,1.728000X1.190000*%
%ADD25R,1.377000X1.132500*%
%ADD26R,0.800000X0.800000*%
%ADD27R,1.000000X0.550000*%
%ADD28R,1.100000X0.550000*%
%ADD29R,1.100000X0.300000*%
%ADD30R,1.037500X0.532000*%
%ADD31R,0.950000X2.100000*%
%ADD32R,2.100000X0.950000*%
%ADD33R,0.900000X0.900000*%
%ADD34RoundRect,0.250000X0.650000X-0.325000X0.650000X0.325000X-0.650000X0.325000X-0.650000X-0.325000X0*%
%ADD35R,2.500000X1.100000*%
%ADD36R,2.340000X3.600000*%
%ADD37O,0.560000X1.745000*%
G04 APERTURE END LIST*
D10*
%TO.C,R_SRB_SER*%
G36*
X128186000Y-88504000D02*
G01*
X128186000Y-88924000D01*
X127741000Y-88924000D01*
X127741000Y-89374000D01*
X128181000Y-89374000D01*
X128186000Y-89784000D01*
X128137500Y-89832500D01*
X127069750Y-89832500D01*
X127069750Y-88455500D01*
X128137500Y-88455500D01*
X128186000Y-88504000D01*
G37*
G36*
X130202250Y-89832500D02*
G01*
X129134500Y-89832500D01*
X129086000Y-89784000D01*
X129081000Y-89374000D01*
X129531000Y-89374000D01*
X129531000Y-88924000D01*
X129091000Y-88924000D01*
X129086000Y-88504000D01*
X129134500Y-88455500D01*
X130202250Y-88455500D01*
X130202250Y-89832500D01*
G37*
%TO.C,R_IN7N*%
G36*
X128485750Y-93902750D02*
G01*
X128485750Y-94393250D01*
X128461000Y-94418000D01*
X127960500Y-94418000D01*
X127920500Y-94378000D01*
X127920500Y-93918000D01*
X127960500Y-93878000D01*
X128461000Y-93878000D01*
X128485750Y-93902750D01*
G37*
G36*
X129351500Y-93918000D02*
G01*
X129351500Y-94378000D01*
X129311500Y-94418000D01*
X128811000Y-94418000D01*
X128786250Y-94393250D01*
X128786250Y-93902750D01*
X128811000Y-93878000D01*
X129311500Y-93878000D01*
X129351500Y-93918000D01*
G37*
%TO.C,U_ADS*%
G36*
X141385722Y-98208674D02*
G01*
X141412640Y-98214028D01*
X141437996Y-98224531D01*
X141460815Y-98239779D01*
X141480221Y-98259185D01*
X141495469Y-98282004D01*
X141505972Y-98307360D01*
X141511326Y-98334278D01*
X141511326Y-98361722D01*
X141505972Y-98388640D01*
X141495469Y-98413996D01*
X141480221Y-98436815D01*
X141460815Y-98456221D01*
X141437996Y-98471469D01*
X141412640Y-98481972D01*
X141385722Y-98487326D01*
X141372000Y-98488000D01*
X139852000Y-98488000D01*
X139838278Y-98487326D01*
X139811360Y-98481972D01*
X139786004Y-98471469D01*
X139763185Y-98456221D01*
X139743779Y-98436815D01*
X139728531Y-98413996D01*
X139718028Y-98388640D01*
X139712674Y-98361722D01*
X139712674Y-98334278D01*
X139718028Y-98307360D01*
X139728531Y-98282004D01*
X139743779Y-98259185D01*
X139763185Y-98239779D01*
X139786004Y-98224531D01*
X139811360Y-98214028D01*
X139838278Y-98208674D01*
X139852000Y-98208000D01*
X141372000Y-98208000D01*
X141385722Y-98208674D01*
G37*
G36*
X141385722Y-98708674D02*
G01*
X141412640Y-98714028D01*
X141437996Y-98724531D01*
X141460815Y-98739779D01*
X141480221Y-98759185D01*
X141495469Y-98782004D01*
X141505972Y-98807360D01*
X141511326Y-98834278D01*
X141511326Y-98861722D01*
X141505972Y-98888640D01*
X141495469Y-98913996D01*
X141480221Y-98936815D01*
X141460815Y-98956221D01*
X141437996Y-98971469D01*
X141412640Y-98981972D01*
X141385722Y-98987326D01*
X141372000Y-98988000D01*
X139852000Y-98988000D01*
X139838278Y-98987326D01*
X139811360Y-98981972D01*
X139786004Y-98971469D01*
X139763185Y-98956221D01*
X139743779Y-98936815D01*
X139728531Y-98913996D01*
X139718028Y-98888640D01*
X139712674Y-98861722D01*
X139712674Y-98834278D01*
X139718028Y-98807360D01*
X139728531Y-98782004D01*
X139743779Y-98759185D01*
X139763185Y-98739779D01*
X139786004Y-98724531D01*
X139811360Y-98714028D01*
X139838278Y-98708674D01*
X139852000Y-98708000D01*
X141372000Y-98708000D01*
X141385722Y-98708674D01*
G37*
G36*
X141385722Y-99208674D02*
G01*
X141412640Y-99214028D01*
X141437996Y-99224531D01*
X141460815Y-99239779D01*
X141480221Y-99259185D01*
X141495469Y-99282004D01*
X141505972Y-99307360D01*
X141511326Y-99334278D01*
X141511326Y-99361722D01*
X141505972Y-99388640D01*
X141495469Y-99413996D01*
X141480221Y-99436815D01*
X141460815Y-99456221D01*
X141437996Y-99471469D01*
X141412640Y-99481972D01*
X141385722Y-99487326D01*
X141372000Y-99488000D01*
X139852000Y-99488000D01*
X139838278Y-99487326D01*
X139811360Y-99481972D01*
X139786004Y-99471469D01*
X139763185Y-99456221D01*
X139743779Y-99436815D01*
X139728531Y-99413996D01*
X139718028Y-99388640D01*
X139712674Y-99361722D01*
X139712674Y-99334278D01*
X139718028Y-99307360D01*
X139728531Y-99282004D01*
X139743779Y-99259185D01*
X139763185Y-99239779D01*
X139786004Y-99224531D01*
X139811360Y-99214028D01*
X139838278Y-99208674D01*
X139852000Y-99208000D01*
X141372000Y-99208000D01*
X141385722Y-99208674D01*
G37*
G36*
X141385722Y-99708674D02*
G01*
X141412640Y-99714028D01*
X141437996Y-99724531D01*
X141460815Y-99739779D01*
X141480221Y-99759185D01*
X141495469Y-99782004D01*
X141505972Y-99807360D01*
X141511326Y-99834278D01*
X141511326Y-99861722D01*
X141505972Y-99888640D01*
X141495469Y-99913996D01*
X141480221Y-99936815D01*
X141460815Y-99956221D01*
X141437996Y-99971469D01*
X141412640Y-99981972D01*
X141385722Y-99987326D01*
X141372000Y-99988000D01*
X139852000Y-99988000D01*
X139838278Y-99987326D01*
X139811360Y-99981972D01*
X139786004Y-99971469D01*
X139763185Y-99956221D01*
X139743779Y-99936815D01*
X139728531Y-99913996D01*
X139718028Y-99888640D01*
X139712674Y-99861722D01*
X139712674Y-99834278D01*
X139718028Y-99807360D01*
X139728531Y-99782004D01*
X139743779Y-99759185D01*
X139763185Y-99739779D01*
X139786004Y-99724531D01*
X139811360Y-99714028D01*
X139838278Y-99708674D01*
X139852000Y-99708000D01*
X141372000Y-99708000D01*
X141385722Y-99708674D01*
G37*
G36*
X141385722Y-100208674D02*
G01*
X141412640Y-100214028D01*
X141437996Y-100224531D01*
X141460815Y-100239779D01*
X141480221Y-100259185D01*
X141495469Y-100282004D01*
X141505972Y-100307360D01*
X141511326Y-100334278D01*
X141511326Y-100361722D01*
X141505972Y-100388640D01*
X141495469Y-100413996D01*
X141480221Y-100436815D01*
X141460815Y-100456221D01*
X141437996Y-100471469D01*
X141412640Y-100481972D01*
X141385722Y-100487326D01*
X141372000Y-100488000D01*
X139852000Y-100488000D01*
X139838278Y-100487326D01*
X139811360Y-100481972D01*
X139786004Y-100471469D01*
X139763185Y-100456221D01*
X139743779Y-100436815D01*
X139728531Y-100413996D01*
X139718028Y-100388640D01*
X139712674Y-100361722D01*
X139712674Y-100334278D01*
X139718028Y-100307360D01*
X139728531Y-100282004D01*
X139743779Y-100259185D01*
X139763185Y-100239779D01*
X139786004Y-100224531D01*
X139811360Y-100214028D01*
X139838278Y-100208674D01*
X139852000Y-100208000D01*
X141372000Y-100208000D01*
X141385722Y-100208674D01*
G37*
G36*
X141385722Y-100708674D02*
G01*
X141412640Y-100714028D01*
X141437996Y-100724531D01*
X141460815Y-100739779D01*
X141480221Y-100759185D01*
X141495469Y-100782004D01*
X141505972Y-100807360D01*
X141511326Y-100834278D01*
X141511326Y-100861722D01*
X141505972Y-100888640D01*
X141495469Y-100913996D01*
X141480221Y-100936815D01*
X141460815Y-100956221D01*
X141437996Y-100971469D01*
X141412640Y-100981972D01*
X141385722Y-100987326D01*
X141372000Y-100988000D01*
X139852000Y-100988000D01*
X139838278Y-100987326D01*
X139811360Y-100981972D01*
X139786004Y-100971469D01*
X139763185Y-100956221D01*
X139743779Y-100936815D01*
X139728531Y-100913996D01*
X139718028Y-100888640D01*
X139712674Y-100861722D01*
X139712674Y-100834278D01*
X139718028Y-100807360D01*
X139728531Y-100782004D01*
X139743779Y-100759185D01*
X139763185Y-100739779D01*
X139786004Y-100724531D01*
X139811360Y-100714028D01*
X139838278Y-100708674D01*
X139852000Y-100708000D01*
X141372000Y-100708000D01*
X141385722Y-100708674D01*
G37*
G36*
X141385722Y-101208674D02*
G01*
X141412640Y-101214028D01*
X141437996Y-101224531D01*
X141460815Y-101239779D01*
X141480221Y-101259185D01*
X141495469Y-101282004D01*
X141505972Y-101307360D01*
X141511326Y-101334278D01*
X141511326Y-101361722D01*
X141505972Y-101388640D01*
X141495469Y-101413996D01*
X141480221Y-101436815D01*
X141460815Y-101456221D01*
X141437996Y-101471469D01*
X141412640Y-101481972D01*
X141385722Y-101487326D01*
X141372000Y-101488000D01*
X139852000Y-101488000D01*
X139838278Y-101487326D01*
X139811360Y-101481972D01*
X139786004Y-101471469D01*
X139763185Y-101456221D01*
X139743779Y-101436815D01*
X139728531Y-101413996D01*
X139718028Y-101388640D01*
X139712674Y-101361722D01*
X139712674Y-101334278D01*
X139718028Y-101307360D01*
X139728531Y-101282004D01*
X139743779Y-101259185D01*
X139763185Y-101239779D01*
X139786004Y-101224531D01*
X139811360Y-101214028D01*
X139838278Y-101208674D01*
X139852000Y-101208000D01*
X141372000Y-101208000D01*
X141385722Y-101208674D01*
G37*
G36*
X141385722Y-101708674D02*
G01*
X141412640Y-101714028D01*
X141437996Y-101724531D01*
X141460815Y-101739779D01*
X141480221Y-101759185D01*
X141495469Y-101782004D01*
X141505972Y-101807360D01*
X141511326Y-101834278D01*
X141511326Y-101861722D01*
X141505972Y-101888640D01*
X141495469Y-101913996D01*
X141480221Y-101936815D01*
X141460815Y-101956221D01*
X141437996Y-101971469D01*
X141412640Y-101981972D01*
X141385722Y-101987326D01*
X141372000Y-101988000D01*
X139852000Y-101988000D01*
X139838278Y-101987326D01*
X139811360Y-101981972D01*
X139786004Y-101971469D01*
X139763185Y-101956221D01*
X139743779Y-101936815D01*
X139728531Y-101913996D01*
X139718028Y-101888640D01*
X139712674Y-101861722D01*
X139712674Y-101834278D01*
X139718028Y-101807360D01*
X139728531Y-101782004D01*
X139743779Y-101759185D01*
X139763185Y-101739779D01*
X139786004Y-101724531D01*
X139811360Y-101714028D01*
X139838278Y-101708674D01*
X139852000Y-101708000D01*
X141372000Y-101708000D01*
X141385722Y-101708674D01*
G37*
G36*
X141385722Y-102208674D02*
G01*
X141412640Y-102214028D01*
X141437996Y-102224531D01*
X141460815Y-102239779D01*
X141480221Y-102259185D01*
X141495469Y-102282004D01*
X141505972Y-102307360D01*
X141511326Y-102334278D01*
X141511326Y-102361722D01*
X141505972Y-102388640D01*
X141495469Y-102413996D01*
X141480221Y-102436815D01*
X141460815Y-102456221D01*
X141437996Y-102471469D01*
X141412640Y-102481972D01*
X141385722Y-102487326D01*
X141372000Y-102488000D01*
X139852000Y-102488000D01*
X139838278Y-102487326D01*
X139811360Y-102481972D01*
X139786004Y-102471469D01*
X139763185Y-102456221D01*
X139743779Y-102436815D01*
X139728531Y-102413996D01*
X139718028Y-102388640D01*
X139712674Y-102361722D01*
X139712674Y-102334278D01*
X139718028Y-102307360D01*
X139728531Y-102282004D01*
X139743779Y-102259185D01*
X139763185Y-102239779D01*
X139786004Y-102224531D01*
X139811360Y-102214028D01*
X139838278Y-102208674D01*
X139852000Y-102208000D01*
X141372000Y-102208000D01*
X141385722Y-102208674D01*
G37*
G36*
X141385722Y-102708674D02*
G01*
X141412640Y-102714028D01*
X141437996Y-102724531D01*
X141460815Y-102739779D01*
X141480221Y-102759185D01*
X141495469Y-102782004D01*
X141505972Y-102807360D01*
X141511326Y-102834278D01*
X141511326Y-102861722D01*
X141505972Y-102888640D01*
X141495469Y-102913996D01*
X141480221Y-102936815D01*
X141460815Y-102956221D01*
X141437996Y-102971469D01*
X141412640Y-102981972D01*
X141385722Y-102987326D01*
X141372000Y-102988000D01*
X139852000Y-102988000D01*
X139838278Y-102987326D01*
X139811360Y-102981972D01*
X139786004Y-102971469D01*
X139763185Y-102956221D01*
X139743779Y-102936815D01*
X139728531Y-102913996D01*
X139718028Y-102888640D01*
X139712674Y-102861722D01*
X139712674Y-102834278D01*
X139718028Y-102807360D01*
X139728531Y-102782004D01*
X139743779Y-102759185D01*
X139763185Y-102739779D01*
X139786004Y-102724531D01*
X139811360Y-102714028D01*
X139838278Y-102708674D01*
X139852000Y-102708000D01*
X141372000Y-102708000D01*
X141385722Y-102708674D01*
G37*
G36*
X141385722Y-103208674D02*
G01*
X141412640Y-103214028D01*
X141437996Y-103224531D01*
X141460815Y-103239779D01*
X141480221Y-103259185D01*
X141495469Y-103282004D01*
X141505972Y-103307360D01*
X141511326Y-103334278D01*
X141511326Y-103361722D01*
X141505972Y-103388640D01*
X141495469Y-103413996D01*
X141480221Y-103436815D01*
X141460815Y-103456221D01*
X141437996Y-103471469D01*
X141412640Y-103481972D01*
X141385722Y-103487326D01*
X141372000Y-103488000D01*
X139852000Y-103488000D01*
X139838278Y-103487326D01*
X139811360Y-103481972D01*
X139786004Y-103471469D01*
X139763185Y-103456221D01*
X139743779Y-103436815D01*
X139728531Y-103413996D01*
X139718028Y-103388640D01*
X139712674Y-103361722D01*
X139712674Y-103334278D01*
X139718028Y-103307360D01*
X139728531Y-103282004D01*
X139743779Y-103259185D01*
X139763185Y-103239779D01*
X139786004Y-103224531D01*
X139811360Y-103214028D01*
X139838278Y-103208674D01*
X139852000Y-103208000D01*
X141372000Y-103208000D01*
X141385722Y-103208674D01*
G37*
G36*
X141385722Y-103708674D02*
G01*
X141412640Y-103714028D01*
X141437996Y-103724531D01*
X141460815Y-103739779D01*
X141480221Y-103759185D01*
X141495469Y-103782004D01*
X141505972Y-103807360D01*
X141511326Y-103834278D01*
X141511326Y-103861722D01*
X141505972Y-103888640D01*
X141495469Y-103913996D01*
X141480221Y-103936815D01*
X141460815Y-103956221D01*
X141437996Y-103971469D01*
X141412640Y-103981972D01*
X141385722Y-103987326D01*
X141372000Y-103988000D01*
X139852000Y-103988000D01*
X139838278Y-103987326D01*
X139811360Y-103981972D01*
X139786004Y-103971469D01*
X139763185Y-103956221D01*
X139743779Y-103936815D01*
X139728531Y-103913996D01*
X139718028Y-103888640D01*
X139712674Y-103861722D01*
X139712674Y-103834278D01*
X139718028Y-103807360D01*
X139728531Y-103782004D01*
X139743779Y-103759185D01*
X139763185Y-103739779D01*
X139786004Y-103724531D01*
X139811360Y-103714028D01*
X139838278Y-103708674D01*
X139852000Y-103708000D01*
X141372000Y-103708000D01*
X141385722Y-103708674D01*
G37*
G36*
X141385722Y-104208674D02*
G01*
X141412640Y-104214028D01*
X141437996Y-104224531D01*
X141460815Y-104239779D01*
X141480221Y-104259185D01*
X141495469Y-104282004D01*
X141505972Y-104307360D01*
X141511326Y-104334278D01*
X141511326Y-104361722D01*
X141505972Y-104388640D01*
X141495469Y-104413996D01*
X141480221Y-104436815D01*
X141460815Y-104456221D01*
X141437996Y-104471469D01*
X141412640Y-104481972D01*
X141385722Y-104487326D01*
X141372000Y-104488000D01*
X139852000Y-104488000D01*
X139838278Y-104487326D01*
X139811360Y-104481972D01*
X139786004Y-104471469D01*
X139763185Y-104456221D01*
X139743779Y-104436815D01*
X139728531Y-104413996D01*
X139718028Y-104388640D01*
X139712674Y-104361722D01*
X139712674Y-104334278D01*
X139718028Y-104307360D01*
X139728531Y-104282004D01*
X139743779Y-104259185D01*
X139763185Y-104239779D01*
X139786004Y-104224531D01*
X139811360Y-104214028D01*
X139838278Y-104208674D01*
X139852000Y-104208000D01*
X141372000Y-104208000D01*
X141385722Y-104208674D01*
G37*
G36*
X141385722Y-104708674D02*
G01*
X141412640Y-104714028D01*
X141437996Y-104724531D01*
X141460815Y-104739779D01*
X141480221Y-104759185D01*
X141495469Y-104782004D01*
X141505972Y-104807360D01*
X141511326Y-104834278D01*
X141511326Y-104861722D01*
X141505972Y-104888640D01*
X141495469Y-104913996D01*
X141480221Y-104936815D01*
X141460815Y-104956221D01*
X141437996Y-104971469D01*
X141412640Y-104981972D01*
X141385722Y-104987326D01*
X141372000Y-104988000D01*
X139852000Y-104988000D01*
X139838278Y-104987326D01*
X139811360Y-104981972D01*
X139786004Y-104971469D01*
X139763185Y-104956221D01*
X139743779Y-104936815D01*
X139728531Y-104913996D01*
X139718028Y-104888640D01*
X139712674Y-104861722D01*
X139712674Y-104834278D01*
X139718028Y-104807360D01*
X139728531Y-104782004D01*
X139743779Y-104759185D01*
X139763185Y-104739779D01*
X139786004Y-104724531D01*
X139811360Y-104714028D01*
X139838278Y-104708674D01*
X139852000Y-104708000D01*
X141372000Y-104708000D01*
X141385722Y-104708674D01*
G37*
G36*
X141385722Y-105208674D02*
G01*
X141412640Y-105214028D01*
X141437996Y-105224531D01*
X141460815Y-105239779D01*
X141480221Y-105259185D01*
X141495469Y-105282004D01*
X141505972Y-105307360D01*
X141511326Y-105334278D01*
X141511326Y-105361722D01*
X141505972Y-105388640D01*
X141495469Y-105413996D01*
X141480221Y-105436815D01*
X141460815Y-105456221D01*
X141437996Y-105471469D01*
X141412640Y-105481972D01*
X141385722Y-105487326D01*
X141372000Y-105488000D01*
X139852000Y-105488000D01*
X139838278Y-105487326D01*
X139811360Y-105481972D01*
X139786004Y-105471469D01*
X139763185Y-105456221D01*
X139743779Y-105436815D01*
X139728531Y-105413996D01*
X139718028Y-105388640D01*
X139712674Y-105361722D01*
X139712674Y-105334278D01*
X139718028Y-105307360D01*
X139728531Y-105282004D01*
X139743779Y-105259185D01*
X139763185Y-105239779D01*
X139786004Y-105224531D01*
X139811360Y-105214028D01*
X139838278Y-105208674D01*
X139852000Y-105208000D01*
X141372000Y-105208000D01*
X141385722Y-105208674D01*
G37*
G36*
X141385722Y-105708674D02*
G01*
X141412640Y-105714028D01*
X141437996Y-105724531D01*
X141460815Y-105739779D01*
X141480221Y-105759185D01*
X141495469Y-105782004D01*
X141505972Y-105807360D01*
X141511326Y-105834278D01*
X141511326Y-105861722D01*
X141505972Y-105888640D01*
X141495469Y-105913996D01*
X141480221Y-105936815D01*
X141460815Y-105956221D01*
X141437996Y-105971469D01*
X141412640Y-105981972D01*
X141385722Y-105987326D01*
X141372000Y-105988000D01*
X139852000Y-105988000D01*
X139838278Y-105987326D01*
X139811360Y-105981972D01*
X139786004Y-105971469D01*
X139763185Y-105956221D01*
X139743779Y-105936815D01*
X139728531Y-105913996D01*
X139718028Y-105888640D01*
X139712674Y-105861722D01*
X139712674Y-105834278D01*
X139718028Y-105807360D01*
X139728531Y-105782004D01*
X139743779Y-105759185D01*
X139763185Y-105739779D01*
X139786004Y-105724531D01*
X139811360Y-105714028D01*
X139838278Y-105708674D01*
X139852000Y-105708000D01*
X141372000Y-105708000D01*
X141385722Y-105708674D01*
G37*
G36*
X142452640Y-95654028D02*
G01*
X142477996Y-95664531D01*
X142500815Y-95679779D01*
X142520221Y-95699185D01*
X142535469Y-95722004D01*
X142545972Y-95747360D01*
X142551326Y-95774278D01*
X142552000Y-95788000D01*
X142552000Y-97308000D01*
X142551326Y-97321722D01*
X142545972Y-97348640D01*
X142535469Y-97373996D01*
X142520221Y-97396815D01*
X142500815Y-97416221D01*
X142477996Y-97431469D01*
X142452640Y-97441972D01*
X142425722Y-97447326D01*
X142398278Y-97447326D01*
X142371360Y-97441972D01*
X142346004Y-97431469D01*
X142323185Y-97416221D01*
X142303779Y-97396815D01*
X142288531Y-97373996D01*
X142278028Y-97348640D01*
X142272674Y-97321722D01*
X142272000Y-97308000D01*
X142272000Y-95788000D01*
X142272674Y-95774278D01*
X142278028Y-95747360D01*
X142288531Y-95722004D01*
X142303779Y-95699185D01*
X142323185Y-95679779D01*
X142346004Y-95664531D01*
X142371360Y-95654028D01*
X142398278Y-95648674D01*
X142425722Y-95648674D01*
X142452640Y-95654028D01*
G37*
G36*
X142452640Y-106754028D02*
G01*
X142477996Y-106764531D01*
X142500815Y-106779779D01*
X142520221Y-106799185D01*
X142535469Y-106822004D01*
X142545972Y-106847360D01*
X142551326Y-106874278D01*
X142552000Y-106888000D01*
X142552000Y-108408000D01*
X142551326Y-108421722D01*
X142545972Y-108448640D01*
X142535469Y-108473996D01*
X142520221Y-108496815D01*
X142500815Y-108516221D01*
X142477996Y-108531469D01*
X142452640Y-108541972D01*
X142425722Y-108547326D01*
X142398278Y-108547326D01*
X142371360Y-108541972D01*
X142346004Y-108531469D01*
X142323185Y-108516221D01*
X142303779Y-108496815D01*
X142288531Y-108473996D01*
X142278028Y-108448640D01*
X142272674Y-108421722D01*
X142272000Y-108408000D01*
X142272000Y-106888000D01*
X142272674Y-106874278D01*
X142278028Y-106847360D01*
X142288531Y-106822004D01*
X142303779Y-106799185D01*
X142323185Y-106779779D01*
X142346004Y-106764531D01*
X142371360Y-106754028D01*
X142398278Y-106748674D01*
X142425722Y-106748674D01*
X142452640Y-106754028D01*
G37*
G36*
X142952640Y-95654028D02*
G01*
X142977996Y-95664531D01*
X143000815Y-95679779D01*
X143020221Y-95699185D01*
X143035469Y-95722004D01*
X143045972Y-95747360D01*
X143051326Y-95774278D01*
X143052000Y-95788000D01*
X143052000Y-97308000D01*
X143051326Y-97321722D01*
X143045972Y-97348640D01*
X143035469Y-97373996D01*
X143020221Y-97396815D01*
X143000815Y-97416221D01*
X142977996Y-97431469D01*
X142952640Y-97441972D01*
X142925722Y-97447326D01*
X142898278Y-97447326D01*
X142871360Y-97441972D01*
X142846004Y-97431469D01*
X142823185Y-97416221D01*
X142803779Y-97396815D01*
X142788531Y-97373996D01*
X142778028Y-97348640D01*
X142772674Y-97321722D01*
X142772000Y-97308000D01*
X142772000Y-95788000D01*
X142772674Y-95774278D01*
X142778028Y-95747360D01*
X142788531Y-95722004D01*
X142803779Y-95699185D01*
X142823185Y-95679779D01*
X142846004Y-95664531D01*
X142871360Y-95654028D01*
X142898278Y-95648674D01*
X142925722Y-95648674D01*
X142952640Y-95654028D01*
G37*
G36*
X142952640Y-106754028D02*
G01*
X142977996Y-106764531D01*
X143000815Y-106779779D01*
X143020221Y-106799185D01*
X143035469Y-106822004D01*
X143045972Y-106847360D01*
X143051326Y-106874278D01*
X143052000Y-106888000D01*
X143052000Y-108408000D01*
X143051326Y-108421722D01*
X143045972Y-108448640D01*
X143035469Y-108473996D01*
X143020221Y-108496815D01*
X143000815Y-108516221D01*
X142977996Y-108531469D01*
X142952640Y-108541972D01*
X142925722Y-108547326D01*
X142898278Y-108547326D01*
X142871360Y-108541972D01*
X142846004Y-108531469D01*
X142823185Y-108516221D01*
X142803779Y-108496815D01*
X142788531Y-108473996D01*
X142778028Y-108448640D01*
X142772674Y-108421722D01*
X142772000Y-108408000D01*
X142772000Y-106888000D01*
X142772674Y-106874278D01*
X142778028Y-106847360D01*
X142788531Y-106822004D01*
X142803779Y-106799185D01*
X142823185Y-106779779D01*
X142846004Y-106764531D01*
X142871360Y-106754028D01*
X142898278Y-106748674D01*
X142925722Y-106748674D01*
X142952640Y-106754028D01*
G37*
G36*
X143452640Y-95654028D02*
G01*
X143477996Y-95664531D01*
X143500815Y-95679779D01*
X143520221Y-95699185D01*
X143535469Y-95722004D01*
X143545972Y-95747360D01*
X143551326Y-95774278D01*
X143552000Y-95788000D01*
X143552000Y-97308000D01*
X143551326Y-97321722D01*
X143545972Y-97348640D01*
X143535469Y-97373996D01*
X143520221Y-97396815D01*
X143500815Y-97416221D01*
X143477996Y-97431469D01*
X143452640Y-97441972D01*
X143425722Y-97447326D01*
X143398278Y-97447326D01*
X143371360Y-97441972D01*
X143346004Y-97431469D01*
X143323185Y-97416221D01*
X143303779Y-97396815D01*
X143288531Y-97373996D01*
X143278028Y-97348640D01*
X143272674Y-97321722D01*
X143272000Y-97308000D01*
X143272000Y-95788000D01*
X143272674Y-95774278D01*
X143278028Y-95747360D01*
X143288531Y-95722004D01*
X143303779Y-95699185D01*
X143323185Y-95679779D01*
X143346004Y-95664531D01*
X143371360Y-95654028D01*
X143398278Y-95648674D01*
X143425722Y-95648674D01*
X143452640Y-95654028D01*
G37*
G36*
X143452640Y-106754028D02*
G01*
X143477996Y-106764531D01*
X143500815Y-106779779D01*
X143520221Y-106799185D01*
X143535469Y-106822004D01*
X143545972Y-106847360D01*
X143551326Y-106874278D01*
X143552000Y-106888000D01*
X143552000Y-108408000D01*
X143551326Y-108421722D01*
X143545972Y-108448640D01*
X143535469Y-108473996D01*
X143520221Y-108496815D01*
X143500815Y-108516221D01*
X143477996Y-108531469D01*
X143452640Y-108541972D01*
X143425722Y-108547326D01*
X143398278Y-108547326D01*
X143371360Y-108541972D01*
X143346004Y-108531469D01*
X143323185Y-108516221D01*
X143303779Y-108496815D01*
X143288531Y-108473996D01*
X143278028Y-108448640D01*
X143272674Y-108421722D01*
X143272000Y-108408000D01*
X143272000Y-106888000D01*
X143272674Y-106874278D01*
X143278028Y-106847360D01*
X143288531Y-106822004D01*
X143303779Y-106799185D01*
X143323185Y-106779779D01*
X143346004Y-106764531D01*
X143371360Y-106754028D01*
X143398278Y-106748674D01*
X143425722Y-106748674D01*
X143452640Y-106754028D01*
G37*
G36*
X143952640Y-95654028D02*
G01*
X143977996Y-95664531D01*
X144000815Y-95679779D01*
X144020221Y-95699185D01*
X144035469Y-95722004D01*
X144045972Y-95747360D01*
X144051326Y-95774278D01*
X144052000Y-95788000D01*
X144052000Y-97308000D01*
X144051326Y-97321722D01*
X144045972Y-97348640D01*
X144035469Y-97373996D01*
X144020221Y-97396815D01*
X144000815Y-97416221D01*
X143977996Y-97431469D01*
X143952640Y-97441972D01*
X143925722Y-97447326D01*
X143898278Y-97447326D01*
X143871360Y-97441972D01*
X143846004Y-97431469D01*
X143823185Y-97416221D01*
X143803779Y-97396815D01*
X143788531Y-97373996D01*
X143778028Y-97348640D01*
X143772674Y-97321722D01*
X143772000Y-97308000D01*
X143772000Y-95788000D01*
X143772674Y-95774278D01*
X143778028Y-95747360D01*
X143788531Y-95722004D01*
X143803779Y-95699185D01*
X143823185Y-95679779D01*
X143846004Y-95664531D01*
X143871360Y-95654028D01*
X143898278Y-95648674D01*
X143925722Y-95648674D01*
X143952640Y-95654028D01*
G37*
G36*
X143952640Y-106754028D02*
G01*
X143977996Y-106764531D01*
X144000815Y-106779779D01*
X144020221Y-106799185D01*
X144035469Y-106822004D01*
X144045972Y-106847360D01*
X144051326Y-106874278D01*
X144052000Y-106888000D01*
X144052000Y-108408000D01*
X144051326Y-108421722D01*
X144045972Y-108448640D01*
X144035469Y-108473996D01*
X144020221Y-108496815D01*
X144000815Y-108516221D01*
X143977996Y-108531469D01*
X143952640Y-108541972D01*
X143925722Y-108547326D01*
X143898278Y-108547326D01*
X143871360Y-108541972D01*
X143846004Y-108531469D01*
X143823185Y-108516221D01*
X143803779Y-108496815D01*
X143788531Y-108473996D01*
X143778028Y-108448640D01*
X143772674Y-108421722D01*
X143772000Y-108408000D01*
X143772000Y-106888000D01*
X143772674Y-106874278D01*
X143778028Y-106847360D01*
X143788531Y-106822004D01*
X143803779Y-106799185D01*
X143823185Y-106779779D01*
X143846004Y-106764531D01*
X143871360Y-106754028D01*
X143898278Y-106748674D01*
X143925722Y-106748674D01*
X143952640Y-106754028D01*
G37*
G36*
X144452640Y-95654028D02*
G01*
X144477996Y-95664531D01*
X144500815Y-95679779D01*
X144520221Y-95699185D01*
X144535469Y-95722004D01*
X144545972Y-95747360D01*
X144551326Y-95774278D01*
X144552000Y-95788000D01*
X144552000Y-97308000D01*
X144551326Y-97321722D01*
X144545972Y-97348640D01*
X144535469Y-97373996D01*
X144520221Y-97396815D01*
X144500815Y-97416221D01*
X144477996Y-97431469D01*
X144452640Y-97441972D01*
X144425722Y-97447326D01*
X144398278Y-97447326D01*
X144371360Y-97441972D01*
X144346004Y-97431469D01*
X144323185Y-97416221D01*
X144303779Y-97396815D01*
X144288531Y-97373996D01*
X144278028Y-97348640D01*
X144272674Y-97321722D01*
X144272000Y-97308000D01*
X144272000Y-95788000D01*
X144272674Y-95774278D01*
X144278028Y-95747360D01*
X144288531Y-95722004D01*
X144303779Y-95699185D01*
X144323185Y-95679779D01*
X144346004Y-95664531D01*
X144371360Y-95654028D01*
X144398278Y-95648674D01*
X144425722Y-95648674D01*
X144452640Y-95654028D01*
G37*
G36*
X144452640Y-106754028D02*
G01*
X144477996Y-106764531D01*
X144500815Y-106779779D01*
X144520221Y-106799185D01*
X144535469Y-106822004D01*
X144545972Y-106847360D01*
X144551326Y-106874278D01*
X144552000Y-106888000D01*
X144552000Y-108408000D01*
X144551326Y-108421722D01*
X144545972Y-108448640D01*
X144535469Y-108473996D01*
X144520221Y-108496815D01*
X144500815Y-108516221D01*
X144477996Y-108531469D01*
X144452640Y-108541972D01*
X144425722Y-108547326D01*
X144398278Y-108547326D01*
X144371360Y-108541972D01*
X144346004Y-108531469D01*
X144323185Y-108516221D01*
X144303779Y-108496815D01*
X144288531Y-108473996D01*
X144278028Y-108448640D01*
X144272674Y-108421722D01*
X144272000Y-108408000D01*
X144272000Y-106888000D01*
X144272674Y-106874278D01*
X144278028Y-106847360D01*
X144288531Y-106822004D01*
X144303779Y-106799185D01*
X144323185Y-106779779D01*
X144346004Y-106764531D01*
X144371360Y-106754028D01*
X144398278Y-106748674D01*
X144425722Y-106748674D01*
X144452640Y-106754028D01*
G37*
G36*
X144952640Y-95654028D02*
G01*
X144977996Y-95664531D01*
X145000815Y-95679779D01*
X145020221Y-95699185D01*
X145035469Y-95722004D01*
X145045972Y-95747360D01*
X145051326Y-95774278D01*
X145052000Y-95788000D01*
X145052000Y-97308000D01*
X145051326Y-97321722D01*
X145045972Y-97348640D01*
X145035469Y-97373996D01*
X145020221Y-97396815D01*
X145000815Y-97416221D01*
X144977996Y-97431469D01*
X144952640Y-97441972D01*
X144925722Y-97447326D01*
X144898278Y-97447326D01*
X144871360Y-97441972D01*
X144846004Y-97431469D01*
X144823185Y-97416221D01*
X144803779Y-97396815D01*
X144788531Y-97373996D01*
X144778028Y-97348640D01*
X144772674Y-97321722D01*
X144772000Y-97308000D01*
X144772000Y-95788000D01*
X144772674Y-95774278D01*
X144778028Y-95747360D01*
X144788531Y-95722004D01*
X144803779Y-95699185D01*
X144823185Y-95679779D01*
X144846004Y-95664531D01*
X144871360Y-95654028D01*
X144898278Y-95648674D01*
X144925722Y-95648674D01*
X144952640Y-95654028D01*
G37*
G36*
X144952640Y-106754028D02*
G01*
X144977996Y-106764531D01*
X145000815Y-106779779D01*
X145020221Y-106799185D01*
X145035469Y-106822004D01*
X145045972Y-106847360D01*
X145051326Y-106874278D01*
X145052000Y-106888000D01*
X145052000Y-108408000D01*
X145051326Y-108421722D01*
X145045972Y-108448640D01*
X145035469Y-108473996D01*
X145020221Y-108496815D01*
X145000815Y-108516221D01*
X144977996Y-108531469D01*
X144952640Y-108541972D01*
X144925722Y-108547326D01*
X144898278Y-108547326D01*
X144871360Y-108541972D01*
X144846004Y-108531469D01*
X144823185Y-108516221D01*
X144803779Y-108496815D01*
X144788531Y-108473996D01*
X144778028Y-108448640D01*
X144772674Y-108421722D01*
X144772000Y-108408000D01*
X144772000Y-106888000D01*
X144772674Y-106874278D01*
X144778028Y-106847360D01*
X144788531Y-106822004D01*
X144803779Y-106799185D01*
X144823185Y-106779779D01*
X144846004Y-106764531D01*
X144871360Y-106754028D01*
X144898278Y-106748674D01*
X144925722Y-106748674D01*
X144952640Y-106754028D01*
G37*
G36*
X145452640Y-95654028D02*
G01*
X145477996Y-95664531D01*
X145500815Y-95679779D01*
X145520221Y-95699185D01*
X145535469Y-95722004D01*
X145545972Y-95747360D01*
X145551326Y-95774278D01*
X145552000Y-95788000D01*
X145552000Y-97308000D01*
X145551326Y-97321722D01*
X145545972Y-97348640D01*
X145535469Y-97373996D01*
X145520221Y-97396815D01*
X145500815Y-97416221D01*
X145477996Y-97431469D01*
X145452640Y-97441972D01*
X145425722Y-97447326D01*
X145398278Y-97447326D01*
X145371360Y-97441972D01*
X145346004Y-97431469D01*
X145323185Y-97416221D01*
X145303779Y-97396815D01*
X145288531Y-97373996D01*
X145278028Y-97348640D01*
X145272674Y-97321722D01*
X145272000Y-97308000D01*
X145272000Y-95788000D01*
X145272674Y-95774278D01*
X145278028Y-95747360D01*
X145288531Y-95722004D01*
X145303779Y-95699185D01*
X145323185Y-95679779D01*
X145346004Y-95664531D01*
X145371360Y-95654028D01*
X145398278Y-95648674D01*
X145425722Y-95648674D01*
X145452640Y-95654028D01*
G37*
G36*
X145452640Y-106754028D02*
G01*
X145477996Y-106764531D01*
X145500815Y-106779779D01*
X145520221Y-106799185D01*
X145535469Y-106822004D01*
X145545972Y-106847360D01*
X145551326Y-106874278D01*
X145552000Y-106888000D01*
X145552000Y-108408000D01*
X145551326Y-108421722D01*
X145545972Y-108448640D01*
X145535469Y-108473996D01*
X145520221Y-108496815D01*
X145500815Y-108516221D01*
X145477996Y-108531469D01*
X145452640Y-108541972D01*
X145425722Y-108547326D01*
X145398278Y-108547326D01*
X145371360Y-108541972D01*
X145346004Y-108531469D01*
X145323185Y-108516221D01*
X145303779Y-108496815D01*
X145288531Y-108473996D01*
X145278028Y-108448640D01*
X145272674Y-108421722D01*
X145272000Y-108408000D01*
X145272000Y-106888000D01*
X145272674Y-106874278D01*
X145278028Y-106847360D01*
X145288531Y-106822004D01*
X145303779Y-106799185D01*
X145323185Y-106779779D01*
X145346004Y-106764531D01*
X145371360Y-106754028D01*
X145398278Y-106748674D01*
X145425722Y-106748674D01*
X145452640Y-106754028D01*
G37*
G36*
X145952640Y-95654028D02*
G01*
X145977996Y-95664531D01*
X146000815Y-95679779D01*
X146020221Y-95699185D01*
X146035469Y-95722004D01*
X146045972Y-95747360D01*
X146051326Y-95774278D01*
X146052000Y-95788000D01*
X146052000Y-97308000D01*
X146051326Y-97321722D01*
X146045972Y-97348640D01*
X146035469Y-97373996D01*
X146020221Y-97396815D01*
X146000815Y-97416221D01*
X145977996Y-97431469D01*
X145952640Y-97441972D01*
X145925722Y-97447326D01*
X145898278Y-97447326D01*
X145871360Y-97441972D01*
X145846004Y-97431469D01*
X145823185Y-97416221D01*
X145803779Y-97396815D01*
X145788531Y-97373996D01*
X145778028Y-97348640D01*
X145772674Y-97321722D01*
X145772000Y-97308000D01*
X145772000Y-95788000D01*
X145772674Y-95774278D01*
X145778028Y-95747360D01*
X145788531Y-95722004D01*
X145803779Y-95699185D01*
X145823185Y-95679779D01*
X145846004Y-95664531D01*
X145871360Y-95654028D01*
X145898278Y-95648674D01*
X145925722Y-95648674D01*
X145952640Y-95654028D01*
G37*
G36*
X145952640Y-106754028D02*
G01*
X145977996Y-106764531D01*
X146000815Y-106779779D01*
X146020221Y-106799185D01*
X146035469Y-106822004D01*
X146045972Y-106847360D01*
X146051326Y-106874278D01*
X146052000Y-106888000D01*
X146052000Y-108408000D01*
X146051326Y-108421722D01*
X146045972Y-108448640D01*
X146035469Y-108473996D01*
X146020221Y-108496815D01*
X146000815Y-108516221D01*
X145977996Y-108531469D01*
X145952640Y-108541972D01*
X145925722Y-108547326D01*
X145898278Y-108547326D01*
X145871360Y-108541972D01*
X145846004Y-108531469D01*
X145823185Y-108516221D01*
X145803779Y-108496815D01*
X145788531Y-108473996D01*
X145778028Y-108448640D01*
X145772674Y-108421722D01*
X145772000Y-108408000D01*
X145772000Y-106888000D01*
X145772674Y-106874278D01*
X145778028Y-106847360D01*
X145788531Y-106822004D01*
X145803779Y-106799185D01*
X145823185Y-106779779D01*
X145846004Y-106764531D01*
X145871360Y-106754028D01*
X145898278Y-106748674D01*
X145925722Y-106748674D01*
X145952640Y-106754028D01*
G37*
G36*
X146452640Y-95654028D02*
G01*
X146477996Y-95664531D01*
X146500815Y-95679779D01*
X146520221Y-95699185D01*
X146535469Y-95722004D01*
X146545972Y-95747360D01*
X146551326Y-95774278D01*
X146552000Y-95788000D01*
X146552000Y-97308000D01*
X146551326Y-97321722D01*
X146545972Y-97348640D01*
X146535469Y-97373996D01*
X146520221Y-97396815D01*
X146500815Y-97416221D01*
X146477996Y-97431469D01*
X146452640Y-97441972D01*
X146425722Y-97447326D01*
X146398278Y-97447326D01*
X146371360Y-97441972D01*
X146346004Y-97431469D01*
X146323185Y-97416221D01*
X146303779Y-97396815D01*
X146288531Y-97373996D01*
X146278028Y-97348640D01*
X146272674Y-97321722D01*
X146272000Y-97308000D01*
X146272000Y-95788000D01*
X146272674Y-95774278D01*
X146278028Y-95747360D01*
X146288531Y-95722004D01*
X146303779Y-95699185D01*
X146323185Y-95679779D01*
X146346004Y-95664531D01*
X146371360Y-95654028D01*
X146398278Y-95648674D01*
X146425722Y-95648674D01*
X146452640Y-95654028D01*
G37*
G36*
X146452640Y-106754028D02*
G01*
X146477996Y-106764531D01*
X146500815Y-106779779D01*
X146520221Y-106799185D01*
X146535469Y-106822004D01*
X146545972Y-106847360D01*
X146551326Y-106874278D01*
X146552000Y-106888000D01*
X146552000Y-108408000D01*
X146551326Y-108421722D01*
X146545972Y-108448640D01*
X146535469Y-108473996D01*
X146520221Y-108496815D01*
X146500815Y-108516221D01*
X146477996Y-108531469D01*
X146452640Y-108541972D01*
X146425722Y-108547326D01*
X146398278Y-108547326D01*
X146371360Y-108541972D01*
X146346004Y-108531469D01*
X146323185Y-108516221D01*
X146303779Y-108496815D01*
X146288531Y-108473996D01*
X146278028Y-108448640D01*
X146272674Y-108421722D01*
X146272000Y-108408000D01*
X146272000Y-106888000D01*
X146272674Y-106874278D01*
X146278028Y-106847360D01*
X146288531Y-106822004D01*
X146303779Y-106799185D01*
X146323185Y-106779779D01*
X146346004Y-106764531D01*
X146371360Y-106754028D01*
X146398278Y-106748674D01*
X146425722Y-106748674D01*
X146452640Y-106754028D01*
G37*
G36*
X146952640Y-95654028D02*
G01*
X146977996Y-95664531D01*
X147000815Y-95679779D01*
X147020221Y-95699185D01*
X147035469Y-95722004D01*
X147045972Y-95747360D01*
X147051326Y-95774278D01*
X147052000Y-95788000D01*
X147052000Y-97308000D01*
X147051326Y-97321722D01*
X147045972Y-97348640D01*
X147035469Y-97373996D01*
X147020221Y-97396815D01*
X147000815Y-97416221D01*
X146977996Y-97431469D01*
X146952640Y-97441972D01*
X146925722Y-97447326D01*
X146898278Y-97447326D01*
X146871360Y-97441972D01*
X146846004Y-97431469D01*
X146823185Y-97416221D01*
X146803779Y-97396815D01*
X146788531Y-97373996D01*
X146778028Y-97348640D01*
X146772674Y-97321722D01*
X146772000Y-97308000D01*
X146772000Y-95788000D01*
X146772674Y-95774278D01*
X146778028Y-95747360D01*
X146788531Y-95722004D01*
X146803779Y-95699185D01*
X146823185Y-95679779D01*
X146846004Y-95664531D01*
X146871360Y-95654028D01*
X146898278Y-95648674D01*
X146925722Y-95648674D01*
X146952640Y-95654028D01*
G37*
G36*
X146952640Y-106754028D02*
G01*
X146977996Y-106764531D01*
X147000815Y-106779779D01*
X147020221Y-106799185D01*
X147035469Y-106822004D01*
X147045972Y-106847360D01*
X147051326Y-106874278D01*
X147052000Y-106888000D01*
X147052000Y-108408000D01*
X147051326Y-108421722D01*
X147045972Y-108448640D01*
X147035469Y-108473996D01*
X147020221Y-108496815D01*
X147000815Y-108516221D01*
X146977996Y-108531469D01*
X146952640Y-108541972D01*
X146925722Y-108547326D01*
X146898278Y-108547326D01*
X146871360Y-108541972D01*
X146846004Y-108531469D01*
X146823185Y-108516221D01*
X146803779Y-108496815D01*
X146788531Y-108473996D01*
X146778028Y-108448640D01*
X146772674Y-108421722D01*
X146772000Y-108408000D01*
X146772000Y-106888000D01*
X146772674Y-106874278D01*
X146778028Y-106847360D01*
X146788531Y-106822004D01*
X146803779Y-106799185D01*
X146823185Y-106779779D01*
X146846004Y-106764531D01*
X146871360Y-106754028D01*
X146898278Y-106748674D01*
X146925722Y-106748674D01*
X146952640Y-106754028D01*
G37*
G36*
X147452640Y-95654028D02*
G01*
X147477996Y-95664531D01*
X147500815Y-95679779D01*
X147520221Y-95699185D01*
X147535469Y-95722004D01*
X147545972Y-95747360D01*
X147551326Y-95774278D01*
X147552000Y-95788000D01*
X147552000Y-97308000D01*
X147551326Y-97321722D01*
X147545972Y-97348640D01*
X147535469Y-97373996D01*
X147520221Y-97396815D01*
X147500815Y-97416221D01*
X147477996Y-97431469D01*
X147452640Y-97441972D01*
X147425722Y-97447326D01*
X147398278Y-97447326D01*
X147371360Y-97441972D01*
X147346004Y-97431469D01*
X147323185Y-97416221D01*
X147303779Y-97396815D01*
X147288531Y-97373996D01*
X147278028Y-97348640D01*
X147272674Y-97321722D01*
X147272000Y-97308000D01*
X147272000Y-95788000D01*
X147272674Y-95774278D01*
X147278028Y-95747360D01*
X147288531Y-95722004D01*
X147303779Y-95699185D01*
X147323185Y-95679779D01*
X147346004Y-95664531D01*
X147371360Y-95654028D01*
X147398278Y-95648674D01*
X147425722Y-95648674D01*
X147452640Y-95654028D01*
G37*
G36*
X147452640Y-106754028D02*
G01*
X147477996Y-106764531D01*
X147500815Y-106779779D01*
X147520221Y-106799185D01*
X147535469Y-106822004D01*
X147545972Y-106847360D01*
X147551326Y-106874278D01*
X147552000Y-106888000D01*
X147552000Y-108408000D01*
X147551326Y-108421722D01*
X147545972Y-108448640D01*
X147535469Y-108473996D01*
X147520221Y-108496815D01*
X147500815Y-108516221D01*
X147477996Y-108531469D01*
X147452640Y-108541972D01*
X147425722Y-108547326D01*
X147398278Y-108547326D01*
X147371360Y-108541972D01*
X147346004Y-108531469D01*
X147323185Y-108516221D01*
X147303779Y-108496815D01*
X147288531Y-108473996D01*
X147278028Y-108448640D01*
X147272674Y-108421722D01*
X147272000Y-108408000D01*
X147272000Y-106888000D01*
X147272674Y-106874278D01*
X147278028Y-106847360D01*
X147288531Y-106822004D01*
X147303779Y-106799185D01*
X147323185Y-106779779D01*
X147346004Y-106764531D01*
X147371360Y-106754028D01*
X147398278Y-106748674D01*
X147425722Y-106748674D01*
X147452640Y-106754028D01*
G37*
G36*
X147952640Y-95654028D02*
G01*
X147977996Y-95664531D01*
X148000815Y-95679779D01*
X148020221Y-95699185D01*
X148035469Y-95722004D01*
X148045972Y-95747360D01*
X148051326Y-95774278D01*
X148052000Y-95788000D01*
X148052000Y-97308000D01*
X148051326Y-97321722D01*
X148045972Y-97348640D01*
X148035469Y-97373996D01*
X148020221Y-97396815D01*
X148000815Y-97416221D01*
X147977996Y-97431469D01*
X147952640Y-97441972D01*
X147925722Y-97447326D01*
X147898278Y-97447326D01*
X147871360Y-97441972D01*
X147846004Y-97431469D01*
X147823185Y-97416221D01*
X147803779Y-97396815D01*
X147788531Y-97373996D01*
X147778028Y-97348640D01*
X147772674Y-97321722D01*
X147772000Y-97308000D01*
X147772000Y-95788000D01*
X147772674Y-95774278D01*
X147778028Y-95747360D01*
X147788531Y-95722004D01*
X147803779Y-95699185D01*
X147823185Y-95679779D01*
X147846004Y-95664531D01*
X147871360Y-95654028D01*
X147898278Y-95648674D01*
X147925722Y-95648674D01*
X147952640Y-95654028D01*
G37*
G36*
X147952640Y-106754028D02*
G01*
X147977996Y-106764531D01*
X148000815Y-106779779D01*
X148020221Y-106799185D01*
X148035469Y-106822004D01*
X148045972Y-106847360D01*
X148051326Y-106874278D01*
X148052000Y-106888000D01*
X148052000Y-108408000D01*
X148051326Y-108421722D01*
X148045972Y-108448640D01*
X148035469Y-108473996D01*
X148020221Y-108496815D01*
X148000815Y-108516221D01*
X147977996Y-108531469D01*
X147952640Y-108541972D01*
X147925722Y-108547326D01*
X147898278Y-108547326D01*
X147871360Y-108541972D01*
X147846004Y-108531469D01*
X147823185Y-108516221D01*
X147803779Y-108496815D01*
X147788531Y-108473996D01*
X147778028Y-108448640D01*
X147772674Y-108421722D01*
X147772000Y-108408000D01*
X147772000Y-106888000D01*
X147772674Y-106874278D01*
X147778028Y-106847360D01*
X147788531Y-106822004D01*
X147803779Y-106799185D01*
X147823185Y-106779779D01*
X147846004Y-106764531D01*
X147871360Y-106754028D01*
X147898278Y-106748674D01*
X147925722Y-106748674D01*
X147952640Y-106754028D01*
G37*
G36*
X148452640Y-95654028D02*
G01*
X148477996Y-95664531D01*
X148500815Y-95679779D01*
X148520221Y-95699185D01*
X148535469Y-95722004D01*
X148545972Y-95747360D01*
X148551326Y-95774278D01*
X148552000Y-95788000D01*
X148552000Y-97308000D01*
X148551326Y-97321722D01*
X148545972Y-97348640D01*
X148535469Y-97373996D01*
X148520221Y-97396815D01*
X148500815Y-97416221D01*
X148477996Y-97431469D01*
X148452640Y-97441972D01*
X148425722Y-97447326D01*
X148398278Y-97447326D01*
X148371360Y-97441972D01*
X148346004Y-97431469D01*
X148323185Y-97416221D01*
X148303779Y-97396815D01*
X148288531Y-97373996D01*
X148278028Y-97348640D01*
X148272674Y-97321722D01*
X148272000Y-97308000D01*
X148272000Y-95788000D01*
X148272674Y-95774278D01*
X148278028Y-95747360D01*
X148288531Y-95722004D01*
X148303779Y-95699185D01*
X148323185Y-95679779D01*
X148346004Y-95664531D01*
X148371360Y-95654028D01*
X148398278Y-95648674D01*
X148425722Y-95648674D01*
X148452640Y-95654028D01*
G37*
G36*
X148452640Y-106754028D02*
G01*
X148477996Y-106764531D01*
X148500815Y-106779779D01*
X148520221Y-106799185D01*
X148535469Y-106822004D01*
X148545972Y-106847360D01*
X148551326Y-106874278D01*
X148552000Y-106888000D01*
X148552000Y-108408000D01*
X148551326Y-108421722D01*
X148545972Y-108448640D01*
X148535469Y-108473996D01*
X148520221Y-108496815D01*
X148500815Y-108516221D01*
X148477996Y-108531469D01*
X148452640Y-108541972D01*
X148425722Y-108547326D01*
X148398278Y-108547326D01*
X148371360Y-108541972D01*
X148346004Y-108531469D01*
X148323185Y-108516221D01*
X148303779Y-108496815D01*
X148288531Y-108473996D01*
X148278028Y-108448640D01*
X148272674Y-108421722D01*
X148272000Y-108408000D01*
X148272000Y-106888000D01*
X148272674Y-106874278D01*
X148278028Y-106847360D01*
X148288531Y-106822004D01*
X148303779Y-106799185D01*
X148323185Y-106779779D01*
X148346004Y-106764531D01*
X148371360Y-106754028D01*
X148398278Y-106748674D01*
X148425722Y-106748674D01*
X148452640Y-106754028D01*
G37*
G36*
X148952640Y-95654028D02*
G01*
X148977996Y-95664531D01*
X149000815Y-95679779D01*
X149020221Y-95699185D01*
X149035469Y-95722004D01*
X149045972Y-95747360D01*
X149051326Y-95774278D01*
X149052000Y-95788000D01*
X149052000Y-97308000D01*
X149051326Y-97321722D01*
X149045972Y-97348640D01*
X149035469Y-97373996D01*
X149020221Y-97396815D01*
X149000815Y-97416221D01*
X148977996Y-97431469D01*
X148952640Y-97441972D01*
X148925722Y-97447326D01*
X148898278Y-97447326D01*
X148871360Y-97441972D01*
X148846004Y-97431469D01*
X148823185Y-97416221D01*
X148803779Y-97396815D01*
X148788531Y-97373996D01*
X148778028Y-97348640D01*
X148772674Y-97321722D01*
X148772000Y-97308000D01*
X148772000Y-95788000D01*
X148772674Y-95774278D01*
X148778028Y-95747360D01*
X148788531Y-95722004D01*
X148803779Y-95699185D01*
X148823185Y-95679779D01*
X148846004Y-95664531D01*
X148871360Y-95654028D01*
X148898278Y-95648674D01*
X148925722Y-95648674D01*
X148952640Y-95654028D01*
G37*
G36*
X148952640Y-106754028D02*
G01*
X148977996Y-106764531D01*
X149000815Y-106779779D01*
X149020221Y-106799185D01*
X149035469Y-106822004D01*
X149045972Y-106847360D01*
X149051326Y-106874278D01*
X149052000Y-106888000D01*
X149052000Y-108408000D01*
X149051326Y-108421722D01*
X149045972Y-108448640D01*
X149035469Y-108473996D01*
X149020221Y-108496815D01*
X149000815Y-108516221D01*
X148977996Y-108531469D01*
X148952640Y-108541972D01*
X148925722Y-108547326D01*
X148898278Y-108547326D01*
X148871360Y-108541972D01*
X148846004Y-108531469D01*
X148823185Y-108516221D01*
X148803779Y-108496815D01*
X148788531Y-108473996D01*
X148778028Y-108448640D01*
X148772674Y-108421722D01*
X148772000Y-108408000D01*
X148772000Y-106888000D01*
X148772674Y-106874278D01*
X148778028Y-106847360D01*
X148788531Y-106822004D01*
X148803779Y-106799185D01*
X148823185Y-106779779D01*
X148846004Y-106764531D01*
X148871360Y-106754028D01*
X148898278Y-106748674D01*
X148925722Y-106748674D01*
X148952640Y-106754028D01*
G37*
G36*
X149452640Y-95654028D02*
G01*
X149477996Y-95664531D01*
X149500815Y-95679779D01*
X149520221Y-95699185D01*
X149535469Y-95722004D01*
X149545972Y-95747360D01*
X149551326Y-95774278D01*
X149552000Y-95788000D01*
X149552000Y-97308000D01*
X149551326Y-97321722D01*
X149545972Y-97348640D01*
X149535469Y-97373996D01*
X149520221Y-97396815D01*
X149500815Y-97416221D01*
X149477996Y-97431469D01*
X149452640Y-97441972D01*
X149425722Y-97447326D01*
X149398278Y-97447326D01*
X149371360Y-97441972D01*
X149346004Y-97431469D01*
X149323185Y-97416221D01*
X149303779Y-97396815D01*
X149288531Y-97373996D01*
X149278028Y-97348640D01*
X149272674Y-97321722D01*
X149272000Y-97308000D01*
X149272000Y-95788000D01*
X149272674Y-95774278D01*
X149278028Y-95747360D01*
X149288531Y-95722004D01*
X149303779Y-95699185D01*
X149323185Y-95679779D01*
X149346004Y-95664531D01*
X149371360Y-95654028D01*
X149398278Y-95648674D01*
X149425722Y-95648674D01*
X149452640Y-95654028D01*
G37*
G36*
X149452640Y-106754028D02*
G01*
X149477996Y-106764531D01*
X149500815Y-106779779D01*
X149520221Y-106799185D01*
X149535469Y-106822004D01*
X149545972Y-106847360D01*
X149551326Y-106874278D01*
X149552000Y-106888000D01*
X149552000Y-108408000D01*
X149551326Y-108421722D01*
X149545972Y-108448640D01*
X149535469Y-108473996D01*
X149520221Y-108496815D01*
X149500815Y-108516221D01*
X149477996Y-108531469D01*
X149452640Y-108541972D01*
X149425722Y-108547326D01*
X149398278Y-108547326D01*
X149371360Y-108541972D01*
X149346004Y-108531469D01*
X149323185Y-108516221D01*
X149303779Y-108496815D01*
X149288531Y-108473996D01*
X149278028Y-108448640D01*
X149272674Y-108421722D01*
X149272000Y-108408000D01*
X149272000Y-106888000D01*
X149272674Y-106874278D01*
X149278028Y-106847360D01*
X149288531Y-106822004D01*
X149303779Y-106799185D01*
X149323185Y-106779779D01*
X149346004Y-106764531D01*
X149371360Y-106754028D01*
X149398278Y-106748674D01*
X149425722Y-106748674D01*
X149452640Y-106754028D01*
G37*
G36*
X149952640Y-95654028D02*
G01*
X149977996Y-95664531D01*
X150000815Y-95679779D01*
X150020221Y-95699185D01*
X150035469Y-95722004D01*
X150045972Y-95747360D01*
X150051326Y-95774278D01*
X150052000Y-95788000D01*
X150052000Y-97308000D01*
X150051326Y-97321722D01*
X150045972Y-97348640D01*
X150035469Y-97373996D01*
X150020221Y-97396815D01*
X150000815Y-97416221D01*
X149977996Y-97431469D01*
X149952640Y-97441972D01*
X149925722Y-97447326D01*
X149898278Y-97447326D01*
X149871360Y-97441972D01*
X149846004Y-97431469D01*
X149823185Y-97416221D01*
X149803779Y-97396815D01*
X149788531Y-97373996D01*
X149778028Y-97348640D01*
X149772674Y-97321722D01*
X149772000Y-97308000D01*
X149772000Y-95788000D01*
X149772674Y-95774278D01*
X149778028Y-95747360D01*
X149788531Y-95722004D01*
X149803779Y-95699185D01*
X149823185Y-95679779D01*
X149846004Y-95664531D01*
X149871360Y-95654028D01*
X149898278Y-95648674D01*
X149925722Y-95648674D01*
X149952640Y-95654028D01*
G37*
G36*
X149952640Y-106754028D02*
G01*
X149977996Y-106764531D01*
X150000815Y-106779779D01*
X150020221Y-106799185D01*
X150035469Y-106822004D01*
X150045972Y-106847360D01*
X150051326Y-106874278D01*
X150052000Y-106888000D01*
X150052000Y-108408000D01*
X150051326Y-108421722D01*
X150045972Y-108448640D01*
X150035469Y-108473996D01*
X150020221Y-108496815D01*
X150000815Y-108516221D01*
X149977996Y-108531469D01*
X149952640Y-108541972D01*
X149925722Y-108547326D01*
X149898278Y-108547326D01*
X149871360Y-108541972D01*
X149846004Y-108531469D01*
X149823185Y-108516221D01*
X149803779Y-108496815D01*
X149788531Y-108473996D01*
X149778028Y-108448640D01*
X149772674Y-108421722D01*
X149772000Y-108408000D01*
X149772000Y-106888000D01*
X149772674Y-106874278D01*
X149778028Y-106847360D01*
X149788531Y-106822004D01*
X149803779Y-106799185D01*
X149823185Y-106779779D01*
X149846004Y-106764531D01*
X149871360Y-106754028D01*
X149898278Y-106748674D01*
X149925722Y-106748674D01*
X149952640Y-106754028D01*
G37*
G36*
X152485722Y-98208674D02*
G01*
X152512640Y-98214028D01*
X152537996Y-98224531D01*
X152560815Y-98239779D01*
X152580221Y-98259185D01*
X152595469Y-98282004D01*
X152605972Y-98307360D01*
X152611326Y-98334278D01*
X152611326Y-98361722D01*
X152605972Y-98388640D01*
X152595469Y-98413996D01*
X152580221Y-98436815D01*
X152560815Y-98456221D01*
X152537996Y-98471469D01*
X152512640Y-98481972D01*
X152485722Y-98487326D01*
X152472000Y-98488000D01*
X150952000Y-98488000D01*
X150938278Y-98487326D01*
X150911360Y-98481972D01*
X150886004Y-98471469D01*
X150863185Y-98456221D01*
X150843779Y-98436815D01*
X150828531Y-98413996D01*
X150818028Y-98388640D01*
X150812674Y-98361722D01*
X150812674Y-98334278D01*
X150818028Y-98307360D01*
X150828531Y-98282004D01*
X150843779Y-98259185D01*
X150863185Y-98239779D01*
X150886004Y-98224531D01*
X150911360Y-98214028D01*
X150938278Y-98208674D01*
X150952000Y-98208000D01*
X152472000Y-98208000D01*
X152485722Y-98208674D01*
G37*
G36*
X152485722Y-98708674D02*
G01*
X152512640Y-98714028D01*
X152537996Y-98724531D01*
X152560815Y-98739779D01*
X152580221Y-98759185D01*
X152595469Y-98782004D01*
X152605972Y-98807360D01*
X152611326Y-98834278D01*
X152611326Y-98861722D01*
X152605972Y-98888640D01*
X152595469Y-98913996D01*
X152580221Y-98936815D01*
X152560815Y-98956221D01*
X152537996Y-98971469D01*
X152512640Y-98981972D01*
X152485722Y-98987326D01*
X152472000Y-98988000D01*
X150952000Y-98988000D01*
X150938278Y-98987326D01*
X150911360Y-98981972D01*
X150886004Y-98971469D01*
X150863185Y-98956221D01*
X150843779Y-98936815D01*
X150828531Y-98913996D01*
X150818028Y-98888640D01*
X150812674Y-98861722D01*
X150812674Y-98834278D01*
X150818028Y-98807360D01*
X150828531Y-98782004D01*
X150843779Y-98759185D01*
X150863185Y-98739779D01*
X150886004Y-98724531D01*
X150911360Y-98714028D01*
X150938278Y-98708674D01*
X150952000Y-98708000D01*
X152472000Y-98708000D01*
X152485722Y-98708674D01*
G37*
G36*
X152485722Y-99208674D02*
G01*
X152512640Y-99214028D01*
X152537996Y-99224531D01*
X152560815Y-99239779D01*
X152580221Y-99259185D01*
X152595469Y-99282004D01*
X152605972Y-99307360D01*
X152611326Y-99334278D01*
X152611326Y-99361722D01*
X152605972Y-99388640D01*
X152595469Y-99413996D01*
X152580221Y-99436815D01*
X152560815Y-99456221D01*
X152537996Y-99471469D01*
X152512640Y-99481972D01*
X152485722Y-99487326D01*
X152472000Y-99488000D01*
X150952000Y-99488000D01*
X150938278Y-99487326D01*
X150911360Y-99481972D01*
X150886004Y-99471469D01*
X150863185Y-99456221D01*
X150843779Y-99436815D01*
X150828531Y-99413996D01*
X150818028Y-99388640D01*
X150812674Y-99361722D01*
X150812674Y-99334278D01*
X150818028Y-99307360D01*
X150828531Y-99282004D01*
X150843779Y-99259185D01*
X150863185Y-99239779D01*
X150886004Y-99224531D01*
X150911360Y-99214028D01*
X150938278Y-99208674D01*
X150952000Y-99208000D01*
X152472000Y-99208000D01*
X152485722Y-99208674D01*
G37*
G36*
X152485722Y-99708674D02*
G01*
X152512640Y-99714028D01*
X152537996Y-99724531D01*
X152560815Y-99739779D01*
X152580221Y-99759185D01*
X152595469Y-99782004D01*
X152605972Y-99807360D01*
X152611326Y-99834278D01*
X152611326Y-99861722D01*
X152605972Y-99888640D01*
X152595469Y-99913996D01*
X152580221Y-99936815D01*
X152560815Y-99956221D01*
X152537996Y-99971469D01*
X152512640Y-99981972D01*
X152485722Y-99987326D01*
X152472000Y-99988000D01*
X150952000Y-99988000D01*
X150938278Y-99987326D01*
X150911360Y-99981972D01*
X150886004Y-99971469D01*
X150863185Y-99956221D01*
X150843779Y-99936815D01*
X150828531Y-99913996D01*
X150818028Y-99888640D01*
X150812674Y-99861722D01*
X150812674Y-99834278D01*
X150818028Y-99807360D01*
X150828531Y-99782004D01*
X150843779Y-99759185D01*
X150863185Y-99739779D01*
X150886004Y-99724531D01*
X150911360Y-99714028D01*
X150938278Y-99708674D01*
X150952000Y-99708000D01*
X152472000Y-99708000D01*
X152485722Y-99708674D01*
G37*
G36*
X152485722Y-100208674D02*
G01*
X152512640Y-100214028D01*
X152537996Y-100224531D01*
X152560815Y-100239779D01*
X152580221Y-100259185D01*
X152595469Y-100282004D01*
X152605972Y-100307360D01*
X152611326Y-100334278D01*
X152611326Y-100361722D01*
X152605972Y-100388640D01*
X152595469Y-100413996D01*
X152580221Y-100436815D01*
X152560815Y-100456221D01*
X152537996Y-100471469D01*
X152512640Y-100481972D01*
X152485722Y-100487326D01*
X152472000Y-100488000D01*
X150952000Y-100488000D01*
X150938278Y-100487326D01*
X150911360Y-100481972D01*
X150886004Y-100471469D01*
X150863185Y-100456221D01*
X150843779Y-100436815D01*
X150828531Y-100413996D01*
X150818028Y-100388640D01*
X150812674Y-100361722D01*
X150812674Y-100334278D01*
X150818028Y-100307360D01*
X150828531Y-100282004D01*
X150843779Y-100259185D01*
X150863185Y-100239779D01*
X150886004Y-100224531D01*
X150911360Y-100214028D01*
X150938278Y-100208674D01*
X150952000Y-100208000D01*
X152472000Y-100208000D01*
X152485722Y-100208674D01*
G37*
G36*
X152485722Y-100708674D02*
G01*
X152512640Y-100714028D01*
X152537996Y-100724531D01*
X152560815Y-100739779D01*
X152580221Y-100759185D01*
X152595469Y-100782004D01*
X152605972Y-100807360D01*
X152611326Y-100834278D01*
X152611326Y-100861722D01*
X152605972Y-100888640D01*
X152595469Y-100913996D01*
X152580221Y-100936815D01*
X152560815Y-100956221D01*
X152537996Y-100971469D01*
X152512640Y-100981972D01*
X152485722Y-100987326D01*
X152472000Y-100988000D01*
X150952000Y-100988000D01*
X150938278Y-100987326D01*
X150911360Y-100981972D01*
X150886004Y-100971469D01*
X150863185Y-100956221D01*
X150843779Y-100936815D01*
X150828531Y-100913996D01*
X150818028Y-100888640D01*
X150812674Y-100861722D01*
X150812674Y-100834278D01*
X150818028Y-100807360D01*
X150828531Y-100782004D01*
X150843779Y-100759185D01*
X150863185Y-100739779D01*
X150886004Y-100724531D01*
X150911360Y-100714028D01*
X150938278Y-100708674D01*
X150952000Y-100708000D01*
X152472000Y-100708000D01*
X152485722Y-100708674D01*
G37*
G36*
X152485722Y-101208674D02*
G01*
X152512640Y-101214028D01*
X152537996Y-101224531D01*
X152560815Y-101239779D01*
X152580221Y-101259185D01*
X152595469Y-101282004D01*
X152605972Y-101307360D01*
X152611326Y-101334278D01*
X152611326Y-101361722D01*
X152605972Y-101388640D01*
X152595469Y-101413996D01*
X152580221Y-101436815D01*
X152560815Y-101456221D01*
X152537996Y-101471469D01*
X152512640Y-101481972D01*
X152485722Y-101487326D01*
X152472000Y-101488000D01*
X150952000Y-101488000D01*
X150938278Y-101487326D01*
X150911360Y-101481972D01*
X150886004Y-101471469D01*
X150863185Y-101456221D01*
X150843779Y-101436815D01*
X150828531Y-101413996D01*
X150818028Y-101388640D01*
X150812674Y-101361722D01*
X150812674Y-101334278D01*
X150818028Y-101307360D01*
X150828531Y-101282004D01*
X150843779Y-101259185D01*
X150863185Y-101239779D01*
X150886004Y-101224531D01*
X150911360Y-101214028D01*
X150938278Y-101208674D01*
X150952000Y-101208000D01*
X152472000Y-101208000D01*
X152485722Y-101208674D01*
G37*
G36*
X152485722Y-101708674D02*
G01*
X152512640Y-101714028D01*
X152537996Y-101724531D01*
X152560815Y-101739779D01*
X152580221Y-101759185D01*
X152595469Y-101782004D01*
X152605972Y-101807360D01*
X152611326Y-101834278D01*
X152611326Y-101861722D01*
X152605972Y-101888640D01*
X152595469Y-101913996D01*
X152580221Y-101936815D01*
X152560815Y-101956221D01*
X152537996Y-101971469D01*
X152512640Y-101981972D01*
X152485722Y-101987326D01*
X152472000Y-101988000D01*
X150952000Y-101988000D01*
X150938278Y-101987326D01*
X150911360Y-101981972D01*
X150886004Y-101971469D01*
X150863185Y-101956221D01*
X150843779Y-101936815D01*
X150828531Y-101913996D01*
X150818028Y-101888640D01*
X150812674Y-101861722D01*
X150812674Y-101834278D01*
X150818028Y-101807360D01*
X150828531Y-101782004D01*
X150843779Y-101759185D01*
X150863185Y-101739779D01*
X150886004Y-101724531D01*
X150911360Y-101714028D01*
X150938278Y-101708674D01*
X150952000Y-101708000D01*
X152472000Y-101708000D01*
X152485722Y-101708674D01*
G37*
G36*
X152485722Y-102208674D02*
G01*
X152512640Y-102214028D01*
X152537996Y-102224531D01*
X152560815Y-102239779D01*
X152580221Y-102259185D01*
X152595469Y-102282004D01*
X152605972Y-102307360D01*
X152611326Y-102334278D01*
X152611326Y-102361722D01*
X152605972Y-102388640D01*
X152595469Y-102413996D01*
X152580221Y-102436815D01*
X152560815Y-102456221D01*
X152537996Y-102471469D01*
X152512640Y-102481972D01*
X152485722Y-102487326D01*
X152472000Y-102488000D01*
X150952000Y-102488000D01*
X150938278Y-102487326D01*
X150911360Y-102481972D01*
X150886004Y-102471469D01*
X150863185Y-102456221D01*
X150843779Y-102436815D01*
X150828531Y-102413996D01*
X150818028Y-102388640D01*
X150812674Y-102361722D01*
X150812674Y-102334278D01*
X150818028Y-102307360D01*
X150828531Y-102282004D01*
X150843779Y-102259185D01*
X150863185Y-102239779D01*
X150886004Y-102224531D01*
X150911360Y-102214028D01*
X150938278Y-102208674D01*
X150952000Y-102208000D01*
X152472000Y-102208000D01*
X152485722Y-102208674D01*
G37*
G36*
X152485722Y-102708674D02*
G01*
X152512640Y-102714028D01*
X152537996Y-102724531D01*
X152560815Y-102739779D01*
X152580221Y-102759185D01*
X152595469Y-102782004D01*
X152605972Y-102807360D01*
X152611326Y-102834278D01*
X152611326Y-102861722D01*
X152605972Y-102888640D01*
X152595469Y-102913996D01*
X152580221Y-102936815D01*
X152560815Y-102956221D01*
X152537996Y-102971469D01*
X152512640Y-102981972D01*
X152485722Y-102987326D01*
X152472000Y-102988000D01*
X150952000Y-102988000D01*
X150938278Y-102987326D01*
X150911360Y-102981972D01*
X150886004Y-102971469D01*
X150863185Y-102956221D01*
X150843779Y-102936815D01*
X150828531Y-102913996D01*
X150818028Y-102888640D01*
X150812674Y-102861722D01*
X150812674Y-102834278D01*
X150818028Y-102807360D01*
X150828531Y-102782004D01*
X150843779Y-102759185D01*
X150863185Y-102739779D01*
X150886004Y-102724531D01*
X150911360Y-102714028D01*
X150938278Y-102708674D01*
X150952000Y-102708000D01*
X152472000Y-102708000D01*
X152485722Y-102708674D01*
G37*
G36*
X152485722Y-103208674D02*
G01*
X152512640Y-103214028D01*
X152537996Y-103224531D01*
X152560815Y-103239779D01*
X152580221Y-103259185D01*
X152595469Y-103282004D01*
X152605972Y-103307360D01*
X152611326Y-103334278D01*
X152611326Y-103361722D01*
X152605972Y-103388640D01*
X152595469Y-103413996D01*
X152580221Y-103436815D01*
X152560815Y-103456221D01*
X152537996Y-103471469D01*
X152512640Y-103481972D01*
X152485722Y-103487326D01*
X152472000Y-103488000D01*
X150952000Y-103488000D01*
X150938278Y-103487326D01*
X150911360Y-103481972D01*
X150886004Y-103471469D01*
X150863185Y-103456221D01*
X150843779Y-103436815D01*
X150828531Y-103413996D01*
X150818028Y-103388640D01*
X150812674Y-103361722D01*
X150812674Y-103334278D01*
X150818028Y-103307360D01*
X150828531Y-103282004D01*
X150843779Y-103259185D01*
X150863185Y-103239779D01*
X150886004Y-103224531D01*
X150911360Y-103214028D01*
X150938278Y-103208674D01*
X150952000Y-103208000D01*
X152472000Y-103208000D01*
X152485722Y-103208674D01*
G37*
G36*
X152485722Y-103708674D02*
G01*
X152512640Y-103714028D01*
X152537996Y-103724531D01*
X152560815Y-103739779D01*
X152580221Y-103759185D01*
X152595469Y-103782004D01*
X152605972Y-103807360D01*
X152611326Y-103834278D01*
X152611326Y-103861722D01*
X152605972Y-103888640D01*
X152595469Y-103913996D01*
X152580221Y-103936815D01*
X152560815Y-103956221D01*
X152537996Y-103971469D01*
X152512640Y-103981972D01*
X152485722Y-103987326D01*
X152472000Y-103988000D01*
X150952000Y-103988000D01*
X150938278Y-103987326D01*
X150911360Y-103981972D01*
X150886004Y-103971469D01*
X150863185Y-103956221D01*
X150843779Y-103936815D01*
X150828531Y-103913996D01*
X150818028Y-103888640D01*
X150812674Y-103861722D01*
X150812674Y-103834278D01*
X150818028Y-103807360D01*
X150828531Y-103782004D01*
X150843779Y-103759185D01*
X150863185Y-103739779D01*
X150886004Y-103724531D01*
X150911360Y-103714028D01*
X150938278Y-103708674D01*
X150952000Y-103708000D01*
X152472000Y-103708000D01*
X152485722Y-103708674D01*
G37*
G36*
X152485722Y-104208674D02*
G01*
X152512640Y-104214028D01*
X152537996Y-104224531D01*
X152560815Y-104239779D01*
X152580221Y-104259185D01*
X152595469Y-104282004D01*
X152605972Y-104307360D01*
X152611326Y-104334278D01*
X152611326Y-104361722D01*
X152605972Y-104388640D01*
X152595469Y-104413996D01*
X152580221Y-104436815D01*
X152560815Y-104456221D01*
X152537996Y-104471469D01*
X152512640Y-104481972D01*
X152485722Y-104487326D01*
X152472000Y-104488000D01*
X150952000Y-104488000D01*
X150938278Y-104487326D01*
X150911360Y-104481972D01*
X150886004Y-104471469D01*
X150863185Y-104456221D01*
X150843779Y-104436815D01*
X150828531Y-104413996D01*
X150818028Y-104388640D01*
X150812674Y-104361722D01*
X150812674Y-104334278D01*
X150818028Y-104307360D01*
X150828531Y-104282004D01*
X150843779Y-104259185D01*
X150863185Y-104239779D01*
X150886004Y-104224531D01*
X150911360Y-104214028D01*
X150938278Y-104208674D01*
X150952000Y-104208000D01*
X152472000Y-104208000D01*
X152485722Y-104208674D01*
G37*
G36*
X152485722Y-104708674D02*
G01*
X152512640Y-104714028D01*
X152537996Y-104724531D01*
X152560815Y-104739779D01*
X152580221Y-104759185D01*
X152595469Y-104782004D01*
X152605972Y-104807360D01*
X152611326Y-104834278D01*
X152611326Y-104861722D01*
X152605972Y-104888640D01*
X152595469Y-104913996D01*
X152580221Y-104936815D01*
X152560815Y-104956221D01*
X152537996Y-104971469D01*
X152512640Y-104981972D01*
X152485722Y-104987326D01*
X152472000Y-104988000D01*
X150952000Y-104988000D01*
X150938278Y-104987326D01*
X150911360Y-104981972D01*
X150886004Y-104971469D01*
X150863185Y-104956221D01*
X150843779Y-104936815D01*
X150828531Y-104913996D01*
X150818028Y-104888640D01*
X150812674Y-104861722D01*
X150812674Y-104834278D01*
X150818028Y-104807360D01*
X150828531Y-104782004D01*
X150843779Y-104759185D01*
X150863185Y-104739779D01*
X150886004Y-104724531D01*
X150911360Y-104714028D01*
X150938278Y-104708674D01*
X150952000Y-104708000D01*
X152472000Y-104708000D01*
X152485722Y-104708674D01*
G37*
G36*
X152485722Y-105208674D02*
G01*
X152512640Y-105214028D01*
X152537996Y-105224531D01*
X152560815Y-105239779D01*
X152580221Y-105259185D01*
X152595469Y-105282004D01*
X152605972Y-105307360D01*
X152611326Y-105334278D01*
X152611326Y-105361722D01*
X152605972Y-105388640D01*
X152595469Y-105413996D01*
X152580221Y-105436815D01*
X152560815Y-105456221D01*
X152537996Y-105471469D01*
X152512640Y-105481972D01*
X152485722Y-105487326D01*
X152472000Y-105488000D01*
X150952000Y-105488000D01*
X150938278Y-105487326D01*
X150911360Y-105481972D01*
X150886004Y-105471469D01*
X150863185Y-105456221D01*
X150843779Y-105436815D01*
X150828531Y-105413996D01*
X150818028Y-105388640D01*
X150812674Y-105361722D01*
X150812674Y-105334278D01*
X150818028Y-105307360D01*
X150828531Y-105282004D01*
X150843779Y-105259185D01*
X150863185Y-105239779D01*
X150886004Y-105224531D01*
X150911360Y-105214028D01*
X150938278Y-105208674D01*
X150952000Y-105208000D01*
X152472000Y-105208000D01*
X152485722Y-105208674D01*
G37*
G36*
X152485722Y-105708674D02*
G01*
X152512640Y-105714028D01*
X152537996Y-105724531D01*
X152560815Y-105739779D01*
X152580221Y-105759185D01*
X152595469Y-105782004D01*
X152605972Y-105807360D01*
X152611326Y-105834278D01*
X152611326Y-105861722D01*
X152605972Y-105888640D01*
X152595469Y-105913996D01*
X152580221Y-105936815D01*
X152560815Y-105956221D01*
X152537996Y-105971469D01*
X152512640Y-105981972D01*
X152485722Y-105987326D01*
X152472000Y-105988000D01*
X150952000Y-105988000D01*
X150938278Y-105987326D01*
X150911360Y-105981972D01*
X150886004Y-105971469D01*
X150863185Y-105956221D01*
X150843779Y-105936815D01*
X150828531Y-105913996D01*
X150818028Y-105888640D01*
X150812674Y-105861722D01*
X150812674Y-105834278D01*
X150818028Y-105807360D01*
X150828531Y-105782004D01*
X150843779Y-105759185D01*
X150863185Y-105739779D01*
X150886004Y-105724531D01*
X150911360Y-105714028D01*
X150938278Y-105708674D01*
X150952000Y-105708000D01*
X152472000Y-105708000D01*
X152485722Y-105708674D01*
G37*
%TO.C,R_SCLK*%
G36*
X170248500Y-84186000D02*
G01*
X170253500Y-84596000D01*
X169803500Y-84596000D01*
X169803500Y-85046000D01*
X170243500Y-85046000D01*
X170248500Y-85466000D01*
X170200000Y-85514500D01*
X169132250Y-85514500D01*
X169132250Y-84137500D01*
X170200000Y-84137500D01*
X170248500Y-84186000D01*
G37*
G36*
X172264750Y-85514500D02*
G01*
X171197000Y-85514500D01*
X171148500Y-85466000D01*
X171148500Y-85046000D01*
X171593500Y-85046000D01*
X171593500Y-84596000D01*
X171153500Y-84596000D01*
X171148500Y-84186000D01*
X171197000Y-84137500D01*
X172264750Y-84137500D01*
X172264750Y-85514500D01*
G37*
%TO.C,R_IO15_DN*%
G36*
X175021750Y-92675750D02*
G01*
X175021750Y-92923000D01*
X174657000Y-92923000D01*
X174657000Y-93253000D01*
X175021750Y-93253000D01*
X175021750Y-93486250D01*
X174995000Y-93513000D01*
X174215250Y-93513000D01*
X174215250Y-92649000D01*
X174995000Y-92649000D01*
X175021750Y-92675750D01*
G37*
G36*
X176528750Y-93513000D02*
G01*
X175749000Y-93513000D01*
X175722250Y-93486250D01*
X175722250Y-93239000D01*
X176087000Y-93239000D01*
X176087000Y-92909000D01*
X175722250Y-92909000D01*
X175722250Y-92675750D01*
X175749000Y-92649000D01*
X176528750Y-92649000D01*
X176528750Y-93513000D01*
G37*
%TO.C,C_DIF6*%
G36*
X130975000Y-97470000D02*
G01*
X130980000Y-97880000D01*
X130530000Y-97880000D01*
X130530000Y-98330000D01*
X130970000Y-98330000D01*
X130975000Y-98750000D01*
X130940000Y-98785000D01*
X129760000Y-98785000D01*
X129725000Y-98750000D01*
X129725000Y-97470000D01*
X129760000Y-97435000D01*
X130940000Y-97435000D01*
X130975000Y-97470000D01*
G37*
G36*
X133135000Y-97470000D02*
G01*
X133135000Y-98750000D01*
X133100000Y-98785000D01*
X131920000Y-98785000D01*
X131885000Y-98750000D01*
X131880000Y-98340000D01*
X132330000Y-98340000D01*
X132330000Y-97890000D01*
X131890000Y-97890000D01*
X131885000Y-97470000D01*
X131920000Y-97435000D01*
X133100000Y-97435000D01*
X133135000Y-97470000D01*
G37*
%TO.C,R_IN5N*%
G36*
X128485750Y-99896750D02*
G01*
X128485750Y-100387250D01*
X128461000Y-100412000D01*
X127960500Y-100412000D01*
X127920500Y-100372000D01*
X127920500Y-99912000D01*
X127960500Y-99872000D01*
X128461000Y-99872000D01*
X128485750Y-99896750D01*
G37*
G36*
X129351500Y-99912000D02*
G01*
X129351500Y-100372000D01*
X129311500Y-100412000D01*
X128811000Y-100412000D01*
X128786250Y-100387250D01*
X128786250Y-99896750D01*
X128811000Y-99872000D01*
X129311500Y-99872000D01*
X129351500Y-99912000D01*
G37*
%TO.C,R_Q_IO0_B*%
G36*
X169200000Y-109087000D02*
G01*
X169173250Y-109113750D01*
X168926000Y-109113750D01*
X168926000Y-108749000D01*
X168596000Y-108749000D01*
X168596000Y-109113750D01*
X168362750Y-109113750D01*
X168336000Y-109087000D01*
X168336000Y-108307250D01*
X169200000Y-108307250D01*
X169200000Y-109087000D01*
G37*
G36*
X168610000Y-110179000D02*
G01*
X168940000Y-110179000D01*
X168940000Y-109814250D01*
X169173250Y-109814250D01*
X169200000Y-109841000D01*
X169200000Y-110620750D01*
X168336000Y-110620750D01*
X168336000Y-109841000D01*
X168362750Y-109814250D01*
X168610000Y-109814250D01*
X168610000Y-110179000D01*
G37*
%TO.C,R_START_DN*%
G36*
X171740000Y-109087000D02*
G01*
X171713250Y-109113750D01*
X171466000Y-109113750D01*
X171466000Y-108749000D01*
X171136000Y-108749000D01*
X171136000Y-109113750D01*
X170902750Y-109113750D01*
X170876000Y-109087000D01*
X170876000Y-108307250D01*
X171740000Y-108307250D01*
X171740000Y-109087000D01*
G37*
G36*
X171150000Y-110179000D02*
G01*
X171480000Y-110179000D01*
X171480000Y-109814250D01*
X171713250Y-109814250D01*
X171740000Y-109841000D01*
X171740000Y-110620750D01*
X170876000Y-110620750D01*
X170876000Y-109841000D01*
X170902750Y-109814250D01*
X171150000Y-109814250D01*
X171150000Y-110179000D01*
G37*
%TO.C,FB2*%
G36*
X139666250Y-118339180D02*
G01*
X139666250Y-118876371D01*
X139321000Y-119296500D01*
X138633500Y-119296500D01*
X138533750Y-119196750D01*
X138533750Y-118019250D01*
X138633500Y-117919500D01*
X139321000Y-117919500D01*
X139666250Y-118339180D01*
G37*
G36*
X141598250Y-118019250D02*
G01*
X141598250Y-119196750D01*
X141498500Y-119296500D01*
X140811000Y-119296500D01*
X140465750Y-118876371D01*
X140465750Y-118339180D01*
X140811000Y-117919500D01*
X141498500Y-117919500D01*
X141598250Y-118019250D01*
G37*
%TO.C,R_IN8P*%
G36*
X128485750Y-92403750D02*
G01*
X128485750Y-92894250D01*
X128461000Y-92919000D01*
X127960500Y-92919000D01*
X127920500Y-92879000D01*
X127920500Y-92419000D01*
X127960500Y-92379000D01*
X128461000Y-92379000D01*
X128485750Y-92403750D01*
G37*
G36*
X129351500Y-92419000D02*
G01*
X129351500Y-92879000D01*
X129311500Y-92919000D01*
X128811000Y-92919000D01*
X128786250Y-92894250D01*
X128786250Y-92403750D01*
X128811000Y-92379000D01*
X129311500Y-92379000D01*
X129351500Y-92419000D01*
G37*
%TO.C,FB3*%
G36*
X167678500Y-119715500D02*
G01*
X167678500Y-120403000D01*
X167258371Y-120748250D01*
X166721181Y-120748250D01*
X166301500Y-120403000D01*
X166301500Y-119715500D01*
X166401250Y-119615750D01*
X167578750Y-119615750D01*
X167678500Y-119715500D01*
G37*
G36*
X167678500Y-121893000D02*
G01*
X167678500Y-122580500D01*
X167578750Y-122680250D01*
X166401250Y-122680250D01*
X166301500Y-122580500D01*
X166301500Y-121893000D01*
X166721181Y-121547750D01*
X167258371Y-121547750D01*
X167678500Y-121893000D01*
G37*
%TO.C,R_Q_EN_B*%
G36*
X164374000Y-109087000D02*
G01*
X164347250Y-109113750D01*
X164100000Y-109113750D01*
X164100000Y-108749000D01*
X163770000Y-108749000D01*
X163770000Y-109113750D01*
X163536750Y-109113750D01*
X163510000Y-109087000D01*
X163510000Y-108307250D01*
X164374000Y-108307250D01*
X164374000Y-109087000D01*
G37*
G36*
X163784000Y-110179000D02*
G01*
X164114000Y-110179000D01*
X164114000Y-109814250D01*
X164347250Y-109814250D01*
X164374000Y-109841000D01*
X164374000Y-110620750D01*
X163510000Y-110620750D01*
X163510000Y-109841000D01*
X163536750Y-109814250D01*
X163784000Y-109814250D01*
X163784000Y-110179000D01*
G37*
%TO.C,R_IN8N*%
G36*
X128485750Y-90905250D02*
G01*
X128485750Y-91395750D01*
X128461000Y-91420500D01*
X127960500Y-91420500D01*
X127920500Y-91380500D01*
X127920500Y-90920500D01*
X127960500Y-90880500D01*
X128461000Y-90880500D01*
X128485750Y-90905250D01*
G37*
G36*
X129351500Y-90920500D02*
G01*
X129351500Y-91380500D01*
X129311500Y-91420500D01*
X128811000Y-91420500D01*
X128786250Y-91395750D01*
X128786250Y-90905250D01*
X128811000Y-90880500D01*
X129311500Y-90880500D01*
X129351500Y-90920500D01*
G37*
%TO.C,C_DIF1*%
G36*
X130975000Y-112456000D02*
G01*
X130980000Y-112866000D01*
X130530000Y-112866000D01*
X130530000Y-113316000D01*
X130970000Y-113316000D01*
X130975000Y-113736000D01*
X130940000Y-113771000D01*
X129760000Y-113771000D01*
X129725000Y-113736000D01*
X129725000Y-112456000D01*
X129760000Y-112421000D01*
X130940000Y-112421000D01*
X130975000Y-112456000D01*
G37*
G36*
X133135000Y-112456000D02*
G01*
X133135000Y-113736000D01*
X133100000Y-113771000D01*
X131920000Y-113771000D01*
X131885000Y-113736000D01*
X131880000Y-113326000D01*
X132330000Y-113326000D01*
X132330000Y-112876000D01*
X131890000Y-112876000D01*
X131885000Y-112456000D01*
X131920000Y-112421000D01*
X133100000Y-112421000D01*
X133135000Y-112456000D01*
G37*
%TO.C,C_DIF3*%
G36*
X130975000Y-106462000D02*
G01*
X130980000Y-106872000D01*
X130530000Y-106872000D01*
X130530000Y-107322000D01*
X130970000Y-107322000D01*
X130975000Y-107742000D01*
X130940000Y-107777000D01*
X129760000Y-107777000D01*
X129725000Y-107742000D01*
X129725000Y-106462000D01*
X129760000Y-106427000D01*
X130940000Y-106427000D01*
X130975000Y-106462000D01*
G37*
G36*
X133135000Y-106462000D02*
G01*
X133135000Y-107742000D01*
X133100000Y-107777000D01*
X131920000Y-107777000D01*
X131885000Y-107742000D01*
X131880000Y-107332000D01*
X132330000Y-107332000D01*
X132330000Y-106882000D01*
X131890000Y-106882000D01*
X131885000Y-106462000D01*
X131920000Y-106427000D01*
X133100000Y-106427000D01*
X133135000Y-106462000D01*
G37*
%TO.C,R_LED*%
G36*
X177561750Y-89246750D02*
G01*
X177561750Y-89494000D01*
X177197000Y-89494000D01*
X177197000Y-89824000D01*
X177561750Y-89824000D01*
X177561750Y-90057250D01*
X177535000Y-90084000D01*
X176755250Y-90084000D01*
X176755250Y-89220000D01*
X177535000Y-89220000D01*
X177561750Y-89246750D01*
G37*
G36*
X179068750Y-90084000D02*
G01*
X178289000Y-90084000D01*
X178262250Y-90057250D01*
X178262250Y-89810000D01*
X178627000Y-89810000D01*
X178627000Y-89480000D01*
X178262250Y-89480000D01*
X178262250Y-89246750D01*
X178289000Y-89220000D01*
X179068750Y-89220000D01*
X179068750Y-90084000D01*
G37*
%TO.C,R_IN4N*%
G36*
X128485750Y-102894250D02*
G01*
X128485750Y-103384750D01*
X128461000Y-103409500D01*
X127960500Y-103409500D01*
X127920500Y-103369500D01*
X127920500Y-102909500D01*
X127960500Y-102869500D01*
X128461000Y-102869500D01*
X128485750Y-102894250D01*
G37*
G36*
X129351500Y-102909500D02*
G01*
X129351500Y-103369500D01*
X129311500Y-103409500D01*
X128811000Y-103409500D01*
X128786250Y-103384750D01*
X128786250Y-102894250D01*
X128811000Y-102869500D01*
X129311500Y-102869500D01*
X129351500Y-102909500D01*
G37*
%TO.C,R_IN1N*%
G36*
X128485750Y-111885750D02*
G01*
X128485750Y-112376250D01*
X128461000Y-112401000D01*
X127960500Y-112401000D01*
X127920500Y-112361000D01*
X127920500Y-111901000D01*
X127960500Y-111861000D01*
X128461000Y-111861000D01*
X128485750Y-111885750D01*
G37*
G36*
X129351500Y-111901000D02*
G01*
X129351500Y-112361000D01*
X129311500Y-112401000D01*
X128811000Y-112401000D01*
X128786250Y-112376250D01*
X128786250Y-111885750D01*
X128811000Y-111861000D01*
X129311500Y-111861000D01*
X129351500Y-111901000D01*
G37*
%TO.C,R_IN6N*%
G36*
X128485750Y-96899750D02*
G01*
X128485750Y-97390250D01*
X128461000Y-97415000D01*
X127960500Y-97415000D01*
X127920500Y-97375000D01*
X127920500Y-96915000D01*
X127960500Y-96875000D01*
X128461000Y-96875000D01*
X128485750Y-96899750D01*
G37*
G36*
X129351500Y-96915000D02*
G01*
X129351500Y-97375000D01*
X129311500Y-97415000D01*
X128811000Y-97415000D01*
X128786250Y-97390250D01*
X128786250Y-96899750D01*
X128811000Y-96875000D01*
X129311500Y-96875000D01*
X129351500Y-96915000D01*
G37*
%TO.C,R_IN1P*%
G36*
X128485750Y-113384250D02*
G01*
X128485750Y-113874750D01*
X128461000Y-113899500D01*
X127960500Y-113899500D01*
X127920500Y-113859500D01*
X127920500Y-113399500D01*
X127960500Y-113359500D01*
X128461000Y-113359500D01*
X128485750Y-113384250D01*
G37*
G36*
X129351500Y-113399500D02*
G01*
X129351500Y-113859500D01*
X129311500Y-113899500D01*
X128811000Y-113899500D01*
X128786250Y-113874750D01*
X128786250Y-113384250D01*
X128811000Y-113359500D01*
X129311500Y-113359500D01*
X129351500Y-113399500D01*
G37*
%TO.C,R_BIAS_FB*%
G36*
X146220000Y-89774000D02*
G01*
X146225000Y-90184000D01*
X145775000Y-90184000D01*
X145775000Y-90634000D01*
X146215000Y-90634000D01*
X146220000Y-91054000D01*
X146171500Y-91102500D01*
X145103750Y-91102500D01*
X145103750Y-89725500D01*
X146171500Y-89725500D01*
X146220000Y-89774000D01*
G37*
G36*
X148236250Y-91102500D02*
G01*
X147168500Y-91102500D01*
X147120000Y-91054000D01*
X147120000Y-90634000D01*
X147565000Y-90634000D01*
X147565000Y-90184000D01*
X147125000Y-90184000D01*
X147120000Y-89774000D01*
X147168500Y-89725500D01*
X148236250Y-89725500D01*
X148236250Y-91102500D01*
G37*
%TO.C,R_IN3P*%
G36*
X128485750Y-107389750D02*
G01*
X128485750Y-107880250D01*
X128461000Y-107905000D01*
X127960500Y-107905000D01*
X127920500Y-107865000D01*
X127920500Y-107405000D01*
X127960500Y-107365000D01*
X128461000Y-107365000D01*
X128485750Y-107389750D01*
G37*
G36*
X129351500Y-107405000D02*
G01*
X129351500Y-107865000D01*
X129311500Y-107905000D01*
X128811000Y-107905000D01*
X128786250Y-107880250D01*
X128786250Y-107389750D01*
X128811000Y-107365000D01*
X129311500Y-107365000D01*
X129351500Y-107405000D01*
G37*
%TO.C,J1*%
G36*
X176341000Y-109388000D02*
G01*
X175241000Y-109388000D01*
X175241000Y-109088000D01*
X176341000Y-109088000D01*
X176341000Y-109388000D01*
G37*
G36*
X176291000Y-108063000D02*
G01*
X175291000Y-108063000D01*
X175291000Y-107513000D01*
X176291000Y-107513000D01*
X176291000Y-108063000D01*
G37*
G36*
X176291000Y-114463000D02*
G01*
X175291000Y-114463000D01*
X175291000Y-113913000D01*
X176291000Y-113913000D01*
X176291000Y-114463000D01*
G37*
G36*
X176341000Y-108863000D02*
G01*
X175241000Y-108863000D01*
X175241000Y-108313000D01*
X176341000Y-108313000D01*
X176341000Y-108863000D01*
G37*
G36*
X176341000Y-109888000D02*
G01*
X175241000Y-109888000D01*
X175241000Y-109588000D01*
X176341000Y-109588000D01*
X176341000Y-109888000D01*
G37*
G36*
X176341000Y-110388000D02*
G01*
X175241000Y-110388000D01*
X175241000Y-110088000D01*
X176341000Y-110088000D01*
X176341000Y-110388000D01*
G37*
G36*
X176341000Y-110888000D02*
G01*
X175241000Y-110888000D01*
X175241000Y-110588000D01*
X176341000Y-110588000D01*
X176341000Y-110888000D01*
G37*
G36*
X176341000Y-111388000D02*
G01*
X175241000Y-111388000D01*
X175241000Y-111088000D01*
X176341000Y-111088000D01*
X176341000Y-111388000D01*
G37*
G36*
X176341000Y-111888000D02*
G01*
X175241000Y-111888000D01*
X175241000Y-111588000D01*
X176341000Y-111588000D01*
X176341000Y-111888000D01*
G37*
G36*
X176341000Y-112388000D02*
G01*
X175241000Y-112388000D01*
X175241000Y-112088000D01*
X176341000Y-112088000D01*
X176341000Y-112388000D01*
G37*
G36*
X176341000Y-112888000D02*
G01*
X175241000Y-112888000D01*
X175241000Y-112588000D01*
X176341000Y-112588000D01*
X176341000Y-112888000D01*
G37*
G36*
X176341000Y-113663000D02*
G01*
X175241000Y-113663000D01*
X175241000Y-113113000D01*
X176341000Y-113113000D01*
X176341000Y-113663000D01*
G37*
G36*
X176821839Y-106113865D02*
G01*
X176883128Y-106120771D01*
X176943260Y-106134495D01*
X177001476Y-106154866D01*
X177057045Y-106181627D01*
X177109269Y-106214442D01*
X177157491Y-106252897D01*
X177201103Y-106296509D01*
X177239558Y-106344731D01*
X177272373Y-106396955D01*
X177299134Y-106452524D01*
X177319505Y-106510740D01*
X177333229Y-106570872D01*
X177339367Y-106625349D01*
X177340135Y-106640700D01*
X177340135Y-106685300D01*
X177339367Y-106700650D01*
X177333229Y-106755128D01*
X177319505Y-106815260D01*
X177299134Y-106873476D01*
X177272373Y-106929045D01*
X177239558Y-106981269D01*
X177201103Y-107029491D01*
X177157491Y-107073103D01*
X177109269Y-107111558D01*
X177057045Y-107144373D01*
X177001476Y-107171134D01*
X176943260Y-107191505D01*
X176883128Y-107205229D01*
X176821839Y-107212135D01*
X176791000Y-107213000D01*
X175891000Y-107213000D01*
X175860161Y-107212135D01*
X175798872Y-107205229D01*
X175738740Y-107191505D01*
X175680524Y-107171134D01*
X175624955Y-107144373D01*
X175572731Y-107111558D01*
X175524509Y-107073103D01*
X175480897Y-107029491D01*
X175442442Y-106981269D01*
X175409627Y-106929045D01*
X175382866Y-106873476D01*
X175362495Y-106815260D01*
X175348771Y-106755128D01*
X175341865Y-106693839D01*
X175341865Y-106632161D01*
X175348771Y-106570872D01*
X175362495Y-106510740D01*
X175382866Y-106452524D01*
X175409627Y-106396955D01*
X175442442Y-106344731D01*
X175480897Y-106296509D01*
X175524509Y-106252897D01*
X175572731Y-106214442D01*
X175624955Y-106181627D01*
X175680524Y-106154866D01*
X175738740Y-106134495D01*
X175798872Y-106120771D01*
X175860161Y-106113865D01*
X175891000Y-106113000D01*
X176791000Y-106113000D01*
X176821839Y-106113865D01*
G37*
G36*
X176821839Y-114763865D02*
G01*
X176883128Y-114770771D01*
X176943260Y-114784495D01*
X177001476Y-114804866D01*
X177057045Y-114831627D01*
X177109269Y-114864442D01*
X177157491Y-114902897D01*
X177201103Y-114946509D01*
X177239558Y-114994731D01*
X177272373Y-115046955D01*
X177299134Y-115102524D01*
X177319505Y-115160740D01*
X177333229Y-115220872D01*
X177339367Y-115275349D01*
X177340135Y-115290700D01*
X177340135Y-115335300D01*
X177339367Y-115350650D01*
X177333229Y-115405128D01*
X177319505Y-115465260D01*
X177299134Y-115523476D01*
X177272373Y-115579045D01*
X177239558Y-115631269D01*
X177201103Y-115679491D01*
X177157491Y-115723103D01*
X177109269Y-115761558D01*
X177057045Y-115794373D01*
X177001476Y-115821134D01*
X176943260Y-115841505D01*
X176883128Y-115855229D01*
X176821839Y-115862135D01*
X176791000Y-115863000D01*
X175891000Y-115863000D01*
X175860161Y-115862135D01*
X175798872Y-115855229D01*
X175738740Y-115841505D01*
X175680524Y-115821134D01*
X175624955Y-115794373D01*
X175572731Y-115761558D01*
X175524509Y-115723103D01*
X175480897Y-115679491D01*
X175442442Y-115631269D01*
X175409627Y-115579045D01*
X175382866Y-115523476D01*
X175362495Y-115465260D01*
X175348771Y-115405128D01*
X175341865Y-115343839D01*
X175341865Y-115282161D01*
X175348771Y-115220872D01*
X175362495Y-115160740D01*
X175382866Y-115102524D01*
X175409627Y-115046955D01*
X175442442Y-114994731D01*
X175480897Y-114946509D01*
X175524509Y-114902897D01*
X175572731Y-114864442D01*
X175624955Y-114831627D01*
X175680524Y-114804866D01*
X175738740Y-114784495D01*
X175798872Y-114770771D01*
X175860161Y-114763865D01*
X175891000Y-114763000D01*
X176791000Y-114763000D01*
X176821839Y-114763865D01*
G37*
G36*
X180721000Y-106064000D02*
G01*
X180751000Y-106066000D01*
X180780500Y-106069500D01*
X180810000Y-106075000D01*
X180839000Y-106081500D01*
X180868000Y-106089500D01*
X180896000Y-106099000D01*
X180924000Y-106110000D01*
X180951500Y-106122500D01*
X180978000Y-106136000D01*
X181004000Y-106151000D01*
X181029000Y-106167500D01*
X181053500Y-106184500D01*
X181076500Y-106203500D01*
X181099000Y-106223000D01*
X181120500Y-106244000D01*
X181141000Y-106266000D01*
X181160000Y-106289000D01*
X181178000Y-106313000D01*
X181195000Y-106337500D01*
X181210500Y-106363000D01*
X181225000Y-106389500D01*
X181238000Y-106416500D01*
X181249500Y-106444000D01*
X181260000Y-106472000D01*
X181268500Y-106500500D01*
X181276000Y-106529500D01*
X181282000Y-106559000D01*
X181286500Y-106588500D01*
X181289500Y-106618000D01*
X181291000Y-106648000D01*
X181291000Y-106678000D01*
X181289500Y-106708000D01*
X181286500Y-106737500D01*
X181282000Y-106767000D01*
X181276000Y-106796500D01*
X181268500Y-106825500D01*
X181260000Y-106854000D01*
X181249500Y-106882000D01*
X181238000Y-106910000D01*
X181225000Y-106937000D01*
X181210500Y-106963000D01*
X181195000Y-106988500D01*
X181178000Y-107013500D01*
X181160000Y-107037000D01*
X181141000Y-107060000D01*
X181120500Y-107082000D01*
X181099000Y-107103000D01*
X181076500Y-107122500D01*
X181053500Y-107141500D01*
X181029000Y-107158500D01*
X181004000Y-107175000D01*
X180978000Y-107190000D01*
X180951500Y-107203500D01*
X180924000Y-107216000D01*
X180896000Y-107227000D01*
X180868000Y-107236500D01*
X180839000Y-107244500D01*
X180810000Y-107251000D01*
X180780500Y-107256500D01*
X180751000Y-107260000D01*
X180721000Y-107262500D01*
X180691000Y-107263000D01*
X180391000Y-107263000D01*
X180361000Y-107262500D01*
X180331500Y-107260000D01*
X180301500Y-107256500D01*
X180272000Y-107251000D01*
X180243000Y-107244500D01*
X180214000Y-107236500D01*
X180186000Y-107227000D01*
X180158000Y-107216000D01*
X180130500Y-107203500D01*
X180104000Y-107190000D01*
X180078000Y-107175000D01*
X180053000Y-107158500D01*
X180029000Y-107141500D01*
X180005500Y-107122500D01*
X179983000Y-107103000D01*
X179961500Y-107082000D01*
X179941000Y-107060000D01*
X179922000Y-107037000D01*
X179904000Y-107013500D01*
X179887000Y-106988500D01*
X179871500Y-106963000D01*
X179857000Y-106937000D01*
X179844000Y-106910000D01*
X179832500Y-106882000D01*
X179822500Y-106854000D01*
X179813500Y-106825500D01*
X179806000Y-106796500D01*
X179800000Y-106767000D01*
X179795500Y-106737500D01*
X179792500Y-106708000D01*
X179791000Y-106678000D01*
X179791000Y-106648000D01*
X179792500Y-106618000D01*
X179795500Y-106588500D01*
X179800000Y-106559000D01*
X179806000Y-106529500D01*
X179813500Y-106500500D01*
X179822500Y-106472000D01*
X179832500Y-106444000D01*
X179844000Y-106416500D01*
X179857000Y-106389500D01*
X179871500Y-106363000D01*
X179887000Y-106337500D01*
X179904000Y-106313000D01*
X179922000Y-106289000D01*
X179941000Y-106266000D01*
X179961500Y-106244000D01*
X179983000Y-106223000D01*
X180005500Y-106203500D01*
X180029000Y-106184500D01*
X180053000Y-106167500D01*
X180078000Y-106151000D01*
X180104000Y-106136000D01*
X180130500Y-106122500D01*
X180158000Y-106110000D01*
X180186000Y-106099000D01*
X180214000Y-106089500D01*
X180243000Y-106081500D01*
X180272000Y-106075000D01*
X180301500Y-106069500D01*
X180331500Y-106066000D01*
X180361000Y-106064000D01*
X180391000Y-106063000D01*
X180691000Y-106063000D01*
X180721000Y-106064000D01*
G37*
G36*
X180721000Y-114713500D02*
G01*
X180751000Y-114716000D01*
X180780500Y-114719500D01*
X180810000Y-114725000D01*
X180839000Y-114731500D01*
X180868000Y-114739500D01*
X180896000Y-114749000D01*
X180924000Y-114760000D01*
X180951500Y-114772500D01*
X180978000Y-114786000D01*
X181004000Y-114801000D01*
X181029000Y-114817500D01*
X181053500Y-114834500D01*
X181076500Y-114853500D01*
X181099000Y-114873000D01*
X181120500Y-114894000D01*
X181141000Y-114916000D01*
X181160000Y-114939000D01*
X181178000Y-114962500D01*
X181195000Y-114987500D01*
X181210500Y-115013000D01*
X181225000Y-115039000D01*
X181238000Y-115066000D01*
X181249500Y-115094000D01*
X181260000Y-115122000D01*
X181268500Y-115150500D01*
X181276000Y-115179500D01*
X181282000Y-115209000D01*
X181286500Y-115238500D01*
X181289500Y-115268000D01*
X181291000Y-115298000D01*
X181291000Y-115328000D01*
X181289500Y-115358000D01*
X181286500Y-115387500D01*
X181282000Y-115417000D01*
X181276000Y-115446500D01*
X181268500Y-115475500D01*
X181260000Y-115504000D01*
X181249500Y-115532000D01*
X181238000Y-115559500D01*
X181225000Y-115586500D01*
X181210500Y-115613000D01*
X181195000Y-115638500D01*
X181178000Y-115663000D01*
X181160000Y-115687000D01*
X181141000Y-115710000D01*
X181120500Y-115732000D01*
X181099000Y-115753000D01*
X181076500Y-115772500D01*
X181053500Y-115791500D01*
X181029000Y-115808500D01*
X181004000Y-115825000D01*
X180978000Y-115840000D01*
X180951500Y-115853500D01*
X180924000Y-115866000D01*
X180896000Y-115877000D01*
X180868000Y-115886500D01*
X180839000Y-115894500D01*
X180810000Y-115901000D01*
X180780500Y-115906500D01*
X180751000Y-115910000D01*
X180721000Y-115912000D01*
X180691000Y-115913000D01*
X180391000Y-115913000D01*
X180361000Y-115912000D01*
X180331500Y-115910000D01*
X180301500Y-115906500D01*
X180272000Y-115901000D01*
X180243000Y-115894500D01*
X180214000Y-115886500D01*
X180186000Y-115877000D01*
X180158000Y-115866000D01*
X180130500Y-115853500D01*
X180104000Y-115840000D01*
X180078000Y-115825000D01*
X180053000Y-115808500D01*
X180029000Y-115791500D01*
X180005500Y-115772500D01*
X179983000Y-115753000D01*
X179961500Y-115732000D01*
X179941000Y-115710000D01*
X179922000Y-115687000D01*
X179904000Y-115663000D01*
X179887000Y-115638500D01*
X179871500Y-115613000D01*
X179857000Y-115586500D01*
X179844000Y-115559500D01*
X179832500Y-115532000D01*
X179822500Y-115504000D01*
X179813500Y-115475500D01*
X179806000Y-115446500D01*
X179800000Y-115417000D01*
X179795500Y-115387500D01*
X179792500Y-115358000D01*
X179791000Y-115328000D01*
X179791000Y-115298000D01*
X179792500Y-115268000D01*
X179795500Y-115238500D01*
X179800000Y-115209000D01*
X179806000Y-115179500D01*
X179813500Y-115150500D01*
X179822500Y-115122000D01*
X179832500Y-115094000D01*
X179844000Y-115066000D01*
X179857000Y-115039000D01*
X179871500Y-115013000D01*
X179887000Y-114987500D01*
X179904000Y-114962500D01*
X179922000Y-114939000D01*
X179941000Y-114916000D01*
X179961500Y-114894000D01*
X179983000Y-114873000D01*
X180005500Y-114853500D01*
X180029000Y-114834500D01*
X180053000Y-114817500D01*
X180078000Y-114801000D01*
X180104000Y-114786000D01*
X180130500Y-114772500D01*
X180158000Y-114760000D01*
X180186000Y-114749000D01*
X180214000Y-114739500D01*
X180243000Y-114731500D01*
X180272000Y-114725000D01*
X180301500Y-114719500D01*
X180331500Y-114716000D01*
X180361000Y-114713500D01*
X180391000Y-114713000D01*
X180691000Y-114713000D01*
X180721000Y-114713500D01*
G37*
%TO.C,R_EN_UP*%
G36*
X158278000Y-109087000D02*
G01*
X158251250Y-109113750D01*
X158004000Y-109113750D01*
X158004000Y-108749000D01*
X157674000Y-108749000D01*
X157674000Y-109113750D01*
X157440750Y-109113750D01*
X157414000Y-109087000D01*
X157414000Y-108307250D01*
X158278000Y-108307250D01*
X158278000Y-109087000D01*
G37*
G36*
X157688000Y-110179000D02*
G01*
X158018000Y-110179000D01*
X158018000Y-109814250D01*
X158251250Y-109814250D01*
X158278000Y-109841000D01*
X158278000Y-110620750D01*
X157414000Y-110620750D01*
X157414000Y-109841000D01*
X157440750Y-109814250D01*
X157688000Y-109814250D01*
X157688000Y-110179000D01*
G37*
%TO.C,C_DIF5*%
G36*
X130975000Y-100467500D02*
G01*
X130980000Y-100877500D01*
X130530000Y-100877500D01*
X130530000Y-101327500D01*
X130970000Y-101327500D01*
X130975000Y-101747500D01*
X130940000Y-101782500D01*
X129760000Y-101782500D01*
X129725000Y-101747500D01*
X129725000Y-100467500D01*
X129760000Y-100432500D01*
X130940000Y-100432500D01*
X130975000Y-100467500D01*
G37*
G36*
X133135000Y-100467500D02*
G01*
X133135000Y-101747500D01*
X133100000Y-101782500D01*
X131920000Y-101782500D01*
X131885000Y-101747500D01*
X131880000Y-101337500D01*
X132330000Y-101337500D01*
X132330000Y-100887500D01*
X131890000Y-100887500D01*
X131885000Y-100467500D01*
X131920000Y-100432500D01*
X133100000Y-100432500D01*
X133135000Y-100467500D01*
G37*
%TO.C,R_PWDN_UP*%
G36*
X152690000Y-82671000D02*
G01*
X152663250Y-82697750D01*
X152416000Y-82697750D01*
X152416000Y-82333000D01*
X152086000Y-82333000D01*
X152086000Y-82697750D01*
X151852750Y-82697750D01*
X151826000Y-82671000D01*
X151826000Y-81891250D01*
X152690000Y-81891250D01*
X152690000Y-82671000D01*
G37*
G36*
X152100000Y-83763000D02*
G01*
X152430000Y-83763000D01*
X152430000Y-83398250D01*
X152663250Y-83398250D01*
X152690000Y-83425000D01*
X152690000Y-84204750D01*
X151826000Y-84204750D01*
X151826000Y-83425000D01*
X151852750Y-83398250D01*
X152100000Y-83398250D01*
X152100000Y-83763000D01*
G37*
%TO.C,C_DIF7*%
G36*
X130975000Y-94473000D02*
G01*
X130980000Y-94883000D01*
X130530000Y-94883000D01*
X130530000Y-95333000D01*
X130970000Y-95333000D01*
X130975000Y-95753000D01*
X130940000Y-95788000D01*
X129760000Y-95788000D01*
X129725000Y-95753000D01*
X129725000Y-94473000D01*
X129760000Y-94438000D01*
X130940000Y-94438000D01*
X130975000Y-94473000D01*
G37*
G36*
X133135000Y-94473000D02*
G01*
X133135000Y-95753000D01*
X133100000Y-95788000D01*
X131920000Y-95788000D01*
X131885000Y-95753000D01*
X131880000Y-95343000D01*
X132330000Y-95343000D01*
X132330000Y-94893000D01*
X131890000Y-94893000D01*
X131885000Y-94473000D01*
X131920000Y-94438000D01*
X133100000Y-94438000D01*
X133135000Y-94473000D01*
G37*
%TO.C,R_MISO*%
G36*
X166438500Y-84186000D02*
G01*
X166443500Y-84596000D01*
X165993500Y-84596000D01*
X165993500Y-85046000D01*
X166433500Y-85046000D01*
X166438500Y-85466000D01*
X166390000Y-85514500D01*
X165322250Y-85514500D01*
X165322250Y-84137500D01*
X166390000Y-84137500D01*
X166438500Y-84186000D01*
G37*
G36*
X168454750Y-85514500D02*
G01*
X167387000Y-85514500D01*
X167338500Y-85466000D01*
X167338500Y-85046000D01*
X167783500Y-85046000D01*
X167783500Y-84596000D01*
X167343500Y-84596000D01*
X167338500Y-84186000D01*
X167387000Y-84137500D01*
X168454750Y-84137500D01*
X168454750Y-85514500D01*
G37*
%TO.C,FB1*%
G36*
X139666250Y-120371180D02*
G01*
X139666250Y-120908371D01*
X139321000Y-121328500D01*
X138633500Y-121328500D01*
X138533750Y-121228750D01*
X138533750Y-120051250D01*
X138633500Y-119951500D01*
X139321000Y-119951500D01*
X139666250Y-120371180D01*
G37*
G36*
X141598250Y-120051250D02*
G01*
X141598250Y-121228750D01*
X141498500Y-121328500D01*
X140811000Y-121328500D01*
X140465750Y-120908371D01*
X140465750Y-120371180D01*
X140811000Y-119951500D01*
X141498500Y-119951500D01*
X141598250Y-120051250D01*
G37*
%TO.C,R_CS_UP*%
G36*
X146594000Y-82671000D02*
G01*
X146567250Y-82697750D01*
X146320000Y-82697750D01*
X146320000Y-82333000D01*
X145990000Y-82333000D01*
X145990000Y-82697750D01*
X145756750Y-82697750D01*
X145730000Y-82671000D01*
X145730000Y-81891250D01*
X146594000Y-81891250D01*
X146594000Y-82671000D01*
G37*
G36*
X146004000Y-83763000D02*
G01*
X146334000Y-83763000D01*
X146334000Y-83398250D01*
X146567250Y-83398250D01*
X146594000Y-83425000D01*
X146594000Y-84204750D01*
X145730000Y-84204750D01*
X145730000Y-83425000D01*
X145756750Y-83398250D01*
X146004000Y-83398250D01*
X146004000Y-83763000D01*
G37*
%TO.C,R_IN2N*%
G36*
X128485750Y-108888750D02*
G01*
X128485750Y-109379250D01*
X128461000Y-109404000D01*
X127960500Y-109404000D01*
X127920500Y-109364000D01*
X127920500Y-108904000D01*
X127960500Y-108864000D01*
X128461000Y-108864000D01*
X128485750Y-108888750D01*
G37*
G36*
X129351500Y-108904000D02*
G01*
X129351500Y-109364000D01*
X129311500Y-109404000D01*
X128811000Y-109404000D01*
X128786250Y-109379250D01*
X128786250Y-108888750D01*
X128811000Y-108864000D01*
X129311500Y-108864000D01*
X129351500Y-108904000D01*
G37*
%TO.C,R_IN4P*%
G36*
X128485750Y-104392750D02*
G01*
X128485750Y-104883250D01*
X128461000Y-104908000D01*
X127960500Y-104908000D01*
X127920500Y-104868000D01*
X127920500Y-104408000D01*
X127960500Y-104368000D01*
X128461000Y-104368000D01*
X128485750Y-104392750D01*
G37*
G36*
X129351500Y-104408000D02*
G01*
X129351500Y-104868000D01*
X129311500Y-104908000D01*
X128811000Y-104908000D01*
X128786250Y-104883250D01*
X128786250Y-104392750D01*
X128811000Y-104368000D01*
X129311500Y-104368000D01*
X129351500Y-104408000D01*
G37*
%TO.C,R_IO0_UP*%
G36*
X175042000Y-85211000D02*
G01*
X175015250Y-85237750D01*
X174768000Y-85237750D01*
X174768000Y-84873000D01*
X174438000Y-84873000D01*
X174438000Y-85237750D01*
X174204750Y-85237750D01*
X174178000Y-85211000D01*
X174178000Y-84431250D01*
X175042000Y-84431250D01*
X175042000Y-85211000D01*
G37*
G36*
X174452000Y-86303000D02*
G01*
X174782000Y-86303000D01*
X174782000Y-85938250D01*
X175015250Y-85938250D01*
X175042000Y-85965000D01*
X175042000Y-86744750D01*
X174178000Y-86744750D01*
X174178000Y-85965000D01*
X174204750Y-85938250D01*
X174452000Y-85938250D01*
X174452000Y-86303000D01*
G37*
%TO.C,R_RST_UP*%
G36*
X150785000Y-82671000D02*
G01*
X150758250Y-82697750D01*
X150511000Y-82697750D01*
X150511000Y-82333000D01*
X150181000Y-82333000D01*
X150181000Y-82697750D01*
X149947750Y-82697750D01*
X149921000Y-82671000D01*
X149921000Y-81891250D01*
X150785000Y-81891250D01*
X150785000Y-82671000D01*
G37*
G36*
X150195000Y-83763000D02*
G01*
X150525000Y-83763000D01*
X150525000Y-83398250D01*
X150758250Y-83398250D01*
X150785000Y-83425000D01*
X150785000Y-84204750D01*
X149921000Y-84204750D01*
X149921000Y-83425000D01*
X149947750Y-83398250D01*
X150195000Y-83398250D01*
X150195000Y-83763000D01*
G37*
%TO.C,R_IN6P*%
G36*
X128485750Y-98398250D02*
G01*
X128485750Y-98888750D01*
X128461000Y-98913500D01*
X127960500Y-98913500D01*
X127920500Y-98873500D01*
X127920500Y-98413500D01*
X127960500Y-98373500D01*
X128461000Y-98373500D01*
X128485750Y-98398250D01*
G37*
G36*
X129351500Y-98413500D02*
G01*
X129351500Y-98873500D01*
X129311500Y-98913500D01*
X128811000Y-98913500D01*
X128786250Y-98888750D01*
X128786250Y-98398250D01*
X128811000Y-98373500D01*
X129311500Y-98373500D01*
X129351500Y-98413500D01*
G37*
%TO.C,R_IN5P*%
G36*
X128485750Y-101395750D02*
G01*
X128485750Y-101886250D01*
X128461000Y-101911000D01*
X127960500Y-101911000D01*
X127920500Y-101871000D01*
X127920500Y-101411000D01*
X127960500Y-101371000D01*
X128461000Y-101371000D01*
X128485750Y-101395750D01*
G37*
G36*
X129351500Y-101411000D02*
G01*
X129351500Y-101871000D01*
X129311500Y-101911000D01*
X128811000Y-101911000D01*
X128786250Y-101886250D01*
X128786250Y-101395750D01*
X128811000Y-101371000D01*
X129311500Y-101371000D01*
X129351500Y-101411000D01*
G37*
%TO.C,R_CC2*%
G36*
X172989750Y-109820750D02*
G01*
X172989750Y-110068000D01*
X172625000Y-110068000D01*
X172625000Y-110398000D01*
X172989750Y-110398000D01*
X172989750Y-110631250D01*
X172963000Y-110658000D01*
X172183250Y-110658000D01*
X172183250Y-109794000D01*
X172963000Y-109794000D01*
X172989750Y-109820750D01*
G37*
G36*
X174496750Y-110658000D02*
G01*
X173717000Y-110658000D01*
X173690250Y-110631250D01*
X173690250Y-110384000D01*
X174055000Y-110384000D01*
X174055000Y-110054000D01*
X173690250Y-110054000D01*
X173690250Y-109820750D01*
X173717000Y-109794000D01*
X174496750Y-109794000D01*
X174496750Y-110658000D01*
G37*
%TO.C,FB5*%
G36*
X148810250Y-84811180D02*
G01*
X148810250Y-85348371D01*
X148465000Y-85768500D01*
X147777500Y-85768500D01*
X147677750Y-85668750D01*
X147677750Y-84491250D01*
X147777500Y-84391500D01*
X148465000Y-84391500D01*
X148810250Y-84811180D01*
G37*
G36*
X150742250Y-84491250D02*
G01*
X150742250Y-85668750D01*
X150642500Y-85768500D01*
X149955000Y-85768500D01*
X149609750Y-85348371D01*
X149609750Y-84811180D01*
X149955000Y-84391500D01*
X150642500Y-84391500D01*
X150742250Y-84491250D01*
G37*
%TO.C,R_CC1*%
G36*
X173049750Y-113494750D02*
G01*
X173049750Y-113742000D01*
X172685000Y-113742000D01*
X172685000Y-114072000D01*
X173049750Y-114072000D01*
X173049750Y-114305250D01*
X173023000Y-114332000D01*
X172243250Y-114332000D01*
X172243250Y-113468000D01*
X173023000Y-113468000D01*
X173049750Y-113494750D01*
G37*
G36*
X174556750Y-114332000D02*
G01*
X173777000Y-114332000D01*
X173750250Y-114305250D01*
X173750250Y-114058000D01*
X174115000Y-114058000D01*
X174115000Y-113728000D01*
X173750250Y-113728000D01*
X173750250Y-113494750D01*
X173777000Y-113468000D01*
X174556750Y-113468000D01*
X174556750Y-114332000D01*
G37*
%TO.C,R_IN2P*%
G36*
X128485750Y-110387250D02*
G01*
X128485750Y-110877750D01*
X128461000Y-110902500D01*
X127960500Y-110902500D01*
X127920500Y-110862500D01*
X127920500Y-110402500D01*
X127960500Y-110362500D01*
X128461000Y-110362500D01*
X128485750Y-110387250D01*
G37*
G36*
X129351500Y-110402500D02*
G01*
X129351500Y-110862500D01*
X129311500Y-110902500D01*
X128811000Y-110902500D01*
X128786250Y-110877750D01*
X128786250Y-110387250D01*
X128811000Y-110362500D01*
X129311500Y-110362500D01*
X129351500Y-110402500D01*
G37*
%TO.C,FB4*%
G36*
X139666250Y-122403180D02*
G01*
X139666250Y-122940371D01*
X139321000Y-123360500D01*
X138633500Y-123360500D01*
X138533750Y-123260750D01*
X138533750Y-122083250D01*
X138633500Y-121983500D01*
X139321000Y-121983500D01*
X139666250Y-122403180D01*
G37*
G36*
X141598250Y-122083250D02*
G01*
X141598250Y-123260750D01*
X141498500Y-123360500D01*
X140811000Y-123360500D01*
X140465750Y-122940371D01*
X140465750Y-122403180D01*
X140811000Y-121983500D01*
X141498500Y-121983500D01*
X141598250Y-122083250D01*
G37*
%TO.C,R_IN7P*%
G36*
X128485750Y-95401250D02*
G01*
X128485750Y-95891750D01*
X128461000Y-95916500D01*
X127960500Y-95916500D01*
X127920500Y-95876500D01*
X127920500Y-95416500D01*
X127960500Y-95376500D01*
X128461000Y-95376500D01*
X128485750Y-95401250D01*
G37*
G36*
X129351500Y-95416500D02*
G01*
X129351500Y-95876500D01*
X129311500Y-95916500D01*
X128811000Y-95916500D01*
X128786250Y-95891750D01*
X128786250Y-95401250D01*
X128811000Y-95376500D01*
X129311500Y-95376500D01*
X129351500Y-95416500D01*
G37*
%TO.C,R_IO2_DN*%
G36*
X175021750Y-91405750D02*
G01*
X175021750Y-91653000D01*
X174657000Y-91653000D01*
X174657000Y-91983000D01*
X175021750Y-91983000D01*
X175021750Y-92216250D01*
X174995000Y-92243000D01*
X174215250Y-92243000D01*
X174215250Y-91379000D01*
X174995000Y-91379000D01*
X175021750Y-91405750D01*
G37*
G36*
X176528750Y-92243000D02*
G01*
X175749000Y-92243000D01*
X175722250Y-92216250D01*
X175722250Y-91969000D01*
X176087000Y-91969000D01*
X176087000Y-91639000D01*
X175722250Y-91639000D01*
X175722250Y-91405750D01*
X175749000Y-91379000D01*
X176528750Y-91379000D01*
X176528750Y-92243000D01*
G37*
%TO.C,C_DIF8*%
G36*
X130975000Y-91476000D02*
G01*
X130980000Y-91886000D01*
X130530000Y-91886000D01*
X130530000Y-92336000D01*
X130970000Y-92336000D01*
X130975000Y-92756000D01*
X130940000Y-92791000D01*
X129760000Y-92791000D01*
X129725000Y-92756000D01*
X129725000Y-91476000D01*
X129760000Y-91441000D01*
X130940000Y-91441000D01*
X130975000Y-91476000D01*
G37*
G36*
X133135000Y-91476000D02*
G01*
X133135000Y-92756000D01*
X133100000Y-92791000D01*
X131920000Y-92791000D01*
X131885000Y-92756000D01*
X131880000Y-92346000D01*
X132330000Y-92346000D01*
X132330000Y-91896000D01*
X131890000Y-91896000D01*
X131885000Y-91476000D01*
X131920000Y-91441000D01*
X133100000Y-91441000D01*
X133135000Y-91476000D01*
G37*
%TO.C,R_BIAS_SER*%
G36*
X128186000Y-86624500D02*
G01*
X128186000Y-87044500D01*
X127741000Y-87044500D01*
X127741000Y-87494500D01*
X128181000Y-87494500D01*
X128186000Y-87904500D01*
X128137500Y-87953000D01*
X127069750Y-87953000D01*
X127069750Y-86576000D01*
X128137500Y-86576000D01*
X128186000Y-86624500D01*
G37*
G36*
X130202250Y-87953000D02*
G01*
X129134500Y-87953000D01*
X129086000Y-87904500D01*
X129081000Y-87494500D01*
X129531000Y-87494500D01*
X129531000Y-87044500D01*
X129091000Y-87044500D01*
X129086000Y-86624500D01*
X129134500Y-86576000D01*
X130202250Y-86576000D01*
X130202250Y-87953000D01*
G37*
%TO.C,R_DRDY_UP*%
G36*
X149642000Y-82671000D02*
G01*
X149615250Y-82697750D01*
X149368000Y-82697750D01*
X149368000Y-82333000D01*
X149038000Y-82333000D01*
X149038000Y-82697750D01*
X148804750Y-82697750D01*
X148778000Y-82671000D01*
X148778000Y-81891250D01*
X149642000Y-81891250D01*
X149642000Y-82671000D01*
G37*
G36*
X149052000Y-83763000D02*
G01*
X149382000Y-83763000D01*
X149382000Y-83398250D01*
X149615250Y-83398250D01*
X149642000Y-83425000D01*
X149642000Y-84204750D01*
X148778000Y-84204750D01*
X148778000Y-83425000D01*
X148804750Y-83398250D01*
X149052000Y-83398250D01*
X149052000Y-83763000D01*
G37*
%TO.C,R_MOSI*%
G36*
X154019000Y-109851000D02*
G01*
X154469000Y-109851000D01*
X154469000Y-109411000D01*
X154879000Y-109406000D01*
X154927500Y-109454500D01*
X154927500Y-110522250D01*
X153550500Y-110522250D01*
X153550500Y-109454500D01*
X153599000Y-109406000D01*
X154019000Y-109406000D01*
X154019000Y-109851000D01*
G37*
G36*
X154927500Y-108457500D02*
G01*
X154879000Y-108506000D01*
X154469000Y-108511000D01*
X154469000Y-108061000D01*
X154019000Y-108061000D01*
X154019000Y-108501000D01*
X153599000Y-108506000D01*
X153550500Y-108457500D01*
X153550500Y-107389750D01*
X154927500Y-107389750D01*
X154927500Y-108457500D01*
G37*
%TO.C,C_DIF4*%
G36*
X130975000Y-103464500D02*
G01*
X130980000Y-103874500D01*
X130530000Y-103874500D01*
X130530000Y-104324500D01*
X130970000Y-104324500D01*
X130975000Y-104744500D01*
X130940000Y-104779500D01*
X129760000Y-104779500D01*
X129725000Y-104744500D01*
X129725000Y-103464500D01*
X129760000Y-103429500D01*
X130940000Y-103429500D01*
X130975000Y-103464500D01*
G37*
G36*
X133135000Y-103464500D02*
G01*
X133135000Y-104744500D01*
X133100000Y-104779500D01*
X131920000Y-104779500D01*
X131885000Y-104744500D01*
X131880000Y-104334500D01*
X132330000Y-104334500D01*
X132330000Y-103884500D01*
X131890000Y-103884500D01*
X131885000Y-103464500D01*
X131920000Y-103429500D01*
X133100000Y-103429500D01*
X133135000Y-103464500D01*
G37*
%TO.C,C_DIF2*%
G36*
X130975000Y-109459000D02*
G01*
X130980000Y-109869000D01*
X130530000Y-109869000D01*
X130530000Y-110319000D01*
X130970000Y-110319000D01*
X130975000Y-110739000D01*
X130940000Y-110774000D01*
X129760000Y-110774000D01*
X129725000Y-110739000D01*
X129725000Y-109459000D01*
X129760000Y-109424000D01*
X130940000Y-109424000D01*
X130975000Y-109459000D01*
G37*
G36*
X133135000Y-109459000D02*
G01*
X133135000Y-110739000D01*
X133100000Y-110774000D01*
X131920000Y-110774000D01*
X131885000Y-110739000D01*
X131880000Y-110329000D01*
X132330000Y-110329000D01*
X132330000Y-109879000D01*
X131890000Y-109879000D01*
X131885000Y-109459000D01*
X131920000Y-109424000D01*
X133100000Y-109424000D01*
X133135000Y-109459000D01*
G37*
%TO.C,R_IN3N*%
G36*
X128485750Y-105891250D02*
G01*
X128485750Y-106381750D01*
X128461000Y-106406500D01*
X127960500Y-106406500D01*
X127920500Y-106366500D01*
X127920500Y-105906500D01*
X127960500Y-105866500D01*
X128461000Y-105866500D01*
X128485750Y-105891250D01*
G37*
G36*
X129351500Y-105906500D02*
G01*
X129351500Y-106366500D01*
X129311500Y-106406500D01*
X128811000Y-106406500D01*
X128786250Y-106381750D01*
X128786250Y-105891250D01*
X128811000Y-105866500D01*
X129311500Y-105866500D01*
X129351500Y-105906500D01*
G37*
%TD*%
D11*
%TO.C,LM2664*%
X145480000Y-123368000D03*
X145480000Y-122418000D03*
X145480000Y-121468000D03*
X142780000Y-121468000D03*
X142780000Y-122418000D03*
X142780000Y-123368000D03*
%TD*%
D12*
%TO.C,C_3V3_H*%
X155661500Y-115014000D03*
X155661500Y-114174000D03*
%TD*%
D13*
%TO.C,R_SRB_SER*%
X129636000Y-89144000D03*
X127636000Y-89144000D03*
%TD*%
D14*
%TO.C,R_IN7N*%
X128203000Y-94148000D03*
X129069000Y-94148000D03*
%TD*%
D15*
%TO.C,U_ADS*%
X140612000Y-98348000D03*
X140612000Y-98848000D03*
X140612000Y-99348000D03*
X140612000Y-99848000D03*
X140612000Y-100348000D03*
X140612000Y-100848000D03*
X140612000Y-101348000D03*
X140612000Y-101848000D03*
X140612000Y-102348000D03*
X140612000Y-102848000D03*
X140612000Y-103348000D03*
X140612000Y-103848000D03*
X140612000Y-104348000D03*
X140612000Y-104848000D03*
X140612000Y-105348000D03*
X140612000Y-105848000D03*
D16*
X142412000Y-107648000D03*
X142912000Y-107648000D03*
X143412000Y-107648000D03*
X143912000Y-107648000D03*
X144412000Y-107648000D03*
X144912000Y-107648000D03*
X145412000Y-107648000D03*
X145912000Y-107648000D03*
X146412000Y-107648000D03*
X146912000Y-107648000D03*
X147412000Y-107648000D03*
X147912000Y-107648000D03*
X148412000Y-107648000D03*
X148912000Y-107648000D03*
X149412000Y-107648000D03*
X149912000Y-107648000D03*
D15*
X151712000Y-105848000D03*
X151712000Y-105348000D03*
X151712000Y-104848000D03*
X151712000Y-104348000D03*
X151712000Y-103848000D03*
X151712000Y-103348000D03*
X151712000Y-102848000D03*
X151712000Y-102348000D03*
X151712000Y-101848000D03*
X151712000Y-101348000D03*
X151712000Y-100848000D03*
X151712000Y-100348000D03*
X151712000Y-99848000D03*
X151712000Y-99348000D03*
X151712000Y-98848000D03*
X151712000Y-98348000D03*
D16*
X149912000Y-96548000D03*
X149412000Y-96548000D03*
X148912000Y-96548000D03*
X148412000Y-96548000D03*
X147912000Y-96548000D03*
X147412000Y-96548000D03*
X146912000Y-96548000D03*
X146412000Y-96548000D03*
X145912000Y-96548000D03*
X145412000Y-96548000D03*
X144912000Y-96548000D03*
X144412000Y-96548000D03*
X143912000Y-96548000D03*
X143412000Y-96548000D03*
X142912000Y-96548000D03*
X142412000Y-96548000D03*
%TD*%
D17*
%TO.C,C_CM3P*%
X133727000Y-107635000D03*
X135127000Y-107635000D03*
%TD*%
D18*
%TO.C,C_AVDD_P31*%
X144040000Y-110480000D03*
X144880000Y-110480000D03*
%TD*%
D13*
%TO.C,R_SCLK*%
X169698500Y-84826000D03*
X171698500Y-84826000D03*
%TD*%
D12*
%TO.C,C_VCAP1_H*%
X147912000Y-109006000D03*
X147912000Y-109846000D03*
%TD*%
D17*
%TO.C,C_CM8N*%
X133524000Y-91150500D03*
X134924000Y-91150500D03*
%TD*%
D12*
%TO.C,C_EN_DLY*%
X159116000Y-109044000D03*
X159116000Y-109884000D03*
%TD*%
D19*
%TO.C,R_IO15_DN*%
X174618500Y-93081000D03*
X176125500Y-93081000D03*
%TD*%
D18*
%TO.C,C_VCAP4*%
X148028000Y-112766000D03*
X148868000Y-112766000D03*
%TD*%
D20*
%TO.C,C_DIF6*%
X130430000Y-98110000D03*
X132430000Y-98110000D03*
%TD*%
D21*
%TO.C,D_ESD*%
X176454000Y-104771000D03*
X177404000Y-104771000D03*
X178354000Y-104771000D03*
X178354000Y-102473000D03*
X177404000Y-102473000D03*
X176454000Y-102473000D03*
%TD*%
D18*
%TO.C,C_AVSS_P17*%
X140281000Y-112766000D03*
X141121000Y-112766000D03*
%TD*%
D14*
%TO.C,R_IN5N*%
X128203000Y-100142000D03*
X129069000Y-100142000D03*
%TD*%
D22*
%TO.C,R_Q_IO0_B*%
X168768000Y-110217500D03*
X168768000Y-108710500D03*
%TD*%
D23*
%TO.C,C_3V3_B*%
X155763000Y-112704000D03*
X155763000Y-111304000D03*
%TD*%
D12*
%TO.C,C_DVDD_P40*%
X149718000Y-90326000D03*
X149718000Y-89486000D03*
%TD*%
D22*
%TO.C,R_START_DN*%
X171308000Y-108710500D03*
X171308000Y-110217500D03*
%TD*%
D24*
%TO.C,F1*%
X177912000Y-100749000D03*
X177912000Y-97859000D03*
%TD*%
D17*
%TO.C,C_CM2P*%
X133727000Y-110632500D03*
X135127000Y-110632500D03*
%TD*%
D13*
%TO.C,FB2*%
X139100000Y-118608000D03*
X141032000Y-118608000D03*
%TD*%
D14*
%TO.C,R_IN8P*%
X128203000Y-92649000D03*
X129069000Y-92649000D03*
%TD*%
D25*
%TO.C,FB3*%
X166990000Y-122114000D03*
X166990000Y-120182000D03*
%TD*%
D17*
%TO.C,C_CM7P*%
X133727000Y-95646500D03*
X135127000Y-95646500D03*
%TD*%
D23*
%TO.C,C_LM_FLY*%
X147178000Y-122356000D03*
X147178000Y-120956000D03*
%TD*%
D22*
%TO.C,R_Q_EN_B*%
X163942000Y-110217500D03*
X163942000Y-108710500D03*
%TD*%
D12*
%TO.C,C_RST_DLY*%
X147586000Y-83468000D03*
X147586000Y-82628000D03*
%TD*%
D26*
%TO.C,D_LED*%
X177163000Y-87620000D03*
X178661000Y-87620000D03*
%TD*%
D12*
%TO.C,C_USB_V3*%
X171308000Y-115218000D03*
X171308000Y-114378000D03*
%TD*%
%TO.C,C_USB5V_H*%
X176134000Y-96930000D03*
X176134000Y-96090000D03*
%TD*%
D23*
%TO.C,C_BULK*%
X151750000Y-123372000D03*
X151750000Y-121972000D03*
%TD*%
%TO.C,C_3V3_OUT*%
X163180000Y-121848000D03*
X163180000Y-120448000D03*
%TD*%
D12*
%TO.C,C_HF*%
X155560000Y-123092000D03*
X155560000Y-122252000D03*
%TD*%
%TO.C,C_NLDO_IN*%
X148448000Y-119282000D03*
X148448000Y-118442000D03*
%TD*%
D14*
%TO.C,R_IN8N*%
X128203000Y-91150500D03*
X129069000Y-91150500D03*
%TD*%
D20*
%TO.C,C_DIF1*%
X130430000Y-113096000D03*
X132430000Y-113096000D03*
%TD*%
%TO.C,C_DIF3*%
X130430000Y-107102000D03*
X132430000Y-107102000D03*
%TD*%
D19*
%TO.C,R_LED*%
X177158500Y-89652000D03*
X178665500Y-89652000D03*
%TD*%
D12*
%TO.C,C_AVDD_P59*%
X141996500Y-93120000D03*
X141996500Y-92280000D03*
%TD*%
%TO.C,C_DVDD_P58*%
X146162000Y-88294000D03*
X146162000Y-87454000D03*
%TD*%
%TO.C,C_DVDD_H*%
X147686000Y-86946000D03*
X147686000Y-87786000D03*
%TD*%
%TO.C,C_3V3_H2*%
X160386000Y-121568000D03*
X160386000Y-120728000D03*
%TD*%
D17*
%TO.C,C_CM2N*%
X133524000Y-109134000D03*
X134924000Y-109134000D03*
%TD*%
D14*
%TO.C,R_IN4N*%
X128203000Y-103139500D03*
X129069000Y-103139500D03*
%TD*%
%TO.C,R_IN1N*%
X128203000Y-112131000D03*
X129069000Y-112131000D03*
%TD*%
D17*
%TO.C,C_CM1P*%
X133727000Y-113629500D03*
X135127000Y-113629500D03*
%TD*%
D18*
%TO.C,C_AVSS_P60*%
X152727000Y-112766000D03*
X153567000Y-112766000D03*
%TD*%
D17*
%TO.C,C_CM6N*%
X133524000Y-97145000D03*
X134924000Y-97145000D03*
%TD*%
D18*
%TO.C,C_AVDD1_1u*%
X145996000Y-92700000D03*
X146836000Y-92700000D03*
%TD*%
%TO.C,C_VREFP_100n*%
X147799500Y-110480000D03*
X148639500Y-110480000D03*
%TD*%
D12*
%TO.C,C_PLDO_OUT*%
X147686000Y-115980000D03*
X147686000Y-115140000D03*
%TD*%
D14*
%TO.C,R_IN6N*%
X128203000Y-97145000D03*
X129069000Y-97145000D03*
%TD*%
D17*
%TO.C,C_CM5P*%
X133727000Y-101641000D03*
X135127000Y-101641000D03*
%TD*%
D14*
%TO.C,R_IN1P*%
X128203000Y-113629500D03*
X129069000Y-113629500D03*
%TD*%
D13*
%TO.C,R_BIAS_FB*%
X145670000Y-90414000D03*
X147670000Y-90414000D03*
%TD*%
D17*
%TO.C,C_AVDD1_10u*%
X143430000Y-92700000D03*
X144830000Y-92700000D03*
%TD*%
D11*
%TO.C,TPS72325*%
X153050000Y-119812000D03*
X153050000Y-118862000D03*
X153050000Y-117912000D03*
X150450000Y-117912000D03*
X150450000Y-119812000D03*
%TD*%
D17*
%TO.C,C_CM8P*%
X133727000Y-92649000D03*
X135127000Y-92649000D03*
%TD*%
D11*
%TO.C,TLV70025*%
X145430000Y-119812000D03*
X145430000Y-118862000D03*
X145430000Y-117912000D03*
X142830000Y-117912000D03*
X142830000Y-119812000D03*
%TD*%
D14*
%TO.C,R_IN3P*%
X128203000Y-107635000D03*
X129069000Y-107635000D03*
%TD*%
D17*
%TO.C,C_CM3N*%
X133524000Y-106136500D03*
X134924000Y-106136500D03*
%TD*%
D12*
%TO.C,C_3V3_IN*%
X164958000Y-121568000D03*
X164958000Y-120728000D03*
%TD*%
D27*
%TO.C,J1*%
X175791000Y-114188000D03*
D28*
X175791000Y-113388000D03*
D29*
X175791000Y-112738000D03*
X175791000Y-112238000D03*
X175791000Y-111738000D03*
X175791000Y-111238000D03*
X175791000Y-110738000D03*
X175791000Y-110238000D03*
X175791000Y-109738000D03*
X175791000Y-109238000D03*
D28*
X175791000Y-108588000D03*
D27*
X175791000Y-107788000D03*
%TD*%
D18*
%TO.C,C_AVDD_P19*%
X142160500Y-110480000D03*
X143000500Y-110480000D03*
%TD*%
D12*
%TO.C,C_AVDD_H*%
X145908000Y-115980000D03*
X145908000Y-115140000D03*
%TD*%
D22*
%TO.C,R_EN_UP*%
X157846000Y-110217500D03*
X157846000Y-108710500D03*
%TD*%
D30*
%TO.C,Q_EN*%
X162376500Y-110414000D03*
X162376500Y-108514000D03*
X160173500Y-109464000D03*
%TD*%
D20*
%TO.C,C_DIF5*%
X130430000Y-101107500D03*
X132430000Y-101107500D03*
%TD*%
D22*
%TO.C,R_PWDN_UP*%
X152258000Y-83801500D03*
X152258000Y-82294500D03*
%TD*%
D31*
%TO.C,U_MCU*%
X155955500Y-106526000D03*
X157225500Y-106526000D03*
X158495500Y-106526000D03*
X159765500Y-106526000D03*
X161035500Y-106526000D03*
X162305500Y-106526000D03*
X163575500Y-106526000D03*
X164845500Y-106526000D03*
X166115500Y-106526000D03*
X167385500Y-106526000D03*
X168655500Y-106526000D03*
X169925500Y-106526000D03*
X171195500Y-106526000D03*
X172465500Y-106526000D03*
D32*
X173960500Y-103241000D03*
X173960500Y-101971000D03*
X173960500Y-100701000D03*
X173960500Y-99431000D03*
X173960500Y-98161000D03*
X173960500Y-96891000D03*
X173960500Y-95621000D03*
X173960500Y-94351000D03*
X173960500Y-93081000D03*
X173960500Y-91811000D03*
D31*
X172465500Y-88526000D03*
X171195500Y-88526000D03*
X169925500Y-88526000D03*
X168655500Y-88526000D03*
X167385500Y-88526000D03*
X166115500Y-88526000D03*
X164845500Y-88526000D03*
X163575500Y-88526000D03*
X162305500Y-88526000D03*
X161035500Y-88526000D03*
X159765500Y-88526000D03*
X158495500Y-88526000D03*
X157225500Y-88526000D03*
X155955500Y-88526000D03*
D33*
X162236500Y-97626000D03*
X162236500Y-99026000D03*
X162236500Y-100426000D03*
X163636500Y-97626000D03*
X163636500Y-99026500D03*
X163636500Y-100426000D03*
X165036500Y-97626000D03*
X165036500Y-99026000D03*
X165036500Y-100426000D03*
%TD*%
D23*
%TO.C,C_3V3_B2*%
X162164000Y-121848000D03*
X162164000Y-120448000D03*
%TD*%
D20*
%TO.C,C_DIF7*%
X130430000Y-95113000D03*
X132430000Y-95113000D03*
%TD*%
D23*
%TO.C,C_DVDD_B*%
X151750000Y-86666000D03*
X151750000Y-88066000D03*
%TD*%
D18*
%TO.C,C_AVDD1_100n*%
X148282000Y-92700000D03*
X149122000Y-92700000D03*
%TD*%
D12*
%TO.C,C_NLDO_OUT*%
X156068000Y-119282000D03*
X156068000Y-118442000D03*
%TD*%
D23*
%TO.C,C_AVDD_B*%
X144130000Y-116260000D03*
X144130000Y-114860000D03*
%TD*%
D13*
%TO.C,R_MISO*%
X165888500Y-84826000D03*
X167888500Y-84826000D03*
%TD*%
%TO.C,FB1*%
X139100000Y-120640000D03*
X141032000Y-120640000D03*
%TD*%
D22*
%TO.C,R_CS_UP*%
X146162000Y-83801500D03*
X146162000Y-82294500D03*
%TD*%
D18*
%TO.C,C_AVDD_P3*%
X140281000Y-110480000D03*
X141121000Y-110480000D03*
%TD*%
%TO.C,C_VCAP2*%
X148746000Y-109172000D03*
X149586000Y-109172000D03*
%TD*%
D14*
%TO.C,R_IN2N*%
X128203000Y-109134000D03*
X129069000Y-109134000D03*
%TD*%
D18*
%TO.C,C_AVDD_P36*%
X144880000Y-112766000D03*
X144040000Y-112766000D03*
%TD*%
%TO.C,C_AVDD1_10n*%
X150568000Y-92700000D03*
X151408000Y-92700000D03*
%TD*%
D12*
%TO.C,C_NR*%
X156576000Y-114710000D03*
X156576000Y-113870000D03*
%TD*%
D14*
%TO.C,R_IN4P*%
X128203000Y-104638000D03*
X129069000Y-104638000D03*
%TD*%
D12*
%TO.C,C_PLDO_IN*%
X142352000Y-115980000D03*
X142352000Y-115140000D03*
%TD*%
%TO.C,C_AVDD_P64*%
X140523000Y-93120000D03*
X140523000Y-92280000D03*
%TD*%
D22*
%TO.C,R_IO0_UP*%
X174610000Y-84834500D03*
X174610000Y-86341500D03*
%TD*%
%TO.C,R_RST_UP*%
X150353000Y-83801500D03*
X150353000Y-82294500D03*
%TD*%
D23*
%TO.C,C_LM_OUT*%
X148956000Y-122356000D03*
X148956000Y-120956000D03*
%TD*%
D14*
%TO.C,R_IN6P*%
X128203000Y-98643500D03*
X129069000Y-98643500D03*
%TD*%
D17*
%TO.C,C_CM1N*%
X133524000Y-112131000D03*
X134924000Y-112131000D03*
%TD*%
D14*
%TO.C,R_IN5P*%
X128203000Y-101641000D03*
X129069000Y-101641000D03*
%TD*%
D12*
%TO.C,C_3V3_M*%
X156195000Y-108868000D03*
X156195000Y-108028000D03*
%TD*%
D19*
%TO.C,R_CC2*%
X172586500Y-110226000D03*
X174093500Y-110226000D03*
%TD*%
D34*
%TO.C,C_VCAP1*%
X152258000Y-116527000D03*
X152258000Y-113577000D03*
%TD*%
D18*
%TO.C,C_LM_IN*%
X147266000Y-123561000D03*
X148106000Y-123561000D03*
%TD*%
%TO.C,C_AVSS_P37*%
X145920000Y-112766000D03*
X146760000Y-112766000D03*
%TD*%
D23*
%TO.C,C_USB5V_B*%
X176134000Y-100004000D03*
X176134000Y-98604000D03*
%TD*%
%TO.C,C_DVDD_10u*%
X149718000Y-86666000D03*
X149718000Y-88066000D03*
%TD*%
D13*
%TO.C,FB5*%
X148244000Y-85080000D03*
X150176000Y-85080000D03*
%TD*%
D18*
%TO.C,C_AVSS_P30*%
X142160500Y-112766000D03*
X143000500Y-112766000D03*
%TD*%
D17*
%TO.C,C_CM4N*%
X133524000Y-103139500D03*
X134924000Y-103139500D03*
%TD*%
%TO.C,C_CM4P*%
X133727000Y-104638000D03*
X135127000Y-104638000D03*
%TD*%
D18*
%TO.C,C_VCAP3_H*%
X146832000Y-94448000D03*
X145992000Y-94448000D03*
%TD*%
D19*
%TO.C,R_CC1*%
X174153500Y-113900000D03*
X172646500Y-113900000D03*
%TD*%
D18*
%TO.C,C_VREFP_10n*%
X145970000Y-110480000D03*
X146810000Y-110480000D03*
%TD*%
D14*
%TO.C,R_IN2P*%
X128203000Y-110632500D03*
X129069000Y-110632500D03*
%TD*%
D35*
%TO.C,AMS1117*%
X179814000Y-123529500D03*
X179814000Y-121229500D03*
X179814000Y-118929500D03*
D36*
X173874000Y-121229500D03*
%TD*%
D13*
%TO.C,FB4*%
X139100000Y-122672000D03*
X141032000Y-122672000D03*
%TD*%
D14*
%TO.C,R_IN7P*%
X128203000Y-95646500D03*
X129069000Y-95646500D03*
%TD*%
D17*
%TO.C,C_CM7N*%
X133524000Y-94148000D03*
X134924000Y-94148000D03*
%TD*%
D19*
%TO.C,R_IO2_DN*%
X174618500Y-91811000D03*
X176125500Y-91811000D03*
%TD*%
D12*
%TO.C,C_VCAP3*%
X144118000Y-94682000D03*
X144118000Y-93842000D03*
%TD*%
D20*
%TO.C,C_DIF8*%
X130430000Y-92116000D03*
X132430000Y-92116000D03*
%TD*%
D13*
%TO.C,R_BIAS_SER*%
X129636000Y-87264500D03*
X127636000Y-87264500D03*
%TD*%
D22*
%TO.C,R_DRDY_UP*%
X149210000Y-83801500D03*
X149210000Y-82294500D03*
%TD*%
D25*
%TO.C,R_MOSI*%
X154239000Y-107956000D03*
X154239000Y-109956000D03*
%TD*%
D23*
%TO.C,C_AVSS_B*%
X149360000Y-115368000D03*
X149360000Y-116768000D03*
%TD*%
D34*
%TO.C,C_VREFP_10u*%
X150937000Y-111701000D03*
X150937000Y-108751000D03*
%TD*%
D18*
%TO.C,C_BIAS_INV*%
X143280000Y-90414000D03*
X142440000Y-90414000D03*
%TD*%
D12*
%TO.C,C_USB_VCC*%
X171308000Y-112932000D03*
X171308000Y-112092000D03*
%TD*%
D37*
%TO.C,U_USB*%
X157719000Y-117924500D03*
X158989000Y-117924500D03*
X160259000Y-117924500D03*
X161529000Y-117924500D03*
X162799000Y-117924500D03*
X164069000Y-117924500D03*
X165339000Y-117924500D03*
X166609000Y-117924500D03*
X166609000Y-112179500D03*
X165339000Y-112179500D03*
X164069000Y-112179500D03*
X162799000Y-112179500D03*
X161529000Y-112179500D03*
X160259000Y-112179500D03*
X158989000Y-112179500D03*
X157719000Y-112179500D03*
%TD*%
D17*
%TO.C,C_CM6P*%
X133727000Y-98643500D03*
X135127000Y-98643500D03*
%TD*%
D30*
%TO.C,Q_IO0*%
X167202500Y-110414000D03*
X167202500Y-108514000D03*
X164999500Y-109464000D03*
%TD*%
D17*
%TO.C,C_CM5N*%
X133524000Y-100142000D03*
X134924000Y-100142000D03*
%TD*%
D12*
%TO.C,C_AVSS_H*%
X148448000Y-115980000D03*
X148448000Y-115140000D03*
%TD*%
D20*
%TO.C,C_DIF4*%
X130430000Y-104104500D03*
X132430000Y-104104500D03*
%TD*%
%TO.C,C_DIF2*%
X130430000Y-110099000D03*
X132430000Y-110099000D03*
%TD*%
D14*
%TO.C,R_IN3N*%
X128203000Y-106136500D03*
X129069000Y-106136500D03*
%TD*%
M02*
