%TF.GenerationSoftware,KiCad,Pcbnew,10.0.5*%
%TF.CreationDate,2026-08-28T17:52:43+08:00*%
%TF.ProjectId,Therapia_EEG-HRV,54686572-6170-4696-915f-4545472d4852,rev?*%
%TF.SameCoordinates,Original*%
%TF.FileFunction,Copper,L4,Bot*%
%TF.FilePolarity,Positive*%
%FSLAX46Y46*%
G04 Gerber Fmt 4.6, Leading zero omitted, Abs format (unit mm)*
G04 Created by KiCad (PCBNEW 10.0.5) date 2026-08-28 17:52:43*
%MOMM*%
%LPD*%
G01*
G04 APERTURE LIST*
%TA.AperFunction,ComponentPad*%
%ADD10R,1.524000X1.524000*%
%TD*%
%TA.AperFunction,ComponentPad*%
%ADD11C,1.524000*%
%TD*%
%TA.AperFunction,ComponentPad*%
%ADD12O,2.000000X1.100000*%
%TD*%
%TA.AperFunction,ComponentPad*%
%ADD13O,1.800000X1.200000*%
%TD*%
%TA.AperFunction,ViaPad*%
%ADD14C,0.609500*%
%TD*%
%TA.AperFunction,ViaPad*%
%ADD15C,0.609600*%
%TD*%
%TA.AperFunction,Conductor*%
%ADD16C,0.203000*%
%TD*%
%TA.AperFunction,Conductor*%
%ADD17C,0.254000*%
%TD*%
%TA.AperFunction,Conductor*%
%ADD18C,0.203200*%
%TD*%
%TA.AperFunction,Conductor*%
%ADD19C,0.152500*%
%TD*%
%TA.AperFunction,Conductor*%
%ADD20C,0.305000*%
%TD*%
G04 APERTURE END LIST*
D10*
%TO.P,J2,1*%
%TO.N,FP1_ELEC*%
X123556000Y-115204500D03*
D11*
%TO.P,J2,2*%
%TO.N,FP2_ELEC*%
X123556000Y-112664500D03*
%TO.P,J2,3*%
%TO.N,CH3_ELEC*%
X123556000Y-110124500D03*
%TO.P,J2,4*%
%TO.N,ECGP_ELEC*%
X123556000Y-107584500D03*
%TO.P,J2,5*%
%TO.N,ECGN_ELEC*%
X123556000Y-105044500D03*
%TO.P,J2,6*%
%TO.N,CH5_ELEC*%
X123556000Y-102504500D03*
%TO.P,J2,7*%
%TO.N,CH6_ELEC*%
X123556000Y-99964500D03*
%TO.P,J2,8*%
%TO.N,CH7_ELEC*%
X123556000Y-97424500D03*
%TO.P,J2,9*%
%TO.N,CH8_ELEC*%
X123556000Y-94884500D03*
%TO.P,J2,10*%
%TO.N,A2_ELEC*%
X123556000Y-92344500D03*
%TO.P,J2,11*%
%TO.N,A1_ELEC*%
X123556000Y-89804500D03*
%TO.P,J2,12*%
%TO.N,CHASSIS_GND*%
X123556000Y-87264500D03*
%TD*%
D12*
%TO.P,J1,13*%
%TO.N,CHASSIS_GND*%
X176341000Y-115313000D03*
D13*
X180541000Y-115313000D03*
D12*
%TO.P,J1,14*%
X176341000Y-106663000D03*
D13*
X180541000Y-106663000D03*
%TD*%
D14*
%TO.N,GND*%
X134922500Y-100142000D03*
X171308000Y-111496000D03*
X143152000Y-110480000D03*
X148918000Y-95266500D03*
X164450000Y-97018000D03*
D15*
X151204000Y-100221000D03*
D14*
X134922500Y-98643500D03*
X152817000Y-101844000D03*
X134922500Y-107635000D03*
X161402000Y-120132000D03*
X146356500Y-118862000D03*
X150886500Y-88483500D03*
X134922500Y-112131000D03*
X146670000Y-115251500D03*
X149781500Y-95266500D03*
X140523000Y-92281000D03*
X134922500Y-97145000D03*
X146263500Y-112055000D03*
X176273500Y-93081000D03*
X156576000Y-113274000D03*
X134922500Y-92649000D03*
X175791000Y-107787500D03*
X174203500Y-110378500D03*
X155611000Y-106111000D03*
X157058500Y-117922000D03*
X149718000Y-88483500D03*
X172933500Y-112105500D03*
X134922500Y-109134000D03*
X149210000Y-116919000D03*
X151750000Y-121973500D03*
X134922500Y-104638000D03*
X146911500Y-112766000D03*
X134922500Y-95646500D03*
X134922500Y-113629500D03*
X134922500Y-94148000D03*
X134922500Y-101641000D03*
X155611000Y-89957000D03*
X141272500Y-110480000D03*
X176134000Y-98605500D03*
X156195000Y-107876500D03*
X155661500Y-113972500D03*
X158430000Y-113045500D03*
X155763000Y-111153000D03*
X165618500Y-98237000D03*
X155560000Y-121601500D03*
X134922500Y-91150500D03*
X146162000Y-86803500D03*
X165618500Y-97018000D03*
X148448000Y-117791500D03*
X156068000Y-119932500D03*
X164958000Y-120077500D03*
X152715000Y-119624000D03*
X148956000Y-120957500D03*
X148372000Y-114595000D03*
X159116000Y-110035500D03*
X141272500Y-112766000D03*
X174864000Y-117338000D03*
X141996500Y-92128500D03*
X176134000Y-95439500D03*
X164450000Y-98237000D03*
X143152000Y-112766000D03*
X144130000Y-114861500D03*
X152817000Y-105959000D03*
X134922500Y-110632500D03*
X134922500Y-103139500D03*
X148041500Y-82641500D03*
X172578000Y-103495000D03*
X144435000Y-123408500D03*
X174661000Y-103241000D03*
X134922500Y-106136500D03*
X177010500Y-87620000D03*
X176273500Y-91811000D03*
X142352000Y-114489500D03*
X153718500Y-112766000D03*
X176896000Y-105705000D03*
D15*
X179433000Y-123402500D03*
D14*
X171308000Y-110061000D03*
X150175000Y-123459500D03*
X147686000Y-88483500D03*
X178166000Y-107432000D03*
%TO.N,VNEG5*%
X143825000Y-122570500D03*
X148854500Y-122215000D03*
X139101000Y-122926000D03*
%TO.N,LM_CAP_P*%
X146467000Y-123231000D03*
X146467000Y-122469000D03*
%TO.N,VDD_ESP*%
X174610000Y-83048000D03*
X156195000Y-109019500D03*
X157223500Y-107305000D03*
X155763000Y-112855000D03*
X157846000Y-110365500D03*
X174610000Y-84686500D03*
X168006000Y-115763000D03*
X155661500Y-115712500D03*
X157846000Y-83302000D03*
X148245000Y-85080000D03*
X170622000Y-119624000D03*
X160894000Y-116068000D03*
X168006000Y-117135000D03*
%TO.N,SRB1*%
X126604000Y-94148000D03*
X130160000Y-89144000D03*
X126604000Y-97145000D03*
X126604000Y-112131000D03*
X142657000Y-108981500D03*
X126604000Y-109134000D03*
X126604000Y-100142000D03*
X126604000Y-91150500D03*
X126604000Y-106136500D03*
%TO.N,IN7N*%
X136256000Y-94148000D03*
X133525500Y-94148000D03*
%TO.N,IN8N*%
X133525500Y-91150500D03*
X136256000Y-91150500D03*
%TO.N,IN6N*%
X136256000Y-97145000D03*
X133525500Y-97145000D03*
%TO.N,IN5N*%
X133525500Y-100142000D03*
X136256000Y-100142000D03*
%TO.N,IN4N*%
X133525500Y-103139500D03*
X136256000Y-103139500D03*
%TO.N,IN3N*%
X133525500Y-106136500D03*
X136256000Y-106136500D03*
%TO.N,IN2N*%
X136256000Y-109134000D03*
X133525500Y-109134000D03*
%TO.N,IN1N*%
X133525500Y-112131000D03*
X136256000Y-112131000D03*
%TO.N,AVDD*%
X145997000Y-92700000D03*
X144912500Y-95087500D03*
X144689000Y-108956000D03*
X144130000Y-116881000D03*
X147411500Y-95087500D03*
X145031500Y-112766000D03*
X140015000Y-119624000D03*
X140015000Y-111242000D03*
X142161500Y-110480000D03*
X146670000Y-113985000D03*
X143419000Y-109769000D03*
X150886500Y-94198500D03*
X143292000Y-111343500D03*
X146411000Y-95087500D03*
X140282000Y-110480000D03*
X140828000Y-111394500D03*
X141996500Y-92979500D03*
X140523000Y-93119000D03*
X143431500Y-92700000D03*
X148283000Y-92700000D03*
%TO.N,AVSS*%
X141209000Y-91303000D03*
X148867000Y-112766000D03*
X145705000Y-113782000D03*
X154696500Y-111496000D03*
X151280000Y-110480000D03*
X140625000Y-113528000D03*
X149908500Y-109007000D03*
X152575500Y-112766000D03*
X143919000Y-109184500D03*
X154036000Y-116068000D03*
X151496000Y-113782000D03*
X142161500Y-112766000D03*
X145920500Y-112766000D03*
X146911500Y-110480000D03*
X148422500Y-115992000D03*
X145095000Y-109616500D03*
X148791000Y-110480000D03*
X151940500Y-112766000D03*
X149210000Y-115217000D03*
X144079000Y-113782000D03*
X145654000Y-91557000D03*
%TO.N,VCAP4*%
X146911500Y-109007000D03*
X147686000Y-114442500D03*
%TO.N,VCAP1*%
X147909500Y-109007000D03*
D15*
X151750000Y-116527000D03*
X150302000Y-114341000D03*
D14*
X150810000Y-114341000D03*
%TO.N,ADS_PWDN_N*%
X153426500Y-104689000D03*
X174356000Y-101971000D03*
X153375500Y-106771500D03*
X153274000Y-109057500D03*
X152334000Y-85486500D03*
%TO.N,ADS_RESET_N*%
X151191000Y-85689500D03*
X150353000Y-104346000D03*
X172463500Y-106797000D03*
X145349000Y-85435500D03*
%TO.N,ADS_START*%
X153223000Y-103571000D03*
X171193500Y-106924000D03*
%TO.N,ADS_CS_N*%
X146162000Y-85232500D03*
X172832000Y-86147000D03*
X167383500Y-89271000D03*
X154341000Y-103266500D03*
%TO.N,ADS_DRDY_N*%
X151597500Y-85029000D03*
X171740000Y-104943000D03*
D15*
%TO.N,VCAP3*%
X146912000Y-97564000D03*
X144118000Y-95190000D03*
D14*
%TO.N,BIAS_INV*%
X144104500Y-91735000D03*
X141793000Y-97780000D03*
%TO.N,BIAS_OUT_INT*%
X143165000Y-95138500D03*
D15*
X141885200Y-90414000D03*
D14*
X149616500Y-91684000D03*
X148905000Y-88788500D03*
X130490000Y-87721500D03*
%TO.N,SPI_SCK*%
X171701500Y-85740500D03*
X166113500Y-89271000D03*
%TO.N,USB_DP*%
X162799000Y-116169500D03*
X175880000Y-102555000D03*
X175778500Y-104943000D03*
X174762500Y-111140500D03*
%TO.N,USB_DM*%
X178166000Y-104358500D03*
X174762500Y-112105500D03*
X178356500Y-101742500D03*
X164069000Y-116169500D03*
%TO.N,USB_VBUS_RAW*%
X173695500Y-111191000D03*
X173441500Y-108041500D03*
X176820000Y-112969000D03*
X176997500Y-99558000D03*
%TO.N,CH_RTS_N*%
X159929000Y-111089500D03*
X163027500Y-109769000D03*
X168006000Y-111191000D03*
%TO.N,USB_5V*%
X166990000Y-122062500D03*
X155560000Y-123434000D03*
X171308000Y-112817000D03*
X139101000Y-120640000D03*
X177912000Y-97983000D03*
X151750000Y-123739000D03*
X178521500Y-117846000D03*
X176134000Y-100371000D03*
X178521500Y-116169500D03*
X139101000Y-118608000D03*
X157160000Y-111064000D03*
X176134000Y-96929000D03*
X154595000Y-118709500D03*
%TO.N,V_3V3_IN*%
X176566000Y-117795000D03*
X166990000Y-120386000D03*
%TO.N,CHASSIS_GND*%
X179741000Y-105400000D03*
%TO.N,V_NLDO_IN*%
X141031000Y-122672000D03*
X150480000Y-122773500D03*
%TO.N,ESP_IO0*%
X164996000Y-109464000D03*
X174864000Y-87620000D03*
%TO.N,SPI_MISO*%
X164843500Y-89271000D03*
X167891500Y-85740500D03*
%TO.N,ESP_RXD*%
X158989000Y-117719000D03*
X179182000Y-103571000D03*
%TO.N,ESP_TXD*%
X160259000Y-119421000D03*
X178826500Y-105654000D03*
%TD*%
%TO.N,VNEG5*%
D16*
X144079000Y-123942000D02*
X148753000Y-123942000D01*
X139659500Y-123942000D02*
X139405500Y-123637000D01*
X143571000Y-123942000D02*
X139659500Y-123942000D01*
X143825000Y-122570500D02*
X143825000Y-123586500D01*
X149261000Y-122418000D02*
X148854500Y-122215000D01*
X143825000Y-123586500D02*
X144079000Y-123942000D01*
X139101000Y-123332500D02*
X139101000Y-122926000D01*
X143825000Y-123586500D02*
X143571000Y-123942000D01*
X139405500Y-123586500D02*
X139101000Y-123332500D01*
X149261000Y-123434000D02*
X149261000Y-122418000D01*
X148753000Y-123942000D02*
X149057500Y-123688000D01*
X149057500Y-123688000D02*
X149261000Y-123434000D01*
%TO.N,LM_CAP_P*%
X146467000Y-123231000D02*
X146467000Y-122469000D01*
%TO.N,VDD_ESP*%
D17*
X168565000Y-117287000D02*
X168006000Y-117135000D01*
X169022000Y-117846000D02*
X168565000Y-117287000D01*
X170622000Y-119624000D02*
X169022000Y-117846000D01*
%TO.N,SRB1*%
X126604000Y-108499000D02*
X126604000Y-109134000D01*
D16*
X126604000Y-108499000D02*
X142657000Y-108499000D01*
D17*
X126604000Y-91150500D02*
X126604000Y-94148000D01*
X126604000Y-109134000D02*
X126604000Y-112131000D01*
X126604000Y-97145000D02*
X126604000Y-100142000D01*
X130160000Y-89144000D02*
X130160000Y-89906000D01*
X126604000Y-106136500D02*
X126604000Y-108499000D01*
X126604000Y-89906000D02*
X126604000Y-91150500D01*
D16*
X142657000Y-108981500D02*
X142657000Y-108499000D01*
D17*
X130160000Y-89906000D02*
X126604000Y-89906000D01*
X126604000Y-94148000D02*
X126604000Y-97145000D01*
X126604000Y-100142000D02*
X126604000Y-106136500D01*
%TO.N,IN7N*%
X135697000Y-94706500D02*
X136256000Y-94148000D01*
X133525500Y-94148000D02*
X133970000Y-94706500D01*
X133970000Y-94706500D02*
X135697000Y-94706500D01*
%TO.N,IN8N*%
X133970000Y-91709500D02*
X135697000Y-91709500D01*
X133525500Y-91150500D02*
X133970000Y-91709500D01*
X135697000Y-91709500D02*
X136256000Y-91150500D01*
%TO.N,IN6N*%
X133525500Y-97145000D02*
X133970000Y-97704000D01*
X135697000Y-97704000D02*
X136256000Y-97145000D01*
X133970000Y-97704000D02*
X135697000Y-97704000D01*
%TO.N,IN5N*%
X133970000Y-100701000D02*
X135697000Y-100701000D01*
X133525500Y-100142000D02*
X133970000Y-100701000D01*
X135697000Y-100701000D02*
X136256000Y-100142000D01*
%TO.N,IN4N*%
X135697000Y-103698000D02*
X136256000Y-103139500D01*
X133525500Y-103139500D02*
X133970000Y-103698000D01*
X133970000Y-103698000D02*
X135697000Y-103698000D01*
%TO.N,IN3N*%
X133970000Y-106695500D02*
X135697000Y-106695500D01*
X133525500Y-106136500D02*
X133970000Y-106695500D01*
X135697000Y-106695500D02*
X136256000Y-106136500D01*
%TO.N,IN2N*%
X133970000Y-109692500D02*
X135697000Y-109692500D01*
X133525500Y-109134000D02*
X133970000Y-109692500D01*
X135697000Y-109692500D02*
X136256000Y-109134000D01*
%TO.N,IN1N*%
X133525500Y-112131000D02*
X133970000Y-112690000D01*
X133970000Y-112690000D02*
X135697000Y-112690000D01*
X135697000Y-112690000D02*
X136256000Y-112131000D01*
%TO.N,AVDD*%
D16*
X141996500Y-113883500D02*
X142707500Y-113883500D01*
X141844000Y-114087000D02*
X141996500Y-113883500D01*
X144333000Y-114341000D02*
X144485500Y-114087000D01*
X145095000Y-114087000D02*
X145044500Y-112918500D01*
X144485500Y-114087000D02*
X145095000Y-114087000D01*
X142707500Y-113883500D02*
X142860000Y-114087000D01*
X146670000Y-113985000D02*
X146771500Y-114087000D01*
X145197000Y-114696500D02*
X145400000Y-115103000D01*
X145095000Y-114087000D02*
X145197000Y-114696500D01*
X140320000Y-114087000D02*
X140015000Y-114239000D01*
X146416000Y-114544000D02*
X146568500Y-114137500D01*
X140320000Y-114087000D02*
X141844000Y-114087000D01*
X140015000Y-119624000D02*
X140015000Y-116881000D01*
X143673000Y-114087000D02*
X143825000Y-114341000D01*
X140015000Y-111801000D02*
X140421500Y-111496000D01*
X145400000Y-115103000D02*
X146111000Y-115103000D01*
X145044500Y-112918500D02*
X145044500Y-112766000D01*
X140421500Y-111496000D02*
X140828000Y-111394500D01*
X140015000Y-111801000D02*
X140015000Y-111242000D01*
X142860000Y-114087000D02*
X143673000Y-114087000D01*
X146568500Y-114137500D02*
X146670000Y-113985000D01*
X140015000Y-114239000D02*
X140015000Y-111801000D01*
X143825000Y-114341000D02*
X144333000Y-114341000D01*
X146111000Y-115103000D02*
X146416000Y-114544000D01*
X140015000Y-116881000D02*
X144130000Y-116881000D01*
X140015000Y-116881000D02*
X140015000Y-114239000D01*
%TO.N,AVSS*%
D17*
X143919000Y-109184500D02*
X144079000Y-109972000D01*
X145705000Y-113782000D02*
X145705000Y-111496000D01*
X144079000Y-113782000D02*
X144079000Y-109972000D01*
X151496000Y-113782000D02*
X151496000Y-110988000D01*
X149908500Y-109007000D02*
X151496000Y-110988000D01*
X145095000Y-109616500D02*
X145705000Y-111496000D01*
%TO.N,VCAP4*%
D16*
X147381000Y-114036000D02*
X147584500Y-114290000D01*
X147584500Y-114290000D02*
X147686000Y-114442500D01*
D17*
X146911500Y-109007000D02*
X148067000Y-111750000D01*
X148067000Y-111750000D02*
X147368500Y-114036000D01*
%TO.N,VCAP1*%
X147909500Y-109007000D02*
X148245000Y-109718000D01*
D18*
X151750000Y-116527000D02*
X150302000Y-114341000D01*
D17*
X149819500Y-114544000D02*
X150810000Y-114544000D01*
X149819500Y-109718000D02*
X149819500Y-114544000D01*
X150810000Y-114544000D02*
X150810000Y-114341000D01*
X148245000Y-109718000D02*
X149819500Y-109718000D01*
%TO.N,ADS_PWDN_N*%
D19*
X174356000Y-101971000D02*
X174000500Y-102250500D01*
D16*
X152410500Y-85994500D02*
X152410500Y-86197500D01*
X156931500Y-108854500D02*
X156779000Y-109057500D01*
X152258000Y-107127000D02*
X153426500Y-107127000D01*
X155611000Y-109413000D02*
X155611000Y-109057500D01*
X156779000Y-109413000D02*
X156627000Y-109565500D01*
X153375500Y-106771500D02*
X152766000Y-106975000D01*
X152258000Y-86401000D02*
X152258000Y-107127000D01*
X152410500Y-86197500D02*
X152258000Y-86401000D01*
X153426500Y-104638000D02*
X153426500Y-107127000D01*
X174000500Y-108854500D02*
X156931500Y-108854500D01*
X155611000Y-109057500D02*
X153274000Y-109057500D01*
X156779000Y-109057500D02*
X156779000Y-109413000D01*
X152766000Y-106975000D02*
X152410500Y-107076500D01*
X156627000Y-109565500D02*
X155763000Y-109565500D01*
X152410500Y-107076500D02*
X152258000Y-107127000D01*
X152410500Y-85994500D02*
X152334000Y-85486500D01*
X155763000Y-109565500D02*
X155611000Y-109413000D01*
D19*
X174000500Y-102250500D02*
X174000500Y-108854500D01*
%TO.N,ADS_RESET_N*%
D16*
X151191000Y-85689500D02*
X151089500Y-85842000D01*
X151089500Y-86248500D02*
X150353000Y-86858000D01*
X173340000Y-106517500D02*
X172832000Y-106670000D01*
X173340000Y-82032000D02*
X173340000Y-106517500D01*
X145349000Y-85435500D02*
X145349000Y-87366000D01*
X145349000Y-87366000D02*
X150353000Y-87366000D01*
X150353000Y-87366000D02*
X150353000Y-104346000D01*
X150353000Y-86858000D02*
X150353000Y-87366000D01*
X145349000Y-85435500D02*
X145349000Y-82032000D01*
X151089500Y-85842000D02*
X151089500Y-86248500D01*
X172832000Y-106670000D02*
X172476500Y-106797000D01*
X173340000Y-82032000D02*
X145349000Y-82032000D01*
X150353000Y-86604000D02*
X150353000Y-86858000D01*
%TO.N,ADS_START*%
X153223000Y-104130000D02*
X154569500Y-104130000D01*
X154569500Y-106746000D02*
X170800000Y-106746000D01*
X154569500Y-104130000D02*
X154569500Y-106746000D01*
X153223000Y-103571000D02*
X153223000Y-104130000D01*
X170800000Y-106746000D02*
X171193500Y-106924000D01*
%TO.N,ADS_CS_N*%
X146568500Y-84419500D02*
X146162000Y-84775000D01*
X154239000Y-84419500D02*
X146568500Y-84419500D01*
X154239000Y-103774500D02*
X154239000Y-103419000D01*
X172832000Y-86147000D02*
X167383500Y-88966000D01*
X154239000Y-103419000D02*
X154239000Y-84419500D01*
X146162000Y-84775000D02*
X146162000Y-85232500D01*
X167383500Y-88966000D02*
X167383500Y-89271000D01*
X154341000Y-103266500D02*
X154239000Y-103419000D01*
%TO.N,ADS_DRDY_N*%
X151724500Y-86170096D02*
X151724500Y-85232500D01*
X151724500Y-85232500D02*
X151597500Y-85029000D01*
X151724500Y-86213544D02*
X151724500Y-85232500D01*
X151724500Y-108473500D02*
X151724500Y-86213544D01*
X151724500Y-108473500D02*
X151724500Y-86170096D01*
X171740000Y-104943000D02*
X171740000Y-108473500D01*
X171740000Y-108473500D02*
X151724500Y-108473500D01*
%TO.N,VCAP3*%
D18*
X144118000Y-95190000D02*
X146912000Y-97564000D01*
%TO.N,BIAS_INV*%
D17*
X144104500Y-93665000D02*
X142733000Y-93665000D01*
X142733000Y-93665000D02*
X141793000Y-95189000D01*
X141793000Y-95189000D02*
X141793000Y-97780000D01*
X144104500Y-91735000D02*
X144104500Y-93665000D01*
%TO.N,BIAS_OUT_INT*%
D16*
X148905000Y-88788500D02*
X148905000Y-88788500D01*
D17*
X148956000Y-91684000D02*
X148956000Y-94275000D01*
X148956000Y-94275000D02*
X143165000Y-94275000D01*
X143165000Y-94275000D02*
X143165000Y-95138500D01*
X149616500Y-91684000D02*
X148956000Y-91684000D01*
X130490000Y-87721500D02*
X148702000Y-87721500D01*
D18*
X141885200Y-90414000D02*
X141885200Y-87721500D01*
D16*
X148905000Y-88788500D02*
X148905000Y-88788500D01*
D19*
X148905000Y-88788500D02*
X148905000Y-88788500D01*
D16*
X148702000Y-87721500D02*
X148905000Y-88788500D01*
%TO.N,SPI_SCK*%
X171701500Y-85740500D02*
X166113500Y-88966000D01*
X166113500Y-88966000D02*
X166113500Y-89271000D01*
%TO.N,USB_DP*%
X175778500Y-108803500D02*
X175778500Y-110835500D01*
X175778500Y-102199500D02*
X175778500Y-102403000D01*
D19*
X174813000Y-108448000D02*
X175626000Y-108702000D01*
X175118000Y-105146000D02*
X174688500Y-105473500D01*
D16*
X174153000Y-111496000D02*
X174153000Y-113426500D01*
D19*
X174711500Y-108041500D02*
X174711500Y-105501500D01*
D16*
X175778500Y-110835500D02*
X175067000Y-111140500D01*
D19*
X175626000Y-108702000D02*
X175778500Y-108803500D01*
X175778500Y-104943000D02*
X175118000Y-105146000D01*
X174711500Y-108041500D02*
X174813000Y-108448000D01*
D16*
X164602500Y-113426500D02*
X162799000Y-115103000D01*
D19*
X174688500Y-105473500D02*
X174711500Y-105501500D01*
D16*
X175067000Y-111140500D02*
X174762500Y-111140500D01*
X175778500Y-102403000D02*
X175880000Y-102555000D01*
X174762500Y-111140500D02*
X174457500Y-111293000D01*
D19*
X175118000Y-105146000D02*
X174688500Y-105473500D01*
D16*
X162799000Y-115103000D02*
X162799000Y-116169500D01*
X174457500Y-111293000D02*
X174153000Y-111496000D01*
X174153000Y-113426500D02*
X164602500Y-113426500D01*
X175778500Y-102403000D02*
X175778500Y-104943000D01*
D19*
X174688500Y-105473500D02*
X174711500Y-105501500D01*
%TO.N,USB_DM*%
D16*
X178356500Y-101742500D02*
X178356500Y-103876000D01*
X178356500Y-103876000D02*
X178166000Y-104358500D01*
X176337000Y-105146000D02*
X176185000Y-105298500D01*
D19*
X178166000Y-104358500D02*
X178166000Y-104358500D01*
D16*
X176185000Y-104384000D02*
X176337000Y-104536500D01*
X174762500Y-112105500D02*
X174559000Y-112309000D01*
X177810500Y-100675500D02*
X177658000Y-100523000D01*
D19*
X175016500Y-108245000D02*
X175016500Y-105552500D01*
D16*
X165364500Y-113833000D02*
X164069000Y-115204500D01*
D19*
X175895000Y-105473500D02*
X175372000Y-105451000D01*
D16*
X176185000Y-108549500D02*
X176185000Y-111801000D01*
X174559000Y-112309000D02*
X174559000Y-113680500D01*
X176439000Y-104130000D02*
X176439000Y-100879000D01*
X177658000Y-100523000D02*
X176794500Y-100523000D01*
D19*
X175372000Y-105451000D02*
X175016500Y-105552500D01*
D16*
X176337000Y-104536500D02*
X176337000Y-105146000D01*
D19*
X176185000Y-105298500D02*
X175895000Y-105473500D01*
X175016500Y-108245000D02*
X176185000Y-108549500D01*
D16*
X177810500Y-104079000D02*
X177810500Y-100675500D01*
X174508500Y-113833000D02*
X174407000Y-113833000D01*
X176439000Y-104130000D02*
X176185000Y-104384000D01*
X164069000Y-115204500D02*
X164069000Y-116169500D01*
X176185000Y-111801000D02*
X175118000Y-112055000D01*
X178166000Y-104358500D02*
X178166000Y-104358500D01*
X176185000Y-108092500D02*
X176185000Y-108549500D01*
X175118000Y-112055000D02*
X174762500Y-112105500D01*
X178166000Y-104358500D02*
X177810500Y-104079000D01*
X174407000Y-113833000D02*
X165364500Y-113833000D01*
X174559000Y-113680500D02*
X174407000Y-113833000D01*
X176794500Y-100523000D02*
X176439000Y-100879000D01*
%TO.N,USB_VBUS_RAW*%
D19*
X175600500Y-99609000D02*
X176540500Y-99812000D01*
X175600500Y-87010500D02*
X175600500Y-99609000D01*
X175600500Y-87010500D02*
X173848000Y-87010500D01*
D16*
X177201000Y-109268100D02*
X177201000Y-112918500D01*
D19*
X176845000Y-99659500D02*
X176997500Y-99558000D01*
X173695500Y-87163000D02*
X173695500Y-107737000D01*
D16*
X177201000Y-112918500D02*
X176820000Y-112969000D01*
D19*
X176540500Y-99812000D02*
X176845000Y-99659500D01*
D16*
X176820000Y-112969000D02*
X176820000Y-112969000D01*
D19*
X173848000Y-87010500D02*
X173695500Y-87163000D01*
X173543000Y-107889000D02*
X173441500Y-108041500D01*
X173695500Y-107737000D02*
X173543000Y-107889000D01*
%TO.N,CH_RTS_N*%
D16*
X159929000Y-111089500D02*
X162875000Y-109972000D01*
X159929000Y-111089500D02*
X167904500Y-111089500D01*
X167904500Y-111089500D02*
X168006000Y-111191000D01*
X162875000Y-109972000D02*
X163027500Y-109769000D01*
%TO.N,USB_5V*%
X156779000Y-116881000D02*
X156068000Y-117947500D01*
X178521500Y-116169500D02*
X178521500Y-117846000D01*
X156068000Y-117947500D02*
X155052000Y-118506500D01*
X157135000Y-116474500D02*
X156779000Y-116881000D01*
X154696500Y-118659000D02*
X154595000Y-118709500D01*
X157160000Y-111064000D02*
X157135000Y-116474500D01*
X155052000Y-118506500D02*
X154696500Y-118659000D01*
X157160000Y-111064000D02*
X157160000Y-111064000D01*
%TO.N,V_3V3_IN*%
X176134000Y-118963500D02*
X176566000Y-118151000D01*
X166990000Y-120386000D02*
X174864000Y-120386000D01*
X176566000Y-118151000D02*
X176566000Y-117795000D01*
X174864000Y-120386000D02*
X176134000Y-118963500D01*
%TO.N,CHASSIS_GND*%
D19*
X179588500Y-81829000D02*
X179588500Y-102860000D01*
X179588500Y-104282500D02*
X179588500Y-105654000D01*
D20*
X124650500Y-83058000D02*
X124460000Y-82296000D01*
D19*
X179741000Y-103063000D02*
X179741000Y-104079000D01*
D20*
X123556000Y-81422500D02*
X124064000Y-81016000D01*
D19*
X179741000Y-105501500D02*
X179741000Y-105400000D01*
D20*
X123556000Y-87264500D02*
X124650500Y-83058000D01*
D19*
X178826500Y-81016000D02*
X179588500Y-81829000D01*
X179588500Y-105654000D02*
X179741000Y-105501500D01*
D20*
X124064000Y-81016000D02*
X178826500Y-81016000D01*
X178826500Y-81016000D02*
X179385000Y-81371500D01*
X123634500Y-81407000D02*
X123556000Y-81422500D01*
X179385000Y-81371500D02*
X179588500Y-81829000D01*
X124460000Y-82296000D02*
X123634500Y-81407000D01*
D19*
X179741000Y-104079000D02*
X179588500Y-104282500D01*
X179588500Y-102860000D02*
X179741000Y-103063000D01*
%TO.N,V_NLDO_IN*%
D16*
X148346500Y-121605000D02*
X150175000Y-121605000D01*
X150480000Y-122164000D02*
X150480000Y-122773500D01*
X150429000Y-121859000D02*
X150480000Y-122164000D01*
X143571000Y-121961000D02*
X143723500Y-121757500D01*
X141031000Y-122672000D02*
X141285000Y-121961000D01*
X141285000Y-121961000D02*
X143571000Y-121961000D01*
X148194000Y-121757500D02*
X148346500Y-121605000D01*
X143723500Y-121757500D02*
X144181000Y-121757500D01*
X148041500Y-121961000D02*
X148194000Y-121757500D01*
X144333000Y-121961000D02*
X148041500Y-121961000D01*
X150175000Y-121605000D02*
X150429000Y-121859000D01*
X144181000Y-121757500D02*
X144333000Y-121961000D01*
%TO.N,ESP_IO0*%
X174356000Y-105349000D02*
X174356000Y-109159000D01*
X175006000Y-104838500D02*
X174457500Y-105247500D01*
X164996000Y-109464000D02*
X174203500Y-109464000D01*
X175270500Y-88382000D02*
X175270500Y-104790500D01*
X175270500Y-104790500D02*
X175006000Y-104838500D01*
X174457500Y-105247500D02*
X174356000Y-105349000D01*
X175006000Y-104838500D02*
X174457500Y-105247500D01*
X174864000Y-87620000D02*
X175270500Y-88382000D01*
X174356000Y-109159000D02*
X174203500Y-109464000D01*
X175270500Y-104790500D02*
X175006000Y-104838500D01*
%TO.N,SPI_MISO*%
X167891500Y-85740500D02*
X164843500Y-88966000D01*
X164843500Y-88966000D02*
X164843500Y-89271000D01*
%TO.N,ESP_RXD*%
X162951500Y-116728500D02*
X162646500Y-116728500D01*
X164221500Y-116728500D02*
X163916500Y-116728500D01*
X164374000Y-116576000D02*
X164221500Y-116728500D01*
X162494000Y-116576000D02*
X158989000Y-116576000D01*
X177607000Y-114469351D02*
X177607000Y-116576000D01*
X177607000Y-116576000D02*
X164374000Y-116576000D01*
X179182000Y-103571000D02*
X179182000Y-104689000D01*
X163916500Y-116728500D02*
X163764000Y-116576000D01*
X177607000Y-107838500D02*
X177759500Y-107991000D01*
X163104000Y-116576000D02*
X162951500Y-116728500D01*
X177673000Y-114363500D02*
X177607000Y-114469351D01*
X177607000Y-113286418D02*
X177673000Y-114363500D01*
X179182000Y-104689000D02*
X178877000Y-104993500D01*
X177607000Y-108448000D02*
X177607000Y-113286418D01*
X177607000Y-105247500D02*
X177607000Y-107838500D01*
X162646500Y-116728500D02*
X162494000Y-116576000D01*
X177759500Y-107991000D02*
X177759500Y-108295500D01*
X177912000Y-104993500D02*
X177607000Y-105247500D01*
X158989000Y-116576000D02*
X158989000Y-117719000D01*
X177759500Y-108295500D02*
X177607000Y-108448000D01*
X163764000Y-116576000D02*
X163104000Y-116576000D01*
X178877000Y-104993500D02*
X177912000Y-104993500D01*
%TO.N,ESP_TXD*%
X175895000Y-120459500D02*
X175418067Y-120741500D01*
X167345500Y-120945000D02*
X166634500Y-120945000D01*
X178475532Y-120741500D02*
X177101500Y-120459500D01*
X179182000Y-106162000D02*
X179182000Y-120741500D01*
X177101500Y-120459500D02*
X175895000Y-120459500D01*
X179182000Y-120741500D02*
X178475532Y-120741500D01*
X175418067Y-120741500D02*
X167498000Y-120741500D01*
X166634500Y-120945000D02*
X166482000Y-120741500D01*
X160259000Y-120741500D02*
X160259000Y-119421000D01*
X179029500Y-105959000D02*
X179182000Y-106162000D01*
X166482000Y-120741500D02*
X160259000Y-120741500D01*
X179029500Y-105959000D02*
X178826500Y-105654000D01*
X167498000Y-120741500D02*
X167345500Y-120945000D01*
%TD*%
M02*
