%TF.GenerationSoftware,KiCad,Pcbnew,10.0.5*%
%TF.CreationDate,2026-08-28T17:59:50+08:00*%
%TF.ProjectId,Therapia_EEG-HRV,54686572-6170-4696-915f-4545472d4852,rev?*%
%TF.SameCoordinates,Original*%
%TF.FileFunction,Copper,L1,Top*%
%TF.FilePolarity,Positive*%
%FSLAX46Y46*%
G04 Gerber Fmt 4.6, Leading zero omitted, Abs format (unit mm)*
G04 Created by KiCad (PCBNEW 10.0.5) date 2026-08-28 17:59:50*
%MOMM*%
%LPD*%
G01*
G04 APERTURE LIST*
G04 Aperture macros list*
%AMRoundRect*
0 Rectangle with rounded corners*
0 $1 Rounding radius*
0 $2 $3 $4 $5 $6 $7 $8 $9 X,Y pos of 4 corners*
0 Add a 4 corners polygon primitive as box body*
4,1,4,$2,$3,$4,$5,$6,$7,$8,$9,$2,$3,0*
0 Add four circle primitives for the rounded corners*
1,1,$1+$1,$2,$3*
1,1,$1+$1,$4,$5*
1,1,$1+$1,$6,$7*
1,1,$1+$1,$8,$9*
0 Add four rect primitives between the rounded corners*
20,1,$1+$1,$2,$3,$4,$5,0*
20,1,$1+$1,$4,$5,$6,$7,0*
20,1,$1+$1,$6,$7,$8,$9,0*
20,1,$1+$1,$8,$9,$2,$3,0*%
G04 Aperture macros list end*
%TA.AperFunction,SMDPad,CuDef*%
%ADD10R,1.100000X0.600000*%
%TD*%
%TA.AperFunction,SMDPad,CuDef*%
%ADD11R,0.540000X0.500000*%
%TD*%
%TA.AperFunction,SMDPad,CuDef*%
%ADD12R,1.132500X1.377000*%
%TD*%
%TA.AperFunction,SMDPad,CuDef*%
%ADD13R,0.565500X0.540000*%
%TD*%
%TA.AperFunction,SMDPad,CuDef*%
%ADD14O,1.800000X0.280000*%
%TD*%
%TA.AperFunction,SMDPad,CuDef*%
%ADD15O,0.280000X1.800000*%
%TD*%
%TA.AperFunction,SMDPad,CuDef*%
%ADD16R,0.800000X0.900000*%
%TD*%
%TA.AperFunction,SMDPad,CuDef*%
%ADD17R,0.500000X0.540000*%
%TD*%
%TA.AperFunction,SMDPad,CuDef*%
%ADD18R,0.806500X0.864000*%
%TD*%
%TA.AperFunction,SMDPad,CuDef*%
%ADD19R,1.410000X1.350000*%
%TD*%
%TA.AperFunction,SMDPad,CuDef*%
%ADD20R,0.532000X1.072000*%
%TD*%
%TA.AperFunction,SMDPad,CuDef*%
%ADD21R,0.864000X0.806500*%
%TD*%
%TA.AperFunction,SMDPad,CuDef*%
%ADD22R,0.900000X0.800000*%
%TD*%
%TA.AperFunction,SMDPad,CuDef*%
%ADD23R,1.728000X1.190000*%
%TD*%
%TA.AperFunction,SMDPad,CuDef*%
%ADD24R,1.377000X1.132500*%
%TD*%
%TA.AperFunction,SMDPad,CuDef*%
%ADD25R,0.800000X0.800000*%
%TD*%
%TA.AperFunction,ComponentPad*%
%ADD26R,1.524000X1.524000*%
%TD*%
%TA.AperFunction,ComponentPad*%
%ADD27C,1.524000*%
%TD*%
%TA.AperFunction,SMDPad,CuDef*%
%ADD28R,1.000000X0.550000*%
%TD*%
%TA.AperFunction,SMDPad,CuDef*%
%ADD29R,1.100000X0.550000*%
%TD*%
%TA.AperFunction,SMDPad,CuDef*%
%ADD30R,1.100000X0.300000*%
%TD*%
%TA.AperFunction,ComponentPad*%
%ADD31O,2.000000X1.100000*%
%TD*%
%TA.AperFunction,ComponentPad*%
%ADD32O,1.800000X1.200000*%
%TD*%
%TA.AperFunction,SMDPad,CuDef*%
%ADD33R,1.037500X0.532000*%
%TD*%
%TA.AperFunction,SMDPad,CuDef*%
%ADD34R,0.950000X2.100000*%
%TD*%
%TA.AperFunction,SMDPad,CuDef*%
%ADD35R,2.100000X0.950000*%
%TD*%
%TA.AperFunction,SMDPad,CuDef*%
%ADD36R,0.900000X0.900000*%
%TD*%
%TA.AperFunction,SMDPad,CuDef*%
%ADD37RoundRect,0.250000X0.650000X-0.325000X0.650000X0.325000X-0.650000X0.325000X-0.650000X-0.325000X0*%
%TD*%
%TA.AperFunction,SMDPad,CuDef*%
%ADD38R,2.500000X1.100000*%
%TD*%
%TA.AperFunction,SMDPad,CuDef*%
%ADD39R,2.340000X3.600000*%
%TD*%
%TA.AperFunction,SMDPad,CuDef*%
%ADD40O,0.560000X1.745000*%
%TD*%
%TA.AperFunction,ViaPad*%
%ADD41C,0.609500*%
%TD*%
%TA.AperFunction,ViaPad*%
%ADD42C,0.609600*%
%TD*%
%TA.AperFunction,Conductor*%
%ADD43C,0.203000*%
%TD*%
%TA.AperFunction,Conductor*%
%ADD44C,0.254000*%
%TD*%
%TA.AperFunction,Conductor*%
%ADD45C,0.152500*%
%TD*%
%TA.AperFunction,Conductor*%
%ADD46C,0.203200*%
%TD*%
%TA.AperFunction,Conductor*%
%ADD47C,0.305000*%
%TD*%
G04 APERTURE END LIST*
D10*
%TO.P,LM2664,1*%
%TO.N,GND*%
X145480000Y-123368000D03*
%TO.P,LM2664,2*%
%TO.N,VNEG5*%
X145480000Y-122418000D03*
%TO.P,LM2664,3*%
%TO.N,LM_CAP_N*%
X145480000Y-121468000D03*
%TO.P,LM2664,4*%
%TO.N,V5_LM_IN*%
X142780000Y-121468000D03*
%TO.P,LM2664,5*%
X142780000Y-122418000D03*
%TO.P,LM2664,6*%
%TO.N,LM_CAP_P*%
X142780000Y-123368000D03*
%TD*%
D11*
%TO.P,C_3V3_H,1*%
%TO.N,VDD_ESP*%
X155661500Y-115014000D03*
%TO.P,C_3V3_H,2*%
%TO.N,GND*%
X155661500Y-114174000D03*
%TD*%
D12*
%TO.P,R_SRB_SER,1*%
%TO.N,SRB1*%
X129636000Y-89144000D03*
%TO.P,R_SRB_SER,2*%
%TO.N,A2_ELEC*%
X127636000Y-89144000D03*
%TD*%
D13*
%TO.P,R_IN7N,1*%
%TO.N,SRB1*%
X128203000Y-94148000D03*
%TO.P,R_IN7N,2*%
%TO.N,IN7N*%
X129069000Y-94148000D03*
%TD*%
D14*
%TO.P,U_ADS,1*%
%TO.N,IN8N*%
X140612000Y-98348000D03*
%TO.P,U_ADS,2*%
%TO.N,IN8P*%
X140612000Y-98848000D03*
%TO.P,U_ADS,3*%
%TO.N,IN7N*%
X140612000Y-99348000D03*
%TO.P,U_ADS,4*%
%TO.N,IN7P*%
X140612000Y-99848000D03*
%TO.P,U_ADS,5*%
%TO.N,IN6N*%
X140612000Y-100348000D03*
%TO.P,U_ADS,6*%
%TO.N,IN6P*%
X140612000Y-100848000D03*
%TO.P,U_ADS,7*%
%TO.N,IN5N*%
X140612000Y-101348000D03*
%TO.P,U_ADS,8*%
%TO.N,IN5P*%
X140612000Y-101848000D03*
%TO.P,U_ADS,9*%
%TO.N,IN4N*%
X140612000Y-102348000D03*
%TO.P,U_ADS,10*%
%TO.N,IN4P*%
X140612000Y-102848000D03*
%TO.P,U_ADS,11*%
%TO.N,IN3N*%
X140612000Y-103348000D03*
%TO.P,U_ADS,12*%
%TO.N,IN3P*%
X140612000Y-103848000D03*
%TO.P,U_ADS,13*%
%TO.N,IN2N*%
X140612000Y-104348000D03*
%TO.P,U_ADS,14*%
%TO.N,IN2P*%
X140612000Y-104848000D03*
%TO.P,U_ADS,15*%
%TO.N,IN1N*%
X140612000Y-105348000D03*
%TO.P,U_ADS,16*%
%TO.N,IN1P*%
X140612000Y-105848000D03*
D15*
%TO.P,U_ADS,17*%
%TO.N,SRB1*%
X142412000Y-107648000D03*
%TO.P,U_ADS,18*%
X142912000Y-107648000D03*
%TO.P,U_ADS,19*%
%TO.N,AVDD*%
X143412000Y-107648000D03*
%TO.P,U_ADS,20*%
%TO.N,AVSS*%
X143912000Y-107648000D03*
%TO.P,U_ADS,21*%
%TO.N,AVDD*%
X144412000Y-107648000D03*
%TO.P,U_ADS,22*%
X144912000Y-107648000D03*
%TO.P,U_ADS,23*%
%TO.N,AVSS*%
X145412000Y-107648000D03*
%TO.P,U_ADS,24*%
%TO.N,VREFP*%
X145912000Y-107648000D03*
%TO.P,U_ADS,25*%
%TO.N,AVSS*%
X146412000Y-107648000D03*
%TO.P,U_ADS,26*%
%TO.N,VCAP4*%
X146912000Y-107648000D03*
%TO.P,U_ADS,27*%
%TO.N,N/C*%
X147412000Y-107648000D03*
%TO.P,U_ADS,28*%
%TO.N,VCAP1*%
X147912000Y-107648000D03*
%TO.P,U_ADS,29*%
%TO.N,N/C*%
X148412000Y-107648000D03*
%TO.P,U_ADS,30*%
%TO.N,VCAP2*%
X148912000Y-107648000D03*
%TO.P,U_ADS,31*%
%TO.N,GND*%
X149412000Y-107648000D03*
%TO.P,U_ADS,32*%
%TO.N,AVSS*%
X149912000Y-107648000D03*
D14*
%TO.P,U_ADS,33*%
%TO.N,GND*%
X151712000Y-105848000D03*
%TO.P,U_ADS,34*%
%TO.N,ADS_DIN_LOC*%
X151712000Y-105348000D03*
%TO.P,U_ADS,35*%
%TO.N,ADS_PWDN_N*%
X151712000Y-104848000D03*
%TO.P,U_ADS,36*%
%TO.N,ADS_RESET_N*%
X151712000Y-104348000D03*
%TO.P,U_ADS,37*%
%TO.N,N/C*%
X151712000Y-103848000D03*
%TO.P,U_ADS,38*%
%TO.N,ADS_START*%
X151712000Y-103348000D03*
%TO.P,U_ADS,39*%
%TO.N,ADS_CS_N*%
X151712000Y-102848000D03*
%TO.P,U_ADS,40*%
%TO.N,ADS_SCLK_LOC*%
X151712000Y-102348000D03*
%TO.P,U_ADS,41*%
%TO.N,GND*%
X151712000Y-101848000D03*
%TO.P,U_ADS,42*%
X151712000Y-101348000D03*
%TO.P,U_ADS,43*%
%TO.N,ADS_DOUT_LOC*%
X151712000Y-100848000D03*
%TO.P,U_ADS,44*%
%TO.N,GND*%
X151712000Y-100348000D03*
%TO.P,U_ADS,45*%
X151712000Y-99848000D03*
%TO.P,U_ADS,46*%
X151712000Y-99348000D03*
%TO.P,U_ADS,47*%
%TO.N,ADS_DRDY_N*%
X151712000Y-98848000D03*
%TO.P,U_ADS,48*%
%TO.N,DVDD*%
X151712000Y-98348000D03*
D15*
%TO.P,U_ADS,49*%
%TO.N,GND*%
X149912000Y-96548000D03*
%TO.P,U_ADS,50*%
%TO.N,DVDD*%
X149412000Y-96548000D03*
%TO.P,U_ADS,51*%
%TO.N,GND*%
X148912000Y-96548000D03*
%TO.P,U_ADS,52*%
%TO.N,DVDD*%
X148412000Y-96548000D03*
%TO.P,U_ADS,53*%
%TO.N,AVSS*%
X147912000Y-96548000D03*
%TO.P,U_ADS,54*%
%TO.N,AVDD*%
X147412000Y-96548000D03*
%TO.P,U_ADS,55*%
%TO.N,VCAP3*%
X146912000Y-96548000D03*
%TO.P,U_ADS,56*%
%TO.N,AVDD*%
X146412000Y-96548000D03*
%TO.P,U_ADS,57*%
%TO.N,AVSS*%
X145912000Y-96548000D03*
%TO.P,U_ADS,58*%
X145412000Y-96548000D03*
%TO.P,U_ADS,59*%
%TO.N,AVDD*%
X144912000Y-96548000D03*
%TO.P,U_ADS,60*%
%TO.N,N/C*%
X144412000Y-96548000D03*
%TO.P,U_ADS,61*%
%TO.N,BIAS_INV*%
X143912000Y-96548000D03*
%TO.P,U_ADS,62*%
%TO.N,N/C*%
X143412000Y-96548000D03*
%TO.P,U_ADS,63*%
%TO.N,BIAS_OUT_INT*%
X142912000Y-96548000D03*
%TO.P,U_ADS,64*%
%TO.N,N/C*%
X142412000Y-96548000D03*
%TD*%
D16*
%TO.P,C_CM3P,1*%
%TO.N,IN3P*%
X133727000Y-107635000D03*
%TO.P,C_CM3P,2*%
%TO.N,GND*%
X135127000Y-107635000D03*
%TD*%
D17*
%TO.P,C_AVDD_P31,1*%
%TO.N,AVDD*%
X144040000Y-110480000D03*
%TO.P,C_AVDD_P31,2*%
%TO.N,GND*%
X144880000Y-110480000D03*
%TD*%
D12*
%TO.P,R_SCLK,1*%
%TO.N,ADS_SCLK_LOC*%
X169698500Y-84826000D03*
%TO.P,R_SCLK,2*%
%TO.N,SPI_SCK*%
X171698500Y-84826000D03*
%TD*%
D11*
%TO.P,C_VCAP1_H,1*%
%TO.N,VCAP1*%
X147912000Y-109006000D03*
%TO.P,C_VCAP1_H,2*%
%TO.N,AVSS*%
X147912000Y-109846000D03*
%TD*%
D16*
%TO.P,C_CM8N,1*%
%TO.N,IN8N*%
X133524000Y-91150500D03*
%TO.P,C_CM8N,2*%
%TO.N,GND*%
X134924000Y-91150500D03*
%TD*%
D11*
%TO.P,C_EN_DLY,1*%
%TO.N,ESP_EN*%
X159116000Y-109044000D03*
%TO.P,C_EN_DLY,2*%
%TO.N,GND*%
X159116000Y-109884000D03*
%TD*%
D18*
%TO.P,R_IO15_DN,1*%
%TO.N,ESP_IO15*%
X174618500Y-93081000D03*
%TO.P,R_IO15_DN,2*%
%TO.N,GND*%
X176125500Y-93081000D03*
%TD*%
D17*
%TO.P,C_VCAP4,1*%
%TO.N,VCAP4*%
X148028000Y-112766000D03*
%TO.P,C_VCAP4,2*%
%TO.N,AVSS*%
X148868000Y-112766000D03*
%TD*%
D19*
%TO.P,C_DIF6,1*%
%TO.N,IN6P*%
X130430000Y-98110000D03*
%TO.P,C_DIF6,2*%
%TO.N,IN6N*%
X132430000Y-98110000D03*
%TD*%
D20*
%TO.P,D_ESD,1*%
%TO.N,USB_DP*%
X176454000Y-104771000D03*
%TO.P,D_ESD,2*%
%TO.N,GND*%
X177404000Y-104771000D03*
%TO.P,D_ESD,3*%
%TO.N,USB_DM*%
X178354000Y-104771000D03*
%TO.P,D_ESD,4*%
X178354000Y-102473000D03*
%TO.P,D_ESD,5*%
%TO.N,USB_VBUS_RAW*%
X177404000Y-102473000D03*
%TO.P,D_ESD,6*%
%TO.N,USB_DP*%
X176454000Y-102473000D03*
%TD*%
D17*
%TO.P,C_AVSS_P17,1*%
%TO.N,AVSS*%
X140281000Y-112766000D03*
%TO.P,C_AVSS_P17,2*%
%TO.N,GND*%
X141121000Y-112766000D03*
%TD*%
D13*
%TO.P,R_IN5N,1*%
%TO.N,SRB1*%
X128203000Y-100142000D03*
%TO.P,R_IN5N,2*%
%TO.N,IN5N*%
X129069000Y-100142000D03*
%TD*%
D21*
%TO.P,R_Q_IO0_B,1*%
%TO.N,CH_RTS_N*%
X168768000Y-110217500D03*
%TO.P,R_Q_IO0_B,2*%
%TO.N,Q_IO0_B*%
X168768000Y-108710500D03*
%TD*%
D22*
%TO.P,C_3V3_B,1*%
%TO.N,VDD_ESP*%
X155763000Y-112704000D03*
%TO.P,C_3V3_B,2*%
%TO.N,GND*%
X155763000Y-111304000D03*
%TD*%
D11*
%TO.P,C_DVDD_P40,1*%
%TO.N,DVDD*%
X149718000Y-90326000D03*
%TO.P,C_DVDD_P40,2*%
%TO.N,GND*%
X149718000Y-89486000D03*
%TD*%
D21*
%TO.P,R_START_DN,1*%
%TO.N,ADS_START*%
X171308000Y-108710500D03*
%TO.P,R_START_DN,2*%
%TO.N,GND*%
X171308000Y-110217500D03*
%TD*%
D23*
%TO.P,F1,1*%
%TO.N,USB_VBUS_RAW*%
X177912000Y-100749000D03*
%TO.P,F1,2*%
%TO.N,USB_5V*%
X177912000Y-97859000D03*
%TD*%
D16*
%TO.P,C_CM2P,1*%
%TO.N,IN2P*%
X133727000Y-110632500D03*
%TO.P,C_CM2P,2*%
%TO.N,GND*%
X135127000Y-110632500D03*
%TD*%
D12*
%TO.P,FB2,1*%
%TO.N,USB_5V*%
X139100000Y-118608000D03*
%TO.P,FB2,2*%
%TO.N,V_PLDO_IN*%
X141032000Y-118608000D03*
%TD*%
D13*
%TO.P,R_IN8P,1*%
%TO.N,CH8_ELEC*%
X128203000Y-92649000D03*
%TO.P,R_IN8P,2*%
%TO.N,IN8P*%
X129069000Y-92649000D03*
%TD*%
D24*
%TO.P,FB3,1*%
%TO.N,USB_5V*%
X166990000Y-122114000D03*
%TO.P,FB3,2*%
%TO.N,V_3V3_IN*%
X166990000Y-120182000D03*
%TD*%
D16*
%TO.P,C_CM7P,1*%
%TO.N,IN7P*%
X133727000Y-95646500D03*
%TO.P,C_CM7P,2*%
%TO.N,GND*%
X135127000Y-95646500D03*
%TD*%
D22*
%TO.P,C_LM_FLY,1*%
%TO.N,LM_CAP_P*%
X147178000Y-122356000D03*
%TO.P,C_LM_FLY,2*%
%TO.N,LM_CAP_N*%
X147178000Y-120956000D03*
%TD*%
D21*
%TO.P,R_Q_EN_B,1*%
%TO.N,CH_DTR_N*%
X163942000Y-110217500D03*
%TO.P,R_Q_EN_B,2*%
%TO.N,Q_EN_B*%
X163942000Y-108710500D03*
%TD*%
D11*
%TO.P,C_RST_DLY,1*%
%TO.N,ADS_RESET_N*%
X147586000Y-83468000D03*
%TO.P,C_RST_DLY,2*%
%TO.N,GND*%
X147586000Y-82628000D03*
%TD*%
D25*
%TO.P,D_LED,1*%
%TO.N,GND*%
X177163000Y-87620000D03*
%TO.P,D_LED,2*%
%TO.N,LED_A*%
X178661000Y-87620000D03*
%TD*%
D11*
%TO.P,C_USB_V3,1*%
%TO.N,CH340_V3*%
X171308000Y-115218000D03*
%TO.P,C_USB_V3,2*%
%TO.N,GND*%
X171308000Y-114378000D03*
%TD*%
%TO.P,C_USB5V_H,1*%
%TO.N,USB_5V*%
X176134000Y-96930000D03*
%TO.P,C_USB5V_H,2*%
%TO.N,GND*%
X176134000Y-96090000D03*
%TD*%
D22*
%TO.P,C_BULK,1*%
%TO.N,USB_5V*%
X151750000Y-123372000D03*
%TO.P,C_BULK,2*%
%TO.N,GND*%
X151750000Y-121972000D03*
%TD*%
%TO.P,C_3V3_OUT,1*%
%TO.N,VDD_ESP*%
X163180000Y-121848000D03*
%TO.P,C_3V3_OUT,2*%
%TO.N,GND*%
X163180000Y-120448000D03*
%TD*%
D11*
%TO.P,C_HF,1*%
%TO.N,USB_5V*%
X155560000Y-123092000D03*
%TO.P,C_HF,2*%
%TO.N,GND*%
X155560000Y-122252000D03*
%TD*%
D26*
%TO.P,J2,1*%
%TO.N,FP1_ELEC*%
X123556000Y-115204500D03*
D27*
%TO.P,J2,2*%
%TO.N,FP2_ELEC*%
X123556000Y-112664500D03*
%TO.P,J2,3*%
%TO.N,CH3_ELEC*%
X123556000Y-110124500D03*
%TO.P,J2,4*%
%TO.N,ECGP_ELEC*%
X123556000Y-107584500D03*
%TO.P,J2,5*%
%TO.N,ECGN_ELEC*%
X123556000Y-105044500D03*
%TO.P,J2,6*%
%TO.N,CH5_ELEC*%
X123556000Y-102504500D03*
%TO.P,J2,7*%
%TO.N,CH6_ELEC*%
X123556000Y-99964500D03*
%TO.P,J2,8*%
%TO.N,CH7_ELEC*%
X123556000Y-97424500D03*
%TO.P,J2,9*%
%TO.N,CH8_ELEC*%
X123556000Y-94884500D03*
%TO.P,J2,10*%
%TO.N,A2_ELEC*%
X123556000Y-92344500D03*
%TO.P,J2,11*%
%TO.N,A1_ELEC*%
X123556000Y-89804500D03*
%TO.P,J2,12*%
%TO.N,CHASSIS_GND*%
X123556000Y-87264500D03*
%TD*%
D11*
%TO.P,C_NLDO_IN,1*%
%TO.N,V_NLDO_IN*%
X148448000Y-119282000D03*
%TO.P,C_NLDO_IN,2*%
%TO.N,GND*%
X148448000Y-118442000D03*
%TD*%
D13*
%TO.P,R_IN8N,1*%
%TO.N,SRB1*%
X128203000Y-91150500D03*
%TO.P,R_IN8N,2*%
%TO.N,IN8N*%
X129069000Y-91150500D03*
%TD*%
D19*
%TO.P,C_DIF1,1*%
%TO.N,IN1P*%
X130430000Y-113096000D03*
%TO.P,C_DIF1,2*%
%TO.N,IN1N*%
X132430000Y-113096000D03*
%TD*%
%TO.P,C_DIF3,1*%
%TO.N,IN3P*%
X130430000Y-107102000D03*
%TO.P,C_DIF3,2*%
%TO.N,IN3N*%
X132430000Y-107102000D03*
%TD*%
D18*
%TO.P,R_LED,1*%
%TO.N,STATUS_LED_DRV*%
X177158500Y-89652000D03*
%TO.P,R_LED,2*%
%TO.N,LED_A*%
X178665500Y-89652000D03*
%TD*%
D11*
%TO.P,C_AVDD_P59,1*%
%TO.N,AVDD*%
X141996500Y-93120000D03*
%TO.P,C_AVDD_P59,2*%
%TO.N,GND*%
X141996500Y-92280000D03*
%TD*%
%TO.P,C_DVDD_P58,1*%
%TO.N,DVDD*%
X146162000Y-88294000D03*
%TO.P,C_DVDD_P58,2*%
%TO.N,GND*%
X146162000Y-87454000D03*
%TD*%
%TO.P,C_DVDD_H,1*%
%TO.N,DVDD*%
X147686000Y-86946000D03*
%TO.P,C_DVDD_H,2*%
%TO.N,GND*%
X147686000Y-87786000D03*
%TD*%
%TO.P,C_3V3_H2,1*%
%TO.N,VDD_ESP*%
X160386000Y-121568000D03*
%TO.P,C_3V3_H2,2*%
%TO.N,GND*%
X160386000Y-120728000D03*
%TD*%
D16*
%TO.P,C_CM2N,1*%
%TO.N,IN2N*%
X133524000Y-109134000D03*
%TO.P,C_CM2N,2*%
%TO.N,GND*%
X134924000Y-109134000D03*
%TD*%
D13*
%TO.P,R_IN4N,1*%
%TO.N,ECGN_ELEC*%
X128203000Y-103139500D03*
%TO.P,R_IN4N,2*%
%TO.N,IN4N*%
X129069000Y-103139500D03*
%TD*%
%TO.P,R_IN1N,1*%
%TO.N,SRB1*%
X128203000Y-112131000D03*
%TO.P,R_IN1N,2*%
%TO.N,IN1N*%
X129069000Y-112131000D03*
%TD*%
D16*
%TO.P,C_CM1P,1*%
%TO.N,IN1P*%
X133727000Y-113629500D03*
%TO.P,C_CM1P,2*%
%TO.N,GND*%
X135127000Y-113629500D03*
%TD*%
D17*
%TO.P,C_AVSS_P60,1*%
%TO.N,AVSS*%
X152727000Y-112766000D03*
%TO.P,C_AVSS_P60,2*%
%TO.N,GND*%
X153567000Y-112766000D03*
%TD*%
D16*
%TO.P,C_CM6N,1*%
%TO.N,IN6N*%
X133524000Y-97145000D03*
%TO.P,C_CM6N,2*%
%TO.N,GND*%
X134924000Y-97145000D03*
%TD*%
D17*
%TO.P,C_AVDD1_1u,1*%
%TO.N,AVDD*%
X145996000Y-92700000D03*
%TO.P,C_AVDD1_1u,2*%
%TO.N,AVSS*%
X146836000Y-92700000D03*
%TD*%
%TO.P,C_VREFP_100n,1*%
%TO.N,VREFP*%
X147799500Y-110480000D03*
%TO.P,C_VREFP_100n,2*%
%TO.N,AVSS*%
X148639500Y-110480000D03*
%TD*%
D11*
%TO.P,C_PLDO_OUT,1*%
%TO.N,GND*%
X147686000Y-115980000D03*
%TO.P,C_PLDO_OUT,2*%
%TO.N,AVDD*%
X147686000Y-115140000D03*
%TD*%
D13*
%TO.P,R_IN6N,1*%
%TO.N,SRB1*%
X128203000Y-97145000D03*
%TO.P,R_IN6N,2*%
%TO.N,IN6N*%
X129069000Y-97145000D03*
%TD*%
D16*
%TO.P,C_CM5P,1*%
%TO.N,IN5P*%
X133727000Y-101641000D03*
%TO.P,C_CM5P,2*%
%TO.N,GND*%
X135127000Y-101641000D03*
%TD*%
D13*
%TO.P,R_IN1P,1*%
%TO.N,FP1_ELEC*%
X128203000Y-113629500D03*
%TO.P,R_IN1P,2*%
%TO.N,IN1P*%
X129069000Y-113629500D03*
%TD*%
D12*
%TO.P,R_BIAS_FB,1*%
%TO.N,BIAS_INV*%
X145670000Y-90414000D03*
%TO.P,R_BIAS_FB,2*%
%TO.N,BIAS_OUT_INT*%
X147670000Y-90414000D03*
%TD*%
D16*
%TO.P,C_AVDD1_10u,1*%
%TO.N,AVDD*%
X143430000Y-92700000D03*
%TO.P,C_AVDD1_10u,2*%
%TO.N,AVSS*%
X144830000Y-92700000D03*
%TD*%
D10*
%TO.P,TPS72325,1*%
%TO.N,GND*%
X153050000Y-119812000D03*
%TO.P,TPS72325,2*%
%TO.N,V_NLDO_IN*%
X153050000Y-118862000D03*
%TO.P,TPS72325,3*%
X153050000Y-117912000D03*
%TO.P,TPS72325,4*%
%TO.N,TPS_NR*%
X150450000Y-117912000D03*
%TO.P,TPS72325,5*%
%TO.N,AVSS*%
X150450000Y-119812000D03*
%TD*%
D16*
%TO.P,C_CM8P,1*%
%TO.N,IN8P*%
X133727000Y-92649000D03*
%TO.P,C_CM8P,2*%
%TO.N,GND*%
X135127000Y-92649000D03*
%TD*%
D10*
%TO.P,TLV70025,1*%
%TO.N,V_PLDO_IN*%
X145430000Y-119812000D03*
%TO.P,TLV70025,2*%
%TO.N,GND*%
X145430000Y-118862000D03*
%TO.P,TLV70025,3*%
%TO.N,V_PLDO_IN*%
X145430000Y-117912000D03*
%TO.P,TLV70025,4*%
%TO.N,N/C*%
X142830000Y-117912000D03*
%TO.P,TLV70025,5*%
%TO.N,AVDD*%
X142830000Y-119812000D03*
%TD*%
D13*
%TO.P,R_IN3P,1*%
%TO.N,CH3_ELEC*%
X128203000Y-107635000D03*
%TO.P,R_IN3P,2*%
%TO.N,IN3P*%
X129069000Y-107635000D03*
%TD*%
D16*
%TO.P,C_CM3N,1*%
%TO.N,IN3N*%
X133524000Y-106136500D03*
%TO.P,C_CM3N,2*%
%TO.N,GND*%
X134924000Y-106136500D03*
%TD*%
D11*
%TO.P,C_3V3_IN,1*%
%TO.N,V_3V3_IN*%
X164958000Y-121568000D03*
%TO.P,C_3V3_IN,2*%
%TO.N,GND*%
X164958000Y-120728000D03*
%TD*%
D28*
%TO.P,J1,1*%
%TO.N,GND*%
X175791000Y-114188000D03*
D29*
%TO.P,J1,2*%
%TO.N,USB_VBUS_RAW*%
X175791000Y-113388000D03*
D30*
%TO.P,J1,3*%
%TO.N,N/C*%
X175791000Y-112738000D03*
%TO.P,J1,4*%
%TO.N,USB_CC1*%
X175791000Y-112238000D03*
%TO.P,J1,5*%
%TO.N,USB_DM*%
X175791000Y-111738000D03*
%TO.P,J1,6*%
%TO.N,USB_DP*%
X175791000Y-111238000D03*
%TO.P,J1,7*%
%TO.N,USB_DM*%
X175791000Y-110738000D03*
%TO.P,J1,8*%
%TO.N,USB_DP*%
X175791000Y-110238000D03*
%TO.P,J1,9*%
%TO.N,N/C*%
X175791000Y-109738000D03*
%TO.P,J1,10*%
%TO.N,USB_CC2*%
X175791000Y-109238000D03*
D29*
%TO.P,J1,11*%
%TO.N,USB_VBUS_RAW*%
X175791000Y-108588000D03*
D28*
%TO.P,J1,12*%
%TO.N,GND*%
X175791000Y-107788000D03*
D31*
%TO.P,J1,13*%
%TO.N,CHASSIS_GND*%
X176341000Y-115313000D03*
D32*
X180541000Y-115313000D03*
D31*
%TO.P,J1,14*%
X176341000Y-106663000D03*
D32*
X180541000Y-106663000D03*
%TD*%
D17*
%TO.P,C_AVDD_P19,1*%
%TO.N,AVDD*%
X142160500Y-110480000D03*
%TO.P,C_AVDD_P19,2*%
%TO.N,GND*%
X143000500Y-110480000D03*
%TD*%
D11*
%TO.P,C_AVDD_H,1*%
%TO.N,AVDD*%
X145908000Y-115980000D03*
%TO.P,C_AVDD_H,2*%
%TO.N,GND*%
X145908000Y-115140000D03*
%TD*%
D21*
%TO.P,R_EN_UP,1*%
%TO.N,VDD_ESP*%
X157846000Y-110217500D03*
%TO.P,R_EN_UP,2*%
%TO.N,ESP_EN*%
X157846000Y-108710500D03*
%TD*%
D33*
%TO.P,Q_EN,1*%
%TO.N,Q_EN_B*%
X162376500Y-110414000D03*
%TO.P,Q_EN,2*%
%TO.N,CH_RTS_N*%
X162376500Y-108514000D03*
%TO.P,Q_EN,3*%
%TO.N,ESP_EN*%
X160173500Y-109464000D03*
%TD*%
D19*
%TO.P,C_DIF5,1*%
%TO.N,IN5P*%
X130430000Y-101107500D03*
%TO.P,C_DIF5,2*%
%TO.N,IN5N*%
X132430000Y-101107500D03*
%TD*%
D21*
%TO.P,R_PWDN_UP,1*%
%TO.N,ADS_PWDN_N*%
X152258000Y-83801500D03*
%TO.P,R_PWDN_UP,2*%
%TO.N,DVDD*%
X152258000Y-82294500D03*
%TD*%
D34*
%TO.P,U_MCU,1*%
%TO.N,GND*%
X155955500Y-106526000D03*
%TO.P,U_MCU,2*%
%TO.N,VDD_ESP*%
X157225500Y-106526000D03*
%TO.P,U_MCU,3*%
%TO.N,ESP_EN*%
X158495500Y-106526000D03*
%TO.P,U_MCU,4*%
%TO.N,N/C*%
X159765500Y-106526000D03*
%TO.P,U_MCU,5*%
X161035500Y-106526000D03*
%TO.P,U_MCU,6*%
X162305500Y-106526000D03*
%TO.P,U_MCU,7*%
X163575500Y-106526000D03*
%TO.P,U_MCU,8*%
X164845500Y-106526000D03*
%TO.P,U_MCU,9*%
X166115500Y-106526000D03*
%TO.P,U_MCU,10*%
X167385500Y-106526000D03*
%TO.P,U_MCU,11*%
X168655500Y-106526000D03*
%TO.P,U_MCU,12*%
%TO.N,ADS_DRDY_N*%
X169925500Y-106526000D03*
%TO.P,U_MCU,13*%
%TO.N,ADS_START*%
X171195500Y-106526000D03*
%TO.P,U_MCU,14*%
%TO.N,ADS_RESET_N*%
X172465500Y-106526000D03*
D35*
%TO.P,U_MCU,15*%
%TO.N,GND*%
X173960500Y-103241000D03*
%TO.P,U_MCU,16*%
%TO.N,ADS_PWDN_N*%
X173960500Y-101971000D03*
%TO.P,U_MCU,17*%
%TO.N,N/C*%
X173960500Y-100701000D03*
%TO.P,U_MCU,18*%
X173960500Y-99431000D03*
%TO.P,U_MCU,19*%
X173960500Y-98161000D03*
%TO.P,U_MCU,20*%
X173960500Y-96891000D03*
%TO.P,U_MCU,21*%
X173960500Y-95621000D03*
%TO.P,U_MCU,22*%
X173960500Y-94351000D03*
%TO.P,U_MCU,23*%
%TO.N,ESP_IO15*%
X173960500Y-93081000D03*
%TO.P,U_MCU,24*%
%TO.N,ESP_IO2*%
X173960500Y-91811000D03*
D34*
%TO.P,U_MCU,25*%
%TO.N,ESP_IO0*%
X172465500Y-88526000D03*
%TO.P,U_MCU,26*%
%TO.N,N/C*%
X171195500Y-88526000D03*
%TO.P,U_MCU,27*%
X169925500Y-88526000D03*
%TO.P,U_MCU,28*%
%TO.N,STATUS_LED_DRV*%
X168655500Y-88526000D03*
%TO.P,U_MCU,29*%
%TO.N,ADS_CS_N*%
X167385500Y-88526000D03*
%TO.P,U_MCU,30*%
%TO.N,SPI_SCK*%
X166115500Y-88526000D03*
%TO.P,U_MCU,31*%
%TO.N,SPI_MISO*%
X164845500Y-88526000D03*
%TO.P,U_MCU,32*%
%TO.N,N/C*%
X163575500Y-88526000D03*
%TO.P,U_MCU,33*%
X162305500Y-88526000D03*
%TO.P,U_MCU,34*%
%TO.N,ESP_RXD*%
X161035500Y-88526000D03*
%TO.P,U_MCU,35*%
%TO.N,ESP_TXD*%
X159765500Y-88526000D03*
%TO.P,U_MCU,36*%
%TO.N,N/C*%
X158495500Y-88526000D03*
%TO.P,U_MCU,37*%
%TO.N,SPI_MOSI*%
X157225500Y-88526000D03*
%TO.P,U_MCU,38*%
%TO.N,GND*%
X155955500Y-88526000D03*
D36*
%TO.P,U_MCU,39*%
X162236500Y-97626000D03*
X162236500Y-99026000D03*
X162236500Y-100426000D03*
X163636500Y-97626000D03*
X163636500Y-99026500D03*
X163636500Y-100426000D03*
X165036500Y-97626000D03*
X165036500Y-99026000D03*
X165036500Y-100426000D03*
%TD*%
D22*
%TO.P,C_3V3_B2,1*%
%TO.N,VDD_ESP*%
X162164000Y-121848000D03*
%TO.P,C_3V3_B2,2*%
%TO.N,GND*%
X162164000Y-120448000D03*
%TD*%
D19*
%TO.P,C_DIF7,1*%
%TO.N,IN7P*%
X130430000Y-95113000D03*
%TO.P,C_DIF7,2*%
%TO.N,IN7N*%
X132430000Y-95113000D03*
%TD*%
D22*
%TO.P,C_DVDD_B,1*%
%TO.N,DVDD*%
X151750000Y-86666000D03*
%TO.P,C_DVDD_B,2*%
%TO.N,GND*%
X151750000Y-88066000D03*
%TD*%
D17*
%TO.P,C_AVDD1_100n,1*%
%TO.N,AVDD*%
X148282000Y-92700000D03*
%TO.P,C_AVDD1_100n,2*%
%TO.N,AVSS*%
X149122000Y-92700000D03*
%TD*%
D11*
%TO.P,C_NLDO_OUT,1*%
%TO.N,GND*%
X156068000Y-119282000D03*
%TO.P,C_NLDO_OUT,2*%
%TO.N,AVSS*%
X156068000Y-118442000D03*
%TD*%
D22*
%TO.P,C_AVDD_B,1*%
%TO.N,AVDD*%
X144130000Y-116260000D03*
%TO.P,C_AVDD_B,2*%
%TO.N,GND*%
X144130000Y-114860000D03*
%TD*%
D12*
%TO.P,R_MISO,1*%
%TO.N,ADS_DOUT_LOC*%
X165888500Y-84826000D03*
%TO.P,R_MISO,2*%
%TO.N,SPI_MISO*%
X167888500Y-84826000D03*
%TD*%
%TO.P,FB1,1*%
%TO.N,USB_5V*%
X139100000Y-120640000D03*
%TO.P,FB1,2*%
%TO.N,V5_LM_IN*%
X141032000Y-120640000D03*
%TD*%
D21*
%TO.P,R_CS_UP,1*%
%TO.N,ADS_CS_N*%
X146162000Y-83801500D03*
%TO.P,R_CS_UP,2*%
%TO.N,DVDD*%
X146162000Y-82294500D03*
%TD*%
D17*
%TO.P,C_AVDD_P3,1*%
%TO.N,AVDD*%
X140281000Y-110480000D03*
%TO.P,C_AVDD_P3,2*%
%TO.N,GND*%
X141121000Y-110480000D03*
%TD*%
%TO.P,C_VCAP2,1*%
%TO.N,VCAP2*%
X148746000Y-109172000D03*
%TO.P,C_VCAP2,2*%
%TO.N,AVSS*%
X149586000Y-109172000D03*
%TD*%
D13*
%TO.P,R_IN2N,1*%
%TO.N,SRB1*%
X128203000Y-109134000D03*
%TO.P,R_IN2N,2*%
%TO.N,IN2N*%
X129069000Y-109134000D03*
%TD*%
D17*
%TO.P,C_AVDD_P36,1*%
%TO.N,AVDD*%
X144880000Y-112766000D03*
%TO.P,C_AVDD_P36,2*%
%TO.N,GND*%
X144040000Y-112766000D03*
%TD*%
%TO.P,C_AVDD1_10n,1*%
%TO.N,AVDD*%
X150568000Y-92700000D03*
%TO.P,C_AVDD1_10n,2*%
%TO.N,AVSS*%
X151408000Y-92700000D03*
%TD*%
D11*
%TO.P,C_NR,1*%
%TO.N,TPS_NR*%
X156576000Y-114710000D03*
%TO.P,C_NR,2*%
%TO.N,GND*%
X156576000Y-113870000D03*
%TD*%
D13*
%TO.P,R_IN4P,1*%
%TO.N,ECGP_ELEC*%
X128203000Y-104638000D03*
%TO.P,R_IN4P,2*%
%TO.N,IN4P*%
X129069000Y-104638000D03*
%TD*%
D11*
%TO.P,C_PLDO_IN,1*%
%TO.N,V_PLDO_IN*%
X142352000Y-115980000D03*
%TO.P,C_PLDO_IN,2*%
%TO.N,GND*%
X142352000Y-115140000D03*
%TD*%
%TO.P,C_AVDD_P64,1*%
%TO.N,AVDD*%
X140523000Y-93120000D03*
%TO.P,C_AVDD_P64,2*%
%TO.N,GND*%
X140523000Y-92280000D03*
%TD*%
D21*
%TO.P,R_IO0_UP,1*%
%TO.N,VDD_ESP*%
X174610000Y-84834500D03*
%TO.P,R_IO0_UP,2*%
%TO.N,ESP_IO0*%
X174610000Y-86341500D03*
%TD*%
%TO.P,R_RST_UP,1*%
%TO.N,ADS_RESET_N*%
X150353000Y-83801500D03*
%TO.P,R_RST_UP,2*%
%TO.N,DVDD*%
X150353000Y-82294500D03*
%TD*%
D22*
%TO.P,C_LM_OUT,1*%
%TO.N,VNEG5*%
X148956000Y-122356000D03*
%TO.P,C_LM_OUT,2*%
%TO.N,GND*%
X148956000Y-120956000D03*
%TD*%
D13*
%TO.P,R_IN6P,1*%
%TO.N,CH6_ELEC*%
X128203000Y-98643500D03*
%TO.P,R_IN6P,2*%
%TO.N,IN6P*%
X129069000Y-98643500D03*
%TD*%
D16*
%TO.P,C_CM1N,1*%
%TO.N,IN1N*%
X133524000Y-112131000D03*
%TO.P,C_CM1N,2*%
%TO.N,GND*%
X134924000Y-112131000D03*
%TD*%
D13*
%TO.P,R_IN5P,1*%
%TO.N,CH5_ELEC*%
X128203000Y-101641000D03*
%TO.P,R_IN5P,2*%
%TO.N,IN5P*%
X129069000Y-101641000D03*
%TD*%
D11*
%TO.P,C_3V3_M,1*%
%TO.N,VDD_ESP*%
X156195000Y-108868000D03*
%TO.P,C_3V3_M,2*%
%TO.N,GND*%
X156195000Y-108028000D03*
%TD*%
D18*
%TO.P,R_CC2,1*%
%TO.N,USB_CC2*%
X172586500Y-110226000D03*
%TO.P,R_CC2,2*%
%TO.N,GND*%
X174093500Y-110226000D03*
%TD*%
D37*
%TO.P,C_VCAP1,1*%
%TO.N,VCAP1*%
X152258000Y-116527000D03*
%TO.P,C_VCAP1,2*%
%TO.N,AVSS*%
X152258000Y-113577000D03*
%TD*%
D17*
%TO.P,C_LM_IN,1*%
%TO.N,V5_LM_IN*%
X147266000Y-123561000D03*
%TO.P,C_LM_IN,2*%
%TO.N,GND*%
X148106000Y-123561000D03*
%TD*%
%TO.P,C_AVSS_P37,1*%
%TO.N,AVSS*%
X145920000Y-112766000D03*
%TO.P,C_AVSS_P37,2*%
%TO.N,GND*%
X146760000Y-112766000D03*
%TD*%
D22*
%TO.P,C_USB5V_B,1*%
%TO.N,USB_5V*%
X176134000Y-100004000D03*
%TO.P,C_USB5V_B,2*%
%TO.N,GND*%
X176134000Y-98604000D03*
%TD*%
%TO.P,C_DVDD_10u,1*%
%TO.N,DVDD*%
X149718000Y-86666000D03*
%TO.P,C_DVDD_10u,2*%
%TO.N,GND*%
X149718000Y-88066000D03*
%TD*%
D12*
%TO.P,FB5,1*%
%TO.N,VDD_ESP*%
X148244000Y-85080000D03*
%TO.P,FB5,2*%
%TO.N,DVDD*%
X150176000Y-85080000D03*
%TD*%
D17*
%TO.P,C_AVSS_P30,1*%
%TO.N,AVSS*%
X142160500Y-112766000D03*
%TO.P,C_AVSS_P30,2*%
%TO.N,GND*%
X143000500Y-112766000D03*
%TD*%
D16*
%TO.P,C_CM4N,1*%
%TO.N,IN4N*%
X133524000Y-103139500D03*
%TO.P,C_CM4N,2*%
%TO.N,GND*%
X134924000Y-103139500D03*
%TD*%
%TO.P,C_CM4P,1*%
%TO.N,IN4P*%
X133727000Y-104638000D03*
%TO.P,C_CM4P,2*%
%TO.N,GND*%
X135127000Y-104638000D03*
%TD*%
D17*
%TO.P,C_VCAP3_H,1*%
%TO.N,VCAP3*%
X146832000Y-94448000D03*
%TO.P,C_VCAP3_H,2*%
%TO.N,AVSS*%
X145992000Y-94448000D03*
%TD*%
D21*
%TO.P,R_CC1,1*%
%TO.N,USB_CC1*%
X178166000Y-110217500D03*
%TO.P,R_CC1,2*%
%TO.N,GND*%
X178166000Y-108710500D03*
%TD*%
D17*
%TO.P,C_VREFP_10n,1*%
%TO.N,VREFP*%
X145970000Y-110480000D03*
%TO.P,C_VREFP_10n,2*%
%TO.N,AVSS*%
X146810000Y-110480000D03*
%TD*%
D13*
%TO.P,R_IN2P,1*%
%TO.N,FP2_ELEC*%
X128203000Y-110632500D03*
%TO.P,R_IN2P,2*%
%TO.N,IN2P*%
X129069000Y-110632500D03*
%TD*%
D38*
%TO.P,AMS1117,1*%
%TO.N,GND*%
X179814000Y-123529500D03*
%TO.P,AMS1117,2*%
%TO.N,VDD_ESP*%
X179814000Y-121229500D03*
%TO.P,AMS1117,3*%
%TO.N,V_3V3_IN*%
X179814000Y-118929500D03*
D39*
%TO.P,AMS1117,4*%
%TO.N,VDD_ESP*%
X173874000Y-121229500D03*
%TD*%
D12*
%TO.P,FB4,1*%
%TO.N,VNEG5*%
X139100000Y-122672000D03*
%TO.P,FB4,2*%
%TO.N,V_NLDO_IN*%
X141032000Y-122672000D03*
%TD*%
D13*
%TO.P,R_IN7P,1*%
%TO.N,CH7_ELEC*%
X128203000Y-95646500D03*
%TO.P,R_IN7P,2*%
%TO.N,IN7P*%
X129069000Y-95646500D03*
%TD*%
D16*
%TO.P,C_CM7N,1*%
%TO.N,IN7N*%
X133524000Y-94148000D03*
%TO.P,C_CM7N,2*%
%TO.N,GND*%
X134924000Y-94148000D03*
%TD*%
D18*
%TO.P,R_IO2_DN,1*%
%TO.N,ESP_IO2*%
X174618500Y-91811000D03*
%TO.P,R_IO2_DN,2*%
%TO.N,GND*%
X176125500Y-91811000D03*
%TD*%
D11*
%TO.P,C_VCAP3,1*%
%TO.N,VCAP3*%
X144118000Y-94682000D03*
%TO.P,C_VCAP3,2*%
%TO.N,AVSS*%
X144118000Y-93842000D03*
%TD*%
D19*
%TO.P,C_DIF8,1*%
%TO.N,IN8P*%
X130430000Y-92116000D03*
%TO.P,C_DIF8,2*%
%TO.N,IN8N*%
X132430000Y-92116000D03*
%TD*%
D12*
%TO.P,R_BIAS_SER,1*%
%TO.N,BIAS_OUT_INT*%
X129636000Y-87264500D03*
%TO.P,R_BIAS_SER,2*%
%TO.N,A1_ELEC*%
X127636000Y-87264500D03*
%TD*%
D21*
%TO.P,R_DRDY_UP,1*%
%TO.N,ADS_DRDY_N*%
X149210000Y-83801500D03*
%TO.P,R_DRDY_UP,2*%
%TO.N,DVDD*%
X149210000Y-82294500D03*
%TD*%
D24*
%TO.P,R_MOSI,1*%
%TO.N,ADS_DIN_LOC*%
X154239000Y-107956000D03*
%TO.P,R_MOSI,2*%
%TO.N,SPI_MOSI*%
X154239000Y-109956000D03*
%TD*%
D22*
%TO.P,C_AVSS_B,1*%
%TO.N,AVSS*%
X149360000Y-115368000D03*
%TO.P,C_AVSS_B,2*%
%TO.N,GND*%
X149360000Y-116768000D03*
%TD*%
D37*
%TO.P,C_VREFP_10u,1*%
%TO.N,VREFP*%
X150937000Y-111701000D03*
%TO.P,C_VREFP_10u,2*%
%TO.N,AVSS*%
X150937000Y-108751000D03*
%TD*%
D17*
%TO.P,C_BIAS_INV,1*%
%TO.N,BIAS_INV*%
X143280000Y-90414000D03*
%TO.P,C_BIAS_INV,2*%
%TO.N,BIAS_OUT_INT*%
X142440000Y-90414000D03*
%TD*%
D11*
%TO.P,C_USB_VCC,1*%
%TO.N,USB_5V*%
X171308000Y-112932000D03*
%TO.P,C_USB_VCC,2*%
%TO.N,GND*%
X171308000Y-112092000D03*
%TD*%
D40*
%TO.P,U_USB,1*%
%TO.N,GND*%
X157719000Y-117924500D03*
%TO.P,U_USB,2*%
%TO.N,ESP_RXD*%
X158989000Y-117924500D03*
%TO.P,U_USB,3*%
%TO.N,ESP_TXD*%
X160259000Y-117924500D03*
%TO.P,U_USB,4*%
%TO.N,CH340_V3*%
X161529000Y-117924500D03*
%TO.P,U_USB,5*%
%TO.N,USB_DP*%
X162799000Y-117924500D03*
%TO.P,U_USB,6*%
%TO.N,USB_DM*%
X164069000Y-117924500D03*
%TO.P,U_USB,7*%
%TO.N,N/C*%
X165339000Y-117924500D03*
%TO.P,U_USB,8*%
X166609000Y-117924500D03*
%TO.P,U_USB,9*%
X166609000Y-112179500D03*
%TO.P,U_USB,10*%
X165339000Y-112179500D03*
%TO.P,U_USB,11*%
X164069000Y-112179500D03*
%TO.P,U_USB,12*%
X162799000Y-112179500D03*
%TO.P,U_USB,13*%
%TO.N,CH_DTR_N*%
X161529000Y-112179500D03*
%TO.P,U_USB,14*%
%TO.N,CH_RTS_N*%
X160259000Y-112179500D03*
%TO.P,U_USB,15*%
%TO.N,GND*%
X158989000Y-112179500D03*
%TO.P,U_USB,16*%
%TO.N,USB_5V*%
X157719000Y-112179500D03*
%TD*%
D16*
%TO.P,C_CM6P,1*%
%TO.N,IN6P*%
X133727000Y-98643500D03*
%TO.P,C_CM6P,2*%
%TO.N,GND*%
X135127000Y-98643500D03*
%TD*%
D33*
%TO.P,Q_IO0,1*%
%TO.N,Q_IO0_B*%
X167202500Y-110414000D03*
%TO.P,Q_IO0,2*%
%TO.N,CH_DTR_N*%
X167202500Y-108514000D03*
%TO.P,Q_IO0,3*%
%TO.N,ESP_IO0*%
X164999500Y-109464000D03*
%TD*%
D16*
%TO.P,C_CM5N,1*%
%TO.N,IN5N*%
X133524000Y-100142000D03*
%TO.P,C_CM5N,2*%
%TO.N,GND*%
X134924000Y-100142000D03*
%TD*%
D11*
%TO.P,C_AVSS_H,1*%
%TO.N,AVSS*%
X148448000Y-115980000D03*
%TO.P,C_AVSS_H,2*%
%TO.N,GND*%
X148448000Y-115140000D03*
%TD*%
D19*
%TO.P,C_DIF4,1*%
%TO.N,IN4P*%
X130430000Y-104104500D03*
%TO.P,C_DIF4,2*%
%TO.N,IN4N*%
X132430000Y-104104500D03*
%TD*%
%TO.P,C_DIF2,1*%
%TO.N,IN2P*%
X130430000Y-110099000D03*
%TO.P,C_DIF2,2*%
%TO.N,IN2N*%
X132430000Y-110099000D03*
%TD*%
D13*
%TO.P,R_IN3N,1*%
%TO.N,SRB1*%
X128203000Y-106136500D03*
%TO.P,R_IN3N,2*%
%TO.N,IN3N*%
X129069000Y-106136500D03*
%TD*%
D41*
%TO.N,GND*%
X134922500Y-100142000D03*
X171308000Y-111496000D03*
X143152000Y-110480000D03*
X148918000Y-95266500D03*
X164450000Y-97018000D03*
D42*
X151204000Y-100221000D03*
D41*
X134922500Y-98643500D03*
X152817000Y-101844000D03*
X134922500Y-107635000D03*
X161402000Y-120132000D03*
X146356500Y-118862000D03*
X150886500Y-88483500D03*
X134922500Y-112131000D03*
X146670000Y-115251500D03*
X149781500Y-95266500D03*
X140523000Y-92281000D03*
X134922500Y-97145000D03*
X146263500Y-112055000D03*
X176273500Y-93081000D03*
X156576000Y-113274000D03*
X134922500Y-92649000D03*
X175791000Y-107787500D03*
X174203500Y-110378500D03*
X155611000Y-106111000D03*
X157058500Y-117922000D03*
X149718000Y-88483500D03*
X172933500Y-112105500D03*
X134922500Y-109134000D03*
X149210000Y-116919000D03*
X151750000Y-121973500D03*
X134922500Y-104638000D03*
X146911500Y-112766000D03*
X134922500Y-95646500D03*
X134922500Y-113629500D03*
X134922500Y-94148000D03*
X134922500Y-101641000D03*
X155611000Y-89957000D03*
X141272500Y-110480000D03*
X176134000Y-98605500D03*
X156195000Y-107876500D03*
X155661500Y-113972500D03*
X158430000Y-113045500D03*
X155763000Y-111153000D03*
X165618500Y-98237000D03*
X155560000Y-121601500D03*
X134922500Y-91150500D03*
X146162000Y-86803500D03*
X165618500Y-97018000D03*
X148448000Y-117791500D03*
X156068000Y-119932500D03*
X164958000Y-120077500D03*
X152715000Y-119624000D03*
X148956000Y-120957500D03*
X148372000Y-114595000D03*
X159116000Y-110035500D03*
X141272500Y-112766000D03*
X174864000Y-117338000D03*
X141996500Y-92128500D03*
X176134000Y-95439500D03*
X164450000Y-98237000D03*
X143152000Y-112766000D03*
X144130000Y-114861500D03*
X152817000Y-105959000D03*
X134922500Y-110632500D03*
X134922500Y-103139500D03*
X148041500Y-82641500D03*
X172578000Y-103495000D03*
X144435000Y-123408500D03*
X174661000Y-103241000D03*
X134922500Y-106136500D03*
X177010500Y-87620000D03*
X176273500Y-91811000D03*
X142352000Y-114489500D03*
X153718500Y-112766000D03*
X176896000Y-105705000D03*
D42*
X179433000Y-123402500D03*
D41*
X171308000Y-110061000D03*
X150175000Y-123459500D03*
X147686000Y-88483500D03*
X178166000Y-107432000D03*
%TO.N,VNEG5*%
X143825000Y-122570500D03*
X148854500Y-122215000D03*
X139101000Y-122926000D03*
%TO.N,LM_CAP_P*%
X146467000Y-123231000D03*
X146467000Y-122469000D03*
%TO.N,VDD_ESP*%
X174610000Y-83048000D03*
X156195000Y-109019500D03*
X157223500Y-107305000D03*
X155763000Y-112855000D03*
X157846000Y-110365500D03*
X174610000Y-84686500D03*
X168006000Y-115763000D03*
X155661500Y-115712500D03*
X157846000Y-83302000D03*
X148245000Y-85080000D03*
X170622000Y-119624000D03*
X160894000Y-116068000D03*
X168006000Y-117135000D03*
%TO.N,SRB1*%
X126604000Y-94148000D03*
X130160000Y-89144000D03*
X126604000Y-97145000D03*
X126604000Y-112131000D03*
X142657000Y-108981500D03*
X126604000Y-109134000D03*
X126604000Y-100142000D03*
X126604000Y-91150500D03*
X126604000Y-106136500D03*
%TO.N,IN7N*%
X136256000Y-94148000D03*
X133525500Y-94148000D03*
%TO.N,IN8N*%
X133525500Y-91150500D03*
X136256000Y-91150500D03*
%TO.N,IN6N*%
X136256000Y-97145000D03*
X133525500Y-97145000D03*
%TO.N,IN5N*%
X133525500Y-100142000D03*
X136256000Y-100142000D03*
%TO.N,IN4N*%
X133525500Y-103139500D03*
X136256000Y-103139500D03*
%TO.N,IN3N*%
X133525500Y-106136500D03*
X136256000Y-106136500D03*
%TO.N,IN2N*%
X136256000Y-109134000D03*
X133525500Y-109134000D03*
%TO.N,IN1N*%
X133525500Y-112131000D03*
X136256000Y-112131000D03*
%TO.N,AVDD*%
X145997000Y-92700000D03*
X144912500Y-95087500D03*
X144689000Y-108956000D03*
X144130000Y-116881000D03*
X147411500Y-95087500D03*
X145031500Y-112766000D03*
X140015000Y-119624000D03*
X140015000Y-111242000D03*
X142161500Y-110480000D03*
X146670000Y-113985000D03*
X143419000Y-109769000D03*
X150886500Y-94198500D03*
X143292000Y-111343500D03*
X146411000Y-95087500D03*
X140282000Y-110480000D03*
X140828000Y-111394500D03*
X141996500Y-92979500D03*
X140523000Y-93119000D03*
X143431500Y-92700000D03*
X148283000Y-92700000D03*
%TO.N,AVSS*%
X141209000Y-91303000D03*
X148867000Y-112766000D03*
X145705000Y-113782000D03*
X154696500Y-111496000D03*
X151280000Y-110480000D03*
X140625000Y-113528000D03*
X149908500Y-109007000D03*
X152575500Y-112766000D03*
X143919000Y-109184500D03*
X154036000Y-116068000D03*
X151496000Y-113782000D03*
X142161500Y-112766000D03*
X145920500Y-112766000D03*
X146911500Y-110480000D03*
X148422500Y-115992000D03*
X145095000Y-109616500D03*
X148791000Y-110480000D03*
X151940500Y-112766000D03*
X149210000Y-115217000D03*
X144079000Y-113782000D03*
X145654000Y-91557000D03*
%TO.N,VCAP4*%
X146911500Y-109007000D03*
X147686000Y-114442500D03*
%TO.N,VCAP1*%
X147909500Y-109007000D03*
D42*
X151750000Y-116527000D03*
X150302000Y-114341000D03*
D41*
X150810000Y-114341000D03*
%TO.N,ADS_PWDN_N*%
X153426500Y-104689000D03*
X174356000Y-101971000D03*
X153375500Y-106771500D03*
X153274000Y-109057500D03*
X152334000Y-85486500D03*
%TO.N,ADS_RESET_N*%
X151191000Y-85689500D03*
X150353000Y-104346000D03*
X172463500Y-106797000D03*
X145349000Y-85435500D03*
%TO.N,ADS_START*%
X153223000Y-103571000D03*
X171193500Y-106924000D03*
%TO.N,ADS_CS_N*%
X146162000Y-85232500D03*
X172832000Y-86147000D03*
X167383500Y-89271000D03*
X154341000Y-103266500D03*
%TO.N,ADS_DRDY_N*%
X151597500Y-85029000D03*
X171740000Y-104943000D03*
D42*
%TO.N,VCAP3*%
X146912000Y-97564000D03*
X144118000Y-95190000D03*
D41*
%TO.N,BIAS_INV*%
X144104500Y-91735000D03*
X141793000Y-97780000D03*
%TO.N,BIAS_OUT_INT*%
X143165000Y-95138500D03*
D42*
X141885200Y-90414000D03*
D41*
X149616500Y-91684000D03*
X148905000Y-88788500D03*
X130490000Y-87721500D03*
%TO.N,SPI_SCK*%
X171701500Y-85740500D03*
X166113500Y-89271000D03*
%TO.N,USB_DP*%
X162799000Y-116169500D03*
X175880000Y-102555000D03*
X175778500Y-104943000D03*
X174762500Y-111140500D03*
%TO.N,USB_DM*%
X178166000Y-104358500D03*
X174762500Y-112105500D03*
X178356500Y-101742500D03*
X164069000Y-116169500D03*
%TO.N,USB_VBUS_RAW*%
X173695500Y-111191000D03*
X173441500Y-108041500D03*
X176820000Y-112969000D03*
X176997500Y-99558000D03*
%TO.N,CH_RTS_N*%
X159929000Y-111089500D03*
X163027500Y-109769000D03*
X168006000Y-111191000D03*
%TO.N,USB_5V*%
X166990000Y-122062500D03*
X155560000Y-123434000D03*
X171308000Y-112817000D03*
X139101000Y-120640000D03*
X177912000Y-97983000D03*
X151750000Y-123739000D03*
X178521500Y-117846000D03*
X176134000Y-100371000D03*
X178521500Y-116169500D03*
X139101000Y-118608000D03*
X157160000Y-111064000D03*
X176134000Y-96929000D03*
X154595000Y-118709500D03*
%TO.N,V_3V3_IN*%
X176566000Y-117795000D03*
X166990000Y-120386000D03*
%TO.N,CHASSIS_GND*%
X179741000Y-105400000D03*
%TO.N,V_NLDO_IN*%
X141031000Y-122672000D03*
X150480000Y-122773500D03*
%TO.N,ESP_IO0*%
X164996000Y-109464000D03*
X174864000Y-87620000D03*
%TO.N,SPI_MISO*%
X164843500Y-89271000D03*
X167891500Y-85740500D03*
%TO.N,ESP_RXD*%
X158989000Y-117719000D03*
X179182000Y-103571000D03*
%TO.N,ESP_TXD*%
X160259000Y-119421000D03*
X178826500Y-105654000D03*
%TD*%
%TO.N,GND*%
D43*
X163180000Y-120447000D02*
X162164000Y-120449500D01*
X134922500Y-100142000D02*
X134925000Y-99939000D01*
X144054000Y-112766000D02*
X143165000Y-112766000D01*
X134922500Y-109134000D02*
X134925000Y-108930500D01*
D44*
X163637000Y-99024500D02*
X164450000Y-98237000D01*
D43*
X145501500Y-110480000D02*
X145315500Y-110759500D01*
X152232500Y-105832000D02*
X152817000Y-105959000D01*
D44*
X144234000Y-112200000D02*
X144227500Y-112201000D01*
D43*
X149781500Y-95266500D02*
X149908500Y-96548000D01*
D45*
X148245000Y-114696500D02*
X148372000Y-114595000D01*
D43*
X158989000Y-112169000D02*
X158709500Y-112461000D01*
X171308000Y-114112000D02*
X171613000Y-113833000D01*
D44*
X145315500Y-110759500D02*
X145349000Y-110759500D01*
D43*
X173960000Y-103241000D02*
X172832000Y-103241000D01*
X148448000Y-117791500D02*
X148448000Y-118443000D01*
X178166000Y-107432000D02*
X178166000Y-108714500D01*
X172171500Y-112105500D02*
X172171500Y-113274000D01*
D45*
X158328500Y-112918500D02*
X158430000Y-113045500D01*
D43*
X143152000Y-110480000D02*
X142999500Y-110480000D01*
D45*
X174864000Y-117135000D02*
X174864000Y-117338000D01*
D43*
X171308000Y-113727500D02*
X171308000Y-114112000D01*
X146356500Y-118862000D02*
X145430500Y-118862000D01*
X151750000Y-121973500D02*
X151953000Y-121971000D01*
X152817000Y-101844000D02*
X151712000Y-101849000D01*
X134922500Y-107635000D02*
X134925000Y-107432000D01*
X145654000Y-112004000D02*
X146263500Y-112055000D01*
X140371000Y-92281000D02*
X140523000Y-92281000D01*
X161148000Y-120386000D02*
X161402000Y-120132000D01*
D44*
X165036500Y-99027000D02*
X165618500Y-98237000D01*
D43*
X148910500Y-95138500D02*
X148910500Y-96548000D01*
X165618500Y-98237000D02*
X165036500Y-97625000D01*
D46*
X151712000Y-100348000D02*
X151712000Y-99848000D01*
D43*
X160792500Y-120538500D02*
X161402000Y-120132000D01*
X150023000Y-123510000D02*
X150175000Y-123459500D01*
X148448000Y-114874000D02*
X148245000Y-114696500D01*
X164450000Y-97018000D02*
X165036500Y-97625000D01*
D45*
X175791000Y-107787500D02*
X175791000Y-107584500D01*
D43*
X142352000Y-114489500D02*
X142352000Y-115141000D01*
X144282500Y-123459500D02*
X144435000Y-123408500D01*
X171308000Y-112093000D02*
X171308000Y-111496000D01*
X148041500Y-82641500D02*
X147586000Y-82629000D01*
X155953500Y-87620000D02*
X155611000Y-87874000D01*
X149718000Y-88064500D02*
X149718000Y-88483500D01*
X155661500Y-114022500D02*
X156068000Y-113871000D01*
X134922500Y-104638000D02*
X134925000Y-104435000D01*
X151750000Y-88280500D02*
X151089500Y-88483500D01*
X134922500Y-113629500D02*
X134925000Y-113426500D01*
X134922500Y-97145000D02*
X134925000Y-96942000D01*
X177010500Y-87620000D02*
X177162500Y-87620000D01*
D44*
X163637000Y-100426500D02*
X164450000Y-98237000D01*
D46*
X151712000Y-99348000D02*
X151712000Y-99848000D01*
D43*
X148448000Y-114887000D02*
X148448000Y-115141000D01*
X156068000Y-119932500D02*
X156068000Y-119281000D01*
X176134000Y-98605500D02*
X176337000Y-98603000D01*
X148105000Y-123561000D02*
X149464000Y-123561000D01*
X177404000Y-105679500D02*
X177099000Y-105705000D01*
D45*
X174094500Y-110226000D02*
X174203500Y-110378500D01*
D43*
X144993500Y-123358000D02*
X144485500Y-123434000D01*
D46*
X179814000Y-123529500D02*
X179433000Y-123402500D01*
D43*
X171308000Y-114112000D02*
X171308000Y-114379000D01*
X134922500Y-95646500D02*
X134925000Y-95443000D01*
D44*
X162237500Y-100426500D02*
X164450000Y-98237000D01*
D43*
X177404000Y-105679500D02*
X177404000Y-104770000D01*
X171308000Y-111441500D02*
X171308000Y-111496000D01*
X164958000Y-120077500D02*
X164958000Y-120729000D01*
X158709500Y-112461000D02*
X158405000Y-112817000D01*
X171308000Y-110061000D02*
X171308000Y-110218500D01*
D46*
X149412000Y-105848000D02*
X151712000Y-105848000D01*
D43*
X149718000Y-88483500D02*
X149718000Y-89487000D01*
X158405000Y-112817000D02*
X158328500Y-112918500D01*
D44*
X144181000Y-112207000D02*
X144181000Y-112486500D01*
D43*
X171308000Y-112105500D02*
X171308000Y-112093000D01*
X151089500Y-88483500D02*
X150886500Y-88483500D01*
D44*
X145298500Y-112055000D02*
X144234000Y-112200000D01*
D45*
X174661000Y-103241000D02*
X174661000Y-103063000D01*
D43*
X156576000Y-113858000D02*
X156576000Y-113274000D01*
X146911500Y-112766000D02*
X146759000Y-112766000D01*
X144130000Y-114861500D02*
X144333000Y-114859000D01*
X171613000Y-113833000D02*
X171867000Y-113680500D01*
X134922500Y-106136500D02*
X134925000Y-105933500D01*
D45*
X175016500Y-115052000D02*
X175016500Y-116576000D01*
D43*
X153718500Y-112766000D02*
X153566000Y-112766000D01*
X143152000Y-112766000D02*
X142999500Y-112766000D01*
X148956000Y-120957500D02*
X149159000Y-120955000D01*
X151750000Y-88064500D02*
X151750000Y-88067000D01*
X145095000Y-111089500D02*
X145247500Y-111750000D01*
X176273500Y-91811000D02*
X176126500Y-91811000D01*
D46*
X149412000Y-107648000D02*
X149412000Y-105848000D01*
D43*
X162164000Y-120437000D02*
X161148000Y-120386000D01*
X171867000Y-113680500D02*
X172171500Y-113274000D01*
X150886500Y-88483500D02*
X151750000Y-88067000D01*
X134922500Y-112131000D02*
X134925000Y-111928000D01*
X134922500Y-98643500D02*
X134925000Y-98440500D01*
D44*
X144227500Y-112201000D02*
X144181000Y-112207000D01*
D43*
X145315500Y-110759500D02*
X145095000Y-111089500D01*
D46*
X151712000Y-101348000D02*
X151712000Y-101848000D01*
D43*
X134922500Y-101641000D02*
X134925000Y-101437500D01*
X177099000Y-105705000D02*
X176896000Y-105705000D01*
X177404000Y-105682000D02*
X177404000Y-105679500D01*
X155661500Y-113972500D02*
X155661500Y-114175000D01*
D44*
X144193500Y-112207000D02*
X144193500Y-112486500D01*
D45*
X175016500Y-116576000D02*
X174864000Y-117135000D01*
D43*
X145247500Y-111750000D02*
X145654000Y-112004000D01*
X152232500Y-105844500D02*
X151712000Y-105847000D01*
D44*
X162237500Y-99027000D02*
X164450000Y-98237000D01*
D43*
X172171500Y-112105500D02*
X172933500Y-112105500D01*
X134922500Y-92649000D02*
X134925000Y-92446000D01*
X141996500Y-92116000D02*
X141996500Y-92281000D01*
X156195000Y-107876500D02*
X156195000Y-108029000D01*
X144485500Y-123434000D02*
X144282500Y-123459500D01*
D44*
X145044500Y-112055000D02*
X144234000Y-112200000D01*
D43*
X157058500Y-117922000D02*
X157719000Y-117924500D01*
D44*
X165036500Y-97625000D02*
X165618500Y-97018000D01*
D43*
X140523000Y-92128500D02*
X140523000Y-92281000D01*
X134922500Y-110632500D02*
X134925000Y-110429000D01*
X164450000Y-98237000D02*
X165036500Y-97625000D01*
X155763000Y-111153000D02*
X155763000Y-111303000D01*
X134922500Y-103139500D02*
X134925000Y-102936000D01*
X146670000Y-115251500D02*
X145908000Y-115141000D01*
X151750000Y-88067000D02*
X151750000Y-88280500D01*
X155611000Y-89957000D02*
X155611000Y-87874000D01*
D46*
X151712000Y-100348000D02*
X151204000Y-100221000D01*
D45*
X175791000Y-114188500D02*
X175118000Y-114595000D01*
D43*
X176134000Y-95439500D02*
X176134000Y-96091000D01*
X148448000Y-115141000D02*
X147686000Y-115979000D01*
X134922500Y-91150500D02*
X134925000Y-90947500D01*
X176273500Y-93081000D02*
X176126500Y-93081000D01*
X172832000Y-103241000D02*
X172578000Y-103495000D01*
D44*
X163637000Y-99027000D02*
X164450000Y-98237000D01*
X165036500Y-100426500D02*
X165618500Y-98237000D01*
X162237500Y-97625000D02*
X164450000Y-97018000D01*
D43*
X134922500Y-94148000D02*
X134925000Y-93944500D01*
X155560000Y-121601500D02*
X155560000Y-122253000D01*
D44*
X144227500Y-112201000D02*
X144193500Y-112207000D01*
X145349000Y-112055000D02*
X144227500Y-112201000D01*
D43*
X145501500Y-110480000D02*
X144879500Y-110480000D01*
X159116000Y-110035500D02*
X159116000Y-109883000D01*
D44*
X144234000Y-112200000D02*
X144181000Y-112207000D01*
D43*
X147686000Y-88483500D02*
X147686000Y-87785000D01*
X141272500Y-112766000D02*
X141120000Y-112766000D01*
X146162000Y-86803500D02*
X146162000Y-87455000D01*
X149464000Y-123561000D02*
X150023000Y-123510000D01*
X153050500Y-119812000D02*
X152715000Y-119624000D01*
X145510500Y-110480000D02*
X145501500Y-110480000D01*
D44*
X163637000Y-97625000D02*
X164450000Y-97018000D01*
D43*
X141272500Y-110480000D02*
X141120000Y-110480000D01*
X149210000Y-116919000D02*
X149360000Y-116769000D01*
X155611000Y-106111000D02*
X155956000Y-106525000D01*
D45*
X175118000Y-114595000D02*
X175016500Y-115052000D01*
D44*
X144892000Y-110759500D02*
X145315500Y-110759500D01*
D43*
X160386000Y-120729000D02*
X160792500Y-120538500D01*
%TO.N,VNEG5*%
X144130000Y-122367000D02*
X143825000Y-122570500D01*
X139101000Y-122926000D02*
X139101000Y-122672000D01*
X148956000Y-122367000D02*
X148854500Y-122215000D01*
X144993500Y-122418000D02*
X144130000Y-122367000D01*
%TO.N,LM_CAP_N*%
X146975000Y-120945000D02*
X146467000Y-121453000D01*
X145908000Y-121453000D02*
X146467000Y-121453000D01*
%TO.N,V5_LM_IN*%
X140066000Y-124551500D02*
X147279500Y-124551500D01*
X142784000Y-121707000D02*
X142784000Y-122113000D01*
X147279500Y-124551500D02*
X147279500Y-123840500D01*
X140066000Y-120640000D02*
X140066000Y-121453000D01*
X140066000Y-121453000D02*
X142352000Y-121453000D01*
X140066000Y-120640000D02*
X141031000Y-120640000D01*
X140066000Y-121453000D02*
X140066000Y-124551500D01*
%TO.N,LM_CAP_P*%
X146467000Y-122342000D02*
X146975000Y-122342000D01*
X142784000Y-124043500D02*
X146467000Y-124043500D01*
X146467000Y-122469000D02*
X146467000Y-122342000D01*
X146467000Y-123231000D02*
X146467000Y-124043500D01*
X142784000Y-123586500D02*
X142784000Y-124043500D01*
%TO.N,VDD_ESP*%
D46*
X178625500Y-121475500D02*
X177927000Y-120777000D01*
D43*
X163180000Y-121859000D02*
X162164000Y-121849000D01*
X159878000Y-121148000D02*
X159878000Y-120183000D01*
X156195000Y-109019500D02*
X156195000Y-108867000D01*
X160589000Y-120183000D02*
X160894000Y-119878000D01*
D46*
X162164000Y-121848000D02*
X162179000Y-121856500D01*
D43*
X174610000Y-84673500D02*
X174610000Y-83048000D01*
D46*
X177736500Y-120650000D02*
X177673000Y-120650000D01*
D44*
X163180000Y-123180000D02*
X172324000Y-123180000D01*
D46*
X177673000Y-120650000D02*
X177609500Y-120586500D01*
D43*
X157223500Y-107305000D02*
X157226000Y-106525000D01*
D46*
X177609500Y-120586500D02*
X177546000Y-120586500D01*
D43*
X160894000Y-119878000D02*
X160894000Y-116068000D01*
X148245000Y-85080000D02*
X148245000Y-84877000D01*
D46*
X177546000Y-120586500D02*
X177482500Y-120523000D01*
D43*
X155661500Y-115712500D02*
X155661500Y-115000500D01*
X159878000Y-120183000D02*
X160589000Y-120183000D01*
D46*
X178625500Y-121666000D02*
X178625500Y-121475500D01*
X177927000Y-120777000D02*
X177863500Y-120777000D01*
D43*
X173872000Y-120874000D02*
X173874500Y-121229500D01*
X160386000Y-121567000D02*
X159878000Y-121148000D01*
X157223500Y-106873000D02*
X157223500Y-107305000D01*
D46*
X177419000Y-120523000D02*
X177355500Y-120459500D01*
X177863500Y-120777000D02*
X177736500Y-120650000D01*
X177482500Y-120523000D02*
X177419000Y-120523000D01*
D43*
X168006000Y-117135000D02*
X168006000Y-115763000D01*
D44*
X163180000Y-121859000D02*
X163180000Y-123180000D01*
X172324000Y-123180000D02*
X174102000Y-121656000D01*
D43*
X157846000Y-110365500D02*
X157846000Y-110218500D01*
X155763000Y-112855000D02*
X155763000Y-112705000D01*
D46*
X162179000Y-121856500D02*
X160718500Y-121856500D01*
X177355500Y-120459500D02*
X175133000Y-120459500D01*
D44*
X178622000Y-121636000D02*
X179231500Y-121229500D01*
D46*
X178622000Y-121636000D02*
X178625500Y-121666000D01*
D43*
X174610000Y-84686500D02*
X174610000Y-84833500D01*
%TO.N,SRB1*%
D44*
X126604000Y-97145000D02*
X127772500Y-97145000D01*
X126604000Y-106136500D02*
X127772500Y-106136500D01*
X126604000Y-109134000D02*
X127772500Y-109134000D01*
D43*
X127772500Y-112131000D02*
X128204000Y-112131000D01*
D44*
X126604000Y-100142000D02*
X127772500Y-100142000D01*
D43*
X127772500Y-94148000D02*
X128204000Y-94148000D01*
X142657000Y-108981500D02*
X142403000Y-108651000D01*
X127772500Y-100142000D02*
X128204000Y-100142000D01*
D44*
X126604000Y-112131000D02*
X127772500Y-112131000D01*
D43*
X127772500Y-97145000D02*
X128204000Y-97145000D01*
X127772500Y-91150500D02*
X128204000Y-91150500D01*
D44*
X126604000Y-91150500D02*
X127772500Y-91150500D01*
D43*
X142657000Y-108981500D02*
X142911000Y-108651000D01*
X127772500Y-106136500D02*
X128204000Y-106136500D01*
D44*
X129499500Y-89144000D02*
X130160000Y-89144000D01*
D43*
X142403000Y-108651000D02*
X142403000Y-107686000D01*
D44*
X126604000Y-94148000D02*
X127772500Y-94148000D01*
D43*
X127772500Y-109134000D02*
X128204000Y-109134000D01*
X142911000Y-108651000D02*
X142911000Y-107686000D01*
%TO.N,A2_ELEC*%
D44*
X124064000Y-92344500D02*
X124064000Y-91684000D01*
X125537000Y-91684000D02*
X125537000Y-89144000D01*
X124064000Y-91684000D02*
X125537000Y-91684000D01*
X123556000Y-92344500D02*
X124064000Y-92344500D01*
X125537000Y-89144000D02*
X127772500Y-89144000D01*
%TO.N,IN7N*%
D43*
X129499500Y-94148000D02*
X129068000Y-94148000D01*
D44*
X132433500Y-94148000D02*
X133525500Y-94148000D01*
D43*
X136256000Y-94148000D02*
X138821500Y-94148000D01*
X132433500Y-95113000D02*
X132433500Y-94148000D01*
X138821500Y-99349500D02*
X140612000Y-99349500D01*
D44*
X129499500Y-94148000D02*
X132433500Y-94148000D01*
D43*
X138821500Y-94148000D02*
X138821500Y-99349500D01*
%TO.N,IN8N*%
X139482000Y-91150500D02*
X139482000Y-98350000D01*
X129499500Y-91150500D02*
X129068000Y-91150500D01*
X136256000Y-91150500D02*
X139482000Y-91150500D01*
X139482000Y-98350000D02*
X140612000Y-98350000D01*
X132433500Y-92116000D02*
X132433500Y-91150500D01*
D44*
X129499500Y-91150500D02*
X132433500Y-91150500D01*
X132433500Y-91150500D02*
X133525500Y-91150500D01*
%TO.N,IN8P*%
D43*
X135595500Y-93398500D02*
X135799000Y-93195500D01*
D44*
X131176000Y-93398500D02*
X133525500Y-93398500D01*
D43*
X135799000Y-93195500D02*
X135799000Y-92649000D01*
X139151500Y-98850000D02*
X140612000Y-98850000D01*
X135799000Y-92649000D02*
X139151500Y-92649000D01*
D44*
X133525500Y-93398500D02*
X135595500Y-93398500D01*
D43*
X129499500Y-92649000D02*
X129068000Y-92649000D01*
D44*
X131176000Y-92649000D02*
X129499500Y-92649000D01*
X133525500Y-93398500D02*
X133525500Y-92649000D01*
D43*
X131176000Y-92649000D02*
X130429000Y-92116000D01*
X139151500Y-92649000D02*
X139151500Y-98850000D01*
D44*
X131176000Y-92649000D02*
X131176000Y-93398500D01*
%TO.N,IN7P*%
X133525500Y-96395500D02*
X135595500Y-96395500D01*
D43*
X135799000Y-95646500D02*
X138491000Y-95646500D01*
D44*
X131176000Y-96395500D02*
X133525500Y-96395500D01*
D43*
X138491000Y-99849000D02*
X140612000Y-99849000D01*
D44*
X131176000Y-95646500D02*
X131176000Y-96395500D01*
D43*
X135595500Y-96395500D02*
X135799000Y-96192500D01*
X129499500Y-95646500D02*
X129068000Y-95646500D01*
X135799000Y-96192500D02*
X135799000Y-95646500D01*
X131176000Y-95646500D02*
X130429000Y-95113000D01*
D44*
X131176000Y-95646500D02*
X129499500Y-95646500D01*
X133525500Y-96395500D02*
X133525500Y-95646500D01*
D43*
X138491000Y-95646500D02*
X138491000Y-99849000D01*
%TO.N,IN6N*%
D44*
X132433500Y-97145000D02*
X133525500Y-97145000D01*
D43*
X129499500Y-97145000D02*
X129068000Y-97145000D01*
D44*
X129499500Y-97145000D02*
X132433500Y-97145000D01*
D43*
X136256000Y-97145000D02*
X138161000Y-97145000D01*
X132433500Y-98110000D02*
X132433500Y-97145000D01*
X138161000Y-97145000D02*
X138161000Y-100348500D01*
X138161000Y-100348500D02*
X140612000Y-100348500D01*
%TO.N,IN6P*%
X135595500Y-99393000D02*
X135799000Y-99189500D01*
D44*
X131176000Y-98643500D02*
X131176000Y-99393000D01*
X133525500Y-99393000D02*
X133525500Y-98643500D01*
D43*
X135799000Y-98643500D02*
X137831000Y-98643500D01*
D44*
X131176000Y-99393000D02*
X133525500Y-99393000D01*
D43*
X129499500Y-98643500D02*
X129068000Y-98643500D01*
D44*
X133525500Y-99393000D02*
X135595500Y-99393000D01*
D43*
X131176000Y-98643500D02*
X130429000Y-98110000D01*
X137831000Y-100848500D02*
X140612000Y-100848500D01*
X135799000Y-99189500D02*
X135799000Y-98643500D01*
D44*
X131176000Y-98643500D02*
X129499500Y-98643500D01*
D43*
X137831000Y-98643500D02*
X137831000Y-100848500D01*
%TO.N,IN5N*%
X129499500Y-100142000D02*
X129068000Y-100142000D01*
X137500500Y-100142000D02*
X137500500Y-101348000D01*
D44*
X132433500Y-100142000D02*
X133525500Y-100142000D01*
X129499500Y-100142000D02*
X132433500Y-100142000D01*
D43*
X132433500Y-101107500D02*
X132433500Y-100142000D01*
X136256000Y-100142000D02*
X137500500Y-100142000D01*
X137500500Y-101348000D02*
X140612000Y-101348000D01*
%TO.N,IN5P*%
X135799000Y-102187000D02*
X135799000Y-101641000D01*
D44*
X131176000Y-101641000D02*
X129499500Y-101641000D01*
D43*
X129499500Y-101641000D02*
X129068000Y-101641000D01*
D44*
X131176000Y-101641000D02*
X131176000Y-102390000D01*
X131176000Y-102390000D02*
X133525500Y-102390000D01*
D43*
X131176000Y-101641000D02*
X130429000Y-101107500D01*
D44*
X133525500Y-102390000D02*
X135595500Y-102390000D01*
D43*
X135799000Y-101641000D02*
X137170500Y-101641000D01*
X137170500Y-101641000D02*
X137170500Y-101847500D01*
X135595500Y-102390000D02*
X135799000Y-102187000D01*
D44*
X133525500Y-102390000D02*
X133525500Y-101641000D01*
D43*
X137170500Y-101847500D02*
X140612000Y-101847500D01*
%TO.N,IN4N*%
X129499500Y-103139500D02*
X129068000Y-103139500D01*
D44*
X129499500Y-103139500D02*
X132433500Y-103139500D01*
D43*
X136256000Y-103139500D02*
X137170500Y-103139500D01*
X137170500Y-103139500D02*
X137170500Y-102347000D01*
D44*
X132433500Y-103139500D02*
X133525500Y-103139500D01*
D43*
X137170500Y-102347000D02*
X140612000Y-102347000D01*
X132433500Y-104104500D02*
X132433500Y-103139500D01*
%TO.N,IN4P*%
X129499500Y-104638000D02*
X129068000Y-104638000D01*
X135799000Y-105184000D02*
X135799000Y-104638000D01*
X135595500Y-105387500D02*
X135799000Y-105184000D01*
X137500500Y-104638000D02*
X137500500Y-102847000D01*
D44*
X133525500Y-105387500D02*
X133525500Y-104638000D01*
D43*
X135799000Y-104638000D02*
X137500500Y-104638000D01*
X137500500Y-102847000D02*
X140612000Y-102847000D01*
D44*
X131176000Y-105387500D02*
X133525500Y-105387500D01*
X131176000Y-104638000D02*
X129499500Y-104638000D01*
X133525500Y-105387500D02*
X135595500Y-105387500D01*
X131176000Y-104638000D02*
X131176000Y-105387500D01*
D43*
X131176000Y-104638000D02*
X130429000Y-104104500D01*
%TO.N,IN3N*%
X137831000Y-106136500D02*
X137831000Y-103346500D01*
X129499500Y-106136500D02*
X129068000Y-106136500D01*
D44*
X132433500Y-106136500D02*
X133525500Y-106136500D01*
D43*
X137831000Y-103346500D02*
X140612000Y-103346500D01*
X136256000Y-106136500D02*
X137831000Y-106136500D01*
D44*
X129499500Y-106136500D02*
X132433500Y-106136500D01*
D43*
X132433500Y-107102000D02*
X132433500Y-106136500D01*
%TO.N,IN3P*%
D44*
X131176000Y-108384500D02*
X133525500Y-108384500D01*
D43*
X135799000Y-107635000D02*
X138161000Y-107635000D01*
X138161000Y-107635000D02*
X138161000Y-103846000D01*
X131176000Y-107635000D02*
X130429000Y-107102000D01*
X135799000Y-108181500D02*
X135799000Y-107635000D01*
D44*
X133525500Y-108384500D02*
X135595500Y-108384500D01*
X131176000Y-107635000D02*
X131176000Y-108384500D01*
D43*
X135595500Y-108384500D02*
X135799000Y-108181500D01*
D44*
X131176000Y-107635000D02*
X129499500Y-107635000D01*
D43*
X129499500Y-107635000D02*
X129068000Y-107635000D01*
D44*
X133525500Y-108384500D02*
X133525500Y-107635000D01*
D43*
X138161000Y-103846000D02*
X140612000Y-103846000D01*
%TO.N,IN2N*%
D44*
X132433500Y-109134000D02*
X133525500Y-109134000D01*
D43*
X132433500Y-110099000D02*
X132433500Y-109134000D01*
X136256000Y-109134000D02*
X138491000Y-109134000D01*
D44*
X129499500Y-109134000D02*
X132433500Y-109134000D01*
D43*
X138491000Y-104345500D02*
X140612000Y-104345500D01*
X138491000Y-109134000D02*
X138491000Y-104345500D01*
X129499500Y-109134000D02*
X129068000Y-109134000D01*
%TO.N,IN2P*%
X138821500Y-110632500D02*
X138821500Y-104845500D01*
D44*
X131176000Y-110632500D02*
X131176000Y-111381500D01*
D43*
X135595500Y-111381500D02*
X135799000Y-111178500D01*
X135799000Y-111178500D02*
X135799000Y-110632500D01*
X131176000Y-110632500D02*
X130429000Y-110099000D01*
X129499500Y-110632500D02*
X129068000Y-110632500D01*
D44*
X131176000Y-111381500D02*
X133525500Y-111381500D01*
X133525500Y-111381500D02*
X133525500Y-110632500D01*
D43*
X138821500Y-104845500D02*
X140612000Y-104845500D01*
D44*
X131176000Y-110632500D02*
X129499500Y-110632500D01*
D43*
X135799000Y-110632500D02*
X138821500Y-110632500D01*
D44*
X133525500Y-111381500D02*
X135595500Y-111381500D01*
%TO.N,IN1N*%
D43*
X132433500Y-113096000D02*
X132433500Y-112131000D01*
D44*
X132433500Y-112131000D02*
X133525500Y-112131000D01*
D43*
X129499500Y-112131000D02*
X129068000Y-112131000D01*
X136256000Y-112131000D02*
X139151500Y-112131000D01*
D44*
X129499500Y-112131000D02*
X132433500Y-112131000D01*
D43*
X139151500Y-112131000D02*
X139151500Y-105345000D01*
X139151500Y-105345000D02*
X140612000Y-105345000D01*
%TO.N,IN1P*%
X131176000Y-113629500D02*
X130429000Y-113096000D01*
D44*
X131176000Y-113629500D02*
X131176000Y-114379000D01*
D43*
X135799000Y-113629500D02*
X139482000Y-113629500D01*
X129499500Y-113629500D02*
X129068000Y-113629500D01*
X139482000Y-105844500D02*
X140612000Y-105844500D01*
X135799000Y-114175500D02*
X135799000Y-113629500D01*
D44*
X133525500Y-114379000D02*
X133525500Y-113629500D01*
X133525500Y-114379000D02*
X135595500Y-114379000D01*
D43*
X135595500Y-114379000D02*
X135799000Y-114175500D01*
D44*
X131176000Y-114379000D02*
X133525500Y-114379000D01*
D43*
X139482000Y-113629500D02*
X139482000Y-105844500D01*
D44*
X131176000Y-113629500D02*
X129499500Y-113629500D01*
%TO.N,AVDD*%
D43*
X147229000Y-114798000D02*
X146924000Y-114341000D01*
X140828000Y-111394500D02*
X140282000Y-110480000D01*
D44*
X144414500Y-108338473D02*
X144414500Y-108905000D01*
X147411500Y-96548000D02*
X147411500Y-95087500D01*
D43*
X140371000Y-93119000D02*
X140523000Y-93119000D01*
X146771500Y-114188500D02*
X146771500Y-114137500D01*
X150581500Y-92700000D02*
X150886500Y-94198500D01*
X142009000Y-110480000D02*
X142161500Y-110480000D01*
D44*
X144912500Y-96548000D02*
X144912500Y-95087500D01*
D43*
X145044500Y-112867500D02*
X145044500Y-112766000D01*
X140129500Y-110480000D02*
X140282000Y-110480000D01*
X147127000Y-114595000D02*
X146822500Y-114188500D01*
X143416500Y-109667000D02*
X143419000Y-109769000D01*
X144130000Y-116881000D02*
X144130000Y-116271000D01*
X145095000Y-115661500D02*
X145095000Y-113274000D01*
X140523000Y-93271500D02*
X140523000Y-93119000D01*
D44*
X142161500Y-111089500D02*
X142161500Y-110759500D01*
D43*
X147483000Y-115103000D02*
X147229000Y-114798000D01*
X141488500Y-119573000D02*
X140320000Y-119573000D01*
D44*
X144028500Y-109870500D02*
X144028500Y-111089500D01*
D43*
X144587000Y-108905000D02*
X144689000Y-108956000D01*
D44*
X144414500Y-107648000D02*
X144414500Y-108299272D01*
D43*
X145095000Y-113274000D02*
X145044500Y-112867500D01*
X144417000Y-109769000D02*
X144417000Y-109464000D01*
X144417000Y-108702000D02*
X144587000Y-108905000D01*
D44*
X144414500Y-107648000D02*
X144414500Y-108338473D01*
D43*
X147483000Y-115103000D02*
X147127000Y-114595000D01*
X150569000Y-92700000D02*
X150569000Y-92564500D01*
X145031500Y-112766000D02*
X144879500Y-112766000D01*
X142301000Y-119802000D02*
X141793000Y-119802000D01*
X146822500Y-114188500D02*
X146695500Y-114010500D01*
X143431500Y-92700000D02*
X143429000Y-92497000D01*
D44*
X144028500Y-111089500D02*
X142161500Y-111089500D01*
D43*
X150886500Y-94198500D02*
X150886500Y-94198500D01*
D44*
X146411000Y-96548000D02*
X146411000Y-95087500D01*
D43*
X141793000Y-119802000D02*
X141488500Y-119573000D01*
X143292000Y-111343500D02*
X144041000Y-110480000D01*
X145997000Y-92700000D02*
X145997000Y-92564500D01*
X148283000Y-92700000D02*
X148283000Y-92564500D01*
X146924000Y-114341000D02*
X146771500Y-114188500D01*
X145603000Y-115661500D02*
X145095000Y-115661500D01*
D44*
X144915000Y-107648000D02*
X144915000Y-108905000D01*
D43*
X144417000Y-108905000D02*
X144417000Y-109464000D01*
D44*
X144587000Y-108905000D02*
X144915000Y-108905000D01*
X144414500Y-109464000D02*
X144028500Y-109870500D01*
X144417000Y-108905000D02*
X144587000Y-108905000D01*
D43*
X145908000Y-115979000D02*
X145603000Y-115661500D01*
X141996500Y-92979500D02*
X141996500Y-93119000D01*
X140320000Y-119573000D02*
X140066000Y-119624000D01*
D44*
X144414500Y-108299272D02*
X144414500Y-108905000D01*
D43*
X143416500Y-107648000D02*
X143416500Y-109667000D01*
%TO.N,AVSS*%
X152766000Y-111242000D02*
X154087000Y-111343500D01*
X149819500Y-92243000D02*
X149972000Y-92090500D01*
D47*
X145755500Y-93919000D02*
X146835000Y-93919000D01*
D45*
X145412500Y-106467000D02*
X146411000Y-106467000D01*
D43*
X149210000Y-115217000D02*
X149360000Y-115367000D01*
X155560000Y-118913000D02*
X155204500Y-119217500D01*
X152575500Y-112766000D02*
X152728000Y-112766000D01*
D47*
X146835000Y-93919000D02*
X147991000Y-93919000D01*
D44*
X146835000Y-92700000D02*
X146835000Y-93919000D01*
D43*
X142161500Y-112766000D02*
X142161500Y-112630500D01*
X153883500Y-116474500D02*
X154036000Y-116271000D01*
X151496000Y-113782000D02*
X151943000Y-112766000D01*
D44*
X145913000Y-95494000D02*
X145755500Y-95494000D01*
X145412500Y-95494000D02*
X145412500Y-95367000D01*
D43*
X151293000Y-110480000D02*
X151953000Y-110480000D01*
X149921000Y-109007000D02*
X149921000Y-109769000D01*
X145654000Y-92090500D02*
X145654000Y-91557000D01*
D47*
X141209000Y-93919000D02*
X144828500Y-93919000D01*
D46*
X152258000Y-113577000D02*
X151719500Y-113274000D01*
X141209000Y-95444000D02*
X141209000Y-93919000D01*
D44*
X147909500Y-95748000D02*
X147991000Y-95748000D01*
X145412500Y-96548000D02*
X145412500Y-95494000D01*
D43*
X154696500Y-111496000D02*
X154087000Y-111343500D01*
D44*
X149908500Y-108829000D02*
X149908500Y-109007000D01*
D43*
X148803500Y-109769000D02*
X149921000Y-109769000D01*
D44*
X145412500Y-109108500D02*
X145197000Y-109413000D01*
X147909500Y-96548000D02*
X147909500Y-95748000D01*
D43*
X154239000Y-120233500D02*
X153883500Y-120335000D01*
X156068000Y-118430000D02*
X156068000Y-118709500D01*
D46*
X141832000Y-95444000D02*
X141209000Y-95444000D01*
D43*
X149921000Y-109769000D02*
X151293000Y-109769000D01*
X143919000Y-109184500D02*
X143919000Y-107648000D01*
X154849000Y-119675000D02*
X154239000Y-120233500D01*
D44*
X145913000Y-96548000D02*
X145913000Y-95494000D01*
D43*
X151420000Y-92700000D02*
X151420000Y-92090500D01*
X151039000Y-119802000D02*
X150449500Y-119812000D01*
X153985000Y-120335000D02*
X153883500Y-120335000D01*
D44*
X145412500Y-107648000D02*
X145412500Y-109108500D01*
D43*
X140294500Y-112766000D02*
X140625000Y-112766000D01*
D46*
X150937000Y-108751000D02*
X149908500Y-108829000D01*
D43*
X149019500Y-112766000D02*
X148867000Y-112766000D01*
D46*
X144118000Y-93842000D02*
X144828500Y-93919000D01*
D44*
X149210000Y-114544000D02*
X149360000Y-115090000D01*
D43*
X149134000Y-92090500D02*
X145654000Y-92090500D01*
D44*
X149527500Y-112486500D02*
X149527500Y-114036000D01*
D43*
X151293000Y-109769000D02*
X151293000Y-110480000D01*
X145768500Y-112766000D02*
X145920500Y-112766000D01*
D44*
X144828500Y-92700000D02*
X144828500Y-93919000D01*
D46*
X147912000Y-109846000D02*
X147863750Y-109769000D01*
D43*
X140625000Y-112766000D02*
X140625000Y-113528000D01*
X151953000Y-110480000D02*
X152410500Y-110886500D01*
X152410500Y-110886500D02*
X152766000Y-111242000D01*
X151293000Y-120056000D02*
X151293000Y-120335000D01*
X148422500Y-115992000D02*
X148422500Y-115992000D01*
X151293000Y-120335000D02*
X153883500Y-120335000D01*
X140129500Y-112766000D02*
X140282000Y-112766000D01*
D45*
X145412500Y-107648000D02*
X145412500Y-106467000D01*
D47*
X144828500Y-93919000D02*
X145755500Y-93919000D01*
X147991000Y-93919000D02*
X148702000Y-93919000D01*
D45*
X146411000Y-106467000D02*
X146411000Y-107648000D01*
D43*
X155204500Y-119217500D02*
X154849000Y-119675000D01*
D44*
X149121000Y-92700000D02*
X149121000Y-93919000D01*
D43*
X151280000Y-110480000D02*
X151130000Y-110480000D01*
X151039000Y-119802000D02*
X151293000Y-120056000D01*
X149261000Y-92090500D02*
X149413000Y-92243000D01*
D44*
X145755500Y-95494000D02*
X145755500Y-93919000D01*
X147991000Y-95748000D02*
X147991000Y-93919000D01*
D43*
X149134000Y-92700000D02*
X149134000Y-92090500D01*
X149908500Y-108829000D02*
X149911000Y-107648000D01*
D44*
X149527500Y-114036000D02*
X149210000Y-114544000D01*
D43*
X152093000Y-112766000D02*
X151943000Y-112766000D01*
D45*
X148422500Y-115992000D02*
X148422500Y-115992000D01*
D43*
X156068000Y-118709500D02*
X155560000Y-118913000D01*
X146924000Y-109769000D02*
X146974000Y-110480000D01*
X149413000Y-92243000D02*
X149819500Y-92243000D01*
D44*
X151407000Y-92700000D02*
X151407000Y-93919000D01*
D43*
X148803500Y-109769000D02*
X148803500Y-110480000D01*
X153883500Y-120335000D02*
X153883500Y-116474500D01*
D46*
X149586000Y-109172000D02*
X149908500Y-109007000D01*
D44*
X141209000Y-91303000D02*
X141209000Y-93919000D01*
X145197000Y-109413000D02*
X145095000Y-109515000D01*
D43*
X146924000Y-109769000D02*
X148803500Y-109769000D01*
X148791000Y-110480000D02*
X148638500Y-110480000D01*
X149134000Y-92090500D02*
X149261000Y-92090500D01*
X154036000Y-116271000D02*
X154036000Y-116068000D01*
D44*
X145755500Y-95494000D02*
X145412500Y-95494000D01*
D43*
X149972000Y-92090500D02*
X151420000Y-92090500D01*
X146911500Y-110480000D02*
X146809000Y-110480000D01*
D44*
X145913000Y-95494000D02*
X145913000Y-95367000D01*
D43*
X145705000Y-113782000D02*
X145920500Y-112766000D01*
D47*
X141082000Y-93919000D02*
X141209000Y-93919000D01*
%TO.N,VREFP*%
D46*
X150937000Y-111701000D02*
X150740250Y-111496000D01*
D47*
X147800500Y-111496000D02*
X149730500Y-111496000D01*
X145781000Y-111496000D02*
X145920500Y-111496000D01*
X149730500Y-111496000D02*
X151750000Y-111496000D01*
X145920500Y-111496000D02*
X147800500Y-111496000D01*
D44*
X145913000Y-107648000D02*
X145913000Y-110200500D01*
X149730500Y-110480000D02*
X149730500Y-111496000D01*
X147800500Y-110480000D02*
X147800500Y-111496000D01*
X145970500Y-110480000D02*
X145920500Y-111496000D01*
%TO.N,VCAP4*%
D43*
X147686000Y-114442500D02*
X147584500Y-113274000D01*
D44*
X146911500Y-109007000D02*
X146911500Y-107648000D01*
D43*
X147584500Y-113274000D02*
X147381000Y-113172500D01*
X147368500Y-113172500D02*
X148029000Y-112766000D01*
%TO.N,VCAP1*%
D46*
X150302000Y-114341000D02*
X150810000Y-114341000D01*
X152258000Y-116527000D02*
X151750000Y-116527000D01*
X147912000Y-109006000D02*
X147909500Y-109007000D01*
D44*
X147909500Y-109007000D02*
X147909500Y-107648000D01*
X150810000Y-114341000D02*
X150810000Y-113172500D01*
%TO.N,VCAP2*%
D46*
X148746000Y-109172000D02*
X148912000Y-107648000D01*
%TO.N,ADS_DIN_LOC*%
D43*
X154442500Y-107559000D02*
X154239000Y-107762000D01*
X151712000Y-105344000D02*
X154442500Y-105344000D01*
X154442500Y-105344000D02*
X154442500Y-107559000D01*
X154239000Y-107762000D02*
X154239000Y-107952500D01*
%TO.N,ADS_PWDN_N*%
X152334000Y-85486500D02*
X152334000Y-85486500D01*
D45*
X153172500Y-108854500D02*
X153172500Y-106975000D01*
X153274000Y-109057500D02*
X153172500Y-108854500D01*
D43*
X153071000Y-104846500D02*
X153375500Y-104714000D01*
X152258000Y-84877000D02*
X152410500Y-85029000D01*
D45*
X153325000Y-106797000D02*
X153375500Y-106771500D01*
X174356000Y-101971000D02*
X174559000Y-101971000D01*
D43*
X152410500Y-85029000D02*
X152334000Y-85486500D01*
X152334000Y-85486500D02*
X152334000Y-85486500D01*
D45*
X153172500Y-106975000D02*
X153325000Y-106797000D01*
D43*
X152258000Y-83797500D02*
X152258000Y-84877000D01*
X153375500Y-104714000D02*
X153426500Y-104689000D01*
X152613500Y-104846500D02*
X153071000Y-104846500D01*
%TO.N,ADS_RESET_N*%
X147586000Y-83467000D02*
X147686000Y-83124200D01*
X151013500Y-84978500D02*
X151039000Y-85131000D01*
X151140500Y-85613500D02*
X151191000Y-85689500D01*
X150632500Y-83797500D02*
X151013500Y-84165500D01*
X145501500Y-83048000D02*
X145349000Y-83200500D01*
X151013500Y-84165500D02*
X151013500Y-84978500D01*
X145349000Y-85435500D02*
X145349000Y-83200500D01*
X151039000Y-85486500D02*
X151140500Y-85613500D01*
X151039000Y-85131000D02*
X151039000Y-85486500D01*
X172463500Y-106797000D02*
X172466000Y-106525000D01*
D45*
X147686000Y-83124200D02*
X145501500Y-83048000D01*
D43*
X150353000Y-104346000D02*
X150886500Y-104346000D01*
X172463500Y-106797000D02*
X172463500Y-106530500D01*
%TO.N,ADS_START*%
X171193500Y-106924000D02*
X171196000Y-106525000D01*
X171193500Y-107483000D02*
X171193500Y-107686000D01*
X152969000Y-103347500D02*
X153223000Y-103520500D01*
X171193500Y-107686000D02*
X171308000Y-107838500D01*
X171308000Y-107838500D02*
X171308000Y-108714500D01*
X152969000Y-103347500D02*
X153223000Y-103347500D01*
X151712000Y-103347500D02*
X152969000Y-103347500D01*
%TO.N,ADS_CS_N*%
X146162000Y-83802500D02*
X146162000Y-85232500D01*
X167383500Y-89271000D02*
X167383500Y-88839000D01*
X151712000Y-102847500D02*
X154036000Y-102847500D01*
X154036000Y-86731000D02*
X171105000Y-86731000D01*
X154239000Y-103215500D02*
X154341000Y-103266500D01*
X171105000Y-86731000D02*
X172832000Y-86147000D01*
X154036000Y-103063000D02*
X154239000Y-103215500D01*
X154036000Y-103063000D02*
X154036000Y-102847500D01*
X167383500Y-89271000D02*
X167386000Y-88527000D01*
X154036000Y-102847500D02*
X154036000Y-86731000D01*
%TO.N,ADS_SCLK_LOC*%
X169695000Y-86401000D02*
X169695000Y-85105500D01*
X151712000Y-102347000D02*
X153629500Y-102347000D01*
X153629500Y-102347000D02*
X153629500Y-86401000D01*
X153629500Y-86401000D02*
X169695000Y-86401000D01*
%TO.N,ADS_DOUT_LOC*%
X151712000Y-100848500D02*
X153223000Y-100848500D01*
X165885000Y-85969000D02*
X165885000Y-85105500D01*
X153223000Y-100848500D02*
X153223000Y-85969000D01*
X153223000Y-85969000D02*
X165885000Y-85969000D01*
%TO.N,ADS_DRDY_N*%
X151496000Y-82946500D02*
X149210000Y-82946500D01*
D45*
X152893000Y-83403500D02*
X152817000Y-83251000D01*
X152893000Y-84267000D02*
X152893000Y-83403500D01*
D43*
X152817000Y-82946500D02*
X151496000Y-82946500D01*
X151597500Y-85029000D02*
X151597500Y-84877000D01*
X151496000Y-84724500D02*
X151496000Y-82946500D01*
X149210000Y-82946500D02*
X149210000Y-83802500D01*
D45*
X152817000Y-83251000D02*
X152817000Y-82946500D01*
D43*
X169923500Y-105095000D02*
X171536500Y-105095000D01*
X171536500Y-105095000D02*
X171740000Y-104943000D01*
X151597500Y-84877000D02*
X151496000Y-84724500D01*
D45*
X152817000Y-84419500D02*
X152893000Y-84267000D01*
D43*
X169923500Y-105755500D02*
X169923500Y-105095000D01*
D45*
X152817000Y-98852000D02*
X152817000Y-84419500D01*
D43*
X151712000Y-98852000D02*
X152817000Y-98852000D01*
%TO.N,DVDD*%
D44*
X149210000Y-81321000D02*
X150353000Y-81321000D01*
D43*
X146162000Y-82298500D02*
X146162000Y-81321000D01*
D44*
X152410500Y-86096000D02*
X152410500Y-87021378D01*
X152410500Y-97831000D02*
X152410500Y-98262500D01*
D43*
X149408000Y-97831000D02*
X148410000Y-97831000D01*
X149718000Y-86667500D02*
X149718000Y-86096000D01*
X152410500Y-90312500D02*
X149718000Y-90312500D01*
D47*
X149718000Y-86096000D02*
X150175000Y-86096000D01*
X151902500Y-86096000D02*
X152410500Y-86096000D01*
D44*
X152410500Y-87021378D02*
X152463500Y-87757000D01*
D47*
X146822500Y-86096000D02*
X147686000Y-86096000D01*
D43*
X146162000Y-89042500D02*
X148270000Y-89042500D01*
X148041500Y-86172000D02*
X147838500Y-86096000D01*
D44*
X144892000Y-84978500D02*
X144892000Y-81321000D01*
X144892000Y-86096000D02*
X144892000Y-85943500D01*
D47*
X151750000Y-86299000D02*
X151902500Y-86096000D01*
X147686000Y-86096000D02*
X147838500Y-86096000D01*
D43*
X152410500Y-97831000D02*
X149408000Y-97831000D01*
D44*
X146822500Y-86096000D02*
X144892000Y-86096000D01*
D43*
X148270000Y-86451500D02*
X148041500Y-86172000D01*
D47*
X147838500Y-86096000D02*
X149718000Y-86096000D01*
D43*
X151750000Y-86299000D02*
X151750000Y-86665000D01*
D44*
X144892000Y-85943500D02*
X144739500Y-85791000D01*
X144739500Y-85131000D02*
X144892000Y-84978500D01*
D43*
X149408000Y-97831000D02*
X149408000Y-97373500D01*
X151750000Y-86096000D02*
X151750000Y-86299000D01*
X150175000Y-85715000D02*
X150175000Y-86096000D01*
D44*
X152463500Y-87757000D02*
X152463500Y-88963500D01*
D43*
X149210000Y-82298500D02*
X149210000Y-81321000D01*
D44*
X144739500Y-85791000D02*
X144739500Y-85131000D01*
D47*
X150480000Y-86096000D02*
X150632500Y-86299000D01*
X150632500Y-86299000D02*
X151750000Y-86299000D01*
D44*
X152463500Y-88963500D02*
X152410500Y-89110621D01*
X150353000Y-81321000D02*
X152258000Y-81321000D01*
D43*
X146162000Y-88280500D02*
X146162000Y-89042500D01*
X147686000Y-86947000D02*
X147686000Y-86096000D01*
X148410000Y-97831000D02*
X148410000Y-97373500D01*
X152258000Y-82298500D02*
X152258000Y-81321000D01*
D47*
X150175000Y-86096000D02*
X150480000Y-86096000D01*
X148270000Y-89042500D02*
X148270000Y-86451500D01*
D44*
X152410500Y-89110621D02*
X152410500Y-90312500D01*
X152410500Y-90312500D02*
X152410500Y-97831000D01*
D43*
X150353000Y-82298500D02*
X150353000Y-81321000D01*
D44*
X144892000Y-81321000D02*
X146162000Y-81321000D01*
X146162000Y-81321000D02*
X149210000Y-81321000D01*
%TO.N,VCAP3*%
D46*
X146912000Y-94448000D02*
X146912000Y-96548000D01*
X146912000Y-97564000D02*
X146912000Y-96548000D01*
X144118000Y-94682000D02*
X144118000Y-95190000D01*
X146832000Y-94448000D02*
X146912000Y-94448000D01*
X144118000Y-94604000D02*
X144118000Y-94682000D01*
%TO.N,BIAS_INV*%
D44*
X144104500Y-90414000D02*
X145666500Y-90414000D01*
X141793000Y-97780000D02*
X143916500Y-97780000D01*
X144104500Y-91735000D02*
X144104500Y-90414000D01*
X143916500Y-97780000D02*
X143916500Y-96764000D01*
X143279000Y-90414000D02*
X144104500Y-90414000D01*
%TO.N,BIAS_OUT_INT*%
D43*
X148905000Y-88788500D02*
X148956000Y-89753500D01*
D44*
X130160000Y-87264500D02*
X130160000Y-87544500D01*
X130160000Y-87544500D02*
X130160000Y-87569000D01*
D45*
X148905000Y-88788500D02*
X148905000Y-88788500D01*
D44*
X142913500Y-95138500D02*
X142913500Y-96408500D01*
D43*
X130160000Y-87544500D02*
X129637000Y-87264500D01*
D44*
X149362500Y-90973000D02*
X149616500Y-91379000D01*
X147673500Y-90744000D02*
X147978000Y-90973000D01*
X129499500Y-87264500D02*
X129637000Y-87264500D01*
X129637000Y-87264500D02*
X130160000Y-87264500D01*
D46*
X142440000Y-90414000D02*
X141885200Y-90414000D01*
D44*
X143165000Y-95138500D02*
X142913500Y-95138500D01*
X149616500Y-91379000D02*
X149616500Y-91684000D01*
X147978000Y-90973000D02*
X149362500Y-90973000D01*
X147673500Y-89906000D02*
X148753000Y-89906000D01*
D43*
X148803500Y-89906000D02*
X148753000Y-89906000D01*
X130490000Y-87721500D02*
X130160000Y-87544500D01*
X148956000Y-89753500D02*
X148803500Y-89906000D01*
D44*
X147673500Y-89906000D02*
X147673500Y-90084000D01*
X130160000Y-87569000D02*
X130490000Y-87721500D01*
%TO.N,SPI_SCK*%
D43*
X166113500Y-89271000D02*
X166116000Y-88527000D01*
X171701500Y-85740500D02*
X171699000Y-84826000D01*
X166113500Y-89271000D02*
X166113500Y-88839000D01*
X171701500Y-85105500D02*
X171701500Y-85435500D01*
%TO.N,ESP_EN*%
X157846000Y-108714500D02*
X157846000Y-107940000D01*
X158493500Y-107940000D02*
X159116000Y-107940000D01*
X159116000Y-107940000D02*
X160170000Y-107940000D01*
X157846000Y-107940000D02*
X158493500Y-107940000D01*
X160170000Y-109464000D02*
X160170000Y-107940000D01*
X158493500Y-107178000D02*
X158493500Y-107940000D01*
X159116000Y-109045000D02*
X159116000Y-107940000D01*
%TO.N,ESP_IO15*%
X173962500Y-93081000D02*
X174622500Y-93081000D01*
%TO.N,USB_DP*%
X176083000Y-104790500D02*
X176451500Y-104765000D01*
X176451500Y-102098000D02*
X176451500Y-102479000D01*
X162799000Y-116169500D02*
X162799000Y-117211000D01*
X174762500Y-110238500D02*
X174762500Y-111242000D01*
X174762500Y-111242000D02*
X175321000Y-111242000D01*
X176451500Y-101742500D02*
X176454000Y-102474000D01*
X175778500Y-104943000D02*
X176083000Y-104790500D01*
X176286500Y-102479000D02*
X176451500Y-102479000D01*
X175880000Y-102555000D02*
X176286500Y-102479000D01*
X174915000Y-111140500D02*
X175791000Y-111237000D01*
X175321000Y-110238500D02*
X174762500Y-110238500D01*
%TO.N,USB_DM*%
X176591000Y-110734000D02*
X176591000Y-111737500D01*
X176388000Y-110734000D02*
X175791000Y-110739000D01*
X178356500Y-101742500D02*
X178356500Y-102479000D01*
X174762500Y-111953000D02*
X174762500Y-112105500D01*
X176591000Y-111737500D02*
X176185000Y-111737500D01*
X175016500Y-111801000D02*
X175804000Y-111724500D01*
X175931000Y-110734000D02*
X176388000Y-110734000D01*
X164069000Y-116169500D02*
X164069000Y-117211000D01*
X174915000Y-112105500D02*
X175016500Y-111801000D01*
X176388000Y-110734000D02*
X176591000Y-110734000D01*
X178166000Y-104358500D02*
X178354000Y-104770000D01*
X175321000Y-111737500D02*
X175016500Y-111737500D01*
D45*
X178166000Y-104358500D02*
X178166000Y-104358500D01*
D43*
X175016500Y-111737500D02*
X174762500Y-111953000D01*
%TO.N,USB_VBUS_RAW*%
X176997500Y-99558000D02*
X177201000Y-100980500D01*
X177201000Y-100980500D02*
X177912000Y-100752000D01*
D45*
X174864000Y-113121500D02*
X175626000Y-113325000D01*
D43*
X176820000Y-112969000D02*
X175894000Y-113369500D01*
X177201000Y-100980500D02*
X177404000Y-100828000D01*
D45*
X174254500Y-112207000D02*
X174254500Y-112766000D01*
D43*
X175931000Y-113388500D02*
X176820000Y-112969000D01*
D46*
X175791000Y-108588000D02*
X173799500Y-108204000D01*
D45*
X175626000Y-113325000D02*
X175894000Y-113369500D01*
X172629000Y-108397000D02*
X171917500Y-108803500D01*
D43*
X176820000Y-112969000D02*
X176820000Y-112969000D01*
X175894000Y-113369500D02*
X175791000Y-113388500D01*
D45*
X173695500Y-111191000D02*
X174153000Y-111902500D01*
X171917500Y-110734000D02*
X172085000Y-110871000D01*
X173594000Y-111039000D02*
X173695500Y-111191000D01*
X174254500Y-112766000D02*
X174864000Y-113121500D01*
X173340000Y-110835500D02*
X173594000Y-111039000D01*
D43*
X177404000Y-101996500D02*
X177404000Y-101234500D01*
D45*
X172085000Y-110871000D02*
X172629000Y-110937000D01*
X175894000Y-113369500D02*
X175931000Y-113375500D01*
X172629000Y-110937000D02*
X173340000Y-110835500D01*
X173441500Y-108041500D02*
X172629000Y-108397000D01*
D43*
X177658000Y-100980500D02*
X177861000Y-100828000D01*
X177404000Y-101234500D02*
X177658000Y-100980500D01*
D45*
X174153000Y-111902500D02*
X174254500Y-112207000D01*
X171917500Y-108803500D02*
X171917500Y-110734000D01*
%TO.N,CH_RTS_N*%
D43*
X163180000Y-108511500D02*
X162799000Y-108511500D01*
X168006000Y-111191000D02*
X168768000Y-111191000D01*
X160259000Y-110988000D02*
X159979500Y-110988000D01*
X163180000Y-109210000D02*
X163129000Y-109565500D01*
X163180000Y-109210000D02*
X163180000Y-108511500D01*
X160259000Y-111496000D02*
X160259000Y-110988000D01*
X163129000Y-109565500D02*
X163027500Y-109769000D01*
X163180000Y-109210000D02*
X162377500Y-108514000D01*
X168768000Y-111191000D02*
X168768000Y-110353000D01*
X159929000Y-111089500D02*
X160259000Y-112179500D01*
%TO.N,Q_IO0_B*%
X168031500Y-107991000D02*
X168031500Y-110416500D01*
X168768000Y-107991000D02*
X168031500Y-107991000D01*
X168768000Y-108714500D02*
X168768000Y-107991000D01*
X168031500Y-110416500D02*
X167625000Y-110416500D01*
%TO.N,USB_5V*%
X166990000Y-122062500D02*
X167193000Y-122113000D01*
X176134000Y-96561000D02*
X176134000Y-96929000D01*
X177912000Y-97983000D02*
X177912000Y-97858500D01*
X139101000Y-120640000D02*
X139101000Y-120437000D01*
X155560000Y-123434000D02*
X155560000Y-123091000D01*
X157160000Y-111064000D02*
X157338000Y-110886500D01*
X176134000Y-100371000D02*
X176134000Y-100005000D01*
X171308000Y-112715000D02*
X171308000Y-112931000D01*
X151750000Y-123739000D02*
X151750000Y-123373000D01*
X157338000Y-110886500D02*
X157719000Y-111496000D01*
X157719000Y-111496000D02*
X157719000Y-112182000D01*
X139101000Y-118608000D02*
X139101000Y-118405000D01*
%TO.N,V_PLDO_IN*%
X141996500Y-116627000D02*
X141945500Y-117084000D01*
X141590000Y-118608000D02*
X143622000Y-118608000D01*
X143622000Y-118608000D02*
X144485500Y-118608000D01*
X142352000Y-118557000D02*
X143622000Y-118608000D01*
X142352000Y-116271000D02*
X142352000Y-115979000D01*
X144485500Y-118608000D02*
X144485500Y-119802000D01*
X144485500Y-117897000D02*
X144993500Y-117897000D01*
X144485500Y-117897000D02*
X144485500Y-118608000D01*
X144485500Y-119802000D02*
X144993500Y-119802000D01*
X141945500Y-118252500D02*
X142352000Y-118557000D01*
X141945500Y-117084000D02*
X141945500Y-118252500D01*
X142352000Y-116271000D02*
X141996500Y-116627000D01*
%TO.N,CH8_ELEC*%
X127772500Y-92649000D02*
X128204000Y-92649000D01*
D44*
X124623000Y-92649000D02*
X127772500Y-92649000D01*
X123556000Y-94884500D02*
X124623000Y-94884500D01*
X124623000Y-94884500D02*
X124623000Y-92649000D01*
%TO.N,V_3V3_IN*%
D46*
X177863500Y-118935500D02*
X176911000Y-117983000D01*
D43*
X179816000Y-119045000D02*
X179813500Y-118928500D01*
X166990000Y-120386000D02*
X166990000Y-120183000D01*
D46*
X179832000Y-118935500D02*
X177863500Y-118935500D01*
X179814000Y-118929500D02*
X179832000Y-118935500D01*
D43*
X166990000Y-121097000D02*
X165669000Y-121097000D01*
X166990000Y-120741500D02*
X166990000Y-121097000D01*
X165669000Y-121097000D02*
X165161000Y-121453000D01*
%TO.N,CH_DTR_N*%
D45*
X166228000Y-107914500D02*
X167206000Y-107914500D01*
D43*
X161529000Y-111496000D02*
X161529000Y-110937000D01*
X161529000Y-110937000D02*
X163942000Y-110937000D01*
X163942000Y-110937000D02*
X166228000Y-110937000D01*
X167206000Y-107914500D02*
X167206000Y-108346500D01*
X166228000Y-110937000D02*
X166228000Y-107914500D01*
X163942000Y-110937000D02*
X163942000Y-110353000D01*
%TO.N,Q_EN_B*%
X163942000Y-107991000D02*
X161554500Y-107991000D01*
X161554500Y-110416500D02*
X161961000Y-110416500D01*
X163942000Y-108714500D02*
X163942000Y-107991000D01*
X161554500Y-107991000D02*
X161554500Y-110416500D01*
%TO.N,LED_A*%
X178661500Y-87950000D02*
X178661500Y-89652000D01*
%TO.N,CH340_V3*%
X171105000Y-115763000D02*
X171308000Y-115509000D01*
X161529000Y-118608000D02*
X161529000Y-119217500D01*
X171105000Y-115763000D02*
X168768000Y-117338000D01*
X167041000Y-119014500D02*
X168768000Y-117338000D01*
X171308000Y-115509000D02*
X171308000Y-115217000D01*
X166482000Y-119217500D02*
X167041000Y-119014500D01*
X161529000Y-119217500D02*
X166482000Y-119217500D01*
%TO.N,FP1_ELEC*%
D44*
X124623000Y-113629500D02*
X127772500Y-113629500D01*
D43*
X127772500Y-113629500D02*
X128204000Y-113629500D01*
D44*
X123556000Y-115204500D02*
X124623000Y-115204500D01*
X124623000Y-115204500D02*
X124623000Y-113629500D01*
%TO.N,FP2_ELEC*%
X123556000Y-112664500D02*
X124623000Y-112664500D01*
X124623000Y-112664500D02*
X124623000Y-110632500D01*
D43*
X127772500Y-110632500D02*
X128204000Y-110632500D01*
D44*
X124623000Y-110632500D02*
X127772500Y-110632500D01*
%TO.N,CH3_ELEC*%
X125537000Y-110124500D02*
X125537000Y-107635000D01*
X125537000Y-107635000D02*
X127772500Y-107635000D01*
D43*
X127772500Y-107635000D02*
X128204000Y-107635000D01*
D44*
X123556000Y-110124500D02*
X125537000Y-110124500D01*
%TO.N,ECGP_ELEC*%
X123556000Y-107584500D02*
X125080000Y-107584500D01*
X125080000Y-104638000D02*
X127772500Y-104638000D01*
D43*
X127772500Y-104638000D02*
X128204000Y-104638000D01*
D44*
X125080000Y-107584500D02*
X125080000Y-104638000D01*
%TO.N,ECGN_ELEC*%
X124623000Y-105044500D02*
X124623000Y-103139500D01*
X124623000Y-103139500D02*
X127772500Y-103139500D01*
D43*
X127772500Y-103139500D02*
X128204000Y-103139500D01*
D44*
X123556000Y-105044500D02*
X124623000Y-105044500D01*
%TO.N,CH5_ELEC*%
X124623000Y-101641000D02*
X127772500Y-101641000D01*
X123556000Y-102504500D02*
X124623000Y-102504500D01*
D43*
X127772500Y-101641000D02*
X128204000Y-101641000D01*
D44*
X124623000Y-102504500D02*
X124623000Y-101641000D01*
%TO.N,CH6_ELEC*%
X123556000Y-99964500D02*
X124623000Y-99964500D01*
X124623000Y-99964500D02*
X124623000Y-98643500D01*
D43*
X127772500Y-98643500D02*
X128204000Y-98643500D01*
D44*
X124623000Y-98643500D02*
X127772500Y-98643500D01*
%TO.N,CH7_ELEC*%
X124623000Y-97424500D02*
X124623000Y-95646500D01*
X123556000Y-97424500D02*
X124623000Y-97424500D01*
D43*
X127772500Y-95646500D02*
X128204000Y-95646500D01*
D44*
X124623000Y-95646500D02*
X127772500Y-95646500D01*
%TO.N,A1_ELEC*%
X125080000Y-89804500D02*
X125080000Y-87264500D01*
X125080000Y-87264500D02*
X127772500Y-87264500D01*
X123556000Y-89804500D02*
X125080000Y-89804500D01*
%TO.N,CHASSIS_GND*%
D47*
X180249000Y-107025500D02*
X180537000Y-106662500D01*
X180537000Y-106662500D02*
X180541000Y-106657500D01*
D44*
X180537000Y-106662500D02*
X180541000Y-106662500D01*
D47*
X180537000Y-115313500D02*
X180541000Y-115318500D01*
D44*
X180537000Y-115313500D02*
X180541000Y-115313500D01*
D47*
X180249000Y-114950500D02*
X180537000Y-115313500D01*
%TO.N,V_NLDO_IN*%
D43*
X149565500Y-119243000D02*
X149769000Y-119014500D01*
D46*
X153050000Y-117912000D02*
X153050000Y-118862000D01*
D43*
X149769000Y-119014500D02*
X150175000Y-118862000D01*
X150175000Y-118862000D02*
X152613500Y-118862000D01*
X148448000Y-119878000D02*
X149565500Y-119878000D01*
X149565500Y-119878000D02*
X149565500Y-119243000D01*
D45*
X141031000Y-122672000D02*
X141031000Y-122519500D01*
X150480000Y-122621000D02*
X149616500Y-120335000D01*
X149616500Y-120335000D02*
X149565500Y-119878000D01*
D43*
X148448000Y-119281000D02*
X148448000Y-119878000D01*
D45*
X150480000Y-122773500D02*
X150480000Y-122621000D01*
%TO.N,STATUS_LED_DRV*%
D43*
X176540500Y-89906000D02*
X176794500Y-89703000D01*
X168653500Y-89906000D02*
X176540500Y-89906000D01*
X168653500Y-89398000D02*
X168653500Y-89906000D01*
%TO.N,TPS_NR*%
D45*
X155103000Y-114595000D02*
X156169500Y-114595000D01*
D43*
X150454500Y-117897000D02*
X150454500Y-116169500D01*
X152004000Y-115255000D02*
X154798000Y-114493000D01*
D45*
X155052000Y-114544000D02*
X155103000Y-114595000D01*
D43*
X154798000Y-114493000D02*
X155052000Y-114544000D01*
X155052000Y-114544000D02*
X155052000Y-114366000D01*
X150454500Y-116169500D02*
X152004000Y-115255000D01*
D45*
X156576000Y-114620000D02*
X156576000Y-114709000D01*
X156169500Y-114595000D02*
X156423500Y-114671000D01*
X156423500Y-114671000D02*
X156576000Y-114709000D01*
%TO.N,USB_CC1*%
D43*
X176388000Y-112232500D02*
X177048500Y-112232500D01*
X177658000Y-111648500D02*
X178166000Y-111140500D01*
X178166000Y-111140500D02*
X178166000Y-110213500D01*
X175931000Y-112232500D02*
X176388000Y-112232500D01*
X177658000Y-111648500D02*
X178318500Y-111140500D01*
X176388000Y-112232500D02*
X175791000Y-112237500D01*
X177048500Y-112232500D02*
X177658000Y-111648500D01*
%TO.N,USB_CC2*%
X173797000Y-109565500D02*
X172883000Y-109565500D01*
X172883000Y-109565500D02*
X172590500Y-109769000D01*
X174711500Y-109235500D02*
X173797000Y-109565500D01*
X175651500Y-109235500D02*
X174711500Y-109235500D01*
X172590500Y-109769000D02*
X172590500Y-109972000D01*
%TO.N,ESP_IO2*%
X173962500Y-91811000D02*
X174622500Y-91811000D01*
%TO.N,ESP_IO0*%
X172463500Y-87518500D02*
X172463500Y-87264500D01*
X174610000Y-86342500D02*
X174610000Y-87264500D01*
X174610000Y-87264500D02*
X174864000Y-87518500D01*
X164996000Y-109464000D02*
X165202000Y-109464000D01*
X172463500Y-87264500D02*
X174610000Y-87264500D01*
%TO.N,SPI_MISO*%
X167891500Y-85740500D02*
X167889000Y-84826000D01*
X164843500Y-89271000D02*
X164843500Y-88839000D01*
X164843500Y-89271000D02*
X164846000Y-88527000D01*
X167891500Y-85105500D02*
X167891500Y-85435500D01*
%TO.N,ESP_RXD*%
X178674000Y-103368000D02*
X179182000Y-103571000D01*
D45*
X172476500Y-102758500D02*
X172629000Y-102606000D01*
D43*
X175423000Y-103368000D02*
X178674000Y-103368000D01*
D45*
X172629000Y-91176000D02*
X175016500Y-91074500D01*
D43*
X158989000Y-117719000D02*
X158989000Y-117924500D01*
D45*
X175423000Y-103368000D02*
X175219500Y-103165000D01*
D43*
X161046500Y-102758500D02*
X172476500Y-102758500D01*
D45*
X175219500Y-91277500D02*
X175219500Y-103165000D01*
X175016500Y-91074500D02*
X175219500Y-91277500D01*
X172629000Y-102606000D02*
X172629000Y-91176000D01*
D43*
X161033500Y-89144000D02*
X161033500Y-102758500D01*
%TO.N,ESP_TXD*%
X160259000Y-119421000D02*
X160259000Y-117922000D01*
X178877000Y-105451000D02*
X178826500Y-105654000D01*
X175473500Y-103774500D02*
X178623000Y-103774500D01*
X175473500Y-104333000D02*
X175473500Y-103774500D01*
X159763500Y-103876000D02*
X160208000Y-104333000D01*
X179080500Y-104231500D02*
X179080500Y-105298500D01*
X159763500Y-89144000D02*
X159763500Y-103876000D01*
X160208000Y-104333000D02*
X175473500Y-104333000D01*
X178623000Y-103774500D02*
X179080500Y-104231500D01*
X179080500Y-105298500D02*
X178877000Y-105451000D01*
%TO.N,SPI_MOSI*%
X155052000Y-106771500D02*
X155052000Y-87061000D01*
X157223500Y-87061000D02*
X157223500Y-87772500D01*
X155052000Y-110937000D02*
X155052000Y-109108500D01*
X154239000Y-110937000D02*
X155052000Y-110937000D01*
X155052000Y-87061000D02*
X157223500Y-87061000D01*
X155204500Y-106924000D02*
X155052000Y-106771500D01*
X155052000Y-109108500D02*
X155204500Y-108956000D01*
X155204500Y-108956000D02*
X155204500Y-106924000D01*
X154239000Y-109959500D02*
X154239000Y-110937000D01*
%TD*%
%TA.AperFunction,Conductor*%
%TO.N,CHASSIS_GND*%
G36*
X181144694Y-104402306D02*
G01*
X181163000Y-104446500D01*
X181163000Y-105527110D01*
X181144694Y-105571304D01*
X181100500Y-105589610D01*
X181090723Y-105588841D01*
X180927573Y-105563000D01*
X180791000Y-105563000D01*
X180791000Y-106363000D01*
X180291000Y-106363000D01*
X180291000Y-105563000D01*
X180154430Y-105563000D01*
X180154416Y-105563001D01*
X179983416Y-105590085D01*
X179818745Y-105643590D01*
X179818743Y-105643591D01*
X179664471Y-105722198D01*
X179524395Y-105823968D01*
X179401968Y-105946395D01*
X179300198Y-106086471D01*
X179221591Y-106240743D01*
X179221590Y-106240745D01*
X179168086Y-106405414D01*
X179168085Y-106405418D01*
X179166885Y-106412999D01*
X179166886Y-106413000D01*
X180074012Y-106413000D01*
X180056795Y-106422940D01*
X180000940Y-106478795D01*
X179961444Y-106547204D01*
X179941000Y-106623504D01*
X179941000Y-106702496D01*
X179961444Y-106778796D01*
X180000940Y-106847205D01*
X180056795Y-106903060D01*
X180074012Y-106913000D01*
X179166885Y-106913000D01*
X179168085Y-106920581D01*
X179168086Y-106920585D01*
X179221590Y-107085254D01*
X179221591Y-107085256D01*
X179300198Y-107239528D01*
X179401968Y-107379604D01*
X179524395Y-107502031D01*
X179664471Y-107603801D01*
X179818743Y-107682408D01*
X179818745Y-107682409D01*
X179983417Y-107735914D01*
X179983416Y-107735914D01*
X180154416Y-107762998D01*
X180154430Y-107763000D01*
X180291000Y-107763000D01*
X180291000Y-106963000D01*
X180791000Y-106963000D01*
X180791000Y-107763000D01*
X180927570Y-107763000D01*
X180927583Y-107762998D01*
X181090722Y-107737159D01*
X181137236Y-107748325D01*
X181162230Y-107789111D01*
X181163000Y-107798889D01*
X181163000Y-114177110D01*
X181144694Y-114221304D01*
X181100500Y-114239610D01*
X181090723Y-114238841D01*
X180927573Y-114213000D01*
X180791000Y-114213000D01*
X180791000Y-115013000D01*
X180291000Y-115013000D01*
X180291000Y-114213000D01*
X180154430Y-114213000D01*
X180154416Y-114213001D01*
X179983416Y-114240085D01*
X179818745Y-114293590D01*
X179818743Y-114293591D01*
X179664471Y-114372198D01*
X179524395Y-114473968D01*
X179401968Y-114596395D01*
X179300198Y-114736471D01*
X179221591Y-114890743D01*
X179221590Y-114890745D01*
X179168086Y-115055414D01*
X179168085Y-115055418D01*
X179166885Y-115062999D01*
X179166886Y-115063000D01*
X180074012Y-115063000D01*
X180056795Y-115072940D01*
X180000940Y-115128795D01*
X179961444Y-115197204D01*
X179941000Y-115273504D01*
X179941000Y-115352496D01*
X179961444Y-115428796D01*
X180000940Y-115497205D01*
X180056795Y-115553060D01*
X180074012Y-115563000D01*
X179166885Y-115563000D01*
X179168085Y-115570581D01*
X179168086Y-115570585D01*
X179221590Y-115735254D01*
X179221591Y-115735256D01*
X179300198Y-115889528D01*
X179401968Y-116029604D01*
X179524395Y-116152031D01*
X179664471Y-116253801D01*
X179818743Y-116332408D01*
X179818745Y-116332409D01*
X179983417Y-116385914D01*
X179983416Y-116385914D01*
X180154416Y-116412998D01*
X180154430Y-116413000D01*
X180291000Y-116413000D01*
X180291000Y-115613000D01*
X180791000Y-115613000D01*
X180791000Y-116413000D01*
X180927570Y-116413000D01*
X180927583Y-116412998D01*
X181090722Y-116387159D01*
X181137236Y-116398325D01*
X181162230Y-116439111D01*
X181163000Y-116448889D01*
X181163000Y-116640500D01*
X181144694Y-116684694D01*
X181100500Y-116703000D01*
X175250369Y-116703000D01*
X175206175Y-116684694D01*
X175187869Y-116640500D01*
X175192627Y-116616582D01*
X175193387Y-116614746D01*
X175194750Y-116611456D01*
X175194750Y-116608248D01*
X175196955Y-116591794D01*
X175197797Y-116588708D01*
X175195248Y-116568642D01*
X175194750Y-116560767D01*
X175194750Y-116227534D01*
X175213056Y-116183340D01*
X175257250Y-116165034D01*
X175291973Y-116175567D01*
X175393636Y-116243496D01*
X175393640Y-116243499D01*
X175584724Y-116322649D01*
X175584727Y-116322650D01*
X175787583Y-116362999D01*
X175787584Y-116363000D01*
X176091000Y-116363000D01*
X176091000Y-115613000D01*
X176591000Y-115613000D01*
X176591000Y-116363000D01*
X176894416Y-116363000D01*
X176894416Y-116362999D01*
X177097272Y-116322650D01*
X177097275Y-116322649D01*
X177288359Y-116243499D01*
X177288364Y-116243496D01*
X177460335Y-116128589D01*
X177460337Y-116128587D01*
X177472973Y-116115951D01*
X178114750Y-116115951D01*
X178114750Y-116223048D01*
X178114751Y-116223056D01*
X178142468Y-116326499D01*
X178142469Y-116326502D01*
X178196018Y-116419249D01*
X178196023Y-116419255D01*
X178271744Y-116494976D01*
X178271750Y-116494981D01*
X178364497Y-116548530D01*
X178364500Y-116548531D01*
X178467950Y-116576250D01*
X178467951Y-116576250D01*
X178575049Y-116576250D01*
X178575050Y-116576250D01*
X178678500Y-116548531D01*
X178771250Y-116494981D01*
X178846981Y-116419250D01*
X178900531Y-116326500D01*
X178928250Y-116223050D01*
X178928250Y-116115950D01*
X178900531Y-116012500D01*
X178900530Y-116012497D01*
X178846981Y-115919750D01*
X178846976Y-115919744D01*
X178771255Y-115844023D01*
X178771249Y-115844018D01*
X178678502Y-115790469D01*
X178678499Y-115790468D01*
X178575056Y-115762751D01*
X178575051Y-115762750D01*
X178575050Y-115762750D01*
X178467950Y-115762750D01*
X178467949Y-115762750D01*
X178467943Y-115762751D01*
X178364500Y-115790468D01*
X178364497Y-115790469D01*
X178271750Y-115844018D01*
X178271744Y-115844023D01*
X178196023Y-115919744D01*
X178196018Y-115919750D01*
X178142469Y-116012497D01*
X178142468Y-116012500D01*
X178114751Y-116115943D01*
X178114750Y-116115951D01*
X177472973Y-116115951D01*
X177521265Y-116067660D01*
X177606587Y-115982337D01*
X177606589Y-115982335D01*
X177721496Y-115810364D01*
X177721499Y-115810359D01*
X177800649Y-115619275D01*
X177800650Y-115619272D01*
X177811843Y-115563000D01*
X176957988Y-115563000D01*
X176975205Y-115553060D01*
X177031060Y-115497205D01*
X177070556Y-115428796D01*
X177091000Y-115352496D01*
X177091000Y-115273504D01*
X177070556Y-115197204D01*
X177031060Y-115128795D01*
X176975205Y-115072940D01*
X176957988Y-115063000D01*
X177811843Y-115063000D01*
X177811843Y-115062999D01*
X177800650Y-115006727D01*
X177800649Y-115006724D01*
X177721499Y-114815640D01*
X177721496Y-114815635D01*
X177606589Y-114643664D01*
X177460335Y-114497410D01*
X177288364Y-114382503D01*
X177288359Y-114382501D01*
X177266335Y-114373378D01*
X177232511Y-114339554D01*
X177232511Y-114291718D01*
X177246056Y-114271444D01*
X177301594Y-114215907D01*
X177374070Y-114090375D01*
X177411587Y-113950361D01*
X177411587Y-113805409D01*
X177374070Y-113665395D01*
X177301594Y-113539863D01*
X177301592Y-113539861D01*
X177301589Y-113539857D01*
X177199102Y-113437370D01*
X177199093Y-113437363D01*
X177097048Y-113378447D01*
X177067928Y-113340497D01*
X177074172Y-113293071D01*
X177084100Y-113280130D01*
X177145481Y-113218750D01*
X177199031Y-113126000D01*
X177226750Y-113022550D01*
X177226750Y-112915450D01*
X177199031Y-112812000D01*
X177199030Y-112811997D01*
X177145481Y-112719250D01*
X177145476Y-112719244D01*
X177069755Y-112643523D01*
X177069749Y-112643518D01*
X176977002Y-112589969D01*
X176976999Y-112589968D01*
X176873556Y-112562251D01*
X176873551Y-112562250D01*
X176873550Y-112562250D01*
X176766450Y-112562250D01*
X176766449Y-112562250D01*
X176766443Y-112562251D01*
X176663000Y-112589968D01*
X176662997Y-112589969D01*
X176570250Y-112643518D01*
X176570244Y-112643523D01*
X176549693Y-112664075D01*
X176505499Y-112682381D01*
X176461305Y-112664075D01*
X176442999Y-112619881D01*
X176442999Y-112577959D01*
X176442999Y-112577956D01*
X176437082Y-112548202D01*
X176427072Y-112533221D01*
X176417741Y-112486307D01*
X176444317Y-112446533D01*
X176479040Y-112436000D01*
X177045624Y-112436000D01*
X177046959Y-112436014D01*
X177048217Y-112436040D01*
X177084622Y-112436819D01*
X177084623Y-112436818D01*
X177084838Y-112436823D01*
X177086094Y-112436573D01*
X177087448Y-112436319D01*
X177088770Y-112436085D01*
X177088975Y-112436000D01*
X177088979Y-112436000D01*
X177123896Y-112421536D01*
X177124883Y-112421140D01*
X177160062Y-112407442D01*
X177160063Y-112407440D01*
X177160263Y-112407363D01*
X177161405Y-112406601D01*
X177162526Y-112405869D01*
X177163621Y-112405170D01*
X177163770Y-112405020D01*
X177163774Y-112405019D01*
X177190484Y-112378307D01*
X177191298Y-112377511D01*
X177765412Y-111827418D01*
X177772826Y-111821465D01*
X177773271Y-111821019D01*
X177773273Y-111821019D01*
X177789671Y-111804619D01*
X177795763Y-111799271D01*
X177800857Y-111795353D01*
X178474651Y-111277130D01*
X178515051Y-111206973D01*
X178525527Y-111126698D01*
X178504486Y-111048522D01*
X178504485Y-111048520D01*
X178455130Y-110984349D01*
X178455129Y-110984348D01*
X178400811Y-110953069D01*
X178371648Y-110915151D01*
X178369500Y-110898907D01*
X178369500Y-110785249D01*
X178387806Y-110741055D01*
X178432000Y-110722749D01*
X178608041Y-110722749D01*
X178608044Y-110722749D01*
X178637798Y-110716832D01*
X178671538Y-110694288D01*
X178694082Y-110660548D01*
X178700000Y-110630795D01*
X178699999Y-109804206D01*
X178694082Y-109774452D01*
X178671538Y-109740712D01*
X178637798Y-109718168D01*
X178637796Y-109718167D01*
X178615431Y-109713719D01*
X178608045Y-109712250D01*
X178608044Y-109712250D01*
X177723959Y-109712250D01*
X177723958Y-109712250D01*
X177723956Y-109712251D01*
X177694202Y-109718168D01*
X177694201Y-109718168D01*
X177660462Y-109740712D01*
X177637918Y-109774451D01*
X177637917Y-109774453D01*
X177632000Y-109804204D01*
X177632000Y-110630790D01*
X177632001Y-110630794D01*
X177637918Y-110660548D01*
X177660462Y-110694288D01*
X177694202Y-110716832D01*
X177723955Y-110722750D01*
X177900000Y-110722749D01*
X177944194Y-110741055D01*
X177962500Y-110785249D01*
X177962500Y-111030319D01*
X177944194Y-111074513D01*
X177526327Y-111492379D01*
X177520238Y-111497726D01*
X177501848Y-111511870D01*
X177500639Y-111513970D01*
X177489722Y-111527900D01*
X177228724Y-111777979D01*
X176985849Y-112010694D01*
X176984874Y-112011628D01*
X176941634Y-112029000D01*
X176733238Y-112029000D01*
X176689044Y-112010694D01*
X176670738Y-111966500D01*
X176689044Y-111922306D01*
X176701511Y-111913975D01*
X176701154Y-111913440D01*
X176706268Y-111910021D01*
X176706274Y-111910019D01*
X176763519Y-111852774D01*
X176794500Y-111777979D01*
X176794500Y-110693521D01*
X176763519Y-110618726D01*
X176706274Y-110561481D01*
X176631479Y-110530500D01*
X176631478Y-110530500D01*
X176485388Y-110530500D01*
X176441194Y-110512194D01*
X176422888Y-110468000D01*
X176433420Y-110433278D01*
X176437082Y-110427798D01*
X176443000Y-110398045D01*
X176442999Y-110077956D01*
X176437082Y-110048202D01*
X176420056Y-110022721D01*
X176410725Y-109975807D01*
X176420055Y-109953279D01*
X176437082Y-109927798D01*
X176443000Y-109898045D01*
X176442999Y-109577956D01*
X176437082Y-109548202D01*
X176420056Y-109522721D01*
X176410725Y-109475807D01*
X176420055Y-109453279D01*
X176437082Y-109427798D01*
X176443000Y-109398045D01*
X176442999Y-109077956D01*
X176437082Y-109048202D01*
X176414538Y-109014462D01*
X176414536Y-109014461D01*
X176411705Y-109010223D01*
X176402373Y-108963307D01*
X176411705Y-108940777D01*
X176414536Y-108936538D01*
X176414538Y-108936538D01*
X176437082Y-108902798D01*
X176443000Y-108873045D01*
X176442999Y-108600413D01*
X176461305Y-108556220D01*
X176505499Y-108537914D01*
X176536747Y-108546286D01*
X176648585Y-108610856D01*
X176788599Y-108648373D01*
X176788601Y-108648373D01*
X176933549Y-108648373D01*
X176933551Y-108648373D01*
X177073565Y-108610856D01*
X177199097Y-108538380D01*
X177301594Y-108435883D01*
X177374070Y-108310351D01*
X177411587Y-108170337D01*
X177411587Y-108025385D01*
X177374070Y-107885371D01*
X177301594Y-107759839D01*
X177301592Y-107759837D01*
X177301589Y-107759833D01*
X177246239Y-107704483D01*
X177227933Y-107660289D01*
X177246239Y-107616095D01*
X177266515Y-107602547D01*
X177288362Y-107593497D01*
X177288364Y-107593496D01*
X177460335Y-107478589D01*
X177606589Y-107332335D01*
X177671768Y-107234788D01*
X177711542Y-107208212D01*
X177758458Y-107217544D01*
X177785034Y-107257318D01*
X177784105Y-107285687D01*
X177759251Y-107378443D01*
X177759250Y-107378451D01*
X177759250Y-107485548D01*
X177759251Y-107485556D01*
X177786968Y-107588999D01*
X177786969Y-107589002D01*
X177828128Y-107660289D01*
X177840519Y-107681750D01*
X177916250Y-107757481D01*
X177931249Y-107766140D01*
X177960370Y-107804088D01*
X177962500Y-107820267D01*
X177962500Y-108142750D01*
X177944194Y-108186944D01*
X177900000Y-108205250D01*
X177723959Y-108205250D01*
X177723958Y-108205250D01*
X177723956Y-108205251D01*
X177694202Y-108211168D01*
X177694201Y-108211168D01*
X177660462Y-108233712D01*
X177637918Y-108267451D01*
X177637917Y-108267453D01*
X177632000Y-108297204D01*
X177632000Y-109123790D01*
X177632001Y-109123794D01*
X177637918Y-109153548D01*
X177660462Y-109187288D01*
X177694202Y-109209832D01*
X177723955Y-109215750D01*
X178608044Y-109215749D01*
X178637798Y-109209832D01*
X178671538Y-109187288D01*
X178694082Y-109153548D01*
X178700000Y-109123795D01*
X178699999Y-108297206D01*
X178694082Y-108267452D01*
X178671538Y-108233712D01*
X178637798Y-108211168D01*
X178637796Y-108211167D01*
X178608045Y-108205250D01*
X178432000Y-108205250D01*
X178387806Y-108186944D01*
X178369500Y-108142750D01*
X178369500Y-107820267D01*
X178387806Y-107776073D01*
X178400746Y-107766142D01*
X178415750Y-107757481D01*
X178491481Y-107681750D01*
X178545031Y-107589000D01*
X178572750Y-107485550D01*
X178572750Y-107378450D01*
X178545031Y-107275000D01*
X178545030Y-107274997D01*
X178491481Y-107182250D01*
X178491476Y-107182244D01*
X178415755Y-107106523D01*
X178415749Y-107106518D01*
X178323002Y-107052969D01*
X178322999Y-107052968D01*
X178219556Y-107025251D01*
X178219551Y-107025250D01*
X178219550Y-107025250D01*
X178112450Y-107025250D01*
X178112449Y-107025250D01*
X178112443Y-107025251D01*
X178009000Y-107052968D01*
X178008997Y-107052969D01*
X177916250Y-107106518D01*
X177916244Y-107106523D01*
X177844039Y-107178728D01*
X177799845Y-107197034D01*
X177755651Y-107178728D01*
X177737345Y-107134534D01*
X177742103Y-107110616D01*
X177800649Y-106969275D01*
X177800650Y-106969272D01*
X177811843Y-106913000D01*
X176957988Y-106913000D01*
X176975205Y-106903060D01*
X177031060Y-106847205D01*
X177070556Y-106778796D01*
X177091000Y-106702496D01*
X177091000Y-106623504D01*
X177070556Y-106547204D01*
X177031060Y-106478795D01*
X176975205Y-106422940D01*
X176957988Y-106413000D01*
X177811843Y-106413000D01*
X177811843Y-106412999D01*
X177800650Y-106356727D01*
X177800649Y-106356724D01*
X177721499Y-106165640D01*
X177721496Y-106165635D01*
X177606589Y-105993664D01*
X177537928Y-105925003D01*
X177519622Y-105880809D01*
X177534396Y-105840455D01*
X177538519Y-105835579D01*
X177542041Y-105831751D01*
X177576517Y-105797276D01*
X177576517Y-105797275D01*
X177576519Y-105797274D01*
X177578171Y-105793284D01*
X177582873Y-105785570D01*
X177582541Y-105785386D01*
X177585519Y-105780003D01*
X177585523Y-105780000D01*
X177590968Y-105762956D01*
X177592755Y-105758073D01*
X177607500Y-105722479D01*
X177607500Y-105720965D01*
X177609752Y-105706515D01*
X177610162Y-105702889D01*
X177610165Y-105702883D01*
X177607717Y-105673602D01*
X177607500Y-105668395D01*
X177607500Y-105471499D01*
X177625806Y-105427305D01*
X177670000Y-105408999D01*
X177680041Y-105408999D01*
X177680044Y-105408999D01*
X177709798Y-105403082D01*
X177743538Y-105380538D01*
X177766082Y-105346798D01*
X177772000Y-105317045D01*
X177771999Y-104690618D01*
X177790305Y-104646425D01*
X177834499Y-104628119D01*
X177878693Y-104646425D01*
X177916247Y-104683979D01*
X177916249Y-104683980D01*
X177916250Y-104683981D01*
X177954751Y-104706210D01*
X177983870Y-104744158D01*
X177986000Y-104760335D01*
X177986000Y-105317040D01*
X177986001Y-105317044D01*
X177991918Y-105346798D01*
X178014462Y-105380538D01*
X178048202Y-105403082D01*
X178077955Y-105409000D01*
X178390382Y-105408999D01*
X178434576Y-105427305D01*
X178452882Y-105471499D01*
X178448126Y-105495412D01*
X178447469Y-105496997D01*
X178419751Y-105600443D01*
X178419750Y-105600451D01*
X178419750Y-105707548D01*
X178419751Y-105707556D01*
X178447468Y-105810999D01*
X178447469Y-105811002D01*
X178501018Y-105903749D01*
X178501023Y-105903755D01*
X178576744Y-105979476D01*
X178576750Y-105979481D01*
X178669497Y-106033030D01*
X178669500Y-106033031D01*
X178772950Y-106060750D01*
X178772951Y-106060750D01*
X178880049Y-106060750D01*
X178880050Y-106060750D01*
X178983500Y-106033031D01*
X179076250Y-105979481D01*
X179151981Y-105903750D01*
X179205531Y-105811000D01*
X179233250Y-105707550D01*
X179233250Y-105600450D01*
X179208017Y-105506277D01*
X179214260Y-105458851D01*
X179230908Y-105440085D01*
X179234929Y-105437073D01*
X179238495Y-105431054D01*
X179248072Y-105418720D01*
X179253019Y-105413774D01*
X179261256Y-105393886D01*
X179265232Y-105385939D01*
X179268433Y-105380538D01*
X179276203Y-105367428D01*
X179277196Y-105360492D01*
X179281319Y-105345450D01*
X179284000Y-105338979D01*
X179284000Y-105317455D01*
X179284632Y-105308591D01*
X179287684Y-105287289D01*
X179286883Y-105284156D01*
X179285949Y-105280503D01*
X179284000Y-105265018D01*
X179284000Y-104446500D01*
X179302306Y-104402306D01*
X179346500Y-104384000D01*
X181100500Y-104384000D01*
X181144694Y-104402306D01*
G37*
%TD.AperFunction*%
%TA.AperFunction,Conductor*%
G36*
X175503074Y-104554806D02*
G01*
X175521380Y-104599000D01*
X175503074Y-104643194D01*
X175453023Y-104693244D01*
X175453018Y-104693250D01*
X175399469Y-104785997D01*
X175399468Y-104786000D01*
X175371751Y-104889443D01*
X175371750Y-104889451D01*
X175371750Y-104996548D01*
X175371751Y-104996556D01*
X175399468Y-105099999D01*
X175399469Y-105100002D01*
X175453018Y-105192749D01*
X175453023Y-105192755D01*
X175528744Y-105268476D01*
X175528750Y-105268481D01*
X175621497Y-105322030D01*
X175621500Y-105322031D01*
X175724950Y-105349750D01*
X175724951Y-105349750D01*
X175832049Y-105349750D01*
X175832050Y-105349750D01*
X175935500Y-105322031D01*
X175995852Y-105287185D01*
X176043278Y-105280941D01*
X176081229Y-105310061D01*
X176088402Y-105329119D01*
X176091918Y-105346798D01*
X176114462Y-105380538D01*
X176148202Y-105403082D01*
X176177955Y-105409000D01*
X176488968Y-105408999D01*
X176533162Y-105427305D01*
X176551468Y-105471499D01*
X176543094Y-105502749D01*
X176516971Y-105547994D01*
X176516968Y-105548000D01*
X176489251Y-105651443D01*
X176489250Y-105651451D01*
X176489250Y-105758548D01*
X176489251Y-105758556D01*
X176516968Y-105861999D01*
X176516969Y-105862002D01*
X176553344Y-105925003D01*
X176570519Y-105954750D01*
X176572690Y-105956921D01*
X176591000Y-106001113D01*
X176591000Y-106363000D01*
X176091000Y-106363000D01*
X176091000Y-105613000D01*
X175787584Y-105613000D01*
X175584727Y-105653349D01*
X175584724Y-105653350D01*
X175393640Y-105732500D01*
X175393635Y-105732503D01*
X175221664Y-105847410D01*
X175075410Y-105993664D01*
X174978467Y-106138751D01*
X174938693Y-106165327D01*
X174891777Y-106155995D01*
X174865201Y-106116221D01*
X174864000Y-106104028D01*
X174864000Y-104599000D01*
X174882306Y-104554806D01*
X174926500Y-104536500D01*
X175458880Y-104536500D01*
X175503074Y-104554806D01*
G37*
%TD.AperFunction*%
%TD*%
M02*
