M48
; DRILL file KiCad 10.0.5 date 2026-08-29T11:51:47
; FORMAT={-:-/ absolute / metric / decimal}
; #@! TF.CreationDate,2026-08-29T11:51:47+08:00
; #@! TF.GenerationSoftware,Kicad,Pcbnew,10.0.5
; #@! TF.FileFunction,Plated,1,4,PTH
FMAT,2
METRIC
; #@! TA.AperFunction,Plated,PTH,ViaDrill
T1C0.305
; #@! TA.AperFunction,Plated,PTH,ViaDrill
T2C0.305
; #@! TA.AperFunction,Plated,PTH,ComponentDrill
T3C0.600
; #@! TA.AperFunction,Plated,PTH,ComponentDrill
T4C1.050
%
G90
G05
T1
X141.885Y-90.414
X144.118Y-95.19
X146.912Y-97.564
X150.302Y-114.341
X151.204Y-100.221
X151.75Y-116.527
X172.647Y-114.408
X174.879Y-114.173
X176.594Y-112.268
X179.433Y-123.402
T2
X126.604Y-91.15
X126.604Y-94.148
X126.604Y-97.145
X126.604Y-100.142
X126.604Y-106.136
X126.604Y-109.134
X126.604Y-112.131
X130.16Y-89.144
X130.49Y-87.721
X133.525Y-91.15
X133.525Y-94.148
X133.525Y-97.145
X133.525Y-100.142
X133.525Y-103.139
X133.525Y-106.136
X133.525Y-109.134
X133.525Y-112.131
X134.922Y-91.15
X134.922Y-92.649
X134.922Y-94.148
X134.922Y-95.646
X134.922Y-97.145
X134.922Y-98.643
X134.922Y-100.142
X134.922Y-101.641
X134.922Y-103.139
X134.922Y-104.638
X134.922Y-106.136
X134.922Y-107.635
X134.922Y-109.134
X134.922Y-110.632
X134.922Y-112.131
X134.922Y-113.629
X136.256Y-91.15
X136.256Y-94.148
X136.256Y-97.145
X136.256Y-100.142
X136.256Y-103.139
X136.256Y-106.136
X136.256Y-109.134
X136.256Y-112.131
X139.101Y-118.608
X139.101Y-120.64
X139.101Y-122.926
X140.015Y-111.242
X140.015Y-119.624
X140.282Y-110.48
X140.523Y-92.281
X140.523Y-93.119
X140.625Y-113.528
X140.828Y-111.394
X141.031Y-122.672
X141.209Y-91.303
X141.272Y-110.48
X141.272Y-112.766
X141.793Y-97.78
X141.996Y-92.129
X141.996Y-92.98
X142.161Y-110.48
X142.161Y-112.766
X142.352Y-114.489
X142.657Y-108.981
X143.152Y-110.48
X143.152Y-112.766
X143.165Y-95.138
X143.292Y-111.343
X143.419Y-109.769
X143.431Y-92.7
X143.825Y-122.57
X143.919Y-109.184
X144.079Y-113.782
X144.105Y-91.735
X144.13Y-114.861
X144.13Y-116.881
X144.435Y-123.408
X144.689Y-108.956
X144.912Y-95.087
X145.031Y-112.766
X145.095Y-109.617
X145.349Y-85.435
X145.654Y-91.557
X145.705Y-113.782
X145.921Y-112.766
X145.997Y-92.7
X146.162Y-85.233
X146.162Y-86.803
X146.263Y-112.055
X146.356Y-118.862
X146.411Y-95.087
X146.467Y-122.469
X146.467Y-123.231
X146.67Y-113.985
X146.67Y-115.251
X146.911Y-109.007
X146.911Y-110.48
X146.911Y-112.766
X147.411Y-95.087
X147.686Y-88.483
X147.686Y-114.442
X147.909Y-109.007
X148.041Y-82.641
X148.245Y-85.08
X148.283Y-92.7
X148.372Y-114.595
X148.422Y-115.992
X148.448Y-117.791
X148.791Y-110.48
X148.855Y-122.215
X148.867Y-112.766
X148.905Y-88.788
X148.918Y-95.266
X148.956Y-120.957
X149.21Y-115.217
X149.21Y-116.919
X149.617Y-91.684
X149.718Y-88.483
X149.781Y-95.266
X149.909Y-109.007
X150.175Y-123.459
X150.353Y-104.346
X150.48Y-122.773
X150.81Y-114.341
X150.886Y-88.483
X150.886Y-94.198
X151.191Y-85.689
X151.28Y-110.48
X151.496Y-113.782
X151.597Y-85.029
X151.75Y-121.974
X151.75Y-123.739
X151.94Y-112.766
X152.334Y-85.486
X152.576Y-112.766
X152.715Y-119.624
X152.817Y-101.844
X152.817Y-105.959
X153.223Y-103.571
X153.274Y-109.057
X153.375Y-106.771
X153.427Y-104.689
X153.719Y-112.766
X154.036Y-116.068
X154.341Y-103.266
X154.595Y-118.709
X154.696Y-111.496
X155.56Y-121.602
X155.56Y-123.434
X155.611Y-89.957
X155.611Y-106.111
X155.661Y-113.972
X155.661Y-115.712
X155.763Y-111.153
X155.763Y-112.855
X156.068Y-119.932
X156.195Y-107.876
X156.195Y-109.019
X156.576Y-113.274
X157.058Y-117.922
X157.16Y-111.064
X157.224Y-107.305
X157.846Y-83.302
X157.846Y-110.365
X158.43Y-113.045
X158.989Y-117.719
X159.116Y-110.035
X159.929Y-111.09
X160.259Y-119.421
X160.894Y-116.068
X161.402Y-120.132
X162.799Y-116.169
X163.028Y-109.769
X164.069Y-116.169
X164.45Y-97.018
X164.45Y-98.237
X164.844Y-89.271
X164.958Y-120.078
X164.996Y-109.464
X165.618Y-97.018
X165.618Y-98.237
X166.113Y-89.271
X166.99Y-120.386
X166.99Y-122.062
X167.383Y-89.271
X167.891Y-85.74
X168.006Y-111.191
X168.006Y-115.763
X168.006Y-117.135
X170.622Y-119.624
X171.194Y-106.924
X171.308Y-110.061
X171.308Y-111.496
X171.308Y-112.817
X171.701Y-85.74
X171.74Y-104.943
X172.463Y-106.797
X172.578Y-103.495
X172.832Y-86.147
X172.933Y-112.105
X173.441Y-108.041
X173.695Y-111.191
X174.203Y-110.378
X174.356Y-101.971
X174.61Y-83.048
X174.61Y-84.686
X174.661Y-103.241
X174.762Y-111.14
X174.762Y-112.105
X174.864Y-87.62
X174.864Y-117.338
X175.778Y-104.943
X175.791Y-107.787
X175.88Y-102.555
X176.134Y-95.439
X176.134Y-96.929
X176.134Y-98.605
X176.134Y-100.371
X176.273Y-91.811
X176.273Y-93.081
X176.566Y-117.795
X176.82Y-112.969
X176.896Y-105.705
X176.998Y-99.558
X177.01Y-87.62
X177.912Y-97.983
X178.166Y-104.358
X178.356Y-101.742
X178.522Y-116.169
X178.522Y-117.846
X178.826Y-105.654
X179.182Y-103.571
X179.741Y-105.4
T4
X123.556Y-87.264
X123.556Y-89.804
X123.556Y-92.344
X123.556Y-94.885
X123.556Y-97.424
X123.556Y-99.965
X123.556Y-102.504
X123.556Y-105.044
X123.556Y-107.584
X123.556Y-110.124
X123.556Y-112.664
X123.556Y-115.204
T3
X175.891Y-106.663G85X176.791Y-106.663
G05
X175.891Y-115.313G85X176.791Y-115.313
G05
X180.241Y-106.663G85X180.841Y-106.663
G05
X180.241Y-115.313G85X180.841Y-115.313
G05
M30
